<svg width="299" height="380" viewBox="0 0 299 380" fill="none" xmlns="http://www.w3.org/2000/svg">
<path d="M156.453 53.7207C146.27 61.2207 135.05 67.354 124.69 74.578C126.175 71.1514 127.117 67.534 127.702 63.8327C127.885 63.946 128.117 64.002 128.395 63.97C139.158 62.686 148.809 57.6847 155.862 49.5234C156.123 50.8914 156.329 52.2874 156.453 53.7207ZM160.022 65.5367C163.518 72.342 167.351 78.826 169.611 86.1887C173.743 99.6474 170.066 114.541 161.035 125.118C160.687 124.747 160.123 124.554 159.562 124.867C155.355 127.215 151.83 130.321 148.945 133.935C148.801 133.926 148.646 133.943 148.482 133.999C147.934 134.189 147.383 134.403 146.833 134.631C155.041 124.523 161.825 113.163 162.63 99.8314C163.038 93.0754 161.215 86.9474 158.494 80.8434C155.295 73.6714 150.786 63.482 157.533 56.9994C157.577 59.9314 158.607 62.782 160.022 65.5367ZM215.581 116.658C215.409 116.659 215.237 116.671 215.065 116.682C196.635 110.126 175.579 114.686 161.499 128.263C161.475 128.155 161.451 128.046 161.427 127.938C161.575 127.878 161.718 127.781 161.849 127.639C166.253 122.818 169.462 117.165 171.391 111.098C171.466 111.074 171.542 111.045 171.618 111.005C186.209 103.321 203.573 105.806 215.581 116.658ZM201.799 143.129C198.617 153.95 194.35 167.665 181.713 170.406C181.499 170.453 181.327 170.547 181.185 170.666C179.463 169.091 177.591 167.695 175.582 166.513C185.465 164.15 189.99 154.138 193.314 145.305C195.693 138.982 198.481 133.405 202.806 128.161C205.821 124.505 209.87 119.491 214.898 118.999C215.045 119.022 215.185 119.011 215.315 118.981C207.685 124.701 204.445 134.137 201.799 143.129ZM210.089 142.87C201.83 152.631 196.81 164.59 195.669 177.326C191.903 175.561 188.165 173.735 184.427 171.991C197.285 167.809 200.437 154.929 204.342 142.538C206.265 142.582 208.179 142.706 210.089 142.87ZM212.753 143.13C215.014 143.387 217.265 143.715 219.498 144.131C211.009 154.662 208.157 168.507 204.734 181.354C202.426 180.406 200.135 179.389 197.857 178.342C198.887 165.382 203.95 153.301 212.53 143.506C212.638 143.383 212.706 143.257 212.753 143.13ZM230.678 146.91C227.613 149.374 224.111 158.287 223.379 159.946C219.83 167.99 217.857 176.698 217.225 185.447C214.803 184.893 212.418 184.237 210.094 183.418C209.009 183.035 207.929 182.633 206.853 182.213C210.334 169.223 213.091 155.102 222.038 144.639C224.953 145.265 227.838 146.015 230.678 146.91ZM233.445 148.083L233.486 147.837C235.63 148.585 237.749 149.41 239.837 150.311C235.369 154.795 233.242 161.141 231.181 166.991C228.881 173.515 227.289 180.273 226.219 187.101C223.953 186.763 221.693 186.383 219.457 185.93C219.459 185.913 219.465 185.898 219.466 185.879C219.959 178.994 221.309 172.293 223.549 165.759C224.178 163.921 230.317 150.685 231.666 148.789C232.283 149.191 233.289 149.03 233.445 148.083ZM241.951 151.263C244.961 152.649 247.907 154.185 250.77 155.882C242.369 165.135 239.926 176.623 238.271 188.753C235.041 188.286 231.758 187.882 228.475 187.425C229.447 181.247 230.877 175.193 232.811 169.243C234.787 163.162 237.053 156.249 241.682 151.67C241.814 151.539 241.901 151.402 241.951 151.263ZM254.693 158.321C256.353 159.417 257.963 160.579 259.539 161.787C252.075 169.413 251.359 180.395 249.731 190.469C249.727 190.502 249.729 190.533 249.726 190.566C246.646 190.082 243.578 189.565 240.523 189.093C242.138 177.27 244.443 166.089 252.751 157.087C253.401 157.494 254.053 157.898 254.693 158.321ZM266.939 167.927C261.551 174.782 260.07 183.243 258.859 191.663C258.483 191.243 257.833 191.289 257.385 191.622C255.577 191.411 253.77 191.169 251.966 190.901C251.969 190.885 251.975 190.871 251.978 190.855C253.546 181.149 254.131 170.55 261.337 163.199C263.242 164.726 265.103 166.311 266.939 167.927ZM293.139 187.727C289.026 189.202 284.823 190.307 280.549 191.07C280.931 188.011 281.999 185.17 283.779 182.61C286.673 184.786 289.769 186.673 293.139 187.727ZM288.967 194.637C288.362 193.751 287.757 192.866 287.15 191.982C289.675 191.31 292.17 190.519 294.617 189.609C292.817 191.39 290.926 193.054 288.967 194.637ZM285.199 193.165C285.857 194.126 286.514 195.087 287.173 196.049C286.022 196.931 284.854 197.791 283.669 198.629C283.579 198.549 283.477 198.475 283.345 198.419C281.067 197.443 279.314 195.903 278.045 193.835C280.379 193.509 282.699 193.065 284.995 192.523C284.993 192.73 285.051 192.949 285.199 193.165ZM270.33 192.218C270.969 186.43 272.899 181.071 276.209 176.257C276.213 176.25 276.214 176.245 276.218 176.238C276.333 176.339 276.446 176.442 276.561 176.542C278.298 178.073 280.101 179.682 281.987 181.21C279.85 184.285 278.562 187.722 278.234 191.45C275.625 191.835 272.99 192.095 270.33 192.218ZM275.773 194.453C277.093 196.922 279.089 198.838 281.554 200.09C279.85 201.246 278.121 202.371 276.378 203.477C272.529 201.638 269.747 198.563 268.314 194.517C268.981 194.518 269.647 194.518 270.314 194.499C272.099 194.453 273.882 194.318 275.658 194.131C275.681 194.238 275.715 194.346 275.773 194.453ZM261.11 192.015C262.254 184.055 263.563 175.943 268.647 169.442C270.613 171.197 272.562 172.97 274.519 174.725C274.502 174.749 274.482 174.765 274.465 174.79C270.854 180.047 268.667 185.873 268.034 192.223C268.033 192.245 268.035 192.262 268.034 192.282C265.725 192.305 263.417 192.202 261.11 192.015ZM271.643 206.431C271.125 206.753 270.606 207.07 270.086 207.385C265.17 204.153 261.657 199.569 259.722 194.09C261.837 194.29 263.955 194.422 266.082 194.482C266.029 194.678 266.029 194.899 266.113 195.141C267.559 199.346 270.349 202.722 274.13 204.889C273.302 205.405 272.473 205.919 271.643 206.431ZM267.95 208.643C265.306 210.166 262.599 211.549 259.71 212.591C254.585 206.921 251.022 200.163 249.246 192.747C251.905 193.151 254.566 193.527 257.234 193.831C259.123 199.921 262.821 204.951 267.95 208.643ZM248.47 214.738C248.418 214.662 248.357 214.587 248.281 214.518C241.578 208.399 237.897 200.021 237.777 191.007C238.849 191.153 239.917 191.301 240.971 191.462C242.93 191.761 244.89 192.073 246.849 192.379C248.614 200.238 252.138 207.265 257.367 213.346C254.482 214.137 251.474 214.506 248.47 214.738ZM243.87 215.03C240.29 215.231 236.869 215.25 233.55 214.966C233.533 214.705 233.399 214.446 233.105 214.241C225.899 209.234 225.589 197.546 225.557 189.394C228.877 189.883 232.213 190.283 235.503 190.707C235.489 199.866 239.058 208.459 245.445 214.942C244.918 214.971 244.391 215.001 243.87 215.03ZM238.701 218.255C240.599 219.906 242.471 221.598 244.31 223.33C241.274 223.206 238.335 223.925 235.399 225.051C231.398 226.586 226.703 228.721 224.055 232.187C222.126 230.041 220.146 227.939 218.133 225.87C218.142 225.777 218.141 225.683 218.125 225.593C219.865 223.603 223.859 222.01 225.897 221.045C228.853 219.646 232.025 218.718 235.222 218.074C235.638 217.991 235.913 217.737 236.063 217.427C236.809 217.451 237.557 217.467 238.31 217.469C238.318 217.743 238.433 218.023 238.701 218.255ZM254.938 234.439C251.122 233.774 247.359 234.269 243.571 235.343C239.706 236.438 234.606 238.129 231.558 240.982C229.621 238.583 227.631 236.227 225.594 233.913C225.601 233.903 225.609 233.898 225.615 233.889C228.035 230.547 232.449 228.758 236.165 227.197C239.626 225.743 243.235 225.123 246.923 225.977C246.979 225.99 247.031 225.991 247.083 225.998C249.822 228.702 252.457 231.511 254.938 234.439ZM262.495 244.531C254.227 242.194 245.835 245.757 238.578 250.157C236.765 247.653 234.894 245.193 232.978 242.769C235.674 240.063 240.782 238.611 244.337 237.489C248.319 236.23 252.422 235.982 256.457 237.106C256.711 237.177 256.931 237.159 257.115 237.085C259.025 239.486 260.829 241.965 262.495 244.531ZM270.118 259.498C262.389 255.865 253.293 256.597 246.221 261.419C244.198 258.227 242.085 255.095 239.901 252.013C247.321 247.518 256.025 243.821 264.459 247.693C266.665 251.439 268.575 255.366 270.118 259.498ZM273.193 271.442C266.687 268.333 259.029 268.891 253.023 272.887C251.243 269.658 249.381 266.477 247.442 263.343C254.217 258.707 262.873 258.207 270.161 262.05C270.483 262.219 270.783 262.219 271.034 262.113C272.009 265.142 272.734 268.269 273.193 271.442ZM273.455 285.274C268.999 283.021 263.839 282.997 259.366 285.313C259.009 284.553 258.629 283.803 258.262 283.049C258.741 282.393 258.193 281.435 257.415 281.31C256.345 279.155 255.253 277.013 254.114 274.894C259.703 271.09 266.798 270.677 272.81 273.782C273.054 273.909 273.286 273.938 273.493 273.898C273.87 277.685 273.879 281.509 273.455 285.274ZM267.161 304.133C265.117 298.446 262.827 292.858 260.321 287.378C264.321 285.234 269.219 285.302 273.13 287.654C272.197 293.466 270.246 299.083 267.161 304.133ZM248.066 295.115C249.807 290.686 252.602 287.087 256.402 284.37C259.819 291.455 262.857 298.737 265.481 306.187C260.157 301.751 254.169 298.349 248.066 295.115ZM244.411 293.194C241.81 291.837 239.259 290.418 236.751 288.943C238.446 286.405 240.231 283.943 242.13 281.549C244.397 278.691 247.158 274.626 250.755 273.483C252.365 276.383 253.91 279.321 255.385 282.295C251.143 285.225 247.97 289.211 246.042 294.049C245.498 293.763 244.955 293.478 244.411 293.194ZM225.641 281.73C228.435 273.474 237.373 267.349 244.249 262.526C246.109 265.457 247.901 268.433 249.618 271.453C246.881 272.435 245.069 274.662 243.138 276.819C240.07 280.246 237.333 283.954 234.798 287.786C231.669 285.886 228.617 283.873 225.641 281.73ZM223.737 280.333C222.291 279.251 220.863 278.139 219.457 276.989C218.453 276.166 217.465 275.325 216.487 274.47C217.849 264.475 228.03 255.711 236.449 251.547C236.53 251.506 236.603 251.461 236.67 251.409C238.857 254.425 240.975 257.49 243.006 260.614C235.975 265.549 226.821 271.926 223.737 280.333ZM207.575 265.887C212.179 255.833 218.129 245.589 229.413 242.282C229.486 242.261 229.551 242.231 229.614 242.201C231.573 244.619 233.486 247.075 235.341 249.575C226.719 253.934 216.579 262.581 214.481 272.674C212.097 270.498 209.801 268.227 207.575 265.887ZM199.634 256.867C199.57 256.79 199.507 256.711 199.443 256.633C205.342 247.678 211.694 238.511 221.563 233.621C221.733 233.537 221.867 233.426 221.97 233.299C224.05 235.601 226.094 237.933 228.073 240.318C216.891 243.87 210.623 253.953 205.897 264.091C203.738 261.745 201.649 259.334 199.634 256.867ZM193.549 248.846C193.586 248.789 193.622 248.727 193.653 248.657C197.921 238.734 205.05 230.725 214.387 225.307C216.462 227.379 218.494 229.491 220.481 231.643C210.506 236.709 203.99 245.651 197.953 254.783C196.427 252.867 194.929 250.893 193.549 248.846ZM188.938 240.385C189.303 240.366 189.662 240.182 189.879 239.766C191.995 235.694 194.421 231.849 197.183 228.182C199.95 224.511 203.103 220.518 207.437 218.691C209.222 220.321 210.981 221.977 212.707 223.665C203.593 229.058 196.493 236.97 192.091 246.582C190.877 244.591 189.803 242.529 188.938 240.385ZM187.17 234.379C189.57 232.446 190.535 228.727 191.485 225.978C191.721 225.298 191.939 224.61 192.147 223.917C192.265 223.815 192.369 223.679 192.445 223.501C194.265 219.226 196.802 215.501 200.058 212.249C201.937 213.814 203.789 215.411 205.611 217.039C197.685 220.961 192.101 230.613 188.141 238.182C187.739 236.942 187.405 235.677 187.17 234.379ZM180.487 232.637C179.109 232.387 177.735 232.097 176.345 231.883C176.467 231.409 176.319 230.871 175.742 230.605C155.087 221.049 124.442 214.709 118.191 189.074C121.577 191.017 125.239 191.751 128.962 191.571C129.05 191.653 129.151 191.727 129.281 191.785C149.602 200.845 165.353 216.759 180.487 232.637ZM158.287 232.815C147.905 231.622 138.321 227.199 130.362 220.309C122.378 213.397 113.861 201.191 115.127 189.997C115.405 189.809 115.681 189.619 115.958 189.431C122.27 215.103 150.938 222.159 172.363 231.582C167.697 231.569 162.994 232.147 158.287 232.815ZM168.381 251.917C160.333 244.283 149.833 239.886 138.637 239.521C138.718 239.054 138.793 238.585 138.877 238.118C138.971 237.599 138.739 237.221 138.395 237.01C144.854 237.069 151.469 235.99 158.059 235.078C158.574 235.135 159.09 235.185 159.605 235.229C163.189 240.519 166.071 246.113 168.381 251.917ZM170.043 256.959C170.122 257.053 170.21 257.125 170.301 257.186C171.575 261.007 172.623 264.906 173.482 268.855C163.482 259.375 150.527 253.55 136.749 252.379C137.175 248.837 137.669 245.299 138.25 241.774C150.518 242.039 162.118 247.551 170.043 256.959ZM174.282 272.859C175.399 278.926 176.089 285.095 176.485 291.277C165.451 279.903 151.033 272.489 135.258 270.261C135.501 265.045 135.906 259.831 136.481 254.634C150.926 255.894 164.283 262.33 174.282 272.859ZM176.681 294.802C176.853 298.538 176.931 302.275 176.923 305.991C176.919 307.483 176.905 308.981 176.879 310.479C165.919 298.327 151.263 290.193 135.083 287.402C134.969 282.454 134.985 277.503 135.167 272.554C151.189 274.887 165.89 282.71 176.681 294.802ZM176.802 313.829C176.681 317.855 176.449 321.889 176.035 325.898C165.387 315.041 151.375 308.122 136.246 306.271C135.698 300.773 135.331 295.255 135.151 289.731C151.423 292.65 166.17 301.129 176.802 313.829ZM175.698 328.807C175.382 331.31 174.981 333.801 174.491 336.27C164.051 327.633 152.522 320.285 138.618 319.445C138.365 319.429 138.146 319.489 137.961 319.591C137.397 315.942 136.905 312.281 136.505 308.609C151.567 310.603 165.318 317.698 175.698 328.807ZM172.021 345.902C171.703 346.887 171.349 347.858 170.978 348.821C162.51 341.442 152.142 336.846 140.959 335.553C139.938 330.959 139.046 326.338 138.289 321.695C152.207 322.555 163.567 330.067 173.955 338.787C173.413 341.183 172.777 343.558 172.021 345.902ZM170.063 351.047C168.938 353.623 167.613 356.103 166.102 358.47C160.065 354.061 152.609 350.19 144.983 351.182C143.702 346.793 142.535 342.371 141.501 337.922C152.201 339.343 162.005 343.841 170.063 351.047ZM162.554 363.39C159.362 367.303 155.645 370.651 153.318 375.058C150.41 367.954 147.859 360.721 145.645 353.394C152.59 352.707 159.359 356.334 164.841 360.365C164.115 361.398 163.355 362.409 162.554 363.39ZM135.158 361.311C136.541 356.913 137.555 350.067 141.474 347.209C144.065 356.727 147.219 366.103 150.945 375.267C145.533 370.841 140.175 366.229 135.158 361.311ZM123.317 348.086C126.135 339.707 128.315 331.454 136.943 327.354C138.039 333.25 139.342 339.111 140.862 344.918C140.765 344.949 140.666 344.989 140.567 345.051C135.967 347.949 134.826 354.475 133.347 359.51C129.769 355.887 126.394 352.09 123.317 348.086ZM112.758 330.471C117.643 321.777 124.519 312.61 134.279 309.301C134.867 314.57 135.613 319.822 136.534 325.045C136.513 325.053 136.494 325.055 136.475 325.065C127.326 329.238 124.613 337.119 121.669 345.878C118.186 341.075 115.166 335.959 112.758 330.471ZM109.747 322.361C108.721 318.951 107.983 315.47 107.478 311.947C113.803 303.667 121.387 293.154 133.073 294.506C133.289 298.667 133.601 302.825 134.025 306.97C124.009 310.121 116.859 318.978 111.658 327.831C110.957 326.046 110.309 324.229 109.747 322.361ZM106.807 292.042C109.955 287.117 114.443 283.641 119.453 280.745C123.474 278.419 128.085 276.143 132.813 275.963C132.694 281.382 132.741 286.802 132.973 292.214C121.411 291.141 113.617 300.279 107.083 308.73C106.51 303.194 106.481 297.589 106.807 292.042ZM107.161 287.366C107.614 282.534 108.318 277.694 109.363 272.937C109.55 272.875 109.73 272.749 109.878 272.533C115.439 264.485 124.078 259.499 133.786 258.729C133.329 263.701 133.022 268.682 132.867 273.667C127.579 273.771 122.713 276.379 118.162 278.866C113.915 281.187 110.155 284.153 107.122 287.827C107.135 287.674 107.146 287.519 107.161 287.366ZM116.137 253.546C116.246 253.449 116.351 253.347 116.459 253.249C116.631 253.233 116.807 253.179 116.982 253.066C121.886 249.899 129.037 245.209 135.199 246.677C134.921 248.633 134.665 250.591 134.433 252.553C133.953 252.983 133.847 253.775 134.245 254.206C134.162 254.945 134.095 255.686 134.019 256.425C124.933 257.022 116.555 261.146 110.609 267.902C111.986 262.95 113.79 258.127 116.137 253.546ZM100.782 262.707C92.5033 268.43 82.774 273.639 72.5433 273.054C93.562 267.287 107.449 249.173 118.755 231.513C119.099 231.743 119.446 231.97 119.805 232.186C122.967 234.105 126.225 235.33 129.549 236.07C125.685 240.83 121.527 245.306 117.097 249.49C116.575 249.237 115.858 249.306 115.489 249.953C115.098 250.634 114.723 251.321 114.361 252.013C110.074 255.846 105.545 259.415 100.782 262.707ZM89.9713 281.438C87.994 278.593 85.562 276.179 82.6753 274.219C85.0473 273.586 87.374 272.733 89.6447 271.718C91.1167 274.803 90.7807 278.182 89.9713 281.438ZM85.4407 293.635C82.0447 286.133 75.8287 280.583 69.59 275.293C69.262 275.015 68.906 274.971 68.5913 275.067C68.6487 275.018 68.702 274.965 68.758 274.915C72.822 275.682 76.818 275.51 80.7007 274.694C80.5327 275.087 80.594 275.545 81.0687 275.863C84.2167 277.974 86.7807 280.593 88.8073 283.797C88.9193 283.973 89.054 284.094 89.1993 284.175C89.1847 284.218 89.1727 284.262 89.1593 284.305C88.1673 287.507 86.8913 290.614 85.4407 293.635ZM84.09 296.333C83.85 296.791 83.61 297.249 83.3633 297.703C82.0087 300.202 80.4887 302.607 78.8353 304.915C76.7327 295.198 69.6233 287.777 61.4007 282.455C63.41 280.102 65.538 277.863 67.8193 275.777C67.646 276.181 67.6887 276.667 68.1233 277.037C74.5753 282.509 81.0793 288.218 84.09 296.333ZM77.0047 307.355C74.9353 310.001 72.6887 312.511 70.286 314.859C67.43 305.942 62.474 296.563 54.2247 291.833C56.054 289.215 57.95 286.662 59.946 284.206C68.158 289.521 75.4753 296.979 76.914 307.042C76.93 307.158 76.9633 307.259 77.0047 307.355ZM68.4407 316.601C66.6927 318.202 64.8767 319.729 63.0007 321.169C62.3833 321.642 61.7513 322.095 61.118 322.546C61.0687 313.426 56.4233 305.107 48.5807 300.245C50.018 298.046 51.4647 295.854 52.942 293.69C52.9807 293.718 53.0153 293.749 53.0607 293.773C61.158 298.303 65.8127 307.958 68.4407 316.601ZM58.814 324.113C56.9433 325.331 55.0207 326.467 53.0433 327.499C53.2647 325.202 52.466 323.081 51.3007 320.865C49.074 316.633 46.058 312.571 42.6833 309.174C44.262 306.85 45.8073 304.49 47.3513 302.126C47.378 302.145 47.3993 302.165 47.4273 302.183C55.0033 306.789 59.3967 315.274 58.814 324.113ZM50.49 328.662C50.4753 328.702 50.47 328.742 50.458 328.782C47.8287 330.022 45.1233 331.103 42.362 332.023C41.7087 326.982 39.198 322.517 35.19 319.349C35.9993 318.361 36.7913 317.355 37.5687 316.334C38.6473 316.703 39.7433 315.35 38.8887 314.57C39.7313 313.422 40.5553 312.254 41.3713 311.078C43.7727 313.549 45.714 316.317 47.594 319.202C49.3873 321.954 51.766 325.214 50.49 328.662ZM30.486 334.946C31.2607 331.874 30.814 328.639 29.1487 325.962C29.998 325.137 30.834 324.295 31.642 323.426C32.266 323.381 32.794 322.79 32.7607 322.194C33.086 321.831 33.394 321.451 33.7113 321.082C37.3993 324.001 39.6487 328.037 40.1473 332.722C36.9807 333.67 33.7513 334.417 30.486 334.946ZM28.0513 335.313C23.8553 335.857 19.6153 336.054 15.394 335.902C19.9127 333.645 23.8607 330.807 27.4273 327.579C28.6673 329.841 28.9873 332.505 28.1127 335.029C28.0793 335.126 28.0607 335.221 28.0513 335.313ZM16.7993 325.767C19.0193 326.239 21.082 327.121 22.9553 328.447C20.1473 330.63 17.1087 332.567 13.758 334.166C15.0487 331.451 16.022 328.639 16.7993 325.767ZM18.41 318.39C22.5113 318.739 26.3047 320.043 29.694 322.347C29.066 323.002 28.422 323.641 27.7673 324.269C26.8073 323.745 25.47 324.786 26.1753 325.751C25.6993 326.179 25.218 326.602 24.7287 327.014C24.658 326.907 24.5647 326.805 24.4367 326.713C22.2767 325.181 19.9167 324.115 17.358 323.557C17.7593 321.85 18.1073 320.127 18.41 318.39ZM19.6873 309.813C21.4847 310.133 23.65 309.807 25.2967 310.159C29.058 310.962 32.5673 313.083 35.7967 315.211C34.342 317.094 32.8327 318.918 31.2553 320.667C27.5287 318.074 23.3273 316.529 18.7833 316.146C19.114 314.045 19.402 311.93 19.6873 309.813ZM21.214 299.523C21.3273 299.549 21.4487 299.561 21.586 299.549C29.206 298.805 36.454 301.107 42.2527 306.109C42.262 306.117 42.2713 306.121 42.282 306.129C40.6193 308.607 38.9233 311.046 37.162 313.413C34.6287 311.778 32.0407 310.265 29.254 309.074C27.75 308.43 26.1593 308.015 24.5647 307.675C23.7433 307.499 21.382 307.665 20.0047 307.47C20.366 304.81 20.742 302.154 21.214 299.523ZM23.7593 289.23C32.554 289.386 40.73 292.663 47.2687 298.537C46.03 300.435 44.7953 302.337 43.5473 304.225C37.4047 299.001 29.6753 296.545 21.6447 297.259C22.198 294.539 22.8727 291.854 23.7593 289.23ZM28.5167 278.602C38.0873 278.445 47.138 281.727 54.422 287.945C52.394 290.77 50.45 293.681 48.5273 296.611C41.814 290.663 33.506 287.363 24.5847 286.99C25.702 284.103 27.0233 281.306 28.5167 278.602ZM35.338 268.177C45.2567 267.733 54.7847 271.687 61.4007 279.119C59.4247 281.343 57.5593 283.686 55.766 286.102C48.4233 279.879 39.3873 276.498 29.8247 276.326C31.5073 273.511 33.3553 270.79 35.338 268.177ZM39.222 263.349C40.2873 262.099 41.39 260.871 42.5247 259.67C51.9593 261.253 60.3113 265.779 66.834 272.795C66.87 272.834 66.91 272.862 66.9473 272.895C66.9153 272.941 66.8887 272.987 66.8567 273.033C66.674 273.283 66.6113 273.547 66.63 273.797C65.3487 274.966 64.1193 276.189 62.9273 277.453C56.218 270.118 47.014 265.965 37.138 265.87C37.822 265.019 38.5153 264.178 39.222 263.349ZM50.37 252.458C52.6433 252.897 54.9207 253.319 57.1807 253.815C60.8527 254.623 63.414 256.982 65.962 259.574C66.2407 259.858 66.55 259.931 66.834 259.874C68.4113 263.621 69.334 267.402 68.0607 270.803C61.6727 264.037 53.5113 259.534 44.4393 257.702C46.318 255.842 48.2913 254.077 50.37 252.458ZM60.6967 246.249C60.814 246.666 60.938 247.083 61.07 247.498C61.81 249.818 63.206 252.437 64.602 255.177C63.2433 254.035 61.7873 253.046 60.0767 252.318C57.8727 251.381 55.3713 250.974 52.9393 250.581C55.3807 248.901 57.9607 247.43 60.6967 246.249ZM62.7633 245.019C62.9287 244.561 62.7753 244.009 62.4233 243.691C61.4087 239.307 61.4953 234.855 63.9927 230.554C64.3687 229.907 64.0127 229.347 63.4793 229.119C66.702 227.886 69.71 226.033 72.61 223.901C66.7153 233.651 66.754 246.026 68.0167 257.593C67.8753 257.286 67.7393 256.977 67.5953 256.674C65.8393 252.983 63.8913 249.041 62.7633 245.019ZM56.3447 228.538C44.4647 229.149 32.6247 220.999 25.0407 212.609C19.9953 207.026 14.8633 199.243 13.242 191.253C20.686 200.777 29.258 209.397 40.4793 214.375C45.6047 216.649 51.118 217.701 56.702 217.797C63.01 217.905 69.3233 216.782 75.4487 218.733C74.7607 219.302 74.0753 219.874 73.3847 220.441C68.3607 224.559 63.0287 228.194 56.3447 228.538ZM46.1287 208.15C54.142 208.311 62.042 205.474 69.882 204.219C77.558 202.991 85.386 203.006 93.0873 203.971C91.242 205.49 89.4047 207.019 87.5753 208.557C84.1753 211.413 80.7887 214.286 77.3807 217.131C77.2713 217.005 77.1233 216.897 76.9193 216.826C72.194 215.181 67.4007 215.158 62.4553 215.355C55.9607 215.614 49.9593 215.377 43.758 213.225C35.27 210.279 28.2113 204.682 22.0967 198.178C28.7313 204.047 36.83 207.963 46.1287 208.15ZM108.643 219.235C110.409 223.415 113.177 227.201 116.929 230.177C105.562 247.914 91.6967 266.111 70.23 271.303C70.254 271.234 70.2687 271.165 70.29 271.095C70.366 271.065 70.442 271.025 70.5193 270.973C88.8247 258.639 102.27 240.313 108.643 219.235ZM70.8713 262.179C68.826 246.969 67.4327 228.725 80.718 217.97C81.0727 217.682 81.1913 217.301 81.1513 216.939C81.522 216.625 81.8927 216.311 82.2633 215.998C86.9113 212.091 91.5473 208.165 96.2487 204.325C96.57 204.247 96.8087 204.03 96.9473 203.757C101.115 200.363 105.337 197.039 109.67 193.862C109.533 194.127 109.409 194.397 109.281 194.665C109.182 194.722 109.086 194.79 108.995 194.885C90.9993 213.894 77.934 237.027 70.8713 262.179ZM107.307 200.095C105.953 205.349 106.026 210.873 107.503 215.995C107.29 216.139 107.118 216.355 107.034 216.659C101.405 237.003 88.9273 254.837 71.8967 267.202C78.1033 242.289 90.2873 219.259 107.307 200.095ZM137.126 236.981C136.885 237.125 136.697 237.371 136.631 237.733C136.493 238.501 136.367 239.273 136.235 240.042C136.169 240.199 136.141 240.374 136.147 240.553C135.93 241.839 135.742 243.131 135.546 244.421C131.477 243.438 127.111 244.794 123.094 246.806C126.246 243.538 129.243 240.125 132.067 236.582C132.079 236.567 132.086 236.553 132.097 236.538C133.759 236.786 135.438 236.923 137.126 236.981ZM151.139 233.831C142.718 234.959 134.326 235.559 126.126 232.753C109.701 227.131 103.958 207.134 112.734 193.038C113.091 203.371 120.273 213.658 127.222 220.506C133.802 226.99 142.187 231.586 151.139 233.831ZM18.618 191.331C23.0873 194.857 28.258 197.417 33.9353 198.902C41.7833 200.955 50.1087 199.913 57.87 198.05C74.778 193.991 91.054 184.331 108.971 186.854C109.267 186.895 109.515 186.831 109.717 186.707C110.869 187.21 112.041 187.61 113.217 187.855C113.161 187.959 113.113 188.074 113.087 188.21C113.055 188.377 113.033 188.546 113.006 188.713C106.979 192.89 101.186 197.378 95.498 202.001C88.6607 200.997 81.8033 200.766 74.9087 201.322C67.198 201.943 59.8007 204.21 52.1833 205.393C38.5513 207.51 27.0113 201.166 18.618 191.331ZM18.2047 188.017C28.5913 193.742 41.4327 192.103 52.614 188.63C67.9007 183.881 83.4033 175.367 99.782 180.327C99.8927 180.361 99.9953 180.373 100.093 180.374C101.613 181.629 103.363 183.005 105.258 184.249C91.286 183.605 78.014 189.438 64.8873 193.671C56.8447 196.265 48.5073 198.223 40.0047 197.585C31.8353 196.971 24.2113 193.425 18.2047 188.017ZM92.1287 172.826C93.422 174.39 94.894 175.845 96.3713 177.185C84.1407 174.93 71.9167 179.293 60.446 183.493C51.362 186.818 40.8233 190.231 30.998 189.463C35.9047 188.41 40.3313 185.799 44.562 182.942C57.8713 173.949 72.8513 164.335 89.55 170.145C89.7887 170.227 90.0127 170.23 90.2167 170.182C90.6487 170.873 91.1193 171.549 91.6327 172.203C91.6927 172.451 91.8513 172.674 92.1287 172.826ZM14.8127 181.261C18.7727 182.29 22.982 180.611 26.5767 178.69C32.3713 175.589 37.6193 171.629 43.146 168.091C49.2887 164.159 55.694 161.463 63.074 161.422C64.222 161.415 65.378 161.454 66.5367 161.518C66.554 161.535 66.5713 161.553 66.59 161.57C67.046 162.027 67.582 161.946 67.954 161.622C74.686 162.138 81.526 163.649 88.0087 165.143C88.054 165.178 88.0993 165.214 88.1447 165.249C88.3073 166.041 88.5593 166.814 88.8687 167.571C76.8007 164.043 64.634 167.766 53.974 173.934C47.3887 177.745 41.654 182.929 34.646 186.001C27.878 188.967 18.6527 188.29 14.8127 181.261ZM45.5527 124.154C47.3753 130.199 49.474 136.154 51.8593 142.013C53.426 145.865 55.022 149.49 57.7767 152.649C59.7887 154.957 62.0247 157.106 64.2353 159.254C59.5753 159.277 54.9793 159.93 50.5833 161.621C42.214 150.851 44.9967 137.297 45.5527 124.154ZM83.7167 161.833C78.43 160.666 72.9807 159.641 67.57 159.339C65.178 156.939 62.7833 154.543 60.3993 152.135C56.9847 148.682 55.2807 144.381 53.482 139.965C50.986 133.83 48.8673 127.546 47.042 121.181C54.61 137.953 69.1727 150.526 83.7167 161.833ZM47.0567 115.01C51.0767 120.707 57.022 125.533 61.9887 129.925C69.2007 136.303 77.0167 141.961 85.1807 147.051C83.6527 152.123 85.314 157.182 87.8847 162.181C71.2473 149.39 53.9967 135.251 47.0567 115.01ZM54.9033 120.153C51.994 117.251 48.9873 114.307 47.0327 110.675C53.774 114.846 61.6193 117.013 68.59 120.806C76.718 125.229 85.7607 131.699 89.0153 140.749C88.486 141.218 87.974 141.783 87.482 142.463C86.894 143.278 86.4127 144.091 86.014 144.906C78.474 140.187 71.326 134.925 64.562 129.143C61.2167 126.285 58.0193 123.258 54.9033 120.153ZM88.6313 108.438C88.6367 108.442 88.6433 108.446 88.65 108.45C90.6887 109.738 92.6047 111.315 94.3527 113.262C94.3607 113.271 94.3687 113.277 94.3767 113.283C93.4167 117.118 92.8833 121.057 92.75 125.026C87.7313 118.254 80.902 113.233 72.9247 110.327C63.7433 106.982 53.73 108.297 44.2407 106.229C58.5353 104.049 76.022 100.487 88.6313 108.438ZM49.3593 98.858C52.1553 97.5487 54.3393 95.33 56.4793 92.9914C60.206 88.9194 63.7327 84.7447 65.9807 79.6634C68.3487 79.6727 70.6993 79.9514 73.0527 80.5274C73.0447 80.5447 73.034 80.558 73.026 80.5767C70.19 87.2474 64.642 97.3394 56.8073 98.8887C56.0007 99.0487 55.7087 99.8447 55.8673 100.454C53.6727 100.005 51.502 99.4727 49.3593 98.858ZM45.7593 97.7434C42.61 96.6847 39.53 95.446 36.534 94.0354C43.9073 93.4274 49.286 88.082 54.158 82.674C54.5233 82.2687 54.5113 81.8114 54.302 81.4527C57.414 80.5554 60.4393 79.9634 63.4233 79.7487C61.6527 83.3567 59.2233 86.4607 56.5633 89.494C53.634 92.834 50.6633 96.5047 46.1513 97.5674C45.9927 97.6047 45.866 97.666 45.7593 97.7434ZM33.4513 92.5087C27.5687 89.446 22.0353 85.714 16.9807 81.3514C20.8073 83.11 24.8767 84.3167 29.1367 84.962C36.8633 86.1314 44.1113 84.446 51.422 82.302C46.9313 87.2194 41.734 92.2167 34.602 91.838C34.0527 91.81 33.654 92.1154 33.4513 92.5087ZM3.68199 64.5127C8.62732 67.9954 14.3247 70.0034 20.1887 71.542C19.0047 74.1687 17.1233 76.174 14.5887 77.5647C12.8473 76.5554 11.1753 75.4327 9.60066 74.194C9.52599 74.1354 9.45133 74.086 9.37533 74.0474C6.92999 71.1834 5.04065 67.9954 3.68199 64.5127ZM19.154 61.5874C19.398 61.538 19.6393 61.498 19.8833 61.4514C20.8167 63.878 21.1927 66.43 20.926 69.0407C20.914 69.1674 20.9247 69.2834 20.9447 69.3927C15.3007 67.9354 9.80999 66.038 5.03933 62.6874C9.71666 63.3474 14.4153 62.5474 19.154 61.5874ZM30.1673 60.1394C30.17 60.146 30.17 60.1514 30.174 60.158C31.8767 63.8194 32.258 67.766 31.2753 71.6847C31.266 71.718 31.266 71.7474 31.2607 71.7794C30.3167 71.5687 29.3727 71.358 28.4287 71.1474C26.6273 70.7447 24.8167 70.3407 23.014 69.9074C23.0953 69.7767 23.1527 69.6194 23.1727 69.4274C23.4647 66.558 23.1407 63.718 22.1647 61.0287C24.858 60.5727 27.51 60.266 30.1673 60.1394ZM40.9593 60.782C42.3807 64.9674 42.4567 69.3127 41.2473 73.562C41.202 73.722 41.194 73.8674 41.21 73.9994L33.45 72.2674C33.4767 72.2047 33.502 72.142 33.5207 72.07C34.526 68.062 34.194 63.8754 32.6033 60.0794C35.3527 60.0727 38.1247 60.294 40.9593 60.782ZM45.554 77.3234C48.246 77.9154 50.938 78.51 53.6273 79.1074C49.9407 80.1407 46.29 81.3594 42.5473 82.1794C43.7073 80.6634 44.7087 79.042 45.554 77.3234ZM28.162 82.066C27.9407 82.154 27.782 82.2874 27.666 82.442C23.9407 81.7434 20.3113 80.5194 16.9153 78.8234C19.3953 77.1927 21.282 74.89 22.434 72.1087C22.954 72.2354 23.4767 72.3594 23.998 72.482C27.41 73.2794 30.8273 74.0527 34.2473 74.818C33.5287 78.1367 31.3527 80.782 28.162 82.066ZM36.4847 75.318C38.7407 75.8207 40.9967 76.3167 43.254 76.814C42.17 78.9087 40.838 80.8287 39.234 82.598C39.1753 82.662 39.13 82.7274 39.09 82.7927C38.1767 82.9154 37.2593 83.0167 36.3287 83.0634C34.646 83.1487 32.962 83.1114 31.29 82.9634C33.9393 81.1967 35.786 78.5194 36.4847 75.318ZM48.3993 62.638C48.4007 62.6407 48.4007 62.6447 48.402 62.6474C50.1793 66.8767 50.4407 71.3714 49.2007 75.7834L46.0673 75.0834C45.7273 74.5327 44.914 74.29 44.3847 74.7087C43.9927 74.6207 43.602 74.534 43.21 74.446C43.334 74.3154 43.4353 74.1527 43.4927 73.9474C44.682 69.7714 44.654 65.4367 43.4927 61.2874C45.1567 61.6634 46.7913 62.118 48.3993 62.638ZM51.1953 63.6234C52.6673 64.1794 54.1153 64.7954 55.5447 65.454C55.3047 65.7914 55.2473 66.2447 55.566 66.6834C57.906 69.9207 56.6793 73.7634 55.3047 77.146C54.006 76.8567 52.7073 76.566 51.4087 76.2767C51.418 76.25 51.43 76.2287 51.438 76.2007C52.614 72.0447 52.5153 67.694 51.1953 63.6234ZM64.2593 70.162C64.1873 70.4354 64.2193 70.742 64.414 71.046C65.554 72.8234 65.5793 75.1887 64.378 76.9514C64.3167 77.0394 64.274 77.1314 64.2407 77.2207C63.7753 77.238 63.31 77.2527 62.8407 77.2914C60.9767 77.4407 59.1513 77.7607 57.3447 78.166C58.826 74.4807 59.998 70.3994 58.2487 66.7607C60.294 67.8047 62.294 68.9514 64.2593 70.162ZM77.5113 79.5714C74.1287 78.2207 70.538 77.39 66.786 77.222C67.5367 75.598 67.7127 73.8047 67.29 72.098C70.802 74.4274 74.202 76.9554 77.5113 79.5714ZM69.7207 101.159C69.6393 101.219 69.5727 101.285 69.514 101.354C67.142 101.317 64.742 101.406 62.3393 101.585C62.2367 101.537 62.1233 101.498 61.9913 101.481C60.6953 101.314 59.41 101.107 58.1287 100.881C66.3567 98.5247 71.9927 88.8314 75.0967 81.526C75.154 81.3927 75.178 81.2634 75.1873 81.138C76.6047 81.598 78.0247 82.158 79.454 82.8594C80.594 83.4167 81.6953 84.046 82.766 84.7234C82.2487 84.702 81.7033 84.9727 81.5393 85.61C79.818 92.2714 75.0887 97.1394 69.7207 101.159ZM90.71 91.3354C90.514 91.4794 90.3527 91.6847 90.2687 91.9647C88.8673 96.586 85.826 100.158 81.614 102.466C81.4113 102.577 81.2793 102.718 81.1953 102.873C78.5353 102.151 75.7793 101.717 72.9633 101.506C77.99 97.3927 82.114 92.4647 83.7847 85.9967C83.8473 85.7554 83.83 85.5487 83.7647 85.3714C86.2847 87.0847 88.6007 89.11 90.71 91.3354ZM95.2927 96.8967C95.1727 97.0767 95.1007 97.3007 95.106 97.566C95.1833 101.378 91.6513 103.743 89.0633 106.135C87.4153 105.174 85.7033 104.375 83.9353 103.737C87.9447 101.231 90.754 97.558 92.278 93.0727C93.3407 94.3034 94.346 95.5834 95.2927 96.8967ZM98.8433 101.469C97.3033 104.453 96.038 107.561 95.074 110.761C93.79 109.475 92.4367 108.358 91.0273 107.378C93.5127 105.026 96.2727 102.849 97.1127 99.59C97.4047 100.045 97.7007 100.499 97.9793 100.959C98.2033 101.33 98.5233 101.474 98.8433 101.469ZM108.183 146.293C105.686 144.481 102.794 142.231 99.8513 140.686C103.913 136.818 106.159 131.725 108.29 126.538C111.162 119.55 113.374 112.303 115.879 105.181C120.454 92.1674 126.565 78.9807 137.707 70.5474C121.725 92.1487 124.779 124.51 108.183 146.293ZM136.018 101.293C134.353 119.963 129.782 137.383 120.059 153.475C117.506 150.461 114.518 147.943 110.826 146.541C128.159 122.31 122.851 85.358 145.753 65.058C138.69 75.322 137.123 88.9034 136.018 101.293ZM147.203 99.166C147.481 116.325 140.609 131.345 131.654 145.597C131.498 145.846 131.461 146.082 131.501 146.29C128.13 150.443 125.675 155.221 124.961 160.145C124.009 158.438 122.809 156.839 121.591 155.327C130.459 140.987 135.755 125.067 137.627 108.326C139.361 92.826 139.439 74.4754 150.551 62.65C145.434 73.8474 147.007 86.9767 147.203 99.166ZM141.57 137.338C141.553 137.358 141.543 137.377 141.529 137.395C140.135 138.274 138.77 139.265 137.453 140.339C143.795 129.258 148.677 117.457 149.386 104.493C150.083 91.75 147.141 77.7194 151.707 65.666C151.813 74.61 158.707 84.7394 160.046 92.8887C162.829 109.825 152.079 125.285 141.57 137.338ZM126.387 172.665C133.458 163.319 135.526 150.514 143.827 142.205C141.866 146.299 140.467 150.703 139.626 155.209C138.321 162.195 138.067 169.329 134.087 175.481C130.535 180.971 124.547 184.571 118.186 185.714C118.043 185.662 117.889 185.653 117.73 185.667C121.798 182.087 125.093 177.71 126.387 172.665ZM109.801 181.95C112.019 182.857 114.799 183.455 117.251 183.026C116.549 183.694 115.835 184.326 115.121 184.903C114.822 185.146 114.694 185.455 114.685 185.763C112.206 185.47 109.707 184.297 107.386 182.851C108.234 182.661 109.041 182.349 109.801 181.95ZM105.105 178.209C106.031 177.635 106.521 176.698 106.925 175.698C107.542 175.753 108.183 175.703 108.827 175.571C108.655 176.063 108.789 176.625 109.431 176.85C110.146 177.099 110.859 177.27 111.563 177.369C110.066 179.698 107.411 181.073 104.585 180.814C104.523 180.809 104.467 180.813 104.41 180.815C103.615 180.229 102.855 179.641 102.147 179.086C103.169 179.03 104.149 178.801 105.105 178.209ZM98.1567 174.295C98.954 174.353 99.6887 174.282 100.453 174.054C101.083 173.866 101.469 173.098 101.966 172.775C102.145 172.791 102.311 172.765 102.462 172.705C102.966 172.873 103.451 172.97 103.869 172.97C104.506 172.969 105.113 172.854 105.698 172.666C105.413 173.253 105.174 173.862 104.934 174.495C104.082 176.75 102.523 176.979 100.337 176.758C100.007 176.725 99.734 176.819 99.522 176.979C98.4473 176.085 97.33 175.109 96.2513 174.046C96.8793 174.157 97.5113 174.249 98.1567 174.295ZM98.3607 168.966C98.5407 169.901 99.274 170.791 100.198 171.497C99.902 171.749 99.5727 171.967 99.1313 172.031C97.322 172.299 95.126 171.587 93.4353 170.913C92.35 169.515 91.4433 168.041 90.866 166.521C93.182 168.022 95.7633 168.849 98.3607 168.966ZM93.0313 140.961C95.4233 140.451 98.0007 142.287 99.8487 143.506C102.665 145.362 105.458 147.251 108.262 149.125C111.607 153.613 110.923 159.178 107.182 163.379C106.738 163.879 106.254 164.301 105.75 164.683C105.518 164.754 105.346 164.89 105.231 165.065C100.897 167.923 94.882 166.902 90.8247 163.663C90.9233 163.374 90.9153 163.043 90.7327 162.713C87.7113 157.249 85.0993 151.685 88.1727 145.638C88.6247 144.749 89.2113 143.795 89.93 142.97C90.6607 143.475 91.9927 142.75 91.6847 141.617C91.6753 141.582 91.662 141.549 91.6527 141.514C92.082 141.266 92.5367 141.066 93.0313 140.961ZM123.759 82.7514C120.795 87.4114 118.362 92.458 116.286 97.5967C113.457 104.603 111.25 111.85 108.726 118.969C106.195 126.102 103.557 134.593 97.6113 139.654C97.0927 139.459 96.5753 139.294 96.0607 139.169C96.182 138.937 96.2353 138.659 96.1673 138.35C95.8153 136.753 95.5447 135.158 95.3433 133.569C95.4087 133.467 95.466 133.357 95.502 133.223C100.651 114.317 110.409 96.9687 123.759 82.7514ZM114.555 151.698C115.091 153.591 114.113 155.177 112.686 156.249C112.797 153.777 112.234 151.275 110.954 149.071C112.177 149.642 113.37 150.371 114.517 151.214C114.498 151.363 114.507 151.526 114.555 151.698ZM119.334 155.87C118.875 156.099 118.566 156.587 118.814 157.206C119.825 159.747 118.559 162.694 115.97 163.638C115.949 163.646 115.931 163.658 115.91 163.667C115.745 163.454 115.565 163.243 115.357 163.041C116.681 161.119 117.154 158.766 116.094 156.546C116.022 156.393 115.926 156.271 115.819 156.173C116.423 155.294 116.827 154.305 116.923 153.221C117.713 153.961 118.457 154.757 119.163 155.585C119.201 155.69 119.261 155.783 119.334 155.87ZM127.386 166.641C124.683 155.254 135.254 143.047 145.489 137.777C135.727 144.983 133.238 157.026 127.418 167.007C127.425 166.891 127.417 166.769 127.386 166.641ZM116.619 168.787C116.969 167.769 117.091 166.726 116.879 165.723C119.795 164.583 121.602 161.618 121.434 158.602C122.294 159.919 123.017 161.283 123.597 162.646C123.054 162.834 122.63 163.374 122.877 164.073C124.078 167.483 119.423 169.053 116.619 168.787ZM118.721 175.622C120.509 174.331 121.891 172.41 122.582 169.998C122.631 169.829 122.639 169.673 122.619 169.534C123.567 168.897 124.351 168.089 124.829 167.139C124.967 168.562 124.841 169.963 124.538 171.334C124.381 171.539 124.226 171.747 124.063 171.949C123.703 172.395 123.754 172.89 123.999 173.261C123.989 173.289 123.982 173.317 123.973 173.345C123.666 173.403 123.374 173.577 123.177 173.909C122.249 175.462 120.385 176.005 118.721 175.622ZM114.119 177.457C114.13 177.435 114.134 177.415 114.142 177.394C114.853 177.313 115.542 177.154 116.205 176.927C116.294 177.038 116.406 177.139 116.55 177.221C118.199 178.167 120.101 178.254 121.778 177.669C121.601 177.941 121.414 178.206 121.226 178.471C120.807 178.222 120.279 178.242 119.929 178.778C118.214 181.395 114.822 181.206 112.041 180.342C112.881 179.534 113.591 178.569 114.119 177.457ZM106.547 169.651C105.487 170.517 104.322 170.947 102.973 170.455C102.785 170.387 101.198 169.393 100.714 168.878C102.666 168.638 104.585 167.985 106.359 166.893C107.383 166.845 108.47 166.743 109.538 166.531C108.655 167.673 107.675 168.733 106.547 169.651ZM119.897 170.771C118.311 174.225 114.542 175.986 110.811 174.905C112.655 174.051 114.378 172.605 115.533 170.923C116.85 171.27 118.411 171.191 119.897 170.771ZM109.743 163.979C110.933 162.534 111.777 160.877 112.25 159.127C112.951 158.79 113.602 158.375 114.193 157.905C115.355 161.161 112.685 163.07 109.743 163.979ZM112.674 166.027C112.815 165.807 112.873 165.581 112.871 165.361C113.205 165.171 113.523 164.958 113.825 164.721C116.975 167.815 111.537 172.939 107.871 173.398C108.013 173.129 108.167 172.87 108.349 172.637C108.731 172.139 108.63 171.587 108.319 171.207C110.107 169.782 111.565 167.739 112.674 166.027ZM74.482 121.731C66.622 116.475 57.1473 114.149 49.13 109.331C55.6753 110.091 62.2727 109.957 68.7433 111.445C78.4273 113.671 86.8793 120.089 92.2753 128.314C92.4073 128.515 92.5673 128.642 92.7393 128.721C92.8473 132.117 93.2513 135.521 93.978 138.887C92.9487 138.867 91.9447 139.057 90.978 139.483C88.0353 131.737 81.242 126.251 74.482 121.731ZM150.481 157.478C147.865 170.363 139.469 182.178 127.699 188.166C127.223 188.409 127.026 188.853 127.03 189.285C124.682 189.197 122.369 188.685 120.199 187.607C130.982 184.985 138.061 176.347 140.311 165.401C141.838 157.975 142.397 150.809 145.515 143.769C147.791 138.634 151.162 134.097 155.403 130.526C151.662 138.915 152.306 148.494 150.481 157.478ZM161.798 142.277C161.765 142.461 161.79 142.641 161.863 142.807C162.981 152.015 162.589 161.249 158.145 169.806C154.453 176.915 147.291 181.859 140.473 185.675C137.467 187.358 134.097 188.614 130.685 189.093C139.914 183.703 146.599 175.261 150.53 165.273C155.166 153.486 152.091 139.178 159.113 128.359C159.138 128.318 159.154 128.277 159.175 128.235C160.206 132.843 161.195 137.554 161.798 142.277ZM163.793 140.094C163.293 136.803 162.647 133.551 161.969 130.407C162.282 130.433 162.609 130.341 162.886 130.067C174.695 118.455 192.057 113.638 208.091 117.055C191.425 120.377 176.107 128.349 163.793 140.094ZM186.378 133.855C179.775 141.674 175.463 152.418 164.647 155.141C164.909 151.105 164.679 146.974 164.174 142.877C175.297 131.817 189.194 124.022 204.325 120.237C197.389 123.399 191.341 127.979 186.378 133.855ZM172.941 165.121C170.054 163.775 166.919 162.853 163.554 162.463C163.967 160.781 164.255 159.066 164.449 157.33C164.65 157.401 164.877 157.422 165.125 157.363C173.786 155.321 179.01 148.127 183.805 141.189C189.233 133.335 195.654 127.033 204.053 122.887C200.794 126.271 198.093 130.371 196.171 133.415C189.683 143.694 188.623 162.39 173.775 164.558C173.37 164.617 173.098 164.839 172.941 165.121ZM199.245 196.777C196.89 194.595 194.697 192.269 192.758 189.762C191.154 184.301 188.527 179.133 185.019 174.774C189.609 176.925 194.201 179.15 198.842 181.231C198.253 186.426 197.833 191.807 199.245 196.777ZM211.769 203.026C211.946 203.89 212.253 205.515 212.763 207.146C212.345 206.866 211.925 206.599 211.507 206.315C211.379 206.115 211.186 205.971 210.929 205.923C208.27 204.105 205.641 202.187 203.126 200.141C199.918 194.717 200.342 188.271 201.021 182.198C204.138 183.555 207.281 184.831 210.466 185.955C210.986 186.138 211.513 186.31 212.041 186.478C210.725 191.957 210.638 197.489 211.769 203.026ZM222.607 212.582C222.441 212.202 222.077 211.941 221.53 212.045C221.477 212.054 221.425 212.07 221.371 212.081C220.374 211.661 219.382 211.187 218.393 210.662C218.379 209.943 217.766 209.239 216.921 209.599C215.314 210.285 213.439 199.237 213.343 198.334C212.947 194.571 213.35 190.791 214.215 187.125C217.169 187.941 220.214 188.539 223.289 189.042C223.289 189.057 223.286 189.07 223.286 189.086C223.309 197.154 223.631 208.442 229.859 214.507C227.397 214.097 224.985 213.483 222.607 212.582ZM211.979 219.799C212.049 219.75 212.118 219.693 212.182 219.623C214.575 217.049 217.578 215.293 220.977 214.489C224.053 215.75 227.209 216.53 230.45 216.971C228.251 217.637 226.101 218.441 223.991 219.439C221.665 220.542 218.343 222.053 216.434 224.143C214.971 222.674 213.483 221.229 211.979 219.799ZM203.645 212.302C205.441 210.269 207.742 208.869 210.389 208.274C211.95 209.333 213.519 210.365 215.083 211.375C215.293 211.549 215.513 211.69 215.747 211.791C216.482 212.249 217.222 212.671 217.966 213.065C215.118 214.153 212.587 215.845 210.438 218.157C210.403 218.194 210.379 218.233 210.351 218.271C208.161 216.234 205.921 214.249 203.645 212.302ZM201.237 201.493C199.043 202.474 197.101 203.854 195.418 205.609C195.194 205.435 194.974 205.255 194.747 205.082C194.739 202.738 194.619 200.407 194.393 198.115C194.278 196.95 194.115 195.786 193.909 194.627C196.166 197.085 198.641 199.355 201.237 201.493ZM200.234 209.45C199.234 208.634 198.23 207.822 197.217 207.021C198.935 205.254 200.953 203.966 203.271 203.121C204.822 204.33 206.405 205.499 208.009 206.63C205.669 207.495 203.613 208.897 201.907 210.829C201.745 210.693 201.579 210.559 201.417 210.425C201.341 209.918 200.813 209.483 200.234 209.45ZM184.791 232.937C184.494 233.039 184.183 233.086 183.862 233.081C183.81 232.914 183.722 232.751 183.582 232.603C168.501 216.753 152.923 200.689 133.038 191.027C139.426 189.669 145.745 186.019 150.885 181.663C167.293 194.791 179.129 212.695 184.791 232.937ZM152.613 180.135C154.73 178.173 156.603 176.111 158.131 174.085C158.637 173.414 159.103 172.73 159.542 172.037C170.306 178.038 177.069 188.559 182.09 199.518C186.457 209.051 189.51 219.757 186.443 230.125C186.414 230.225 186.41 230.314 186.406 230.403C180.487 210.638 168.693 193.086 152.613 180.135ZM198.295 210.801C196.657 212.439 195.195 214.202 193.909 216.087C194.335 213.389 194.599 210.657 194.697 207.926C195.91 208.869 197.106 209.831 198.295 210.801ZM190.738 220.167C190.57 220.953 190.287 222.343 189.871 223.93C190.511 215.297 187.759 206.682 184.235 198.753C179.123 187.25 171.837 176.358 160.677 170.073C161.602 168.331 162.35 166.531 162.934 164.682C179.549 166.493 189.751 181.527 191.979 197.114C193.073 204.766 192.345 212.646 190.738 220.167ZM110.685 89.0607C116.45 82.9554 123.15 77.9887 130.151 73.3954C113.787 87.9327 101.663 106.495 94.9367 127.258C94.8833 113.086 100.67 99.67 110.685 89.0607ZM100.798 76.1394C106.315 78.2794 112.046 79.43 117.95 79.578C113.786 82.8767 109.846 86.4607 106.282 90.526C103.838 85.9394 102.015 81.106 100.798 76.1394ZM99.05 64.318C106.962 67.9714 115.443 70.574 124.218 69.1514C123.471 71.71 122.499 74.1927 121.214 76.546C121.093 76.7687 121.059 76.978 121.081 77.17C120.958 77.262 120.838 77.3567 120.714 77.4474C120.555 77.3674 120.37 77.3167 120.154 77.3207C113.23 77.462 106.579 76.1647 100.207 73.4594C99.606 70.4447 99.218 67.39 99.05 64.318ZM99.3073 53.7954C101.842 55.8247 105.954 56.706 108.711 57.446C114.374 58.966 120.417 58.9474 126.143 57.8394C125.93 60.8954 125.511 63.918 124.822 66.858C124.678 66.8167 124.514 66.806 124.329 66.838C115.418 68.378 106.929 65.55 98.9593 61.758C98.9193 59.106 99.0287 56.446 99.3073 53.7954ZM99.706 50.938C99.698 50.9194 99.686 50.9074 99.6767 50.89C99.9153 49.298 100.198 47.71 100.551 46.1327C100.713 45.4087 100.899 44.698 101.098 43.9914C108.029 47.878 118.381 53.138 126.309 49.7167C126.351 51.65 126.342 53.5927 126.267 55.53C126.205 55.5327 126.143 55.5354 126.075 55.5487C121.553 56.4367 117.078 56.554 112.511 55.9007C110.309 55.5847 108.151 54.9887 106.045 54.2834C104.349 53.7167 100.555 52.686 99.706 50.938ZM104.446 35.3154C111.114 38.4207 118.359 42.246 125.809 40.3954C125.981 42.6554 126.135 44.9674 126.231 47.302C126.125 47.326 126.017 47.3594 125.907 47.4154C118.757 51.202 108.098 45.33 101.783 41.7714C102.533 39.5554 103.439 37.4127 104.446 35.3154ZM108.582 27.606C108.603 27.6194 108.619 27.6367 108.643 27.6487C113.615 30.4687 119.171 31.374 124.735 30.45C125.09 32.986 125.369 35.5354 125.601 38.0927C118.637 40.0434 111.669 36.1847 105.461 33.2754C106.449 31.3607 107.498 29.4754 108.582 27.606ZM113.989 18.29C116.691 20.39 119.874 21.5767 123.295 21.8287C123.71 23.9447 124.066 26.0727 124.395 28.206C119.315 29.094 114.243 28.17 109.726 25.646C111.165 23.1994 112.619 20.762 113.989 18.29ZM119.409 6.16471C120.746 10.5714 121.879 15.0234 122.827 19.514C119.966 19.1967 117.341 18.0727 115.093 16.2487C116.802 13.0034 118.317 9.67537 119.409 6.16471ZM128.091 10.4234C128.051 10.546 128.025 10.678 128.029 10.826C128.07 13.1127 126.273 15.2767 124.667 17.1487C123.694 12.8527 122.554 8.59537 121.245 4.39403C123.485 6.38337 125.787 8.38737 128.091 10.4234ZM133.61 15.41C133.605 15.4247 133.595 15.4367 133.59 15.4514C132.095 19.5674 129.689 23.0261 126.358 25.7874C126.118 24.3674 125.855 22.9527 125.579 21.5394C125.947 21.0794 125.845 20.2807 125.345 19.8741C127.181 17.5741 129.507 15.154 130.133 12.2407C131.299 13.2847 132.461 14.3407 133.61 15.41ZM140.151 21.8607C138.667 23.91 137.097 25.8687 135.405 27.758C134.457 28.8167 133.435 29.8074 132.418 30.7967C131.419 31.766 129.418 33.9714 127.786 34.8394C127.729 34.8341 127.667 34.8341 127.603 34.8394C127.402 32.9967 127.159 31.1567 126.893 29.3207C126.897 29.1954 126.877 29.0674 126.839 28.942C126.811 28.7554 126.787 28.5674 126.759 28.3807C130.675 25.4274 133.593 21.63 135.385 17.0847C137.015 18.642 138.613 20.2314 140.151 21.8607ZM146.421 29.2434C144.147 32.302 141.542 34.9994 138.779 37.6207C135.746 40.4981 132.587 43.8314 128.33 44.5527C128.271 43.3967 128.207 42.2474 128.139 41.1087C128.062 39.83 127.958 38.554 127.842 37.278C130.173 36.666 132.413 33.8834 134.161 32.2634C136.986 29.6434 139.467 26.6807 141.729 23.5674C143.385 25.402 144.955 27.2927 146.421 29.2434ZM152.034 38.258C151.978 38.3047 151.923 38.3567 151.871 38.418C148.922 41.9887 145.569 45.0207 141.735 47.614C139.701 48.9927 137.503 50.1114 135.269 51.122C134.102 51.65 130.741 53.3807 129.021 53.1954C128.902 53.0207 128.731 52.89 128.533 52.81C128.547 50.8087 128.507 48.8087 128.43 46.826C131.938 46.31 134.638 44.4034 137.302 42.0594C141.091 38.7247 144.753 35.1887 147.813 31.166C149.395 33.4367 150.814 35.7954 152.034 38.258ZM155.233 46.7247C148.469 55.2154 138.958 60.4167 128.199 61.6994C128.125 61.7087 128.059 61.726 127.994 61.7447C128.247 59.6634 128.407 57.562 128.481 55.454C131.807 56.162 137.242 52.7634 139.739 51.4567C144.873 48.7714 149.337 44.902 153.079 40.506C153.943 42.5074 154.667 44.578 155.233 46.7247ZM158.59 52.1927C155.915 29.374 136.013 14.7554 120.143 0.350049C119.275 -0.437951 118.175 0.51136 118.311 1.42736C118.27 1.51269 118.237 1.6047 118.215 1.71003C117.239 6.5367 115.275 10.9447 112.953 15.1914C112.529 15.4087 112.227 15.9061 112.277 16.4087C110.378 19.7647 108.29 23.0327 106.319 26.3407C102.303 33.0874 99.422 40.222 97.8393 47.9167C94.786 62.7634 97.3127 78.5194 104.415 91.8407C104.527 92.0514 104.673 92.186 104.83 92.2714C102.949 94.602 101.293 97.0714 99.8393 99.6394C97.0407 95.0274 93.5393 90.7034 89.4767 87.1007C89.5273 86.766 89.426 86.41 89.0873 86.1274C75.978 75.17 62.5073 64.2367 45.774 59.526C38.7927 57.5594 31.4793 57.1514 24.3273 58.2807C16.85 59.462 9.17933 62.266 1.70333 59.5687C0.736661 59.2194 -0.0913431 60.0034 0.155324 60.986C1.79666 67.5367 5.09266 73.202 9.89266 77.9434C10.0167 78.066 10.1473 78.1474 10.278 78.1967C22.2487 90.4114 37.5873 98.8407 54.25 102.455C49.9713 103.029 45.7727 103.723 41.7953 104.294C40.7287 104.446 40.5513 105.715 41.1127 106.293C41.1233 106.329 41.1287 106.365 41.1433 106.402C41.2167 106.585 41.2753 106.77 41.3433 106.953C41.3513 107.225 41.4393 107.499 41.6207 107.715C47.6993 125.375 36.4127 146.551 48.418 162.531C42.9967 165.054 38.1247 168.693 33.1847 172.014C28.0793 175.446 19.7527 181.878 13.4473 178.253C12.862 177.917 12.3487 178.177 12.086 178.623C11.8353 178.706 11.622 178.909 11.5127 179.262C11.2367 180.145 11.0407 181.029 10.8793 181.915C10.622 182.207 10.5087 182.61 10.698 183.021C9.41932 192.683 14.4193 202.295 20.0007 209.995C27.2727 220.026 37.918 227.523 50.0673 230.17C54.3767 231.11 58.27 230.791 61.8887 229.667C59.2953 234.174 59.1207 239.135 60.1447 244.009C43.6647 250.941 30.734 267.623 23.5793 283.475C20.1527 291.069 18.646 299.121 17.5487 307.301C17.2367 307.653 17.114 308.171 17.3753 308.618C17.3447 308.859 17.3127 309.099 17.282 309.341C16.1007 318.674 14.894 328.069 10.0473 336.323C9.68999 336.933 10.2007 337.859 10.89 337.922C30.8193 339.727 50.7153 333.878 66.3873 321.41C67.6513 320.403 68.8727 319.35 70.062 318.261C70.4193 318.147 70.7393 317.883 70.8687 317.515C77.3087 311.429 82.598 304.161 86.6807 296.306C90.33 289.283 95.342 278.687 91.6847 270.758C94.4647 269.386 97.154 267.811 99.73 266.151C103.973 263.415 108.039 260.413 111.926 257.189C108.103 266.23 106.147 275.965 105.043 285.745C104.83 287.63 104.67 289.519 104.551 291.411C104.442 291.651 104.434 291.877 104.503 292.073C104.137 298.47 104.321 304.889 105.163 311.23C104.722 311.817 104.946 312.478 105.391 312.839C105.791 315.493 106.305 318.133 106.951 320.749C107.802 324.198 108.926 327.513 110.267 330.714C110.291 330.846 110.345 330.969 110.421 331.077C118.837 350.847 135.861 366.07 152.345 379.338C152.871 379.762 153.87 379.667 154.114 378.942C156.418 372.067 162.479 367.529 166.639 361.819C170.229 356.897 172.811 351.167 174.57 345.355C178.446 332.554 179.098 319.09 179.193 305.795C179.219 302.017 179.149 298.213 178.975 294.406C178.983 294.331 178.981 294.255 178.966 294.178C178.633 287.047 177.911 279.906 176.634 272.891C176.725 272.557 176.682 272.186 176.442 271.859C173.97 258.858 169.578 246.318 162.258 235.115C162.473 234.954 162.629 234.727 162.713 234.483C167.022 233.986 171.303 233.69 175.505 233.978C178.161 234.159 182.263 236.034 185.055 235.438C186.574 242.723 190.638 248.886 195.105 254.786C200.755 262.25 207.174 269.129 214.125 275.391C214.155 276.145 214.831 276.578 215.437 276.555C222.453 282.714 230.173 288.015 238.333 292.535C247.542 297.637 257.182 301.887 265.169 308.902C265.615 309.295 266.407 309.254 266.774 308.763C276.77 295.377 277.981 277.962 273.466 262.259C268.286 244.243 255.009 229.562 241.21 217.426C241.75 217.409 242.29 217.389 242.833 217.365C247.633 217.143 252.391 216.754 257.093 215.731C261.837 214.701 266.133 212.397 270.269 209.935C270.493 209.905 270.685 209.777 270.833 209.601C277.101 205.846 283.378 201.962 289.134 197.445C289.385 197.35 289.607 197.175 289.754 196.951C292.823 194.499 295.741 191.866 298.414 188.958C298.778 188.562 298.773 188.117 298.574 187.762C298.799 187.145 298.571 186.387 297.737 186.319C288.601 185.563 281.203 177.667 274.745 171.879C270.682 168.239 266.637 164.638 262.398 161.274C262.249 160.99 261.961 160.761 261.625 160.657C258.767 158.421 255.815 156.301 252.701 154.362C243.413 148.587 233.097 144.606 222.411 142.378C222.126 142.165 221.755 142.067 221.401 142.169C216.014 141.105 210.541 140.477 205.061 140.303C207.906 131.629 211.445 123.474 219.347 119.069C219.99 118.71 219.985 118.063 219.659 117.595C219.606 117.475 219.537 117.359 219.434 117.25C207.157 104.157 188.253 100.733 172.199 108.205C173.399 103.314 173.799 98.2074 173.314 93.0767C172.649 86.0487 169.827 79.39 166.679 73.154C163.813 67.4714 157.931 60.3874 160.291 53.6434C160.691 52.5034 159.338 51.6527 158.59 52.1927Z" fill="#C8AB79"/>
</svg>
