<svg width="242" height="283" viewBox="0 0 242 283" fill="none" xmlns="http://www.w3.org/2000/svg">
<path d="M201.378 99.5364C191.246 98.6871 182.058 94.5844 172.214 92.4938C156.322 89.1191 134.211 93.1538 125.706 108.486C123.013 96.5458 135.571 88.8724 145.631 86.2858C155.697 83.6964 166.31 84.0244 176.493 85.6644C186.707 87.3098 196.309 90.9271 206.086 94.1498C212.241 96.1791 218.583 97.7804 225.007 97.8711C217.279 99.6551 209.353 100.206 201.378 99.5364ZM174.979 106.883C165.151 106.347 156.058 102.719 146.366 101.658C139.165 100.87 131.47 103.359 127.85 109.924C127.737 109.919 127.623 109.912 127.51 109.906C132.123 101.135 141.622 96.8471 150.903 94.8244C160.977 92.6298 170.894 94.0671 180.598 97.1218C189.445 99.9084 198.083 101.959 207.413 102.111C209.839 102.151 212.258 102.048 214.666 101.84C201.747 105.455 188.461 107.619 174.979 106.883ZM134.785 112.748C149.674 114.206 163.153 118.568 172.093 131.246C171.87 131.592 171.666 131.95 171.455 132.302C161.859 124.671 150.074 121.095 138.179 118.794C123.879 116.027 109.574 115.179 95.1659 117.574C80.4833 120.015 66.3486 125.002 51.8006 128.074C37.8926 131.01 23.6566 132.364 9.44592 132.312C36.4993 125.126 63.8286 117.87 91.5459 114.01C105.867 112.015 120.377 111.338 134.785 112.748ZM178.813 126.422C186.311 137.756 192.555 149.8 197.513 162.459C202.662 175.611 205.587 189.367 209.254 202.963C213.015 216.914 217.802 230.539 222.821 244.08C227.406 256.454 231.498 269.495 239.459 280.19C238.882 280.12 238.306 280.051 237.73 279.982C229.258 269.762 222.143 258.59 216.481 246.576C210.545 233.99 207.034 220.687 203.769 207.214C198.451 185.276 191.183 160.97 169.821 149.556C169.798 149.544 169.777 149.539 169.755 149.528C169.478 148.236 169.315 146.948 169.273 145.619C169.242 144.659 169.358 143.695 169.487 142.746C169.538 142.41 169.605 142.078 169.674 141.746C169.773 141.43 169.883 141.119 169.99 140.806C170.305 140.528 170.419 140.14 170.353 139.759C172.223 134.76 175.055 130.259 178.813 126.422ZM134.211 129.279C119.401 128.912 104.722 129.706 90.0473 131.747C64.3539 135.319 37.5993 141.242 12.0939 134.548C23.6513 134.435 35.1606 133.4 46.5686 131.399C61.2646 128.822 75.4273 124.018 89.9953 120.883C104.306 117.804 118.413 117.875 132.827 120.166C146.125 122.279 159.659 125.724 170.327 134.315C169.519 135.867 168.801 137.471 168.19 139.135C168.01 139.318 167.859 139.548 167.737 139.818C167.601 139.71 167.462 139.612 167.325 139.508C168.045 139.188 168.442 138.152 167.606 137.578C157.757 130.802 145.863 129.566 134.211 129.279ZM134.407 138.287C119.627 140.698 104.606 141.378 89.6513 141.352C74.9806 141.328 60.3206 140.474 45.6793 139.632C58.2326 138.98 70.8286 136.942 83.1606 135.062C97.9273 132.811 112.595 131.432 127.541 131.46C138.653 131.48 150.537 131.619 160.745 136.31C152.398 134.048 142.783 136.922 134.407 138.287ZM8.77794 100.847C9.23394 100.859 9.68994 100.874 10.1459 100.888C22.0219 104.039 34.1113 106.275 46.2433 108.258C58.3939 110.243 70.6433 112.49 82.9699 112.939C82.1753 113.064 81.3806 113.19 80.5873 113.319C80.3753 113.079 80.0646 112.92 79.6619 112.942C55.7353 114.27 28.9699 115.112 8.77794 100.847ZM37.2593 96.1244C48.2939 97.4191 58.4406 102.703 69.6673 102.768C69.8406 102.77 69.9859 102.736 70.1113 102.682C71.9393 103.58 73.7913 104.427 75.6619 105.228C66.4259 103.36 56.9819 102.284 47.6646 101.232C35.3193 99.8418 22.9126 99.0098 10.4953 98.6324C8.88726 98.2018 7.28059 97.7591 5.68193 97.2924C16.1659 95.9404 26.6993 94.8858 37.2593 96.1244ZM83.8993 109.48C84.5393 109.655 85.0686 109.31 85.3219 108.848C87.3993 109.519 89.4939 110.136 91.6099 110.68C91.5539 110.675 91.5006 110.668 91.4406 110.671C76.8139 111.279 62.3019 108.536 47.9219 106.223C39.1926 104.816 30.4766 103.288 21.8459 101.387C29.8913 101.832 37.9233 102.482 45.9406 103.335C58.6006 104.683 71.5926 106.116 83.8993 109.48ZM91.9726 110.77C92.7593 110.968 93.5459 111.168 94.3366 111.348C93.7699 111.416 93.2046 111.491 92.6379 111.563C92.5446 111.226 92.3153 110.92 91.9726 110.77ZM53.5259 90.0578C46.1393 84.8298 39.3126 78.8164 32.9766 72.3658C32.5486 71.9284 32.1246 71.4884 31.7006 71.0484C35.9313 74.1071 40.1633 77.1618 44.4339 80.1618C50.5819 84.4818 57.1406 87.8551 63.8926 91.1138C77.9379 97.8924 92.0033 105.987 107.263 109.674C107.581 109.751 107.839 109.694 108.039 109.563C108.173 109.727 108.305 109.891 108.445 110.052C106.274 110.18 104.11 110.354 101.949 110.546C101.853 110.502 101.75 110.466 101.63 110.447C84.1113 107.695 67.9379 100.255 53.5259 90.0578ZM25.6926 63.8978C25.3859 63.6764 25.0673 63.6364 24.7819 63.7071C22.9539 61.7724 21.1073 59.8591 19.1926 58.0124C33.7326 63.0871 47.1459 71.2524 60.3633 78.9991C75.1659 87.6738 89.6726 96.8484 103.906 106.427C90.7113 102.58 78.3659 95.5738 66.0726 89.6404C59.0539 86.2524 52.2339 82.7898 45.8099 78.3471C39.0233 73.6524 32.3899 68.7204 25.6926 63.8978ZM57.4179 66.4551C65.3219 70.1991 72.8713 74.6578 80.3153 79.2311C86.8499 83.2471 94.7113 87.0618 99.6873 93.0911C100.711 96.8071 102.113 100.39 104.029 103.768C90.1939 94.4978 76.0953 85.6298 61.7393 77.1831C47.5019 68.8058 33.0033 59.9484 17.1606 54.9404C31.1979 56.1511 44.6659 60.4151 57.4179 66.4551ZM58.8619 48.3444C55.4299 39.7684 53.7953 30.5284 53.8193 21.3058C63.2313 46.1471 84.4019 64.0924 97.4366 86.9258C97.6713 87.3364 98.0526 87.5191 98.4366 87.5378C98.5086 87.9311 98.5779 88.3271 98.6553 88.7178C94.0233 84.4618 88.1286 81.4098 82.8806 78.1498C81.8699 77.5218 80.8499 76.9084 79.8326 76.2884C79.8406 75.8764 79.6553 75.4564 79.1966 75.2178C69.1819 70.0111 62.9019 58.4351 58.8619 48.3444ZM77.5966 47.1751C85.2499 56.8711 90.7659 67.6524 95.9899 78.7858C96.2726 79.3858 96.8579 79.5338 97.3566 79.3951C97.4686 80.6098 97.5913 81.8218 97.7433 83.0271C85.1553 62.4604 66.4406 45.4871 57.0299 23.1684C64.0059 31.0631 71.0699 38.9098 77.5966 47.1751ZM54.9579 17.7311C63.9873 23.6938 72.6153 30.2538 79.1046 39.0444C82.9313 44.2284 85.6659 50.1671 88.4913 55.9271C91.2993 61.6511 94.1073 67.3764 96.9153 73.1004C96.9606 73.9804 97.0113 74.8618 97.0686 75.7404C92.2499 65.6151 87.0993 55.8778 80.2673 46.9004C72.7099 36.9724 64.1006 27.8018 55.8833 18.4244C55.6433 18.1498 55.3499 18.0311 55.0619 18.0231C55.0286 17.9258 54.9913 17.8298 54.9579 17.7311ZM99.1779 72.5498C99.1486 72.4911 99.1206 72.4324 99.0913 72.3738C98.8486 67.0844 98.7993 61.7938 98.5646 56.6924C97.7953 39.9484 94.8139 23.2618 89.1286 7.48976C99.8126 22.1684 105.575 39.8271 105.818 58.0444C105.943 67.5031 103.142 76.6884 103.406 86.1204C103.649 94.8031 107.281 103.242 112.81 109.862C112.322 109.88 111.835 109.895 111.349 109.916C111.314 109.863 111.277 109.811 111.229 109.759C106.857 105.074 104.086 99.7191 102.298 94.0018C102.554 93.6418 102.619 93.1511 102.279 92.6938C102.095 92.4444 101.898 92.2058 101.705 91.9644C100.113 86.0551 99.4753 79.8031 99.1513 73.5298C99.3179 73.2658 99.3633 72.9284 99.1779 72.5498ZM111.986 46.6644C113.925 53.1631 114.666 59.9818 114.303 66.7431C113.995 72.4751 113.219 78.0084 115.018 83.5551C112.493 92.7858 112.878 102.512 118.822 109.712C117.794 109.716 116.767 109.739 115.742 109.764C108.534 101.814 105.023 91.6604 105.783 80.9538C106.119 76.2271 107.166 71.5658 107.67 66.8551C108.171 62.1698 108.171 57.4324 107.902 52.7338C107.267 41.6644 104.367 30.7751 99.6299 20.7551C104.831 28.8338 109.221 37.3911 111.986 46.6644ZM112.085 31.0338C119.535 41.4324 125.075 53.9764 122.867 66.9871C122.862 67.0218 122.863 67.0524 122.861 67.0844C120.291 70.7058 118.022 74.9298 116.363 79.3884C115.573 73.9364 116.777 68.3578 116.683 62.8204C116.577 56.5711 115.499 50.5178 113.717 44.5364C110.499 33.7484 104.714 23.8151 98.2579 14.6018C103.255 19.7444 107.913 25.2111 112.085 31.0338ZM133.421 59.1191C140.677 53.0818 149.511 49.2311 157.253 43.8871C163.095 39.8551 167.949 34.6791 171.791 28.7791C172.305 37.5938 163.311 46.0191 157.505 51.3751C150.613 57.7338 142.919 63.1591 135.934 69.4151C125.042 79.1698 113.263 95.0924 121.754 109.724C121.653 109.723 121.55 109.72 121.449 109.719C121.465 109.479 121.39 109.223 121.173 108.98C115.023 102.099 114.547 93.0378 117.075 84.2671C117.265 84.0458 117.373 83.7578 117.335 83.4284C120.338 73.7644 126.891 64.5498 133.421 59.1191ZM132.265 89.5618C126.269 93.7631 122.347 100.723 123.351 107.971C113.337 89.9418 135.813 72.0831 148.141 62.1911C154.839 56.8164 161.475 51.3698 167.006 44.7578C168.117 43.4284 169.19 42.0151 170.153 40.5324C167.246 48.9551 162.801 56.7431 157.014 63.6431C149.493 72.6098 138.593 78.2791 132.249 88.2684C131.959 88.7258 132.026 89.2031 132.265 89.5618ZM148.391 82.2778C147.911 82.5284 147.73 82.9778 147.757 83.4071C143.441 84.2938 139.255 85.6751 135.403 87.6818C142.251 78.2738 153.01 72.2364 160.367 63.1551C167.143 54.7924 171.798 44.8218 174.306 34.3831C176.191 53.7911 166.246 72.9471 148.391 82.2778ZM233.339 95.9044C233.261 95.3471 232.834 94.8644 232.122 94.9991C220.629 97.1724 209.595 92.9964 198.887 89.2871C188.077 85.5431 176.998 82.7818 165.535 82.2004C161.202 81.9804 156.714 82.0938 152.285 82.6591C172.294 70.4404 181.545 46.2044 174.393 23.5511C174.062 22.5018 172.706 22.7738 172.289 23.5511C167.107 33.1844 159.433 40.1004 150.194 45.7511C141.795 50.8884 133.139 55.3231 126.398 62.6764C126.109 62.9924 125.822 63.3178 125.538 63.6498C126.287 52.5311 121.919 42.0244 115.945 32.6738C108.086 20.3738 97.3233 9.62578 86.1739 0.305778C85.2886 -0.435556 84.0086 0.632429 84.4339 1.64843C92.1459 20.1151 95.6353 39.8484 96.4233 59.7791C96.5219 62.2684 96.5939 64.7951 96.6793 67.3378C91.9059 57.2124 87.2939 46.7618 80.9019 37.6431C74.0499 27.8698 63.9099 20.7924 54.0233 14.4018C54.0139 14.3951 54.0033 14.3924 53.9926 14.3858C53.5699 13.4578 51.9393 13.4204 51.8339 14.6604C50.7979 26.8938 52.6739 39.0151 57.2339 50.4071C59.9313 57.1444 63.7819 64.2978 68.9459 69.9271C66.2553 68.4298 63.5459 66.9644 60.7953 65.5764C45.7793 58.0018 29.4046 52.9364 12.5233 52.3698C11.4219 52.3324 10.7259 53.6498 11.6806 54.4058C12.1553 54.7818 12.6246 55.1631 13.0873 55.5498C13.1393 55.8724 13.3539 56.1578 13.7886 56.2818C13.8699 56.3058 13.9513 56.3338 14.0326 56.3564C20.8139 62.1964 26.5406 69.1218 32.8526 75.4578C39.1033 81.7311 45.8953 87.4471 53.1233 92.5618C57.0899 95.3684 61.2166 97.9498 65.4779 100.278C55.5819 99.2378 46.1846 94.8778 36.2646 93.7138C24.9073 92.3818 13.3646 93.9618 2.1046 95.4618C1.1286 95.0858 0.152603 96.6191 1.09127 97.5098C1.45927 97.8591 1.83526 98.1938 2.20992 98.5311C2.21659 98.5364 2.22327 98.5418 2.22994 98.5484C19.9633 114.5 44.0899 116.446 67.1433 115.778C45.4659 120.124 23.9979 126.126 2.80593 131.738C2.1206 131.92 1.83659 132.554 1.88859 133.111C1.02726 133.443 0.70993 134.828 1.80593 135.211C14.3353 139.588 27.5086 140.812 40.6753 141.618C55.1046 142.499 69.5499 143.306 84.0059 143.558C98.1473 143.802 112.302 143.36 126.355 141.712C133.175 140.912 139.878 139.559 146.639 138.394C153.631 137.187 161.139 137.188 166.826 142C166.951 142.106 167.078 142.174 167.206 142.214C167.147 142.787 167.118 143.319 167.079 143.699C166.855 145.908 167.086 148.151 167.598 150.302C167.715 150.796 168.07 151.08 168.463 151.187C168.567 151.374 168.723 151.54 168.95 151.662C191.917 163.932 197.575 191.588 203.255 214.679C209.286 239.196 219.699 261.747 235.831 281.256C235.887 281.642 236.125 281.988 236.57 282.116C236.901 282.374 237.294 282.392 237.634 282.264L240.647 282.628C241.753 282.763 242.195 281.503 241.713 280.804C242.009 280.442 242.101 279.922 241.733 279.44C233.297 268.427 229.169 254.66 224.405 241.806C219.257 227.915 214.433 213.907 210.695 199.564C207.235 186.287 204.103 173.046 199.089 160.239C194.123 147.562 187.635 135.499 180.07 124.191C179.798 123.784 179.419 123.674 179.063 123.744C178.749 123.61 178.377 123.644 178.038 123.974C176.345 125.623 174.822 127.394 173.455 129.262C165.695 118.632 154.515 113.342 141.666 111.324C137.922 110.736 134.155 110.331 130.377 110.068C135.807 101.471 147.677 103.748 156.022 105.915C164.363 108.08 172.609 109.308 181.239 109.314C199.157 109.327 216.831 104.24 233.489 98.0418C234.601 97.6271 234.242 96.1764 233.339 95.9044Z" fill="#C8AB79"/>
</svg>
