<svg width="160" height="153" viewBox="0 0 160 153" fill="none" xmlns="http://www.w3.org/2000/svg">
<path d="M121.087 10.9935C124.761 15.5349 130.752 16.0135 135.948 17.7988C144.7 20.8082 144.892 30.0228 144.325 37.7402C143.757 45.4882 152.096 54.3562 145.856 61.1522C144.011 63.1615 141.937 64.8908 141.643 67.8055C141.284 71.3748 142.352 74.5295 143.392 77.9002C145.933 86.1348 139.491 90.9575 138.031 98.4722C136.977 103.895 144.505 119.455 134.365 119.556C134.352 119.558 134.341 119.56 134.329 119.562C134.177 119.171 134.009 118.788 133.811 118.424C132.455 115.938 130.008 114.144 127.812 112.288C127.889 112.283 127.969 112.27 128.052 112.246C134.701 110.395 132.531 102.464 133.589 97.4255C135.04 90.5175 140.389 85.1682 139.508 77.7335C139.047 73.8388 136.979 71.1868 138.159 67.0628C139.152 63.5855 141.659 60.6522 142.801 57.1882C143.603 54.7548 143.279 52.2962 142.149 50.0562C140.196 46.1802 136.9 45.1695 138.223 39.9668C139.711 34.1202 139.743 29.4948 135.649 24.6495C130.895 19.0215 120.859 22.2509 118.285 14.8775C116.695 10.3162 114.933 7.11085 109.507 8.52018C107.208 9.11751 105.875 9.89219 103.26 9.54152C101.007 9.24152 98.7559 8.16818 96.5639 7.57485C93.3999 6.71618 90.1119 6.34686 86.8359 6.24419C88.8279 5.37219 90.8919 4.71351 93.1346 4.52151C96.7719 4.21218 100.023 5.70819 103.711 4.99085C107.573 4.24019 110.648 1.88685 114.787 2.52552C118.641 3.12285 119.065 8.49485 121.087 10.9935ZM125.189 117.884C114.335 111.638 118.348 95.1442 113.516 85.3882C111.331 80.9748 106.543 79.7242 102.051 79.2202C98.1479 78.7828 94.4759 78.7295 91.0306 76.6015C88.3639 74.9562 86.3399 72.1575 84.2106 69.9122C80.1332 65.6122 75.2679 64.2629 69.5746 63.2855C65.5786 62.5989 61.9239 61.6309 58.7879 58.9335C56.5066 56.9709 54.7359 54.3975 52.7919 52.1202C48.5786 47.1842 43.5199 45.8762 37.4426 44.3562C31.6852 42.9175 27.1279 39.0975 24.5919 33.9735C26.5826 35.6829 29.1892 36.7802 31.8132 37.4882C35.4346 38.4655 39.2852 38.4535 42.9492 39.2882C47.6519 40.3589 49.9546 43.7269 52.7506 47.2669C56.7172 52.2935 62.9346 55.0215 69.1732 55.6508C71.2666 55.8615 73.3492 55.7282 75.4466 56.0108C78.2039 56.3802 80.1372 58.3922 82.0426 60.2122C84.2932 62.3642 86.6746 63.5255 89.7266 64.0962C93.6346 64.8255 97.7879 64.2682 101.129 66.8548C103.475 68.6682 104.577 71.7855 106.365 74.0748C108.111 76.3095 110.068 77.5668 112.736 78.4948C114.371 79.0628 116.037 79.4082 117.645 80.0615C117.372 80.9482 118.587 81.6682 119.431 81.1788C121.027 82.7255 121.285 85.1228 121.375 87.3775C121.656 94.4988 119.036 101.322 121.765 108.262C122.833 110.975 125.005 112.956 127.169 114.802C128.488 115.926 129.741 117.008 130.845 118.292C129.111 117.786 127.096 117.711 125.189 117.884ZM145.815 129.404C150.329 133.11 158.819 137.892 157.391 144.762C155.516 153.776 143.215 142.66 140.705 140.022C137.047 136.174 133.34 132.746 128.913 129.928C129.676 129.71 130.463 129.391 131.217 128.979C132.691 128.488 133.693 127.555 134.3 126.388C135.272 125.063 135.663 123.482 135.004 121.79C136.187 121.696 137.191 121.367 138.043 120.866C139.528 124.547 142.769 126.904 145.815 129.404ZM89.7919 126.25C87.5466 128.084 85.6639 130.315 82.9026 131.412C79.6186 132.719 75.7079 130.256 72.5026 129.628C70.1346 129.163 67.7372 130.014 65.4999 130.67C61.2519 131.914 58.1479 130.178 54.9372 127.567C50.5519 124.002 46.9212 120.862 40.9946 120.796C33.8332 120.715 27.0146 125.956 19.8826 123.04C16.6226 121.708 14.4146 118.634 13.4452 115.359C12.4279 111.926 13.8132 108.006 13.8199 104.495C13.8266 101.768 12.4372 99.1922 11.7146 96.6228C10.7186 93.0802 12.8586 90.1668 15.3999 87.8415C15.1426 89.5402 15.2026 91.3482 15.2719 92.6802C15.5226 97.4428 17.7786 101.979 20.4879 105.796C22.9372 109.246 26.2959 112.884 30.6212 113.635C33.0959 114.066 35.8666 113.258 38.3599 113.176C42.1799 113.051 45.9799 114.046 49.4599 115.547C54.3612 117.662 57.8612 122.05 62.8172 124.036C67.2412 125.81 71.7772 126.111 76.4319 125.158C81.8692 124.043 85.5639 119.486 91.0892 118.794C98.0986 117.915 105.42 119.534 111.797 122.407C113.749 124.032 115.724 125.63 117.808 126.935C112.625 126.167 107.789 124.562 102.573 123.254C97.6972 122.031 93.6159 123.126 89.7919 126.25ZM109.889 137.047C106.248 138.979 102.599 138.843 98.6066 138.638C95.5532 138.482 92.8572 139.472 90.2519 140.967C87.7292 142.41 85.4932 144.312 83.0026 145.811C78.5452 148.494 74.6079 147.027 70.0439 145.511C63.4746 143.328 57.5919 147.111 51.5626 149.186C46.9199 150.783 42.2532 150.067 38.1186 147.52C34.4719 145.272 32.2399 141.048 29.0212 138.27C22.7772 132.879 13.3039 134.832 9.06258 126.638C7.14124 122.924 7.00924 118.375 6.49191 114.322C6.00391 110.503 4.79724 107.035 3.48791 103.439C1.67858 98.4708 2.1799 94.6735 6.0359 90.9015C8.48924 88.5015 11.4132 86.2788 14.7226 85.4588C11.1959 88.5295 8.55324 92.1189 9.52391 97.2468C9.79191 98.6655 10.4359 100.054 10.9079 101.411C11.8412 104.092 11.5106 106.703 11.1532 109.447C10.7626 112.436 10.8106 115.094 11.9159 117.91C13.8266 122.782 18.5066 125.648 23.5199 126.206C32.2332 127.174 39.7372 119.935 48.2679 125.142C53.4679 128.316 56.9746 133.94 63.7426 133.371C67.6052 133.046 70.1959 131.238 74.2532 132.39C77.4812 133.307 80.1519 134.527 83.5266 133.604C89.6679 131.926 91.8399 125.015 98.9226 125.007C102.689 125.002 106.531 126.844 110.092 127.879C113.755 128.944 117.573 129.435 121.38 129.604C117.488 131.97 113.94 134.895 109.889 137.047ZM49.3092 112.854C48.7546 106.31 43.2372 102.807 38.1372 99.6322C33.7959 96.9295 30.9226 94.0602 29.7252 88.9588C28.7799 84.9295 28.2439 81.2442 26.1266 77.6162C21.8186 70.2362 12.4412 69.3055 7.82657 62.5468C4.81191 58.1322 8.47857 52.7535 9.9839 48.4935C10.1172 48.1162 10.2279 47.7375 10.3266 47.3562C10.3826 49.3148 10.4372 51.2735 10.4919 53.2309C10.5692 55.9775 10.1226 59.4362 11.2692 62.0269C13.3252 66.6722 18.2306 67.9668 22.6546 69.4735C29.3612 71.7575 30.5719 77.5828 32.3159 83.6428C33.6719 88.3535 35.8719 92.0562 40.1906 94.5548C45.4692 97.6095 51.5732 97.9348 55.8999 102.675C59.1919 106.28 60.8919 111.29 64.8999 114.272C69.8786 117.975 75.6492 116.828 81.4212 116.287C84.9666 115.954 88.5252 115.983 92.0599 116.292C90.1239 116.494 88.2386 116.91 86.4532 117.588C84.7052 118.254 83.1892 119.524 81.6439 120.548C79.5519 121.934 77.1586 122.69 74.7226 123.188C69.2892 124.302 63.9052 122.558 59.4639 119.488C56.0492 117.128 53.0452 114.743 49.3066 113.068C49.3119 112.999 49.3159 112.93 49.3092 112.854ZM20.8519 64.3388C25.7212 66.5308 30.9692 66.3295 34.2092 71.2615C36.7319 75.1015 37.3719 79.9855 39.6266 84.0095C41.6132 87.5535 44.7599 90.3442 48.1932 92.4282C52.9866 95.3375 58.7106 95.6962 63.2186 99.2508C69.1266 103.911 74.7906 112.022 83.2119 108.932C84.1759 110 85.3252 110.94 86.7986 111.663C90.0559 113.259 94.1799 113.246 97.6559 114.239C98.6492 114.522 99.6092 114.876 100.555 115.262C96.1159 114.348 91.6266 113.855 87.0572 113.787C80.5559 113.688 72.7119 116.52 66.8279 112.887C62.6679 110.318 60.5479 104.74 57.5026 101.055C54.3999 97.3002 49.7106 95.8402 45.2879 94.2735C38.9532 92.0295 36.0506 88.3815 34.2399 82.0895C33.1292 78.2308 32.2012 74.4855 29.6826 71.2695C26.4132 67.0922 20.2532 66.9108 15.9879 64.2815C12.2132 61.9562 12.8786 57.0109 12.7706 53.1909L12.5692 46.0348C13.4159 49.3935 12.9812 53.7108 13.7452 56.5308C14.7452 60.2228 17.4639 62.8122 20.8519 64.3388ZM121.667 120.855C122.7 120.538 123.729 120.332 124.767 120.232C124.9 120.3 125.031 120.375 125.168 120.44C125.711 120.694 126.219 120.51 126.541 120.164C127.476 120.187 128.423 120.296 129.388 120.499C130.668 120.768 132.335 121.4 132.873 122.567C132.939 123.639 132.699 124.692 132.113 125.516C131.821 125.875 131.484 126.187 131.115 126.456C130.691 126.728 130.196 126.934 129.609 127.038C129.433 127.068 129.291 127.131 129.175 127.211C129.08 127.164 128.976 127.126 128.852 127.103C125.381 126.52 122.683 124.166 121.667 120.855ZM81.0266 70.0055C85.2346 73.5562 87.8759 78.1082 93.2026 80.1948C100.504 83.0562 109.417 79.5215 112.587 89.0882C114.541 94.9842 114.199 101.568 115.933 107.595C117.095 111.632 118.924 115.663 122.059 118.396C122.028 118.404 122.001 118.411 121.972 118.419C121.963 118.419 121.955 118.416 121.945 118.415C117.633 118.278 115.408 114.174 112.504 111.643C110.78 110.14 108.523 109.324 106.389 108.61C103.696 107.707 100.891 107.184 98.1932 106.283C94.2279 104.959 92.2506 102.271 90.9599 98.4055C89.3306 93.5268 86.1866 90.8268 81.4986 88.8695C75.2746 86.2735 67.8306 85.5388 65.6359 78.0682C64.2412 73.3228 62.0306 70.8535 57.4879 68.8468C55.0706 67.7788 52.5479 66.9975 50.1826 65.8028C46.8759 64.1362 45.6559 61.4455 44.6132 58.0735C42.9826 52.8002 39.5892 51.5295 35.1372 48.8442C32.2426 47.0962 29.8106 44.7215 27.8786 41.9828C28.3279 42.3615 28.7892 42.7255 29.2746 43.0629C34.8026 46.9042 41.7359 46.5855 47.3252 50.1068C52.4306 53.3215 54.9559 59.4322 60.1052 62.7402C66.5466 66.8775 74.9279 64.8588 81.0266 70.0055ZM86.7359 109.1C85.9292 108.704 85.2252 108.166 84.5812 107.543C84.4866 107.128 84.1479 106.738 83.7039 106.596C80.9066 103.216 79.4039 98.0508 76.3959 95.1215C71.3919 90.2442 63.2906 91.0242 59.3599 84.6588C56.6652 80.2948 56.2852 75.0349 52.0826 71.6375C46.6399 67.2402 37.5866 70.0095 34.6306 62.0642C33.7012 59.5655 34.2639 56.4762 33.8519 53.8482C33.4706 51.4028 31.7199 49.7642 29.7079 48.5535C26.3519 46.5308 23.7052 45.3655 22.1799 41.4068C21.2786 39.0682 21.2546 36.5548 21.6146 34.0762C23.0519 39.0375 25.6506 43.3962 29.3026 47.1055C31.2386 49.0735 33.5732 50.6415 35.9839 51.9575C37.5879 52.8322 39.0866 53.4642 40.4679 54.7202C42.0012 56.1162 42.4332 58.7655 43.0426 60.6695C44.6079 65.5428 48.4159 67.7002 52.9292 69.4868C55.7479 70.6015 58.6079 71.5268 60.9252 73.5575C63.5892 75.8922 63.4652 80.2002 65.4306 83.0815C68.2906 87.2762 74.0279 88.6882 78.5439 90.1922C82.0946 91.3748 85.4906 92.9655 87.5919 96.1935C89.2639 98.7642 89.2572 102.122 91.3666 104.484C95.0746 108.639 100.756 109.29 105.821 110.815C109.551 111.939 111.949 114.123 114.524 116.935C115.933 118.476 117.483 119.611 119.3 120.212C119.253 120.383 119.241 120.571 119.288 120.78C119.881 123.398 121.391 125.655 123.451 127.214C119.845 126.186 116.691 123.678 113.66 121.124C113.593 120.875 113.419 120.648 113.097 120.503C112.98 120.45 112.859 120.399 112.74 120.347C111.305 119.132 109.892 117.939 108.464 116.924C105.737 114.988 102.664 113.614 99.5399 112.462C95.3759 110.926 90.7332 111.06 86.7359 109.1ZM99.8999 63.7428C100.056 63.4428 100.092 63.0775 99.9066 62.6975C93.5226 49.5708 84.9052 37.6388 72.4732 29.6655C66.0719 25.5588 59.0426 23.4855 51.6146 22.2122C47.2212 21.4589 42.8972 20.5322 39.3932 17.5895C37.9626 16.3882 36.9132 14.8029 36.0732 13.0855C37.5066 14.5575 39.3466 15.5548 41.4106 16.3308C47.0599 18.4548 52.8452 17.4708 58.2132 20.7788C63.4612 24.0122 68.8239 24.3855 74.8012 25.2188C81.1066 26.0975 85.0359 28.9388 87.6626 34.6682C89.0626 37.7215 90.6052 41.5015 93.9826 42.8548C96.7746 43.9735 100.727 43.7322 102.736 46.3429C104.092 48.1069 104.028 50.8455 104.359 52.9335C104.981 56.8762 106.467 59.2082 109.74 61.5028C115.248 65.3602 114.572 70.3002 112.805 76.0148C112.001 75.7442 111.22 75.4348 110.495 75.0215C107.448 73.2908 106.313 69.1775 104.085 66.6442C102.836 65.2255 101.417 64.3375 99.8999 63.7428ZM51.5386 15.7882C46.5906 14.8562 40.3599 15.0962 37.1346 10.8389C39.8372 11.7589 42.7266 12.0909 45.5919 11.5989C49.2346 10.9735 52.7279 9.60419 56.2212 11.5255C58.7492 12.9162 60.5239 15.3975 63.0852 16.8122C68.0212 19.5362 74.4999 16.6829 79.6652 16.5669C86.8172 16.4069 88.1386 24.9509 93.4839 28.1775C98.1946 31.0215 104.095 30.6895 108.264 34.6349C112.615 38.7535 107.933 45.6402 110.404 50.5002C111.495 52.6468 113.088 54.1455 114.901 55.7055C117.448 57.8988 119.281 60.2895 120.443 63.4668C122.212 68.3135 121.487 73.7215 118.908 78.0802C117.693 77.4455 116.341 77.0548 114.985 76.6722C116.132 72.9882 117.001 69.2642 116.033 65.4388C114.784 60.5015 108.713 59.6615 107.103 55.0055C105.876 51.4642 106.591 47.6442 104.183 44.5148C103.027 43.0135 101.212 42.4122 99.4532 41.9495C95.9066 41.0162 93.3759 40.4842 91.3626 37.1202C89.1252 33.3842 88.2066 29.3962 84.7226 26.5109C80.9812 23.4122 75.6066 22.9935 70.9932 22.4788C66.7172 22.0028 63.0306 21.1055 59.3466 18.8002C56.8399 17.2349 54.4359 16.3335 51.5386 15.7882ZM126.427 89.8708C126.932 88.9828 127.405 88.0775 127.84 87.1482C127.976 86.8588 127.983 86.5802 127.912 86.3322C130.425 79.6922 130.437 72.2842 129.848 65.1455C129.092 56.0215 127.06 46.7895 123.287 38.4228C117.503 25.6028 107.517 14.7042 94.7199 9.51752C95.1452 9.60552 95.5706 9.68018 95.9972 9.78018C99.2892 10.5575 102.248 12.0189 105.691 11.9295C108.528 11.8549 112.2 8.55352 114.616 11.7175C115.976 13.4989 116.211 16.2215 117.252 18.2295C119.756 23.0615 126.737 21.9122 130.945 23.8629C134.492 25.5082 136.627 29.3855 137.108 33.1162C137.513 36.2575 135.595 38.9255 135.503 41.9762C135.324 47.9362 142.071 50.3842 140.593 56.6215C139.356 61.8508 134.22 65.9842 135.511 71.8162C136.136 74.6402 137.345 77.1815 137.387 80.1255C137.437 83.8642 135.2 87.5655 133.66 90.8442C132.393 93.5402 131.368 96.2668 130.979 99.2348C130.511 102.799 132.177 108.732 127.428 110.055C126.804 110.23 126.577 110.752 126.639 111.25C126.491 111.114 126.336 110.979 126.193 110.839C122.788 107.5 122.488 102.596 122.748 98.1255C122.813 96.9855 122.967 95.7522 123.132 94.4735C123.155 94.4562 123.176 94.4415 123.197 94.4202C124.239 93.3735 125.279 92.3268 126.32 91.2802C126.771 90.8268 126.713 90.2722 126.427 89.8708ZM105.383 2.09218C100.769 3.79618 96.5599 1.94818 91.8919 2.34685C88.0639 2.67352 84.4306 4.76418 81.1399 6.57618C80.0572 7.17085 80.6812 8.60952 81.7386 8.69485C99.5186 10.1375 113.44 22.8775 120.823 38.4668C124.593 46.4295 126.519 55.2442 127.453 63.9615C128.395 72.7522 128.384 82.1868 123.655 89.8775C123.956 85.9295 123.639 82.0362 120.784 79.3962C125.6 71.5655 124.149 61.1442 117.355 54.8268C114.427 52.1055 111.909 50.2149 111.913 45.8202C111.915 43.2482 112.711 40.6749 112.275 38.0989C111.364 32.7122 106.797 30.2882 101.983 28.7722C98.4519 27.6615 94.9372 26.9415 92.1372 24.3429C89.9986 22.3549 88.9812 19.2548 87.0279 17.0588C83.0212 12.5535 75.9026 14.6855 70.8786 15.4202C66.3879 16.0789 63.4052 14.6882 60.1306 11.7349C58.2706 10.0575 56.4479 8.81619 53.9746 8.28152C51.4799 7.74152 48.5959 8.69218 46.1732 9.20018C41.5759 10.1669 37.0639 8.94951 33.2386 6.35218C32.4146 5.79351 31.2652 6.73752 31.5759 7.65219C33.6519 13.7642 36.0932 19.1228 42.1812 22.0535C45.3186 23.5642 48.9279 24.0549 52.3239 24.6362C56.5132 25.3549 60.5186 26.3709 64.4506 28.0122C79.8639 34.4429 90.3372 48.4922 97.5399 63.0335C93.1639 62.0588 88.3306 62.4308 84.5372 59.4015C81.6226 57.0735 79.7932 54.7095 76.0132 53.8028C71.8919 52.8148 67.7132 53.5215 63.5772 52.1575C55.2799 49.4215 52.7306 40.3735 44.7612 37.4415C38.0466 34.9695 25.2732 37.2615 23.4532 27.7215C23.2812 26.8242 22.3706 26.7308 21.7719 27.1322C21.3199 27.1415 20.8759 27.3855 20.7106 27.9415C18.8919 34.0602 18.1719 40.5468 22.0892 46.0015C23.7026 48.2482 26.1972 49.3042 28.5759 50.5295C33.1452 52.8842 31.2546 57.6935 32.2026 61.6908C33.7026 68.0148 39.5239 70.1882 45.2746 71.3908C50.0772 72.3948 52.6466 74.6735 54.5052 79.0935C55.7186 81.9775 56.6359 84.8868 58.4906 87.4508C62.5572 93.0708 70.6999 92.7522 75.5026 97.4309C78.3666 100.222 79.6572 103.927 81.7479 107.047C76.5559 108.539 71.8786 104.335 68.3759 100.927C65.0786 97.7202 61.9399 95.2495 57.5879 93.6388C52.4346 91.7322 48.0879 90.3708 44.1679 86.3175C40.6146 82.6455 39.4692 77.7388 37.6559 73.1375C36.4759 70.1469 34.7679 67.7855 32.1426 65.9468C27.9386 63.0042 22.2812 63.6335 18.3479 60.0602C13.2666 55.4442 17.0346 45.3748 12.3612 40.9042C12.2906 40.8242 12.2119 40.7522 12.1226 40.6949C11.3119 39.9935 10.2772 39.4402 8.92257 39.0962C7.9199 38.8428 7.21457 39.9148 7.65991 40.7802C11.3146 47.8695 2.25324 54.8815 5.24658 62.5002C8.01858 69.5602 17.5586 71.1415 22.3706 76.3415C27.7132 82.1122 25.6146 90.8508 30.6586 96.5108C35.4332 101.868 45.6906 104.328 46.9412 112.167C42.4999 110.723 37.8612 110.795 33.2599 111.343C27.0999 112.076 22.5972 105.487 19.9892 100.703C18.6332 98.2122 17.8626 95.4455 17.5506 92.6388C17.3426 90.7775 17.1759 86.2522 19.1626 85.2882C19.9932 84.8855 19.8412 83.9668 19.2906 83.4935C19.1132 83.1748 18.7986 82.9242 18.3479 82.8828C11.3759 82.2308 3.23991 88.3282 0.601242 94.5828C-0.678758 97.6202 0.297237 101.116 1.2959 104.063C2.9199 108.86 4.08657 113.258 4.69991 118.326C5.56524 125.476 7.89458 132.396 15.2292 135.082C20.2119 136.907 25.2279 137.64 29.1692 141.5C32.5786 144.836 34.8772 148.552 39.2599 150.77C46.9532 154.663 54.0239 150.294 61.2772 147.856C66.6066 146.068 70.7559 148.631 75.8639 149.646C78.7879 150.228 81.6439 149.147 84.1626 147.772C87.2772 146.072 89.9159 143.643 93.0866 142.018C97.1052 139.958 101.795 141.511 106.085 140.807C113.467 139.596 118.815 133.142 125.409 129.962C125.432 130.283 125.595 130.594 125.96 130.803C133.333 135.02 137.985 141.551 144.504 146.711C148.228 149.659 153.969 151.795 157.965 148.3C162.012 144.762 159.196 138.612 156.427 135.462C153.867 132.547 150.404 130.236 147.419 127.786C144.475 125.368 141.025 123.06 139.884 119.244C141.833 116.772 142.281 112.939 141.796 109.647C141.137 105.184 139.457 101.266 140.805 96.7175C142.072 92.4482 145.244 89.0735 146.287 84.6655C147.045 81.4642 145.847 78.0788 144.892 75.0708C143.923 72.0148 143.215 69.0268 144.627 65.9428C145.516 64.0002 147.819 62.4975 149.111 60.7602C151.123 58.0548 150.607 54.1335 149.917 51.1002C148.744 45.9335 146.292 41.9628 146.697 36.4402C147.199 29.5882 146.625 22.4522 140.859 17.8469C134.595 12.8442 125.231 15.1842 121.407 6.88418C120.32 4.52685 119.169 1.61619 116.459 0.694854C112.572 -0.62648 109.064 0.734849 105.383 2.09218Z" fill="#C8AB79"/>
</svg>
