<svg width="191" height="219" viewBox="0 0 191 219" fill="none" xmlns="http://www.w3.org/2000/svg">
<path d="M62.125 169.66L62.409 169.701C63.8063 169.908 65.1423 168.912 65.3476 167.517C65.5516 166.121 64.5583 164.785 63.1623 164.58L62.877 164.539C61.4823 164.333 60.1463 165.327 59.941 166.723C59.7356 168.119 60.729 169.455 62.125 169.66Z" fill="#C8AB79"/>
<path d="M71.2988 174.496C72.6948 174.7 74.0308 173.707 74.2361 172.311L74.2775 172.025C74.4828 170.631 73.4895 169.295 72.0935 169.089C70.6975 168.884 69.3615 169.879 69.1561 171.275L69.1148 171.559C68.9095 172.955 69.9028 174.291 71.2988 174.496Z" fill="#C8AB79"/>
<path d="M72.4474 167.29C72.5527 167.55 72.7087 167.785 72.8901 167.997C73.0394 168.23 73.2181 168.445 73.4367 168.62C74.4594 169.44 76.2981 169.393 77.0754 168.216C77.5181 167.542 77.6914 167.025 77.6661 166.214C77.6514 165.76 77.4047 165.201 77.1341 164.837C76.8647 164.474 76.3994 164.076 75.9674 163.93C75.1981 163.676 74.6527 163.69 73.8807 163.922C72.5301 164.328 71.9554 166.074 72.4474 167.29Z" fill="#C8AB79"/>
<path d="M66.8057 179.358L67.0897 179.399C68.4857 179.606 69.8217 178.611 70.027 177.217C70.2323 175.821 69.239 174.485 67.843 174.278L67.5577 174.237C66.1617 174.031 64.8257 175.026 64.6203 176.422C64.4163 177.818 65.4097 179.154 66.8057 179.358Z" fill="#C8AB79"/>
<path d="M52.7871 175.846C56.0898 176.33 56.8418 171.209 53.5391 170.724C50.2365 170.238 49.4845 175.361 52.7871 175.846Z" fill="#C8AB79"/>
<path d="M68.4473 195.878C71.75 196.363 72.5033 191.24 69.1993 190.756C65.8966 190.271 65.1446 195.392 68.4473 195.878Z" fill="#C8AB79"/>
<path d="M49.1738 184.616C52.4765 185.101 53.2285 179.98 49.9258 179.494C46.6232 179.009 45.8712 184.132 49.1738 184.616Z" fill="#C8AB79"/>
<path d="M75.0664 188.42C78.3691 188.906 79.1211 183.783 75.8184 183.298C72.5158 182.814 71.7638 187.935 75.0664 188.42Z" fill="#C8AB79"/>
<path d="M33.9606 48.3243C38.0846 46.7723 42.5766 46.6816 46.7232 48.1376C48.9632 48.9256 50.8832 50.5389 52.6766 52.2149C52.6339 52.8269 52.9486 53.4949 53.7046 53.6816C53.9299 53.7376 54.1552 53.7776 54.3792 53.8282C54.6566 54.0896 54.9326 54.3509 55.2072 54.6003C60.4339 59.3643 67.0552 59.1682 72.7979 62.7522C73.0992 62.9402 73.4112 62.9896 73.7019 62.9496C75.3446 66.1069 77.5592 69.1482 78.7979 72.2162C82.6672 81.8002 83.0659 92.5002 83.0072 102.832C82.8766 103.002 82.7899 103.223 82.7806 103.51C82.7659 104.018 82.7499 104.527 82.7352 105.036C75.6486 92.4776 74.2726 77.7442 69.9566 64.1509C69.4526 62.5602 67.0526 63.5349 67.5552 65.1189C71.1446 76.4256 72.7819 88.3776 77.1939 99.3442C68.7526 87.3242 61.9859 74.2523 57.0419 60.3536C56.4832 58.7816 54.0819 59.7509 54.6406 61.3216C60.3819 77.4629 68.5699 92.5442 78.9512 106.14C62.3232 93.4936 46.7792 78.9149 37.8872 59.6869C37.1899 58.1789 34.7832 59.1336 35.4872 60.6549C44.8232 80.8483 61.2366 96.0669 78.7526 109.24C55.8686 100.326 33.4246 87.2256 22.9299 63.9709C22.2459 62.4562 19.8392 63.4122 20.5286 64.9389C31.2526 88.7002 53.9326 102.28 77.3206 111.458C56.5379 110.258 35.1299 106.143 19.8192 90.9256C18.6326 89.7469 17.0312 91.7856 18.2019 92.9482C29.0312 103.711 42.9072 109.086 57.4712 111.782C54.3259 111.623 51.1806 111.436 48.0379 111.191C39.8459 110.558 31.3486 109.651 24.7566 104.278C23.4592 103.22 21.8472 105.244 23.1379 106.298C29.6552 111.611 37.8152 112.886 45.9606 113.612C55.2352 114.44 64.5512 114.786 73.8632 114.812C73.6032 114.847 73.3432 114.871 73.0779 114.867C72.3392 114.856 71.8552 115.37 71.6939 115.938C66.6699 117.154 61.4446 117.143 56.1846 116.95C48.5632 116.667 40.9486 116.276 33.5032 114.511C26.0726 112.748 18.9632 108.746 14.4979 102.459C12.2192 99.2496 12.4766 95.2842 12.3086 91.5642C12.1672 88.4469 10.9952 85.6162 9.92589 82.7269C4.13523 67.1002 21.1126 53.1589 33.9606 48.3243ZM29.4566 36.2162C29.7352 33.5922 30.2632 30.9643 30.8512 28.3389C38.2552 30.8563 49.9126 31.3509 55.7526 25.3202C56.0312 25.6656 56.2966 26.0189 56.5686 26.3683C56.5832 26.8029 56.8939 27.1509 57.3099 27.3256C58.7379 29.2322 60.0659 31.2016 61.2806 33.2362C51.2512 37.7549 40.3886 38.7883 29.6672 36.2443C29.5939 36.2269 29.5246 36.2216 29.4566 36.2162ZM32.2592 4.65091C37.4952 8.08558 42.5712 11.9376 47.2019 16.2136C45.2152 16.0789 43.2299 15.9469 41.2446 15.8122C38.5446 15.6309 35.3632 15.7122 33.4606 13.4376C33.5659 10.4856 33.2659 7.55358 32.2592 4.65091ZM44.1646 5.39892C44.6366 6.94292 44.4966 8.47492 43.8446 9.90826C41.2032 7.75892 38.4646 5.72957 35.6686 3.82824C38.4939 4.23091 41.3392 4.75625 44.1646 5.39892ZM46.9472 6.06957C48.3112 6.42291 49.6672 6.80292 51.0086 7.22426C51.0352 7.29892 51.0646 7.37625 51.1086 7.45625C52.8152 10.5443 52.9992 13.9083 51.8526 17.1296C49.9432 15.2109 47.9446 13.3696 45.8779 11.6042C46.8646 9.89091 47.2046 7.96691 46.9472 6.06957ZM33.2099 16.5762C37.4579 19.3376 44.1832 18.5963 48.8259 18.9083C49.1926 18.9336 49.4939 18.8216 49.7272 18.6389C51.2486 20.1549 52.7046 21.7256 54.0979 23.3402C51.6739 26.0149 46.7486 26.8802 43.4219 27.3349C39.3646 27.8896 35.2419 27.1962 31.4259 25.8096C32.1366 22.7229 32.8379 19.6402 33.2099 16.5762ZM60.8379 11.1056C61.5752 13.5349 60.4926 16.8656 59.8632 19.0096C59.3752 20.6722 58.6619 22.2536 57.8486 23.7802C56.5739 22.1962 55.2192 20.6696 53.8232 19.1749C55.3766 15.7136 55.6406 11.8629 54.3552 8.35359C56.5752 9.16559 58.7486 10.0736 60.8379 11.1056ZM63.7606 12.6523C65.8059 13.8203 67.7592 15.1109 69.5886 16.5469C69.4926 16.9522 69.6139 17.3856 70.0952 17.6882C71.4592 18.5469 69.8379 24.7349 69.5819 26.0242C69.0619 28.6616 67.7099 33.0002 65.1139 34.7056C63.5019 31.6736 61.6339 28.7749 59.5672 26.0016C61.5552 22.5309 64.0086 17.1403 63.7606 12.6523ZM73.3286 19.8656C74.8766 21.4162 76.3019 23.0976 77.5739 24.9256C77.4526 32.1616 74.3992 38.8442 68.9966 43.7189C68.2339 41.4296 67.3152 39.2096 66.2792 37.0456C69.3819 35.1896 70.9459 30.8003 71.8579 27.6029C72.3352 25.9309 73.3099 22.6416 73.3286 19.8656ZM68.6899 53.8669C68.8979 55.3456 69.0486 56.8469 69.1259 58.3749C67.3152 57.7802 65.4566 57.2989 63.5766 56.7136C62.0246 56.2296 60.6419 55.4736 59.3512 54.5749C62.4619 54.7949 65.5779 54.5549 68.6899 53.8669ZM46.2846 45.0709C46.0592 45.0602 45.8592 45.1016 45.6832 45.1776C41.6166 44.1402 37.2326 44.5642 32.9926 45.9229C32.0699 46.2189 31.1472 46.5589 30.2272 46.9336C30.2246 46.9229 30.2246 46.9136 30.2206 46.9029C29.4179 44.2136 29.1739 41.5096 29.2672 38.7963C29.2766 38.7989 29.2832 38.8029 29.2912 38.8043C40.5259 41.4696 52.0792 40.3096 62.5659 35.4976C63.9112 37.9842 65.0752 40.5669 66.0446 43.2389C59.5392 44.7416 52.9766 45.3802 46.2846 45.0709ZM66.8606 45.6923C67.4272 47.5256 67.8952 49.4029 68.2646 51.3202C64.0086 52.2429 59.7939 52.2869 55.5566 51.4416C54.6099 50.5749 53.6752 49.6949 52.7152 48.8629C52.2206 48.4349 51.7099 48.0549 51.1926 47.6949C56.4699 47.5843 61.6819 46.9229 66.8606 45.6923ZM79.8326 28.6176C80.9926 30.8003 81.9645 33.1576 82.7139 35.7082C82.7205 35.7309 82.7312 35.7456 82.7379 35.7669C79.8912 38.0189 77.3379 40.7549 75.1192 43.8563C72.3472 47.7309 71.1552 52.3816 71.6979 57.0856C71.7966 57.9322 71.9992 58.7642 72.2646 59.5869C72.0699 59.4976 71.8739 59.4163 71.6779 59.3336C71.7206 59.1923 71.7486 59.0403 71.7419 58.8709C71.5886 54.5336 70.9152 50.3803 69.8139 46.4083C69.8926 46.3629 69.9712 46.3083 70.0486 46.2416C75.4686 41.5883 78.8352 35.4456 79.8326 28.6176ZM98.9006 31.8469C104.138 31.4216 109.545 32.3469 114.745 32.8949C119.995 33.4482 125.287 33.8496 130.491 34.7589C130.555 34.7696 130.619 34.7843 130.683 34.7963C130.687 34.8109 130.687 34.8269 130.693 34.8429C133.037 42.2202 128.989 50.6576 126.367 57.4989C123.874 64.0082 120.843 70.3016 117.497 76.4096C110.821 88.5936 102.301 99.7296 92.5979 109.652C97.3406 99.1176 101.245 88.2736 104.335 77.1336C107.45 65.9069 111.493 52.6522 108.654 41.0109C108.263 39.4096 105.687 39.7056 106.083 41.3282C108.757 52.2856 104.974 64.5522 102.198 75.1829C99.0659 87.1802 94.7272 98.8509 89.5566 110.112C89.5206 110.19 89.4966 110.267 89.4766 110.344C88.7592 110.42 88.0486 110.562 87.3526 110.759C93.1406 92.6802 96.3952 70.1776 86.2432 53.3549C85.3806 51.9242 83.3125 53.4829 84.1672 54.9002C93.4445 70.2762 90.6605 91.1429 85.5192 107.998C85.6219 99.3242 85.5939 90.6536 84.1512 82.0736C83.4552 77.9282 82.2619 73.8816 80.6899 69.9882C78.6766 64.9989 74.7352 60.8069 74.1032 55.3469C73.3672 48.9669 78.3726 43.2776 82.6632 39.2656C87.3486 34.8869 92.4886 32.3656 98.9006 31.8469ZM133.502 35.4402C137.449 36.5589 140.938 38.5496 143.389 42.0842C146.098 45.9936 147.442 50.6362 150.306 54.5349C153.347 58.6722 157.467 61.6682 158.437 67.0149C159.566 73.2429 154.955 78.9616 150.931 83.0789C136.642 97.7002 117.393 107.82 97.8139 113.204C97.7579 113.083 97.6806 112.978 97.5939 112.883C97.5886 112.727 97.5459 112.574 97.4859 112.426C120.943 100.788 139.021 79.8962 146.977 54.8922C147.478 53.3162 145.111 52.2616 144.606 53.8496C136.706 78.6829 118.715 99.4456 95.1872 110.674C105.526 99.9776 114.261 87.9522 121.289 74.8282C125.049 67.8056 128.162 60.4496 130.791 52.9349C132.773 47.2722 134.783 41.3789 133.502 35.4402ZM174.495 89.8376C177.295 95.9669 175.83 103.139 178.961 109.264C181.814 114.844 189.474 118.503 186.354 125.746C184.822 129.304 180.526 131.511 177.501 133.631C174.689 135.604 172.506 138.143 170.437 140.855C170.266 141.079 170.095 141.298 169.923 141.518C168.961 141.462 168.137 142.491 168.527 143.283C164.313 148.451 159.971 152.262 152.827 153.634C145.737 154.995 138.397 153.332 131.813 150.712C118.291 145.328 107.571 134.523 97.5099 124.311C97.5112 123.787 97.1859 123.43 96.7659 123.267C96.9259 122.271 97.0686 121.271 97.2019 120.27C103.818 131.332 116.837 139.212 128.239 143.896C129.785 144.53 130.826 142.16 129.283 141.526C117.91 136.855 104.481 128.788 98.5432 117.379C110.903 128.679 125.691 136.636 141.907 140.83C143.523 141.247 143.882 138.683 142.285 138.27C129.155 134.874 117.006 128.852 106.374 120.595C114.635 123.359 123.941 124.156 132.159 125.08C145.457 126.575 158.909 126.62 172.237 125.523C173.899 125.387 173.579 122.818 171.918 122.955C159.338 123.99 146.75 123.9 134.185 122.691C128.395 122.135 122.641 121.26 116.922 120.208C122.081 120.059 127.237 119.518 132.385 118.766C140.671 117.556 151.115 116.984 158.223 112.13C159.603 111.186 158.054 109.114 156.678 110.054C153.053 112.528 148.875 113.224 144.641 114.018C139.935 114.902 135.225 115.736 130.489 116.427C121.845 117.688 113.119 118.143 104.447 117.084C104.426 117.076 104.405 117.07 104.382 117.062C121.893 115.851 138.785 110.352 153.746 101.022C155.165 100.138 153.609 98.0682 152.201 98.9456C137.065 108.384 119.879 113.707 102.131 114.611C122.094 108.564 142.151 97.4802 155.769 81.6296C156.037 81.3162 156.283 80.9909 156.534 80.6682C156.763 80.8416 157.067 80.9322 157.446 80.8682C164.574 79.6709 171.479 83.2336 174.495 89.8376ZM171.963 145.927C170.886 146.318 169.778 146.736 168.655 147.186C169.31 146.428 169.947 145.651 170.578 144.859C171.055 145.204 171.514 145.563 171.963 145.927ZM178.785 153.56C171.883 153.59 165.478 156.475 160.826 161.744C160.775 161.8 160.739 161.859 160.702 161.916C158.529 161.023 156.306 160.222 154.067 159.463C158.809 153.731 167.35 150.279 174.163 147.888C175.935 149.627 177.463 151.528 178.785 153.56ZM180.347 156.187C181.77 158.815 182.907 161.614 183.833 164.514C179.37 163.766 174.922 164.146 170.571 165.587C170.146 165.728 169.909 166.007 169.815 166.326C167.683 165.104 165.465 164.006 163.194 162.991C167.633 158.188 173.819 155.731 180.347 156.187ZM187.486 182.999C184.834 178.598 181.546 174.928 177.815 171.822C177.967 170.863 177.049 170.392 176.251 170.576C174.959 169.584 173.615 168.66 172.237 167.784C176.326 166.556 180.473 166.423 184.65 167.311C186.027 172.422 186.849 177.77 187.486 182.999ZM176.653 183.194C176.526 180.312 176.723 177.472 177.227 174.65C180.378 177.438 183.155 180.678 185.403 184.5C182.514 183.723 179.594 183.335 176.653 183.194ZM168.237 183.352C166.719 178.37 166.762 173.302 168.337 168.38C170.658 169.694 172.878 171.151 174.963 172.774C174.223 176.194 173.926 179.644 174.061 183.135C172.126 183.131 170.183 183.212 168.237 183.352ZM158.779 184.296C158.79 184.131 158.77 183.955 158.707 183.768C156.442 177.075 156.097 170.258 157.543 163.387C160.447 164.49 163.287 165.723 166.014 167.124C164.205 172.536 164.069 178.08 165.599 183.571C163.329 183.783 161.054 184.044 158.779 184.296ZM146.475 185.234C145.422 176.79 146.013 168.464 148.203 160.256C150.509 160.94 152.807 161.683 155.082 162.484C153.415 169.923 153.838 177.338 156.254 184.572C152.985 184.914 149.719 185.194 146.475 185.234ZM144.141 156.435C147.333 156.712 150.53 156.604 153.714 156.035C152.887 156.844 152.133 157.699 151.466 158.603C149.034 157.831 146.585 157.108 144.141 156.435ZM133.139 183.546C135.993 181.083 138.497 178.555 140.073 174.855C142.445 169.291 141.763 162.898 138.926 157.702C141.171 158.287 143.449 158.892 145.73 159.538C143.435 167.963 142.829 176.55 143.869 185.207C140.255 185.092 136.671 184.624 133.139 183.546ZM130.33 182.683C129.766 182.707 129.333 183.119 129.155 183.607C128.338 184.251 127.539 184.895 126.797 185.56C123.911 188.144 122.207 191.576 120.063 194.736C114.611 202.77 104.237 204.984 95.8805 200.58C92.1232 198.602 88.9272 196.135 84.8112 194.88C80.3819 193.53 74.7912 193.639 72.4899 188.943C72.6352 188.683 72.7446 188.396 72.7899 188.086C72.8032 187.991 72.8179 187.896 72.8312 187.802C72.9806 186.787 72.4912 185.808 71.6779 185.268C72.5339 184.451 72.7579 183.015 72.2006 181.974C72.2699 181.859 72.3419 181.746 72.4126 181.631C72.8006 182.048 73.3139 182.35 73.9099 182.438C75.3059 182.642 76.6419 181.648 76.8472 180.252L76.8886 179.967C77.0726 178.715 76.2886 177.519 75.1166 177.135C75.7912 175.984 76.4579 174.828 77.1166 173.67C77.3392 173.906 77.6152 174.102 77.9566 174.236C77.2419 174.61 76.7032 175.299 76.5779 176.143C76.3739 177.539 77.3672 178.875 78.7632 179.08L79.0472 179.123C80.4432 179.328 81.7806 178.334 81.9859 176.938C82.1686 175.687 81.3872 174.492 80.2206 174.108C81.5739 173.303 81.8832 171.195 80.8192 170.036C80.9552 170.08 81.0939 170.122 81.2392 170.143L81.5232 170.186C82.9192 170.39 84.2552 169.396 84.4606 168C84.6659 166.604 83.6726 165.268 82.2766 165.063L82.1566 165.046C84.4366 161.004 86.4819 156.854 88.2899 152.615C87.1486 160.556 86.8966 168.599 87.5672 176.692C87.7046 178.356 90.2739 178.036 90.1366 176.375C89.1952 165.015 90.0872 153.704 92.8219 142.688C92.3779 158.999 95.6472 175.286 102.518 190.256C103.211 191.767 105.618 190.81 104.919 189.29C96.9126 171.844 93.9072 152.683 96.0632 133.75C98.3845 148.682 103.698 162.92 111.734 175.808C112.618 177.228 114.689 175.672 113.811 174.264C106.279 162.186 101.262 148.868 98.8899 134.924C100.693 138.903 103.038 142.682 105.187 146.431C108.827 152.783 112.929 158.831 118.01 164.122C119.151 165.31 121.241 163.78 120.086 162.576C115.677 157.984 112.057 152.843 108.753 147.414C105.519 142.1 101.67 136.266 99.7526 130.215C109.471 139.904 120.139 149.511 133.133 154.032C133.183 154.279 133.307 154.519 133.527 154.731C139.278 160.243 140.294 168.84 136.765 175.832C135.357 178.623 132.845 180.702 130.33 182.683ZM69.9632 180.731C67.9992 180.722 67.1059 182.803 67.6646 184.335C66.9779 185.382 66.2779 186.42 65.5646 187.447C65.2032 187.13 64.7566 186.907 64.2539 186.832L63.9686 186.791C62.5726 186.584 61.2379 187.578 61.0326 188.975C60.8646 190.112 61.4992 191.198 62.4926 191.678C62.1699 192.1 61.8419 192.519 61.5126 192.938C61.6206 191.707 60.9766 190.42 59.4006 190.188C56.0979 189.703 55.3459 194.824 58.6486 195.31C59.0046 195.362 59.3259 195.339 59.6219 195.274C59.1966 195.782 58.7659 196.287 58.3299 196.786C58.0046 196.515 57.5846 196.316 57.0579 196.24C54.4206 195.852 53.4166 199.035 54.7992 200.582C54.7912 200.591 54.7832 200.6 54.7739 200.608C53.7112 200.63 52.9739 201.27 52.6192 202.092C52.5206 202.04 52.4139 202.007 52.3019 201.984C53.7472 200.724 53.5486 197.758 51.0739 197.395C49.2446 197.127 48.2032 198.578 48.1939 200.01C47.8752 199.879 47.5059 199.907 47.1512 200.171C48.4619 198.571 49.7179 196.91 50.9392 195.207C51.2086 195.988 51.8392 196.635 52.9072 196.792C56.2099 197.278 56.9619 192.156 53.6592 191.671C53.5819 191.659 53.5099 191.66 53.4339 191.655C54.0166 190.814 54.5926 189.968 55.1672 189.123C55.5059 189.447 55.9646 189.684 56.5552 189.771C59.2312 190.164 60.2326 186.875 58.7579 185.355C59.8672 185.248 60.5912 184.447 60.8499 183.499C61.1952 183.862 61.6766 184.128 62.3112 184.222C65.6139 184.707 66.3672 179.584 63.0646 179.099C62.5526 179.024 62.1086 179.091 61.7259 179.247C64.1992 175.464 66.6579 171.675 69.1526 167.914C69.2886 167.707 69.3539 167.496 69.3739 167.29C70.6539 166.927 71.2992 165.566 71.1259 164.332C71.3726 164.219 71.5886 164.011 71.7206 163.678C74.7966 155.919 77.4579 148.032 79.7459 140.008C81.9806 132.17 84.7739 123.531 84.5232 115.306C84.5446 115.26 84.5685 115.214 84.5832 115.167C84.7219 115.074 84.8419 114.951 84.9179 114.783C85.0472 114.69 85.1832 114.623 85.3152 114.536C85.6872 114.539 86.0432 114.372 86.2579 113.978C89.0872 112.532 92.3606 112.474 95.3272 113.88C95.2832 114.382 95.2259 114.879 95.1765 115.379C95.0832 115.586 95.0486 115.823 95.1046 116.083C93.3592 132.643 88.3459 148.542 80.2779 163.115C80.0485 163.227 79.8432 163.411 79.6939 163.686C76.6032 169.366 73.4286 175.144 69.9632 180.731ZM45.1472 205.322C46.3112 204.328 47.4592 203.324 48.5926 202.322C48.7499 202.183 48.8619 202.027 48.9352 201.864C49.2752 202.19 49.7312 202.43 50.3219 202.518C50.3806 202.524 50.4326 202.519 50.4899 202.524C48.6432 203.334 46.8686 204.28 45.1472 205.322ZM41.9246 210.847C41.8006 210.822 41.6726 210.82 41.5419 210.835C43.6006 209.34 45.7112 207.93 47.9179 206.696C46.0112 208.18 44.0232 209.575 41.9246 210.847ZM80.2339 115.308C80.4566 115.207 80.6819 115.11 80.9032 115.008C80.8366 115.191 80.7659 115.374 80.6965 115.558C80.5832 115.667 80.4672 115.771 80.3539 115.88C80.3565 115.683 80.3139 115.49 80.2339 115.308ZM61.3632 158.948C57.1539 163.242 52.3552 167.182 46.6766 169.303C42.5099 170.86 37.8166 170.395 34.0766 168.039C31.6872 166.534 29.7672 164.287 27.4792 162.624C23.5499 159.772 18.3752 158.908 14.1019 156.654C8.23789 153.558 4.01122 148.136 3.20589 141.512C2.37922 134.72 7.45389 131.599 10.3979 126.431C13.1592 121.582 12.2646 112.731 18.6939 111.007C18.8459 110.966 18.9672 110.904 19.0739 110.832C22.0872 112.927 25.4846 114.535 28.6726 115.728C37.2672 118.944 46.7539 119.132 55.8086 119.511C61.3606 119.742 66.9379 119.746 72.2752 118.464C65.7099 121.518 58.1099 122.583 51.1166 123.891C40.3512 125.906 29.1939 126.79 18.7659 122.818C17.2099 122.224 16.1632 124.592 17.7219 125.186C28.6672 129.355 40.1192 128.471 51.4339 126.462C55.7992 125.684 60.4032 124.938 64.8646 123.771C51.5246 129.77 37.1152 133.064 22.3766 133.474C20.7099 133.52 21.0379 136.09 22.6939 136.043C39.7339 135.57 56.2939 131.247 71.3592 123.487C54.3126 136.243 33.3766 143.312 11.9179 143.395C10.2539 143.402 10.5859 145.971 12.2366 145.964C32.8059 145.886 52.8259 139.447 69.5926 127.912C60.1979 136.891 49.1006 143.888 36.8206 148.528C35.2592 149.119 36.2246 151.519 37.7872 150.93C52.7819 145.264 66.0899 136.115 76.7432 124.232C68.5246 139.362 54.7646 151.022 38.2099 156.503C36.6259 157.027 37.5979 159.427 39.1779 158.904C58.2619 152.584 73.8885 138.159 81.7965 119.776C81.4739 123.242 80.6992 126.747 79.7939 130.184C79.6632 130.304 79.5525 130.463 79.4739 130.671C75.4379 141.32 69.3352 150.819 61.3632 158.948ZM6.43389 79.1416C6.77922 83.5736 9.34189 87.4216 9.73922 91.8816C10.0779 95.6856 9.88189 99.1069 11.6006 102.624C12.7912 105.059 14.5672 107.163 16.6606 108.97C12.1712 110.816 10.9726 115.87 9.97922 120.334C8.47922 127.072 2.18323 130.772 0.777892 137.618C-2.04611 151.366 11.7312 158.79 22.1819 162.806C28.8552 165.371 32.3339 171.731 39.7779 172.711C46.5059 173.598 52.8846 169.632 57.8672 165.618C65.0886 159.798 71.1006 152.502 75.7752 144.456C73.9206 150.506 71.7846 156.47 69.4606 162.352C69.3219 162.31 69.1832 162.267 69.0286 162.244C66.3286 161.848 65.3366 165.195 66.8659 166.696C65.4446 168.842 64.0272 170.99 62.6086 173.136C62.5246 172.074 61.8619 171.075 60.4939 170.874C57.1912 170.388 56.4379 175.511 59.7406 175.995C60.1099 176.05 60.4419 176.024 60.7459 175.954C59.7966 177.388 58.8432 178.819 57.8926 180.254C57.8459 180.263 57.7939 180.264 57.7472 180.278C58.3766 178.858 57.8672 176.883 55.8752 176.59C52.5726 176.106 51.8206 181.227 55.1232 181.712C55.5219 181.771 55.8832 181.743 56.2059 181.656C56.0006 182.119 55.9206 182.636 55.9686 183.139C55.2139 184.274 54.4579 185.407 53.7006 186.539C53.4232 185.774 52.7859 185.147 51.7339 184.992C48.4312 184.508 47.6792 189.63 50.9819 190.115C51.0952 190.131 51.1979 190.127 51.3059 190.13C51.1766 190.323 51.0472 190.519 50.9179 190.712C50.6846 191.056 50.4499 191.4 50.2152 191.743C49.9086 191.519 49.5299 191.354 49.0659 191.287C46.7779 190.951 45.7179 193.3 46.3752 194.94C46.0272 194.548 45.5326 194.255 44.8646 194.158C41.5619 193.672 40.8099 198.794 44.1126 199.279C44.2646 199.3 44.4099 199.31 44.5512 199.31C42.2432 202.064 39.7259 204.619 36.9006 206.822C31.9406 210.202 24.0139 213.596 18.3566 210.756C16.8606 210.007 15.8286 212.382 17.3139 213.127C21.2619 215.108 26.0766 214.566 30.5299 212.97C23.5712 217.128 15.9486 219.792 7.42456 219.027C5.76856 218.879 5.38456 221.44 7.04856 221.588C15.9392 222.386 23.8819 219.762 31.1432 215.558C31.0326 215.642 30.9219 215.728 30.8112 215.811C24.5259 220.595 18.1939 225.395 14.8419 232.767C14.1499 234.291 16.5219 235.327 17.2112 233.811C20.0526 227.563 25.2526 223.314 30.5712 219.248C27.7686 221.971 25.2752 225.01 23.1926 228.616C22.3566 230.063 24.7379 231.086 25.5619 229.659C28.4232 224.704 32.2032 220.878 36.4952 217.48C33.8392 221.858 32.3752 226.931 31.1952 232.074C30.8219 233.702 33.3859 234.067 33.7566 232.451C35.4272 225.162 37.6299 217.892 43.6912 213.039C43.8886 212.88 44.0139 212.698 44.0912 212.507C47.4552 210.386 50.5699 207.994 53.4632 205.375C53.7499 205.555 54.0926 205.686 54.4979 205.746C56.8859 206.096 57.9299 203.523 57.0819 201.884C57.3259 201.634 57.5672 201.379 57.8072 201.126C57.8899 201.083 57.9712 201.039 58.0472 200.988C57.3379 202.411 57.8246 204.491 59.8712 204.792C63.1739 205.276 63.9259 200.155 60.6232 199.67C59.9099 199.566 59.3246 199.732 58.8646 200.046C58.8792 200.019 58.8846 199.987 58.8979 199.959C59.6259 199.163 60.3366 198.351 61.0366 197.527C61.2979 198.327 61.9379 198.991 63.0246 199.151C66.2952 199.631 67.0592 194.619 63.8659 194.051C65.2366 192.291 66.5579 190.486 67.8339 188.642C68.1672 189.478 68.9126 190.132 69.8526 190.271C69.9979 190.292 70.1419 190.294 70.2859 190.29C71.9566 193.466 74.9899 195.256 78.5205 196.087C81.6512 196.824 84.7299 197.378 87.6659 198.748C90.1579 199.914 92.4512 201.576 94.8379 202.951C102.866 207.574 113.179 205.783 119.625 199.192C123.749 194.976 125.867 189.643 130.479 185.786C130.597 185.687 130.71 185.592 130.826 185.496C144.978 190.438 159.974 185.188 174.426 185.527C174.869 186.06 175.75 186.051 176.287 185.603C180.505 185.852 184.67 186.636 188.749 188.355C189.663 188.742 190.665 188.002 190.555 187.012C188.783 170.974 186.121 152.854 172.178 142.82C172.843 141.964 173.51 141.107 174.193 140.255C179.071 134.166 187.598 132.034 189.709 123.86C191.414 117.255 183.35 112.187 180.758 107.115C177.05 99.8616 179.603 91.3682 174.283 84.5536C170.535 79.7522 164.169 77.5229 158.238 78.1496C159.965 75.1949 161.002 71.9042 161.099 68.4122C161.241 63.4349 158.133 59.5936 155.005 56.0909C151.065 51.6802 149.066 46.7563 146.154 41.7296C143.569 37.2616 139.797 34.7482 134.935 33.1829C130.091 31.6229 124.847 31.3576 119.821 30.8296C113.829 30.1976 107.822 29.3669 101.794 29.2162C95.4632 29.0576 89.8045 30.9082 84.9272 34.1602C83.7672 30.4149 82.1405 27.0669 80.1405 24.0696C80.1379 23.7296 80.1406 23.3922 80.1272 23.0496C80.0899 22.1522 79.3286 21.8376 78.6432 21.9922C74.4886 16.5816 69.0392 12.4322 62.9046 9.27357C62.7299 8.92957 62.5246 8.59891 62.2886 8.28558C61.7739 7.60291 60.9819 7.67625 60.4619 8.08558C50.9099 3.68559 39.9752 1.47491 29.7806 0.532241C28.9126 0.452241 27.8819 1.37226 28.3912 2.29626C36.3246 16.6856 23.3006 32.7309 27.8206 47.8709C27.8326 47.9123 27.8512 47.9456 27.8659 47.9842C15.9819 53.7362 5.39656 65.7736 6.43389 79.1416Z" fill="#C8AB79"/>
<path d="M45.4932 189.889C46.8892 190.093 48.2252 189.1 48.4305 187.704L48.4718 187.42C48.6772 186.024 47.6838 184.688 46.2878 184.483C44.8918 184.277 43.5558 185.272 43.3505 186.668L43.3078 186.952C43.1038 188.348 44.0972 189.684 45.4932 189.889Z" fill="#C8AB79"/>
</svg>
