<svg width="247" height="227" viewBox="0 0 247 227" fill="none" xmlns="http://www.w3.org/2000/svg">
<path d="M180.239 196.955C180.146 196.911 180.045 196.873 179.93 196.853C152.787 192.063 131.243 173.091 105.538 164.345C93.93 160.396 80.5593 158.312 68.838 162.824C56.0953 167.729 45.2033 178.159 37.9073 189.513C24.3087 196.988 15.2767 210.929 7.22602 224.063C7.21935 224.073 7.21534 224.085 7.21 224.096C5.49534 223.284 4.13667 221.981 3.25934 220.237C9.88867 211.053 16.53 201.877 23.3673 192.847C30.3447 183.629 37.31 173.532 46.1447 165.993C53.962 159.321 64.9393 155.897 74.8553 153.901C80.0167 152.863 85.294 152.409 90.542 152.613C90.9007 153.025 91.5247 153.243 92.11 152.867C92.19 152.816 92.2687 152.761 92.3473 152.709C96.562 152.997 100.747 153.715 104.821 154.919C114.893 157.895 123.647 164.175 132.607 169.433C140.941 174.324 149.717 178.424 158.746 181.852C175.011 188.029 192.242 191.6 209.599 192.648C200.314 196.229 190.285 197.125 180.239 196.955ZM160.149 195.645C156.451 195.307 152.763 194.899 149.077 194.464C132.309 185.931 115.522 176.312 96.8607 172.671C80.418 169.463 62.078 172.689 50.0407 184.961C50.022 184.98 50.0113 184.999 49.994 185.016C49.0247 185.22 48.0593 185.453 47.1047 185.723C45.3473 186.22 43.658 186.819 42.03 187.507C49.314 177.421 59.2287 168.963 70.8793 164.48C83.3793 159.668 98.602 163.919 110.491 168.588C130.551 176.467 148.213 189.829 168.706 196.38C165.825 196.16 162.966 195.904 160.149 195.645ZM128.623 191.716C128.521 191.488 128.317 191.301 127.979 191.213C110.051 186.537 87.79 169.071 69.9833 183.781C69.85 183.891 69.754 184.013 69.686 184.143C64.474 183.792 59.1527 183.7 53.9567 184.357C66.5287 173.333 84.5447 172.116 100.363 175.733C115.234 179.136 129.041 186.601 142.577 193.661C137.921 193.057 133.27 192.395 128.623 191.716ZM101.274 187.695C91.858 186.368 82.4167 185.195 72.9393 184.391C86.6753 174.731 103.369 184.141 118.061 190.159C112.467 189.321 106.873 188.483 101.274 187.695ZM76.5833 141.933C76.7247 141.861 76.8593 141.755 76.978 141.601C82.5033 134.424 89.314 128.396 94.6273 121.033C99.39 114.436 103.059 107.077 105.987 99.5065C112.051 83.8172 114.345 66.8119 114.873 50.0865C114.879 49.8559 114.825 49.6572 114.733 49.4865C116.541 45.5879 118.185 41.5959 119.621 37.4652C119.854 36.7945 120.065 36.1159 120.287 35.4412C121.269 56.3705 122.089 78.2332 115.443 98.2599C111.93 108.849 105.893 118.415 98.318 126.555C90.5953 134.853 81.45 141.653 74.5153 150.685C75.2127 147.772 75.898 144.853 76.5833 141.933ZM80.9913 123.656C81.2073 123.599 81.414 123.467 81.5847 123.232C87.9873 114.365 94.314 105.431 98.8153 95.4185C102.763 86.6372 104.769 77.0279 105.078 67.4252C107.691 63.0959 110.158 58.7292 112.421 54.2585C111.653 68.9812 109.326 83.6079 104.298 97.5185C101.458 105.375 97.5967 112.825 92.806 119.665C88.3793 125.987 82.7153 131.244 77.7233 137.084C78.7807 132.6 79.854 128.119 80.9913 123.656ZM84.6873 110.149C88.7553 96.4679 94.9593 83.6559 102.521 71.5825C101.795 79.4932 99.8633 87.1892 96.7033 94.5652C93.0767 103.027 87.806 110.685 82.4367 118.155C83.158 115.477 83.898 112.805 84.6873 110.149ZM122.154 29.3145C124.443 20.9918 125.919 12.4439 126.651 3.8452C130.865 8.3292 130.73 16.0652 130.982 21.8519C131.273 28.5679 130.869 35.3065 130.371 42.0025C129.327 56.0159 128.057 70.0292 126.743 84.0199C125.682 95.3305 123.879 106.455 119.609 116.919C119.161 117.204 118.995 117.736 119.077 118.201C118.477 119.595 117.837 120.98 117.142 122.348C111.383 133.687 102.435 143.268 91.886 150.289C87.082 149.98 82.1247 150.216 77.2033 150.936C84.2833 142.095 93.3873 135.179 101.091 126.901C108.486 118.955 113.978 109.327 117.557 99.1132C125.211 77.2652 123.345 52.5345 122.297 29.8185C122.287 29.6172 122.234 29.4518 122.154 29.3145ZM133.543 90.6839C132.053 99.2639 129.415 107.707 123.335 113.987C125.925 105.847 129.353 98.0385 133.543 90.6839ZM136.071 86.4545C138.122 83.1719 140.323 79.9865 142.674 76.9145C142.066 78.7772 141.534 80.6612 141.154 82.6039C140.379 86.5479 140.594 90.6545 140.091 94.6385C138.965 103.544 132.134 110.197 125.773 115.904C125.358 115.929 124.943 115.968 124.53 116.007C132.111 108.457 134.883 97.8559 136.37 87.3732C136.427 86.9745 136.294 86.6652 136.071 86.4545ZM146.457 72.2305C148.246 70.1185 150.101 68.0599 152.031 66.0719C151.133 67.9225 150.394 69.8612 149.833 71.9025C148.487 76.8105 148.762 81.9892 148.557 87.0239C148.069 99.0612 141.399 109.944 130.781 115.688C130.658 115.756 130.559 115.839 130.475 115.927C130.046 115.893 129.615 115.88 129.186 115.863C134.127 111.267 138.678 106.267 141.143 99.8559C142.625 96.0039 142.679 91.7639 142.909 87.6999C143.201 82.5452 144.641 77.8599 146.465 73.0625C146.583 72.7505 146.561 72.4679 146.457 72.2305ZM158.997 59.4519C160.91 57.7732 162.877 56.1492 164.898 54.5905C161.006 64.1345 158.835 74.3839 158.839 84.7132C158.842 91.8879 159.694 98.9559 157.13 105.832C154.786 112.113 149.786 117.1 144.201 120.592C142.999 119.84 141.761 119.144 140.465 118.531C138.401 117.553 136.218 116.852 133.982 116.409C141.79 111.432 147.393 103.829 149.775 94.7679C151.162 89.4945 150.806 83.9879 151.105 78.5945C151.491 71.6332 154.154 65.3345 158.725 60.0999C158.911 59.8865 158.991 59.6639 158.997 59.4519ZM171.391 91.7105C171.466 92.6839 173.071 93.1332 173.615 92.0119C173.617 92.0092 173.618 92.0052 173.621 92.0012C174.91 92.2265 176.21 92.5425 177.503 92.9319C177.771 93.6079 178.638 94.0185 179.221 93.4945C184.337 95.2705 189.275 97.9652 193.138 99.9705C202.343 104.751 211.471 108.539 221.677 110.012C219.139 111.829 216.469 113.524 213.702 115.069C213.417 114.796 213.007 114.645 212.537 114.785C202.693 117.707 193.537 110.479 184.619 107.489C176.478 104.761 167.669 104.319 159.231 105.719C160.493 102.124 161.159 98.2305 161.258 94.0812C164.271 91.9972 167.761 91.4092 171.391 91.7105ZM175.495 75.5225C175.281 80.4132 174.15 85.1559 172.181 89.6532C171.401 89.5652 170.622 89.5039 169.85 89.4905C171.047 84.4359 172.997 79.8079 175.495 75.5225ZM177.691 72.0439C179.165 69.8759 180.774 67.7945 182.495 65.7945C181.99 67.9852 181.875 70.2865 181.905 72.6145C181.989 79.2679 181.539 85.1412 178.194 90.9132C176.975 90.5519 175.743 90.2545 174.511 90.0159C176.863 84.4545 177.947 78.5559 177.787 72.4772C177.783 72.3092 177.747 72.1665 177.691 72.0439ZM186.971 60.9959C189.075 58.8972 191.281 56.8812 193.558 54.9412C191.089 59.1305 189.961 63.9319 189.533 68.9705C188.833 77.1865 191.238 86.7625 185.045 93.4012C185.033 93.4159 185.025 93.4292 185.013 93.4439C183.531 92.7932 181.982 92.1785 180.401 91.6265C182.415 88.0305 183.651 84.2079 184.101 80.0425C184.771 73.8652 182.814 67.1039 186.747 61.6825C186.914 61.4545 186.978 61.2185 186.971 60.9959ZM205.849 45.3585C203.294 53.2385 201.474 60.9345 201.294 69.3959C201.073 79.8119 198.595 88.9959 190.449 96.0372C190.211 95.9185 189.977 95.7999 189.738 95.6799C188.917 95.2679 188.053 94.8452 187.163 94.4252C191.486 89.5159 191.699 83.0919 191.638 76.8159C191.553 68.0679 192.014 58.5799 198.602 52.0265C199.019 51.6119 199.037 51.0665 198.842 50.6345C201.157 48.8239 203.505 47.0705 205.849 45.3585ZM215.611 53.5959C214.123 54.3065 212.661 55.0745 211.213 55.8719C210.529 50.8839 211.655 45.9385 214.537 41.7398C214.57 41.6918 214.593 41.6425 214.617 41.5932C216.774 40.1452 219.003 38.8185 221.303 37.6212C218.138 42.4599 216.515 47.8119 215.611 53.5959ZM231.091 33.4279C227.226 38.5932 224.394 44.3385 222.642 50.6065C221.118 51.1772 219.61 51.7932 218.119 52.4492C219.153 46.7519 220.989 41.5652 224.635 36.8705C224.89 36.5425 224.923 36.1999 224.823 35.8999C226.863 34.9812 228.95 34.1519 231.091 33.4279ZM237.022 32.0665C238.129 31.8159 239.19 31.9132 240.205 32.3599C240.055 33.9159 239.43 35.4612 238.917 36.9265C237.553 40.8252 235.173 44.2559 232.378 47.2532C232.259 47.3812 232.182 47.5132 232.137 47.6465C229.831 48.2159 227.557 48.8892 225.313 49.6465C227.318 43.3505 230.437 37.6332 234.706 32.5265C234.733 32.4932 234.75 32.4612 234.771 32.4279C235.517 32.2839 236.266 32.1599 237.022 32.0665ZM210.402 44.6559C208.802 48.5559 208.327 52.8225 209.099 57.0705C207.455 58.0359 205.835 59.0479 204.251 60.1279C204.293 59.8332 204.325 59.5372 204.374 59.2425C205.097 54.7932 206.474 50.4625 207.934 46.1905C208.211 46.2479 208.515 46.1879 208.803 45.9479C209.33 45.5079 209.865 45.0785 210.402 44.6559ZM243.013 47.9839C240.721 52.1999 238.143 56.2319 235.334 60.0825C235.177 59.8719 234.929 59.7225 234.574 59.7012C223.529 59.0225 212.841 61.9359 203.682 68.1145C203.738 66.3839 203.801 64.6532 203.939 62.9252C204.122 62.9052 204.31 62.8439 204.493 62.7159C215.959 54.6252 229.114 49.6199 243.013 47.9839ZM228.163 68.9292C228.059 68.5599 227.766 68.2665 227.247 68.2492C218.758 67.9652 210.719 69.9945 203.399 74.2372C203.493 72.9665 203.553 71.6972 203.599 70.4292C203.895 70.5159 204.231 70.4852 204.554 70.2625C213.221 64.2612 223.446 61.3705 233.966 61.9479C232.129 64.3572 230.191 66.6852 228.163 68.9292ZM219.245 77.7159C219.049 77.5865 218.803 77.5172 218.505 77.5532C212.846 78.2319 207.387 79.6132 202.113 81.7012C202.578 80.0505 202.938 78.3559 203.166 76.6105C203.447 76.6772 203.759 76.6479 204.061 76.4652C210.934 72.3159 218.685 70.2839 226.702 70.5052C224.333 73.0252 221.841 75.4292 219.245 77.7159ZM196.205 93.2905C198.323 90.6332 199.966 87.6985 201.163 84.5572C206.074 82.4465 211.137 80.9785 216.389 80.1492C210.191 85.2399 203.427 89.6585 196.205 93.2905ZM201.351 120.629C201.342 120.625 201.334 120.621 201.325 120.617C187.422 115.76 170.463 106.917 155.654 112.859C156.735 111.26 157.657 109.575 158.419 107.808C158.627 107.985 158.914 108.079 159.273 108.017C169.211 106.324 179.107 107.471 188.409 111.351C195.083 114.135 201.53 117.896 208.653 117.659C206.267 118.777 203.826 119.772 201.351 120.629ZM190.015 123.463C189.995 123.451 189.979 123.435 189.958 123.423C181.378 118.7 171.566 117.176 161.953 119.037C161.797 119.068 161.663 119.125 161.546 119.197C159.497 118.119 157.494 116.847 155.55 115.368C162.97 112.044 170.855 113.012 178.454 115.181C184.971 117.041 191.361 119.477 197.753 121.767C195.195 122.499 192.61 123.068 190.015 123.463ZM165.101 120.856C172.233 119.988 179.315 121.041 185.87 123.936C178.803 124.472 171.75 123.592 165.101 120.856ZM162.623 137.904C174.467 146.543 187.611 153.369 201.383 158.368C199.338 158.769 197.285 159.107 195.227 159.392C195.015 159.115 194.679 158.929 194.233 158.972C193.806 159.012 193.382 159.036 192.961 159.059C192.77 158.679 192.389 158.407 191.843 158.476C183.781 159.495 175.595 152.043 169.642 147.471C163.183 142.511 156.959 137.145 149.837 133.133C139.265 127.179 126.123 124.177 115.191 130.049C116.415 128.201 117.57 126.3 118.65 124.344C119.654 122.525 120.546 120.667 121.363 118.781C122.815 118.484 124.269 118.296 125.715 118.207C125.99 118.341 126.311 118.353 126.623 118.164C132.158 117.987 137.597 119.325 142.555 122.184C149.831 126.379 155.837 132.955 162.623 137.904ZM182.13 160.437C181.93 160.133 181.581 159.945 181.099 160.051C178.517 160.611 175.878 160.492 173.426 159.649C173.29 159.328 173.018 159.06 172.587 158.972C172.143 158.88 171.707 158.779 171.269 158.68C171.203 158.643 171.133 158.615 171.066 158.576C170.782 158.412 170.491 158.383 170.226 158.437C160.403 156.044 152.01 151.615 143.063 146.816C134.845 142.409 126.351 143.036 118.055 146.805C115.507 146.003 112.907 145.368 110.297 145.072C115.853 140.328 122.667 137.876 130.023 137.471C138.85 136.983 147.079 140.812 154.473 145.216C163.823 150.788 173.051 157.852 183.601 160.4C183.11 160.419 182.621 160.427 182.13 160.437ZM148.143 156.8C138.933 154.652 130.251 151.228 121.41 147.955C121.377 147.943 121.341 147.931 121.307 147.919C125.058 146.48 128.934 145.656 133.038 145.919C138.337 146.257 143.094 149.377 147.555 151.948C153.567 155.412 159.958 158.024 166.607 159.856C160.413 159.251 154.242 158.223 148.143 156.8ZM101.797 145.513C105.645 142.095 109.122 138.3 112.233 134.196C112.534 134.288 112.877 134.256 113.203 134.011C126.978 123.681 144.162 131.365 156.415 140.141C162.717 144.655 168.563 149.764 174.937 154.184C175.965 154.896 177.03 155.624 178.126 156.328C167.865 152.201 158.634 144.413 148.919 139.589C135.361 132.857 118.642 133.749 107.446 144.583C107.346 144.68 107.275 144.785 107.217 144.893C105.402 144.891 103.591 145.073 101.797 145.513ZM216.307 191.632C216.499 190.797 215.79 189.8 214.837 190.295C214.637 190.4 214.433 190.496 214.23 190.596C194.283 189.875 174.674 185.744 156.113 178.387C146.385 174.531 137.198 169.623 128.27 164.189C119.561 158.887 110.858 153.795 100.806 151.543C99.046 151.149 97.2433 150.844 95.4127 150.62C96.426 149.895 97.414 149.141 98.3873 148.372C98.666 148.68 99.1007 148.837 99.602 148.627C108.303 144.96 117.491 148.819 125.703 152.043C134.066 155.327 142.63 157.964 151.414 159.86C169.253 163.709 187.925 163.964 205.717 159.761C206.726 159.523 207.186 157.975 205.997 157.575C189.29 151.96 173.722 143.653 159.753 132.907C155.169 129.38 150.978 125.276 146.25 121.956C148.843 120.26 151.081 118.353 152.981 116.257C174.915 134.168 204.857 125.859 225.345 110.136C226.117 109.543 225.791 108.204 224.793 108.105C212.934 106.924 202.989 102.308 192.629 97.1292C192.737 97.0305 192.837 96.9265 192.943 96.8279C193.213 97.0225 193.571 97.0879 193.975 96.9012C216.375 86.5105 234.699 68.9545 246.078 47.0465C246.494 46.2479 245.657 45.4185 244.877 45.4905C241.794 45.7745 238.749 46.2319 235.742 46.8385C238.505 43.4412 240.518 39.6412 241.811 35.3852C243.033 31.3679 242.547 29.7599 238.165 29.7345C233.009 29.7052 227.733 32.0372 223.134 34.1052C218.113 36.3639 213.433 39.3532 209.114 42.7639C209.467 41.6985 208.293 40.7799 207.359 41.4519C190.215 53.7919 172.435 67.9532 167.497 89.5772C165.322 89.7852 163.221 90.3545 161.269 91.4119C161.129 77.3812 162.689 64.4519 168.714 51.5385C169.215 50.4639 167.837 49.5839 166.962 50.2105C149.879 62.4412 136.215 78.8985 127.278 97.7599C128.031 93.3025 128.566 88.8012 129.003 84.3105C130.497 68.9719 131.903 53.5798 132.918 38.2025C133.373 31.3025 133.487 24.3852 133.013 17.4825C132.591 11.3492 131.833 4.39719 126.391 0.61186C125.727 0.149194 124.642 0.486523 124.578 1.37852C123.673 14.2425 121.021 26.8345 116.674 38.9759C113.457 47.9612 109.015 56.1412 104.242 64.2172C103.609 64.0119 102.866 64.2692 102.859 65.1092C102.855 65.6145 102.825 66.1159 102.811 66.6185C101.098 69.4799 99.354 72.3359 97.618 75.2199C83.4473 98.7719 78.2673 125.527 71.898 151.897C62.3527 153.989 53.2087 157.9 45.9047 163.275C36.8713 169.923 30.102 180.311 23.35 189.111C15.7953 198.953 8.54467 209.024 1.28201 219.084C1.21267 219.18 1.16469 219.279 1.12869 219.376C0.830018 219.656 0.682017 220.083 0.890017 220.575C2.19668 223.643 4.72734 225.933 7.95801 226.811C9.13534 227.129 9.93535 225.691 9.31535 224.996C17.0553 212.388 25.7087 199.179 38.446 191.908C38.782 191.947 39.1287 191.815 39.374 191.425C39.386 191.405 39.3993 191.387 39.4113 191.368C43.038 189.416 46.9887 187.94 51.3367 187.091C60.43 185.316 69.9127 186.331 79.0433 187.244C88.6687 188.208 98.2553 189.541 107.826 190.935C121.326 192.9 134.809 195.017 148.35 196.643C148.619 196.779 148.867 196.793 149.083 196.732C154.497 197.373 159.921 197.943 165.361 198.379C181.869 199.701 199.507 200.391 214.73 192.889C214.839 192.892 214.947 192.899 215.057 192.901C215.859 192.925 216.309 192.251 216.307 191.632Z" fill="#C8AB79"/>
</svg>
