<svg width="196" height="190" viewBox="0 0 196 190" fill="none" xmlns="http://www.w3.org/2000/svg">
<path d="M85.8979 113.342C79.0512 107.001 76.4125 96.3451 81.7312 88.2504C87.6445 79.2544 100.867 85.5864 107.57 90.3264C107.571 90.3318 107.573 90.3371 107.574 90.3424C110.678 97.7518 112.922 106.042 108.758 113.508C103.253 123.373 92.5019 119.46 85.8979 113.342ZM102.247 130.274C103.222 132.917 104.025 135.492 106.129 137.454C107.087 138.348 108.391 136.79 107.434 135.898C105.415 134.014 104.729 131.133 103.802 128.62C103.318 127.309 102.87 126.036 102.55 124.736C104.163 127.001 106.471 128.626 109.249 129.429C110.51 129.793 110.87 127.792 109.623 127.432C106.681 126.582 104.327 124.477 103.123 121.666C103.017 121.417 102.849 121.253 102.654 121.153C103.054 121.025 103.453 120.882 103.845 120.709C106.17 125.092 112.842 126.93 117.247 128.025C118.523 128.342 118.886 126.342 117.622 126.028C115.465 125.492 113.39 124.78 111.355 123.886C109.282 122.977 106.686 121.856 105.609 119.74C106.181 119.36 106.741 118.925 107.282 118.421C107.502 118.216 107.706 118.008 107.911 117.798C108.982 119.741 112.029 120.73 113.889 121.49C116.705 122.644 119.717 123.268 122.742 123.506C124.037 123.608 124.422 121.612 123.117 121.509C120.893 121.334 118.741 120.936 116.599 120.306C114.95 119.821 110.109 118.381 109.553 116.486C109.509 116.336 109.441 116.214 109.359 116.117C109.613 115.781 109.857 115.441 110.081 115.096C116.229 118.202 122.703 118.881 129.545 119.153C130.855 119.206 130.686 117.178 129.394 117.128C122.934 116.87 116.883 116.217 111.082 113.328C111.451 112.572 111.767 111.801 112.023 111.014C112.15 111.212 112.353 111.372 112.643 111.44C120.043 113.165 128.562 112.766 135.715 110.192C136.949 109.749 136.265 107.836 135.033 108.28C128.245 110.721 120.037 111.08 113.018 109.442C112.801 109.392 112.61 109.412 112.449 109.474C112.615 108.748 112.755 108.016 112.839 107.273C119.279 107.861 125.486 106.754 131.286 103.862C132.443 103.285 131.773 101.366 130.601 101.95C125.105 104.69 119.226 105.845 113.101 105.266C113.058 105.262 113.019 105.266 112.979 105.266C113.003 104.248 112.967 103.22 112.87 102.186C119.443 102.237 125.838 99.8358 132.085 98.0478C133.345 97.6878 132.653 95.7771 131.401 96.1358C125.285 97.8851 119.046 100.232 112.617 100.16C112.535 99.6464 112.443 99.1318 112.338 98.6184C119.701 95.5998 126.603 91.7278 133.005 86.9891C134.055 86.2118 132.893 84.5451 131.837 85.3264C125.643 89.9118 118.989 93.6731 111.873 96.6131C111.715 96.0104 111.549 95.4104 111.367 94.8144C115.667 93.0691 119.575 90.7011 123.09 87.6531C124.067 86.8051 122.911 85.1304 121.921 85.9904C118.554 88.9118 114.851 91.2011 110.729 92.8811C110.547 92.3678 110.362 91.8571 110.167 91.3504C110.425 91.2931 110.666 91.1411 110.837 90.8678C114.249 85.3811 120.566 81.3318 125.414 77.1718C126.397 76.3264 125.241 74.6531 124.246 75.5091C119.281 79.7704 113.097 83.8611 109.405 89.3891C109.435 89.2851 109.457 89.1731 109.454 89.0478C109.357 85.4531 112.11 82.1758 114.034 79.3584C115.77 76.8144 117.791 74.4184 120.426 72.7811C121.538 72.0891 120.369 70.4278 119.258 71.1184C115.807 73.2624 113.423 76.5851 111.218 79.9278C109.567 82.4331 107.85 84.8878 107.493 87.8358C107.062 87.5544 106.619 87.2718 106.155 86.9904C106.185 86.8744 106.195 86.7464 106.173 86.6024C105.366 81.0958 110.227 74.9731 113.581 71.0678C114.433 70.0731 112.879 68.7651 112.025 69.7611C108.501 73.8651 103.79 79.9784 104.063 85.7891C103.21 85.3264 102.327 84.8771 101.417 84.4571C101.465 84.2904 101.478 84.1064 101.429 83.9064C99.6005 76.3198 106.511 68.8878 111.097 63.5278C111.949 62.5331 110.394 61.2238 109.541 62.2211C104.551 68.0518 98.0138 75.4038 99.3152 83.5544C98.6872 83.3078 98.0552 83.0731 97.4179 82.8651C96.8939 79.0651 96.7539 75.4091 98.0312 71.7371C99.2392 68.2624 100.873 64.9464 102.687 61.7518C103.334 60.6104 101.493 59.7504 100.85 60.8824C98.8472 64.4118 96.9952 68.1304 95.7992 72.0211C94.7645 75.3878 94.8632 78.8091 95.2939 82.2598C94.3779 82.0358 93.4619 81.8571 92.5525 81.7491C92.4912 81.6171 92.3965 81.4891 92.2525 81.3784C90.7792 80.2424 91.1685 75.5798 91.1832 73.9478C91.2032 71.3224 91.7539 68.7184 92.4899 66.2104C92.8605 64.9518 90.8592 64.5918 90.4925 65.8358C89.5965 68.8851 89.1739 71.9424 89.1485 75.1171C89.1339 76.8784 89.0365 79.7398 89.9445 81.6304C89.3605 81.6478 88.7819 81.6864 88.2152 81.7718C85.8685 75.1824 84.7485 67.6038 87.6819 61.0304C88.2152 59.8344 86.3792 58.9624 85.8459 60.1611C82.7205 67.1651 83.7499 75.1811 86.2285 82.2424C85.4285 82.5064 84.6565 82.8571 83.9259 83.3118C81.5379 80.5504 81.2859 76.5478 80.7859 73.0651C80.2005 68.9904 80.1085 64.8838 81.6792 61.0131C82.1685 59.8038 80.3352 58.9278 79.8419 60.1451C78.1179 64.3984 78.1872 68.7278 78.7592 73.2158C79.2619 77.1651 79.7552 81.3971 82.3219 84.5238C82.0819 84.7451 81.8472 84.9784 81.6192 85.2278C81.5245 85.3331 81.4365 85.4411 81.3445 85.5478C78.9392 82.9478 77.2939 79.9518 76.0619 76.6104C75.3419 74.6558 74.8925 72.5931 74.4925 70.5544C74.2219 69.1798 73.1859 65.9984 73.9325 64.7344C74.5992 63.6051 72.7592 62.7464 72.0952 63.8651C71.3232 65.1704 71.8472 66.6864 72.0432 68.1211C72.4125 70.8078 72.9925 73.4491 73.7432 76.0518C74.9472 80.2291 77.1219 84.0091 80.0885 87.1584C79.7405 87.6624 79.4179 88.1744 79.1299 88.6971C73.9219 85.7771 69.8712 78.5064 69.4859 72.7758C69.3992 71.4664 67.3725 71.6224 67.4605 72.9278C67.8939 79.3811 72.3805 87.3211 78.2525 90.5318C78.1112 90.8784 77.9779 91.2278 77.8592 91.5798C75.0699 90.7624 73.1139 88.1491 71.2579 86.0704C69.0912 83.6438 67.1045 81.0638 65.2072 78.4238C64.4445 77.3611 62.7792 78.5251 63.5445 79.5918C65.9232 82.8998 68.4779 86.0438 71.2312 89.0464C73.0259 91.0024 74.8019 92.7891 77.3392 93.5291C77.1805 94.2718 77.0552 95.0211 76.9872 95.7771C70.8992 95.3304 65.2672 92.5104 61.2552 87.8904C60.4059 86.9131 58.7325 88.0678 59.5925 89.0584C64.0739 94.2198 70.1445 97.2584 76.9125 97.7878C76.9192 98.2638 76.9352 98.7411 76.9752 99.2171C71.8165 99.7611 66.7765 99.0718 61.9592 97.0838C60.7525 96.5851 59.8765 98.4184 61.0912 98.9198C66.2539 101.05 71.7005 101.837 77.2379 101.232C77.3312 101.765 77.4379 102.297 77.5699 102.826C72.7512 104.66 66.5432 103.737 61.6979 102.26C60.4419 101.877 60.0845 103.88 61.3219 104.257C66.4525 105.821 73.0152 106.69 78.1499 104.776C78.1979 104.912 78.2379 105.049 78.2859 105.185C73.3405 106.425 68.8179 108.549 64.6965 111.565C63.6405 112.337 64.8045 114.004 65.8645 113.229C69.8725 110.296 74.2565 108.266 79.0632 107.073C79.1632 107.292 79.2565 107.514 79.3632 107.732C76.4272 108.742 73.7592 110.184 71.4232 112.262C70.1845 113.365 67.2205 116.329 67.6112 118.205C67.7299 118.769 68.0925 119.158 68.7019 119.142C68.7392 119.142 68.7765 119.141 68.8139 119.14C69.6365 119.118 69.8805 118.317 69.6285 117.729C69.8005 116.154 72.9872 113.552 73.8925 112.822C75.7885 111.294 78.0472 110.298 80.3432 109.54C80.7845 110.285 81.2632 111.01 81.7779 111.709C77.2605 114.125 73.7899 117.786 71.6992 122.513C71.1685 123.709 73.0032 124.581 73.5352 123.381C75.4859 118.972 78.7405 115.474 83.0605 113.31C83.4192 113.721 83.7939 114.126 84.1872 114.525C80.6539 117.941 77.9632 121.976 76.2672 126.622C75.8219 127.842 77.6539 128.724 78.1032 127.49C79.7165 123.069 82.2459 119.14 85.6525 115.902C85.8192 116.048 85.9819 116.194 86.1525 116.337C84.2565 119.785 83.2312 123.564 83.1939 127.513C83.1819 128.826 85.2072 128.661 85.2205 127.362C85.2539 123.912 86.1819 120.622 87.7765 117.596C88.3259 117.99 88.8885 118.368 89.4685 118.718C87.8179 122.536 86.7632 127.413 88.5232 131.26C89.0632 132.442 90.9805 131.768 90.4352 130.576C88.9139 127.245 89.8445 123.036 91.2592 119.7C92.1112 120.125 92.9805 120.508 93.8659 120.808C92.1912 125.689 92.2605 130.797 94.1485 135.657C94.6232 136.876 96.5365 136.196 96.0619 134.973C94.3299 130.514 94.2272 125.837 95.8192 121.353C96.1885 121.434 96.5565 121.505 96.9259 121.558C96.2965 127.246 96.5952 134.664 100.923 138.788C101.871 139.692 103.175 138.133 102.23 137.232C98.4685 133.648 98.3805 126.645 98.9472 121.717C99.3152 121.718 99.6845 121.708 100.05 121.677C100.15 124.708 101.194 127.42 102.247 130.274Z" fill="#C8AB79"/>
<path d="M115.948 153.995C118.148 153.891 120.341 153.496 122.487 152.718C122.563 152.691 122.629 152.659 122.691 152.62C123.348 152.854 124.309 152.238 124.077 151.316C121.855 142.49 116.123 135.208 108.137 130.87C106.983 130.244 106.121 132.083 107.268 132.707C114.436 136.6 119.547 143.034 121.829 150.799C121.82 150.802 121.811 150.802 121.803 150.806C114.509 153.45 107.02 151.339 100.289 148.103C96.0373 146.058 91.8519 143.302 88.9093 139.632C89.1599 138.923 88.5266 138.199 87.8839 138.224C86.6479 136.384 85.7159 134.339 85.2253 132.058C85.1866 131.879 85.1133 131.743 85.0226 131.638C85.7973 130.891 84.7053 129.48 83.6653 130.12C75.8506 134.927 63.9759 136.275 56.2159 130.494C54.2293 129.012 53.5706 125.292 53.0053 123.026C52.4079 120.623 52.1893 118.134 52.0893 115.667C51.8746 110.334 53.0426 104.999 55.0959 100.102C55.1293 100.023 55.1506 99.9456 55.1653 99.8696C55.7026 99.5256 55.9519 98.7589 55.2906 98.2909C44.9279 90.9669 43.1599 77.2056 40.6573 65.6149C40.7439 65.6056 40.8319 65.5869 40.9253 65.5509C49.3386 62.3002 57.7479 65.4682 65.5693 68.8322C65.5866 68.8989 65.6026 68.9656 65.6213 69.0322C65.8879 69.9509 66.9759 69.8282 67.4039 69.2096C68.0453 68.8482 68.2639 67.7856 67.3933 67.4069C67.3533 67.3896 67.3133 67.3736 67.2733 67.3562C64.1999 55.8109 65.7746 43.8309 69.9719 32.7589C70.5173 32.7709 71.0866 32.4042 71.0493 31.7016C71.0266 31.2469 70.9799 30.8042 70.9239 30.3682C72.9213 25.6296 75.4333 21.1096 78.1453 16.7482C81.2666 11.7269 84.7506 5.80291 89.8079 2.49757C93.9093 11.1656 95.7293 20.3002 96.2679 29.5976C96.2479 29.6776 96.2213 29.7536 96.2026 29.8336C96.1293 30.1349 96.1879 30.3842 96.3199 30.5749C96.8653 41.8589 95.5813 53.3642 94.2293 64.5536C94.1279 65.3962 94.9306 65.8469 95.5519 65.7069C96.2533 65.8242 97.0599 65.2442 96.6972 64.4122C95.7946 62.3349 99.9239 58.2162 101.131 56.6389C102.772 54.4922 104.521 52.4282 106.309 50.4016C110.341 45.8322 114.795 41.6496 119.492 37.7749C128.577 30.2816 138.863 24.3082 149.771 19.9056C150.349 43.5122 139.284 65.3576 125.597 83.9456C124.825 84.9949 126.375 86.3109 127.153 85.2522C131.045 79.9669 134.721 74.4269 137.991 68.6669C138.211 68.8162 138.501 68.8562 138.832 68.6856C153.467 61.2029 173.38 66.3949 187.377 73.1282C187.475 73.1749 187.568 73.2002 187.659 73.2176C183.825 81.2069 177.669 87.5522 169.804 91.6749C169.685 91.7376 169.596 91.8136 169.524 91.8936C167.536 91.3696 165.541 90.9176 163.564 90.5362C151.423 88.1949 138.741 89.1296 126.969 92.8002C125.716 93.1896 126.407 95.1016 127.652 94.7122C138.48 91.3362 149.795 90.5149 161.008 92.1629C172.441 93.8429 185.171 98.2189 192.835 107.278C192.847 107.291 192.86 107.3 192.871 107.312C189.719 112.41 184.561 115.4 179.233 117.874C173.843 120.374 168.276 122.616 162.673 124.598C162.14 124.291 161.669 124.568 161.459 125.015C149.695 128.995 137.136 130.107 124.831 128.526C123.533 128.359 123.156 130.356 124.456 130.523C126.973 130.847 129.487 131.056 131.995 131.155C132.044 131.332 132.159 131.506 132.356 131.651C138.827 136.426 143.323 142.938 146.9 150.054C148.573 153.384 149.989 156.842 151.36 160.304C152.78 163.898 154.189 167.527 153.581 171.426C139.593 171.075 125.889 163.51 115.948 153.995ZM112.521 161.487C112.643 165.111 111.531 168.558 110.141 171.856C107.732 177.576 104.52 183.652 99.3079 187.246C93.8826 183.138 89.3066 178.203 85.5786 172.487C83.5479 169.371 81.9306 166.012 80.5613 162.563C79.4666 159.803 76.7146 153.943 78.5559 151.139C78.6986 150.923 78.7466 150.696 78.7319 150.483C82.0079 147.775 85.0133 144.714 87.6773 141.318C90.8066 144.982 95.0946 147.752 99.4199 149.939C103.623 152.062 108.243 153.606 112.909 153.946C112.252 156.454 112.433 158.918 112.521 161.487ZM52.6666 160.924C52.6519 160.86 52.6333 160.798 52.6026 160.731C46.8053 147.63 42.0866 131.484 50.1706 118.544C50.4653 122.928 51.4386 128.488 54.1359 131.255C57.7306 134.943 63.6226 135.988 68.5599 136.234C73.6946 136.49 78.8106 135.098 83.3039 132.663C83.3079 132.69 83.3066 132.715 83.3119 132.743C83.8693 135.338 84.9479 137.634 86.3839 139.674C78.0012 150.507 66.0946 158.075 52.6666 160.924ZM49.6026 109.922C44.4799 110.422 39.7213 108.755 34.9666 107.054C30.3119 105.387 25.7759 103.384 21.6253 100.683C13.4733 95.3762 8.23859 86.7749 3.37193 78.5642C14.9319 73.4029 27.8066 72.5696 39.9626 76.2389C40.3426 76.3536 40.6399 76.2469 40.8346 76.0362C42.9039 84.9109 45.9013 93.6816 53.2373 99.2909C51.7626 102.823 50.8239 106.456 50.3746 110.186C50.1973 110 49.9399 109.888 49.6026 109.922ZM28.0293 41.7309C35.5506 43.3109 42.4933 46.4816 48.5999 51.1989C48.7546 51.3189 48.9146 51.3802 49.0733 51.4042C50.0479 55.2802 51.4693 59.0602 53.3426 62.6522C49.0213 61.8709 44.6293 61.9429 40.2413 63.6376C40.0173 63.7242 39.8586 63.8602 39.7533 64.0216C39.1279 63.9562 38.3586 64.5402 38.5426 65.3736C39.1826 68.2509 39.7693 71.2602 40.4373 74.2816C40.4146 74.2722 40.3906 74.2629 40.3679 74.2536C40.3999 74.0336 40.3453 73.7936 40.1519 73.5602C32.6666 64.4962 28.4666 53.4389 28.0293 41.7309ZM55.5479 14.8669C61.4373 18.5709 67.6439 22.9989 68.8359 30.1496C68.5466 30.8402 68.2613 31.5336 67.9893 32.2322C63.7546 43.0682 62.3186 55.0056 64.9346 66.3576C61.9319 65.1042 58.8546 63.9429 55.7306 63.1616C55.7399 62.9789 55.7026 62.7869 55.5959 62.5949C47.4386 47.8616 47.5199 29.5989 55.5479 14.8669ZM111.097 11.9109C115.701 18.9389 119.921 26.5936 118.664 35.2882C118.636 35.4882 118.664 35.6629 118.724 35.8162C117.693 36.6456 116.671 37.4869 115.664 38.3509C110.908 42.4336 106.531 46.9442 102.479 51.7242C100.524 54.0336 98.6933 56.4456 96.9333 58.9082C98.0239 49.2576 98.8413 39.4349 98.3186 29.7789C100.26 22.4296 105.619 16.9149 111.097 11.9109ZM162.405 126.828C167.145 129.932 171.253 133.974 175.308 137.9C180.029 142.474 184.204 147.57 186.121 153.923C175.889 158.404 165.721 161.422 154.399 160.3C154.211 160.282 154.044 160.312 153.899 160.371C152.444 156.452 150.415 152.66 148.812 149.37C145.448 142.464 141.073 136.062 135.1 131.214C144.361 131.236 153.52 129.746 162.405 126.828ZM154.033 173.463C154.465 173.47 154.733 173.255 154.857 172.966C155.168 172.871 155.432 172.631 155.512 172.215C156.125 169.03 155.605 165.663 154.567 162.34C166.324 163.379 176.821 160.276 187.509 155.528C187.893 155.358 188.081 155.043 188.121 154.712C188.259 154.49 188.316 154.21 188.231 153.894C186.532 147.674 182.76 142.708 178.371 138.106C174.24 133.774 169.743 129.463 164.796 126.004C170.908 123.831 177.017 121.296 182.811 118.391C187.785 115.895 192.161 112.596 194.985 107.732C195.277 107.23 195.08 106.783 194.711 106.536C194.683 106.395 194.617 106.251 194.497 106.11C188.775 99.3456 180.679 95.2202 172.215 92.6536C179.967 88.2576 186.039 81.6202 189.781 73.4949C190.144 72.7082 189.464 72.0656 188.803 72.0616C188.773 71.7576 188.607 71.4656 188.247 71.2922C180.689 67.6562 172.709 65.2082 164.413 63.9762C156.069 62.7376 147.148 62.6629 139.363 66.1962C147.215 51.6789 152.359 35.8082 151.784 19.0522C151.757 18.3016 151.085 18.0349 150.521 18.1869C150.292 17.8576 149.895 17.6656 149.407 17.8602C139.143 21.9696 129.557 27.4562 120.82 34.1682C121.555 25.1202 117.027 17.1589 112.129 9.78291C111.851 9.36291 111.117 9.16957 110.713 9.53491C105.704 14.0642 100.779 18.8829 97.9373 24.9509C97.0826 16.7642 95.1239 8.7429 91.3839 1.09757C91.1932 0.706903 90.8493 0.526905 90.4986 0.500239C90.1853 0.249572 89.7426 0.152237 89.3053 0.410903C83.8653 3.6229 80.4199 9.51357 77.0666 14.6896C74.4786 18.6829 72.1599 22.8376 70.1653 27.1482C67.8639 20.5376 61.5573 16.2282 55.6119 12.5256C55.1146 12.2176 54.5106 12.5749 54.2586 13.0096C48.0306 23.8296 46.1159 36.5562 48.4413 48.5776C42.0813 43.9949 34.9026 40.8976 27.1573 39.4669C26.4799 39.3416 25.9479 39.8882 25.9573 40.5402C26.1079 52.5349 30.1533 64.0389 37.4999 73.4762C25.4826 70.5509 12.8093 71.8229 1.57993 77.1456C0.954592 77.4416 0.730597 78.0802 1.08926 78.6869C6.51593 87.8482 12.1866 96.9456 21.2879 102.87C25.5799 105.662 30.3919 107.563 35.1933 109.282C39.9093 110.97 44.6933 112.442 49.7533 111.948C49.9319 111.931 50.0826 111.875 50.2053 111.798C50.1173 112.899 50.0773 114.011 50.0719 115.128C39.5426 128.991 44.2519 146.867 50.6906 161.415C50.8039 161.67 50.9799 161.834 51.1839 161.931C51.0546 162.554 51.4093 163.248 52.1906 163.091C60.9026 161.346 69.0279 157.739 76.0533 152.575C75.9026 154.282 76.4079 156.038 76.8733 157.828C77.9519 161.974 79.6479 165.919 81.6159 169.712C85.6866 177.562 91.7839 184.312 98.9093 189.495C99.6199 190.012 100.447 189.474 100.587 188.832C105.819 185.182 108.831 179.419 111.509 173.767C112.848 170.942 113.829 167.991 114.347 164.907C114.867 161.795 114.195 158.655 114.653 155.562C125.069 165.527 139.409 173.204 154.033 173.463Z" fill="#C8AB79"/>
</svg>
