<svg width="214" height="197" viewBox="0 0 214 197" fill="none" xmlns="http://www.w3.org/2000/svg">
<path d="M143.687 119.066L143.645 118.804C143.434 117.513 142.182 116.612 140.891 116.822C139.602 117.033 138.701 118.285 138.911 119.576L138.954 119.838C139.165 121.128 140.417 122.029 141.707 121.818C142.995 121.608 143.897 120.357 143.687 119.066Z" fill="#C8AB79"/>
<path d="M145.386 109.612C145.175 108.321 143.923 107.42 142.634 107.632L142.37 107.675C141.081 107.884 140.179 109.137 140.39 110.425C140.599 111.716 141.853 112.617 143.142 112.408L143.406 112.364C144.694 112.153 145.595 110.903 145.386 109.612Z" fill="#C8AB79"/>
<path d="M138.701 110.617C138.901 110.451 139.065 110.248 139.201 110.029C139.365 109.831 139.505 109.613 139.598 109.371C140.035 108.237 139.478 106.628 138.221 106.272C137.503 106.069 136.997 106.063 136.287 106.312C135.89 106.451 135.466 106.827 135.221 107.167C134.975 107.508 134.754 108.031 134.749 108.452C134.737 109.201 134.903 109.68 135.326 110.296C136.062 111.375 137.765 111.392 138.701 110.617Z" fill="#C8AB79"/>
<path d="M150.939 112.215L150.897 111.952C150.686 110.663 149.434 109.761 148.143 109.971C146.854 110.183 145.953 111.433 146.163 112.724L146.206 112.987C146.415 114.277 147.669 115.179 148.958 114.967C150.247 114.757 151.149 113.505 150.939 112.215Z" fill="#C8AB79"/>
<path d="M151.768 125.577C151.271 122.525 146.537 123.297 147.035 126.349C147.532 129.401 152.265 128.629 151.768 125.577Z" fill="#C8AB79"/>
<path d="M165.063 106.133C164.566 103.081 159.832 103.853 160.33 106.905C160.827 109.957 165.56 109.185 165.063 106.133Z" fill="#C8AB79"/>
<path d="M160.526 126.309C160.027 123.257 155.295 124.029 155.792 127.081C156.29 130.133 161.023 129.361 160.526 126.309Z" fill="#C8AB79"/>
<path d="M156.623 102.38C156.126 99.3283 151.393 100.1 151.89 103.152C152.389 106.204 157.121 105.432 156.623 102.38Z" fill="#C8AB79"/>
<path d="M44.4549 177.956C41.9269 174.751 40.5882 170.809 40.7109 166.74C40.7789 164.54 41.6656 162.393 42.6429 160.34C43.1962 160.205 43.6962 159.741 43.6496 159.021C43.6349 158.808 43.6069 158.596 43.5896 158.384C43.7429 158.067 43.8949 157.749 44.0389 157.437C46.7789 151.485 44.7496 145.696 46.3042 139.62C46.3856 139.301 46.3416 139.012 46.2242 138.765C48.5509 136.431 50.6162 133.623 52.9789 131.669C60.3562 125.565 69.6896 122.212 78.8282 119.368C79.0149 119.436 79.2349 119.451 79.4896 119.377C79.9442 119.249 80.3976 119.12 80.8509 118.991C71.7509 128.768 59.1282 134.115 48.3349 141.736C47.0736 142.628 48.6056 144.473 49.8642 143.585C58.8402 137.247 68.9336 132.449 77.3789 125.48C69.1336 136.303 59.4882 145.943 48.6042 154.204C47.3722 155.139 48.9016 156.985 50.1322 156.052C62.7749 146.457 73.7936 135 82.8869 122.023C76.3829 140.249 67.8709 158.06 53.3856 171.303C52.2509 172.341 53.7682 174.199 54.9149 173.151C70.1256 159.245 78.9589 140.487 85.6802 121.327C84.2256 144.033 78.9522 167.523 61.3642 183.308C60.2162 184.337 61.7362 186.193 62.8909 185.156C80.8642 169.027 86.4936 145.193 88.0389 121.971C92.8082 140.656 95.1776 160.711 86.0349 178.496C85.3269 179.873 87.5749 180.717 88.2722 179.359C94.7402 166.777 95.5936 153.019 93.8909 139.404C94.6322 142.227 95.3496 145.056 96.0149 147.899C97.7522 155.311 99.3349 163.067 96.4376 170.395C95.8682 171.836 98.1082 172.692 98.6762 171.256C101.539 164.011 100.376 156.451 98.7349 149.055C96.8656 140.633 94.5576 132.311 91.9709 124.083C92.0736 124.301 92.1682 124.525 92.2389 124.76C92.4362 125.416 93.0256 125.7 93.5722 125.681C96.0549 129.776 97.5109 134.393 98.8149 139.092C100.703 145.9 102.491 152.732 103.02 159.801C103.548 166.856 102.007 174.256 97.7082 179.96C95.5149 182.873 91.9402 183.759 88.7042 184.949C85.9909 185.947 83.8189 187.776 81.5696 189.532C69.3949 199.025 52.3256 187.944 44.4549 177.956ZM35.0282 185.328C32.6336 185.817 30.1642 186.088 27.6816 186.305C27.8282 179.061 24.9949 168.632 18.0349 165.165C18.2602 164.823 18.4976 164.488 18.7309 164.151C19.1109 164.016 19.3309 163.645 19.3682 163.228C20.6509 161.432 22.0176 159.707 23.4736 158.065C30.2749 165.652 34.2322 174.955 34.9936 185.133C34.9989 185.204 35.0136 185.265 35.0282 185.328ZM6.37224 191.704C7.93624 186.119 9.9149 180.556 12.3909 175.269C12.8296 177.06 13.2682 178.851 13.7069 180.641C14.3056 183.077 15.2669 185.863 13.7936 188.18C11.1562 188.915 8.6509 190.001 6.37224 191.704ZM3.69491 180.984C4.92557 180.133 6.31624 179.827 7.76557 180.001C6.60824 182.936 5.58424 185.923 4.68957 188.925C4.25224 186.317 3.92024 183.657 3.69491 180.984ZM3.50557 178.337C3.43491 177.035 3.39091 175.731 3.38557 174.428C3.44557 174.384 3.50557 174.336 3.5629 174.275C5.81224 171.903 8.72957 170.797 11.8962 170.905C10.7376 173.129 9.67224 175.411 8.69224 177.731C6.9029 177.34 5.10957 177.58 3.50557 178.337ZM16.6362 187.521C17.8816 182.996 15.3416 177.265 14.3149 173.079C14.2336 172.748 14.0509 172.515 13.8242 172.359C14.7362 170.591 15.7136 168.865 16.7496 167.183C19.7909 168.573 21.9362 172.679 23.2696 175.488C24.8976 178.916 25.4416 182.749 25.2882 186.507C22.3629 186.745 19.4442 186.989 16.6362 187.521ZM4.05757 164.661C5.99491 163.329 9.24157 163.351 11.3096 163.307C12.9149 163.271 14.5109 163.457 16.0869 163.748C15.0456 165.316 14.0762 166.94 13.1496 168.592C9.65757 168.192 6.18424 169.037 3.44557 171.156C3.53891 168.968 3.73224 166.796 4.05757 164.661ZM4.60424 161.648C5.06157 159.515 5.65357 157.428 6.40824 155.409C6.79357 155.38 7.14157 155.151 7.27357 154.643C7.64957 153.197 13.5669 152.895 14.7776 152.759C17.2522 152.479 21.4629 152.455 23.6962 154.269C21.4709 156.541 19.4336 159.004 17.5669 161.607C13.9442 160.824 8.49624 160.169 4.60424 161.648ZM8.28957 151.177C9.22557 149.375 10.3096 147.647 11.5669 146.009C17.9896 144.089 24.7456 144.911 30.5656 148.315C28.7576 149.629 27.0549 151.063 25.4349 152.584C22.9269 150.365 18.6136 150.215 15.5336 150.307C13.9242 150.353 10.7469 150.415 8.28957 151.177ZM39.6109 145.739C40.8589 145.141 42.1416 144.587 43.4696 144.089C43.4509 145.856 43.5469 147.632 43.5576 149.455C43.5656 150.961 43.2869 152.393 42.8549 153.785C42.1762 150.979 41.0909 148.293 39.6109 145.739ZM38.1256 167.987C38.1802 168.189 38.2736 168.355 38.3896 168.488C38.6149 172.371 40.2162 176.121 42.6056 179.484C43.1256 180.215 43.6856 180.935 44.2749 181.643C44.2656 181.648 44.2576 181.651 44.2496 181.656C42.0989 183.12 39.7802 184.095 37.3602 184.771C37.3589 184.761 37.3602 184.756 37.3602 184.748C36.5629 174.083 32.2989 164.205 25.1096 156.297C26.9269 154.412 28.8802 152.659 30.9696 151.055C34.1202 156.376 36.5229 161.992 38.1256 167.987ZM32.9069 149.647C34.3669 148.632 35.8922 147.692 37.4816 146.828C39.4896 150.327 40.7096 154.037 41.1522 158.015C40.6522 159.093 40.1376 160.165 39.6722 161.247C39.4322 161.804 39.2402 162.361 39.0682 162.917C37.4909 158.289 35.4456 153.872 32.9069 149.647ZM14.1936 142.981C15.7962 141.344 17.6029 139.824 19.6469 138.448C19.6629 138.436 19.6749 138.423 19.6909 138.411C22.4789 140.293 25.6096 141.78 28.9696 142.871C33.1669 144.231 37.6082 143.979 41.6096 142.18C42.3282 141.856 43.0069 141.444 43.6589 140.98C43.6349 141.176 43.6189 141.372 43.5989 141.568C43.4629 141.569 43.3202 141.588 43.1736 141.641C39.3869 142.992 35.9082 144.752 32.7082 146.837C32.6496 146.78 32.5789 146.727 32.4976 146.676C26.8696 143.197 20.5002 141.947 14.1936 142.981ZM11.6976 125.24C9.85357 120.735 9.15357 115.701 8.18024 110.957C7.19757 106.165 6.0669 101.38 5.4109 96.5305C5.4029 96.4705 5.39757 96.4118 5.38957 96.3518C5.40291 96.3425 5.41624 96.3385 5.42824 96.3292C11.2856 92.1905 19.8709 93.3998 26.6456 93.7958C33.0922 94.1732 39.4976 95.0825 45.8296 96.3252C58.4589 98.8038 70.6802 103.204 82.1616 108.988C71.5309 107.755 60.8602 107.348 50.1589 107.743C39.3722 108.141 26.5376 108.288 17.0536 114.059C15.7509 114.852 16.7336 117.043 18.0549 116.239C26.9802 110.807 38.8722 110.705 49.0362 110.176C60.5056 109.579 72.0269 110.137 83.4202 111.544C83.4989 111.553 83.5736 111.552 83.6469 111.549C83.9162 112.161 84.2402 112.749 84.6082 113.309C67.0242 113.267 46.2442 116.705 34.2376 130.383C33.2162 131.547 35.1722 132.936 36.1829 131.784C47.1562 119.281 66.3629 115.887 82.6856 115.703C74.9976 118.043 67.3509 120.499 60.1802 124.179C56.7149 125.956 53.4762 128.144 50.4802 130.623C46.6402 133.8 44.0429 138.456 39.4002 140.543C33.9736 142.983 27.5456 140.159 22.8016 137.495C17.6202 134.588 13.9549 130.755 11.6976 125.24ZM5.16957 93.6825C5.04824 89.8825 5.82824 86.2438 8.26157 83.0892C10.9536 79.5998 14.6762 77.1132 17.3162 73.4892C20.1162 69.6465 21.6056 65.1678 26.0549 62.8132C31.2376 60.0692 37.5789 62.5372 42.3429 64.9358C59.2589 73.4518 73.5922 87.6092 83.8349 103.387C83.7442 103.471 83.6722 103.568 83.6136 103.671C83.4762 103.72 83.3522 103.8 83.2389 103.895C66.3869 86.4465 42.8722 76.3425 18.5656 76.3305C17.0336 76.3292 16.7642 78.7132 18.3082 78.7145C42.4496 78.7278 65.8256 88.7905 82.3362 106.415C69.9936 100.287 56.9269 95.9465 43.3709 93.4212C36.1149 92.0705 28.7469 91.3839 21.3749 91.1692C15.8189 91.0079 10.0522 90.8838 5.16957 93.6825ZM41.7029 42.2345C46.3296 38.0425 53.0736 37.3265 57.6016 32.8452C61.7296 28.7612 62.8122 20.9719 70.0816 21.6959C73.6522 22.0505 76.8056 25.2252 79.5282 27.3012C82.0562 29.2319 84.9109 30.4465 87.8842 31.5132C88.1322 31.6012 88.3722 31.6905 88.6149 31.7798C88.8336 32.6465 89.9749 33.0852 90.5629 32.5185C96.3082 34.7905 100.891 37.5545 104.106 43.4785C107.296 49.3572 107.886 56.3038 107.418 62.8505C106.456 76.2998 99.9229 88.7945 93.7256 100.54C93.2616 100.687 93.0389 101.073 93.0136 101.489C92.0896 101.628 91.1656 101.783 90.2456 101.945C98.1562 93.0025 101.464 79.2985 102.402 67.9172C102.53 66.3745 100.144 66.1198 100.018 67.6598C99.0829 79.0105 95.7242 93.1305 87.3162 101.573C93.8269 87.4905 96.7056 72.2025 95.8629 56.7079C95.7776 55.1652 93.4136 55.5665 93.4949 57.0945C94.1789 69.6398 92.2696 82.0532 87.9616 93.7572C88.0842 85.6865 86.1789 77.2478 84.6909 69.7318C82.2816 57.5719 78.5482 45.6825 73.8442 34.2238C73.2576 32.7932 71.0789 33.7958 71.6642 35.2238C76.1056 46.0412 79.5562 57.1798 82.0136 68.6132C83.1456 73.8812 83.9856 79.2065 84.6602 84.5518C83.0829 80.0385 81.1589 75.6385 79.0509 71.3039C75.6589 64.3265 72.2269 55.2652 65.9469 50.3518C64.7269 49.3972 63.3309 51.3465 64.5469 52.2972C67.7509 54.8038 69.5349 58.2972 71.4242 61.8145C73.5216 65.7198 75.5802 69.6465 77.5189 73.6345C81.0562 80.9132 83.9042 88.4865 85.4002 96.4412C85.3989 96.4625 85.3989 96.4838 85.3976 96.5052C79.4202 81.3838 69.8282 68.0118 57.3962 57.4185C56.2162 56.4145 54.8256 58.3692 55.9949 59.3652C68.5736 70.0825 78.0922 83.7638 83.8656 99.1798C72.9282 83.2505 57.5202 68.6492 39.7042 61.0705C39.3549 60.9212 38.9976 60.7958 38.6442 60.6638C38.7322 60.4132 38.7269 60.1199 38.5642 59.8039C35.5082 53.8452 36.7176 46.7492 41.7029 42.2345ZM91.9349 28.7425C92.5829 29.5852 93.2616 30.4452 93.9736 31.3118C93.1229 30.9452 92.2576 30.5999 91.3802 30.2652C91.5522 29.7479 91.7402 29.2412 91.9349 28.7425ZM96.7616 20.5798C98.7229 26.6652 103.067 31.5105 109.024 34.1412C109.088 34.1692 109.15 34.1852 109.21 34.2025C109.031 36.3718 108.946 38.5585 108.904 40.7479C102.514 38.1692 97.0709 31.5972 93.0496 26.2505C94.0882 24.1985 95.3389 22.3158 96.7616 20.5798ZM98.6442 18.4638C100.564 16.4705 102.716 14.6825 105.018 13.0519C105.608 17.2025 107.192 21.0225 109.684 24.4585C109.927 24.7958 110.24 24.9265 110.548 24.9199C110.068 27.1452 109.719 29.4118 109.46 31.7012C103.976 29.1278 100.071 24.3558 98.6442 18.4638ZM120.315 4.64251C117.172 8.21851 114.854 12.1492 113.156 16.3158C112.267 16.4505 112.11 17.3932 112.496 18.0452C111.983 19.4638 111.543 20.9092 111.156 22.3732C108.927 19.1065 107.647 15.4825 107.259 11.5452C111.384 8.89584 115.875 6.67184 120.315 4.64251ZM123.524 14.1532C121.015 15.0719 118.454 15.6945 115.819 16.0425C117.396 12.4785 119.48 9.1185 122.223 6.06117C122.348 8.82917 122.824 11.5172 123.524 14.1532ZM126.024 21.5385C122.05 24.2758 117.563 25.6585 112.776 25.6492C113.286 23.2305 113.95 20.8639 114.798 18.5665C118.026 18.2612 121.155 17.5558 124.2 16.4585C124.739 18.1678 125.354 19.8598 126.024 21.5385ZM129.51 29.6239C129.36 29.6612 129.21 29.7279 129.063 29.8359C123.787 33.7132 117.867 35.9292 111.394 36.5785C111.554 33.7052 111.846 30.8518 112.318 28.0518C117.606 28.1318 122.539 26.6972 126.956 23.8065C127.78 25.7518 128.65 27.6879 129.51 29.6239ZM133.786 40.2265C126.627 43.5239 119.111 45.3358 111.25 45.7038C111.206 43.4758 111.216 41.2385 111.287 39.0065C118.323 38.3919 124.751 35.9385 130.46 31.7772C131.68 34.5678 132.842 37.3719 133.786 40.2265ZM109.015 50.3625C108.366 47.4665 107.372 44.6732 105.978 42.0212C106.924 42.5252 107.89 42.9505 108.874 43.2865C108.874 45.6505 108.923 48.0145 109.015 50.3625ZM136.036 52.4732C133.062 50.6439 130.127 49.1425 126.419 48.7879C120.84 48.2559 115.386 50.6492 111.595 54.6118C111.482 52.4638 111.378 50.2838 111.31 48.0878C119.39 47.7518 127.143 45.8798 134.494 42.5345C135.406 45.7572 135.998 49.0532 136.036 52.4732ZM136.062 55.1958C136.242 55.6865 136.726 55.9545 137.206 55.9745C138.004 56.5145 138.798 57.0399 139.592 57.5092C142.684 59.3319 146.192 59.8732 149.583 60.8799C158.203 63.4412 163.068 71.9812 161.524 80.5932C160.828 84.4665 159.548 87.9799 159.594 91.9652C159.644 96.2545 161.308 101.16 157.808 104.508C157.536 104.453 157.254 104.437 156.967 104.484C156.878 104.499 156.791 104.513 156.703 104.528C155.764 104.681 155.038 105.387 154.79 106.256C153.827 105.729 152.496 105.935 151.735 106.719C151.614 106.689 151.494 106.656 151.372 106.627C151.632 106.168 151.755 105.629 151.664 105.08C151.454 103.789 150.203 102.888 148.912 103.097L148.648 103.141C147.491 103.329 146.654 104.359 146.646 105.5C145.439 105.227 144.232 104.963 143.024 104.707C143.17 104.444 143.266 104.147 143.288 103.807C143.818 104.331 144.58 104.615 145.36 104.487C146.65 104.277 147.55 103.025 147.34 101.735L147.298 101.472C147.087 100.183 145.835 99.2812 144.544 99.4905C143.39 99.6798 142.554 100.705 142.54 101.843C141.451 100.873 139.503 101.191 138.778 102.456C138.779 102.323 138.776 102.191 138.755 102.055L138.711 101.792C138.502 100.503 137.25 99.6012 135.959 99.8118C134.67 100.023 133.768 101.273 133.979 102.564L133.996 102.673C129.79 101.795 125.552 101.152 121.303 100.745C128.634 99.5265 135.806 97.4932 142.763 94.6318C144.194 94.0438 143.191 91.8652 141.762 92.4518C131.995 96.4692 121.76 98.8532 111.267 99.5265C125.792 95.3465 139.255 87.8932 150.546 77.6278C151.686 76.5918 150.167 74.7358 149.019 75.7785C135.862 87.7412 119.786 95.7652 102.466 99.1705C114.998 92.9332 126.082 84.2519 135.206 73.5412C136.211 72.3639 134.258 70.9732 133.26 72.1425C124.707 82.1785 114.358 90.3425 102.71 96.3465C105.716 93.6385 108.395 90.5079 111.104 87.5585C115.691 82.5652 119.88 77.2478 123.128 71.2785C123.858 69.9372 121.92 68.5212 121.182 69.8772C118.364 75.0599 114.839 79.6972 110.972 84.1359C107.187 88.4812 103.115 93.5158 98.3109 96.9052C104.14 85.6078 109.631 73.4945 109.98 60.7545C110.183 60.6412 110.362 60.4652 110.486 60.2105C113.74 53.5865 121.044 50.2799 128.208 51.4359C131.067 51.8972 133.607 53.5305 136.062 55.1958ZM151.264 109.041C151.808 110.779 153.896 110.983 155.091 110.061C156.208 110.373 157.32 110.701 158.427 111.043C158.25 111.451 158.176 111.908 158.254 112.372L158.295 112.636C158.506 113.927 159.759 114.827 161.047 114.616C162.098 114.445 162.879 113.58 163.024 112.569C163.488 112.736 163.951 112.908 164.412 113.081C163.296 113.331 162.339 114.26 162.578 115.716C163.075 118.768 167.808 117.996 167.311 114.944C167.256 114.615 167.146 114.339 167.004 114.095C167.572 114.328 168.139 114.567 168.702 114.812C168.552 115.175 168.496 115.6 168.576 116.089C168.974 118.527 172.066 118.519 173.043 116.865C173.054 116.869 173.064 116.873 173.074 116.879C173.39 117.812 174.162 118.283 174.988 118.367C174.971 118.468 174.971 118.571 174.982 118.676C173.464 117.755 170.902 118.761 171.274 121.047C171.55 122.737 173.124 123.251 174.39 122.857C174.364 123.175 174.492 123.493 174.824 123.733C173.044 123.024 171.226 122.38 169.38 121.78C169.994 121.323 170.388 120.585 170.228 119.597C169.73 116.545 164.998 117.317 165.495 120.371C165.507 120.441 165.528 120.505 165.543 120.573C164.639 120.296 163.731 120.024 162.822 119.755C163.014 119.363 163.094 118.892 163.006 118.347C162.602 115.872 159.419 115.912 158.49 117.64C158.086 116.689 157.174 116.276 156.263 116.313C156.487 115.907 156.588 115.405 156.491 114.819C155.994 111.767 151.26 112.539 151.759 115.592C151.836 116.064 152.02 116.436 152.264 116.731C148.231 115.608 144.195 114.5 140.176 113.352C139.955 113.289 139.751 113.291 139.563 113.332C138.883 112.304 137.5 112.115 136.46 112.615C136.29 112.428 136.046 112.296 135.715 112.272C128.003 111.732 120.294 111.595 112.566 111.823C105.019 112.048 96.6096 112.004 89.4176 114.532C89.3709 114.525 89.3229 114.517 89.2776 114.517C89.1549 114.423 89.0149 114.351 88.8442 114.329C88.7269 114.243 88.6282 114.14 88.5162 114.048C88.4149 113.719 88.1669 113.452 87.7589 113.372C85.6882 111.28 84.7189 108.407 85.1296 105.392C85.5842 105.291 86.0389 105.203 86.4949 105.105C86.7042 105.131 86.9229 105.095 87.1376 104.971C102.247 101.869 117.69 101.837 132.819 104.873C132.983 105.045 133.204 105.176 133.487 105.231C139.368 106.367 145.362 107.549 151.264 109.041ZM179.934 124.057C178.731 123.309 177.524 122.576 176.319 121.857C176.152 121.759 175.984 121.703 175.82 121.683C176.012 121.291 176.095 120.82 176.007 120.275C175.998 120.22 175.979 120.176 175.967 120.124C177.199 121.529 178.532 122.829 179.934 124.057ZM185.716 125.355C185.728 125.471 185.763 125.584 185.814 125.696C183.916 124.297 182.079 122.828 180.371 121.225C182.216 122.493 184.006 123.859 185.716 125.355ZM90.6229 118.317C90.4709 118.151 90.3202 117.979 90.1696 117.812C90.3509 117.819 90.5309 117.831 90.7109 117.84C90.8402 117.909 90.9656 117.983 91.0936 118.052C90.9189 118.104 90.7602 118.199 90.6229 118.317ZM134.443 122.743C139.416 125.257 144.239 128.388 147.704 132.808C150.248 136.049 151.152 140.323 150.122 144.285C149.462 146.817 148.016 149.143 147.191 151.629C145.774 155.897 146.463 160.708 145.67 165.113C144.58 171.159 140.98 176.412 135.356 178.981C129.592 181.613 125.412 178.009 120.024 176.86C114.968 175.78 107.404 179.053 104.079 173.86C104 173.737 103.912 173.648 103.818 173.573C104.823 170.325 105.291 166.875 105.451 163.725C105.879 155.235 103.386 146.807 101.18 138.705C99.8282 133.739 98.2682 128.813 95.6416 124.46C100.175 129.4 103.248 135.813 106.366 141.62C111.16 150.56 115.07 160.163 114.487 170.484C114.4 172.025 116.784 172.284 116.872 170.741C117.483 159.909 113.491 150.044 108.543 140.619C106.635 136.983 104.684 133.128 102.403 129.515C111.439 139.611 118.388 151.411 122.883 164.309C123.392 165.767 125.568 164.757 125.063 163.308C119.867 148.396 111.407 134.985 100.331 123.861C116.374 135.335 128.486 151.837 134.576 170.761C135.048 172.228 137.223 171.215 136.756 169.76C130.919 151.62 119.619 135.749 104.735 124.18C115.296 129.957 124.586 137.792 132.126 147.335C133.084 148.547 134.934 147.021 133.975 145.808C124.767 134.156 112.959 124.973 99.4789 118.897C115.143 121.912 129.296 130.792 138.776 143.872C139.684 145.123 141.531 143.592 140.626 142.344C129.695 127.265 112.576 117.513 94.1296 115.687C97.2789 114.999 100.592 114.701 103.88 114.537C104.023 114.617 104.194 114.671 104.399 114.683C114.932 115.259 125.031 117.983 134.443 122.743ZM79.3829 193.617C83.2002 192.071 85.8789 188.729 89.7056 187.128C92.9682 185.761 96.0429 184.977 98.6669 182.473C100.483 180.739 101.843 178.581 102.851 176.225C105.74 179.672 110.539 179.313 114.758 178.939C121.128 178.373 126.16 182.895 132.598 182.216C145.53 180.856 148.219 166.608 148.836 156.256C149.23 149.644 153.87 144.791 152.648 137.941C151.543 131.753 146.255 127.233 141.314 123.96C134.15 119.215 126.022 115.953 117.607 114.083C123.47 114.024 129.332 114.236 135.179 114.64C135.18 114.773 135.182 114.908 135.206 115.051C135.611 117.545 138.846 117.483 139.742 115.711C142.035 116.367 144.328 117.016 146.622 117.665C145.706 118.039 145.011 118.903 145.216 120.167C145.714 123.219 150.447 122.447 149.95 119.395C149.894 119.053 149.779 118.768 149.631 118.52C151.164 118.955 152.696 119.397 154.228 119.833C154.25 119.872 154.264 119.919 154.29 119.955C152.862 119.799 151.259 120.801 151.559 122.643C152.056 125.695 156.79 124.923 156.292 121.871C156.232 121.5 156.107 121.191 155.939 120.929C156.404 120.981 156.886 120.907 157.315 120.723C158.528 121.072 159.74 121.421 160.952 121.772C160.355 122.232 159.982 122.971 160.139 123.941C160.638 126.993 165.37 126.223 164.871 123.171C164.855 123.065 164.82 122.976 164.795 122.879C165.002 122.94 165.21 122.997 165.419 123.059C165.787 123.168 166.155 123.279 166.526 123.391C166.414 123.724 166.374 124.104 166.444 124.535C166.788 126.648 169.162 126.925 170.426 125.884C170.176 126.303 170.056 126.82 170.156 127.437C170.654 130.489 175.387 129.717 174.89 126.665C174.867 126.525 174.834 126.393 174.794 126.269C177.872 127.535 180.834 129.04 183.572 130.919C187.946 134.349 193.166 140.397 192.246 146.188C192.002 147.719 194.388 147.964 194.631 146.444C195.272 142.403 193.444 138.304 190.786 134.819C196.408 139.797 200.898 145.78 202.614 153.521C202.947 155.024 205.315 154.647 204.98 153.135C203.191 145.061 198.647 138.784 192.899 133.552C193.004 133.627 193.111 133.7 193.216 133.773C199.203 137.983 205.215 142.227 212.664 143.119C214.203 143.304 214.454 140.919 212.922 140.735C206.608 139.979 201.399 136.579 196.318 133.023C199.508 134.733 202.888 136.083 206.656 136.911C208.168 137.243 208.406 134.853 206.915 134.527C201.739 133.389 197.299 131.124 193.095 128.288C197.706 129.404 202.595 129.275 207.467 128.875C209.01 128.748 208.611 126.381 207.082 126.508C200.178 127.076 193.142 127.169 187.156 123.18C186.962 123.049 186.764 122.989 186.575 122.976C183.759 120.599 180.774 118.521 177.648 116.7C177.728 116.396 177.75 116.057 177.688 115.683C177.327 113.476 174.763 113.276 173.554 114.484C173.263 114.339 172.972 114.199 172.68 114.056C172.619 113.995 172.558 113.936 172.491 113.883C173.947 114.109 175.647 113.097 175.338 111.205C174.84 108.153 170.107 108.927 170.604 111.979C170.712 112.637 171.024 113.107 171.43 113.425C171.402 113.421 171.372 113.424 171.344 113.421C170.436 113.001 169.52 112.601 168.598 112.213C169.23 111.759 169.638 111.008 169.474 110.003C168.982 106.981 164.342 107.712 164.735 110.691C162.796 109.976 160.832 109.315 158.847 108.704C159.491 108.176 159.86 107.333 159.718 106.465C159.698 106.331 159.656 106.204 159.614 106.077C161.95 103.711 162.68 100.531 162.424 97.1798C162.196 94.2092 161.82 91.3358 162.21 88.3598C162.539 85.8318 163.364 83.3412 163.908 80.8492C165.739 72.4665 161.266 63.8625 153.64 60.0185C148.76 57.5598 143.459 57.1852 138.76 54.1945C138.64 54.1185 138.524 54.0439 138.406 53.9692C138.802 40.0879 129.963 28.3198 126.208 15.4652C126.555 14.9252 126.3 14.1492 125.754 13.7999C124.79 10.0079 124.316 6.10918 124.69 2.02518C124.774 1.11051 123.839 0.433186 122.996 0.807853C109.334 6.86919 94.0829 14.2998 89.1322 29.4252C88.1909 29.0772 87.2456 28.7292 86.3029 28.3652C79.5576 25.7652 75.2856 18.8345 67.4776 19.2625C61.1669 19.6092 58.9522 28.1492 55.2016 31.8612C49.8362 37.1679 41.6216 37.2958 37.0962 43.9038C33.9096 48.5585 33.7256 54.8052 35.9416 59.8665C32.8496 59.1705 29.6509 59.1772 26.5416 60.0692C22.1069 61.3412 19.5882 65.1612 17.3722 68.9065C14.5816 73.6212 10.7962 76.7665 7.17357 80.7479C3.95491 84.2825 2.79357 88.3158 2.77224 93.0478C2.75357 97.7625 3.9909 102.468 4.93357 107.055C6.05624 112.523 7.00691 118.059 8.56424 123.424C10.1989 129.056 13.4202 133.533 17.6576 136.928C14.6776 139.003 12.1776 141.377 10.0922 143.983C9.79224 144.081 9.49224 144.173 9.19491 144.281C8.41224 144.565 8.34824 145.327 8.67757 145.888C5.06557 151.073 2.92957 157.048 1.86157 163.349C1.60557 163.601 1.3709 163.875 1.16024 164.172C0.704238 164.816 0.989574 165.496 1.49757 165.84C0.289574 175.508 1.40424 185.783 3.43091 195.047C3.60291 195.836 4.70557 196.488 5.37757 195.779C15.8589 184.74 33.6762 191.741 45.7762 183.505C45.8109 183.483 45.8336 183.456 45.8642 183.432C54.2749 192.313 67.8709 198.284 79.3829 193.617Z" fill="#C8AB79"/>
<path d="M166.212 128.081C166.001 126.79 164.749 125.889 163.46 126.101L163.196 126.143C161.907 126.353 161.005 127.606 161.216 128.894C161.425 130.185 162.679 131.086 163.968 130.875L164.232 130.833C165.52 130.622 166.421 129.37 166.212 128.081Z" fill="#C8AB79"/>
</svg>
