<svg width="794" height="192" viewBox="0 0 794 192" fill="none" xmlns="http://www.w3.org/2000/svg">
<path d="M974.498 1.80462L651.805 54.7286L408.111 315.638C408.111 315.638 814.743 224.725 809.486 221.345C804.23 217.965 1006.49 25.798 1004.5 23.766C1002.52 21.734 974.498 1.80462 974.498 1.80462Z" stroke="#C8AB79" stroke-width="1.33333" stroke-miterlimit="10"/>
<path d="M651.805 54.7293L627.497 267.383L436.366 285.387L974.498 1.80529L909.877 118.021L509.554 207.029M509.554 207.029L-80.1523 317.569L270.312 365.249L133.172 194.289L50.6717 413.301L509.554 207.029Z" stroke="#C8AB79" stroke-width="1.33333" stroke-miterlimit="10"/>
<path d="M133.172 194.289L651.805 54.7291L180.249 252.977L15.5117 224.053L133.172 194.289Z" stroke="#C8AB79" stroke-width="1.33333" stroke-miterlimit="10"/>
</svg>
