<svg width="514" height="197" viewBox="0 0 514 197" fill="none" xmlns="http://www.w3.org/2000/svg">
<path d="M499.099 2.48939L347.84 27.2987L233.612 149.595C233.612 149.595 424.215 106.98 421.751 105.397C419.288 103.812 514.092 13.7374 513.164 12.7841C512.235 11.8321 499.099 2.48939 499.099 2.48939Z" stroke="#BC9E66" stroke-width="1.33333" stroke-miterlimit="10"/>
<path d="M347.84 27.2987L336.445 126.976L246.856 135.415L499.099 2.48935L468.808 56.9651L281.163 98.6864M281.163 98.6864L4.74481 150.5L169.02 172.851L104.737 92.7145L66.0667 195.373L281.163 98.6864Z" stroke="#BC9E66" stroke-width="1.33333" stroke-miterlimit="10"/>
<path d="M104.737 92.7145L347.84 27.2987L126.805 120.224L49.5853 106.667L104.737 92.7145Z" stroke="#BC9E66" stroke-width="1.33333" stroke-miterlimit="10"/>
</svg>
