<svg width="101" height="93" viewBox="0 0 101 93" fill="none" xmlns="http://www.w3.org/2000/svg">
<path d="M67.2853 56.2707L67.2653 56.1481C67.1666 55.5427 66.58 55.1214 65.9747 55.2201C65.3707 55.3174 64.948 55.9054 65.0467 56.5107L65.0666 56.6334C65.1653 57.2387 65.752 57.6601 66.3573 57.5614C66.9613 57.4627 67.384 56.8761 67.2853 56.2707Z" fill="#BC9E66"/>
<path d="M68.0813 51.84C67.9827 51.2347 67.3947 50.812 66.7907 50.912L66.6667 50.9307C66.0627 51.0294 65.64 51.6174 65.7387 52.2214C65.8373 52.8267 66.424 53.248 67.0293 53.1494L67.152 53.1307C67.7573 53.0307 68.18 52.444 68.0813 51.84Z" fill="#BC9E66"/>
<path d="M64.948 52.3107C65.0413 52.2334 65.1186 52.1374 65.1826 52.0347C65.2586 51.9427 65.324 51.84 65.368 51.7267C65.5733 51.1947 65.3119 50.44 64.7226 50.2747C64.3866 50.18 64.1479 50.176 63.8173 50.2934C63.6306 50.3587 63.4306 50.5334 63.316 50.6934C63.2013 50.8534 63.0973 51.0974 63.0946 51.296C63.0893 51.6467 63.168 51.8707 63.3653 52.16C63.7106 52.6667 64.508 52.6747 64.948 52.3107Z" fill="#BC9E66"/>
<path d="M70.684 53.0601L70.664 52.9361C70.5653 52.3321 69.9787 51.9107 69.3733 52.0081C68.7693 52.1067 68.3467 52.6934 68.4453 53.2987L68.4653 53.4214C68.564 54.0267 69.1506 54.4494 69.7546 54.3507C70.36 54.2507 70.7826 53.6654 70.684 53.0601Z" fill="#BC9E66"/>
<path d="M71.072 59.3227C70.8387 57.8921 68.62 58.2534 68.8546 59.6854C69.0866 61.1161 71.3053 60.7534 71.072 59.3227Z" fill="#BC9E66"/>
<path d="M77.3054 50.2094C77.0707 48.7787 74.8533 49.1401 75.0853 50.5707C75.3187 52.0014 77.5374 51.6387 77.3054 50.2094Z" fill="#BC9E66"/>
<path d="M75.1774 59.6667C74.944 58.2361 72.7254 58.5974 72.9587 60.0267C73.192 61.4587 75.4107 61.0961 75.1774 59.6667Z" fill="#BC9E66"/>
<path d="M73.348 48.4507C73.1147 47.0201 70.896 47.3814 71.1293 48.8121C71.3627 50.2427 73.5814 49.8801 73.348 48.4507Z" fill="#BC9E66"/>
<path d="M20.7706 83.8747C19.5866 82.3721 18.9586 80.5254 19.016 78.6174C19.048 77.5867 19.4639 76.5814 19.9213 75.6187C20.1799 75.5547 20.4146 75.3374 20.3933 75.0001C20.3866 74.9001 20.3733 74.8014 20.3653 74.7001C20.4373 74.5521 20.508 74.4041 20.576 74.2574C21.8613 71.4681 20.9093 68.7534 21.6373 65.9067C21.676 65.7547 21.6546 65.6214 21.6 65.5054C22.692 64.4121 23.6586 63.0934 24.7653 62.1787C28.2239 59.3174 32.5986 57.7467 36.8826 56.4134C36.9706 56.4454 37.0733 56.4521 37.1933 56.4174C37.4066 56.3574 37.6186 56.2974 37.8319 56.2361C33.5653 60.8187 27.6493 63.3254 22.5893 66.8974C21.9986 67.3147 22.7173 68.1801 23.3053 67.7641C27.5133 64.7934 32.2453 62.5441 36.204 59.2774C32.3386 64.3507 27.8186 68.8681 22.716 72.7414C22.1386 73.1801 22.8559 74.0454 23.4319 73.6081C29.3586 69.1107 34.5239 63.7401 38.7853 57.6561C35.7373 66.2001 31.7466 74.5494 24.9573 80.7561C24.4253 81.2441 25.1373 82.1134 25.6733 81.6227C32.804 75.1041 36.9439 66.3121 40.0946 57.3307C39.4133 67.9734 36.9413 78.9841 28.6959 86.3841C28.1599 86.8654 28.872 87.7361 29.4133 87.2494C37.8373 79.6894 40.4759 68.5187 41.1999 57.6334C43.4359 66.3921 44.5466 75.7921 40.2613 84.1294C39.9293 84.7747 40.9826 85.1694 41.3093 84.5321C44.3413 78.6361 44.7426 72.1867 43.944 65.8041C44.2906 67.1281 44.6266 68.4534 44.94 69.7867C45.752 73.2601 46.4946 76.8961 45.1373 80.3307C44.8693 81.0067 45.9199 81.4081 46.1866 80.7347C47.5279 77.3387 46.984 73.7947 46.2133 70.3281C45.3373 66.3801 44.256 62.4787 43.0426 58.6227C43.092 58.7254 43.136 58.8294 43.1693 58.9401C43.2613 59.2481 43.5373 59.3801 43.7946 59.3721C44.9573 61.2921 45.6399 63.4561 46.2506 65.6574C47.1359 68.8494 47.9746 72.0521 48.2226 75.3654C48.4706 78.6721 47.7479 82.1401 45.7333 84.8147C44.7039 86.1801 43.0293 86.5947 41.512 87.1521C40.24 87.6214 39.2226 88.4774 38.168 89.3014C32.4613 93.7494 24.4613 88.5574 20.7706 83.8747ZM16.3519 87.3307C15.2293 87.5601 14.072 87.6867 12.9093 87.7894C12.9773 84.3934 11.6493 79.5041 8.3866 77.8787C8.49327 77.7187 8.60396 77.5627 8.71329 77.4041C8.89063 77.3414 8.99463 77.1667 9.01196 76.9707C9.61329 76.1307 10.2533 75.3214 10.936 74.5521C14.124 78.1081 15.9786 82.4681 16.336 87.2401C16.3386 87.2721 16.3453 87.3014 16.3519 87.3307ZM2.91994 90.3187C3.65327 87.7001 4.57996 85.0934 5.74129 82.6161C5.94662 83.4547 6.15327 84.2947 6.35861 85.1347C6.63861 86.2747 7.08928 87.5814 6.39861 88.6667C5.16261 89.0121 3.98927 89.5214 2.91994 90.3187ZM1.66528 85.2947C2.24128 84.8961 2.89329 84.7507 3.57329 84.8334C3.03062 86.2094 2.55061 87.6094 2.13195 89.0174C1.92661 87.7947 1.77061 86.5481 1.66528 85.2947ZM1.57596 84.0547C1.54396 83.4427 1.5226 82.8321 1.52127 82.2214C1.54927 82.2001 1.57595 82.1787 1.60395 82.1494C2.65729 81.0374 4.02529 80.5201 5.50929 80.5707C4.96662 81.6121 4.46662 82.6827 4.00796 83.7694C3.16796 83.5854 2.32796 83.6974 1.57596 84.0547ZM7.73061 88.3587C8.31461 86.2387 7.12396 83.5521 6.64262 81.5881C6.60529 81.4334 6.51996 81.3241 6.41329 81.2507C6.83996 80.4214 7.2986 79.6134 7.78393 78.8254C9.2106 79.4761 10.216 81.4014 10.8413 82.7187C11.604 84.3241 11.8586 86.1227 11.7866 87.8827C10.4159 87.9947 9.04795 88.1094 7.73061 88.3587ZM1.83462 77.6427C2.74395 77.0187 4.26528 77.0281 5.23462 77.0081C5.98662 76.9907 6.73462 77.0787 7.47329 77.2147C6.98529 77.9507 6.53061 78.7107 6.09594 79.4854C4.45994 79.2987 2.83196 79.6934 1.5493 80.6881C1.59196 79.6627 1.68262 78.6427 1.83462 77.6427ZM2.09061 76.2307C2.30527 75.2307 2.58395 74.2521 2.93729 73.3054C3.11729 73.2934 3.27996 73.1867 3.34262 72.9467C3.51862 72.2694 6.29328 72.1281 6.85994 72.0641C8.01994 71.9321 9.99329 71.9214 11.04 72.7721C9.99729 73.8374 9.04262 74.9921 8.16662 76.2107C6.47062 75.8454 3.91594 75.5374 2.09061 76.2307ZM3.8186 71.3227C4.25727 70.4774 4.76527 69.6681 5.35594 68.9001C8.36527 68.0001 11.5319 68.3854 14.2599 69.9801C13.4133 70.5974 12.6146 71.2694 11.8559 71.9814C10.6799 70.9414 8.65863 70.8707 7.21463 70.9147C6.45996 70.9361 4.9706 70.9654 3.8186 71.3227ZM18.5 68.7734C19.084 68.4934 19.6866 68.2334 20.308 68.0001C20.3 68.8281 20.3453 69.6601 20.3506 70.5161C20.3533 71.2214 20.2226 71.8934 20.0213 72.5454C19.7026 71.2294 19.1946 69.9707 18.5 68.7734ZM17.804 79.2014C17.8293 79.2974 17.8733 79.3734 17.9279 79.4374C18.0333 81.2561 18.784 83.0161 19.904 84.5907C20.148 84.9334 20.4106 85.2721 20.6866 85.6027C20.6826 85.6054 20.6786 85.6067 20.6746 85.6094C19.6666 86.2961 18.58 86.7521 17.444 87.0694C17.444 87.0654 17.4453 87.0627 17.4453 87.0587C17.072 82.0587 15.0733 77.4294 11.7026 73.7227C12.556 72.8387 13.4706 72.0174 14.4493 71.2654C15.9266 73.7601 17.0533 76.3921 17.804 79.2014ZM15.3586 70.6054C16.0426 70.1294 16.7573 69.6894 17.5013 69.2841C18.444 70.9241 19.0159 72.6627 19.2226 74.5267C18.9893 75.0321 18.7479 75.5347 18.5279 76.0427C18.4173 76.3041 18.3266 76.5654 18.2466 76.8254C17.5066 74.6561 16.5479 72.5854 15.3586 70.6054ZM6.58527 67.4801C7.33727 66.7134 8.18529 66.0014 9.14129 65.3574C9.15062 65.3507 9.15595 65.3441 9.16395 65.3387C10.4706 66.2214 11.9373 66.9174 13.512 67.4281C15.48 68.0667 17.5613 67.9494 19.4373 67.1054C19.7746 66.9534 20.0919 66.7601 20.3973 66.5427C20.3866 66.6347 20.3786 66.7267 20.3693 66.8187C20.3053 66.8187 20.24 66.8281 20.1706 66.8534C18.3946 67.4867 16.7653 68.3107 15.2653 69.2894C15.2373 69.2614 15.2039 69.2374 15.1666 69.2134C12.5279 67.5814 9.5426 66.9961 6.58527 67.4801ZM5.41596 59.1654C4.55196 57.0534 4.22395 54.6934 3.76795 52.4707C3.30662 50.2241 2.77728 47.9814 2.46928 45.7081C2.46528 45.6801 2.46261 45.6521 2.45994 45.6241C2.46528 45.6201 2.47196 45.6174 2.47729 45.6134C5.22263 43.6734 9.2466 44.2414 12.4226 44.4254C15.4439 44.6027 18.4466 45.0281 21.416 45.6121C27.3346 46.7734 33.0626 48.8361 38.4453 51.5467C33.4626 50.9694 28.4613 50.7787 23.4453 50.9641C18.3893 51.1494 12.3719 51.2187 7.92661 53.9241C7.31594 54.2961 7.77728 55.3227 8.39594 54.9454C12.5799 52.4001 18.1533 52.3534 22.9173 52.1041C28.2946 51.8241 33.6946 52.0854 39.0346 52.7454C39.0733 52.7494 39.108 52.7494 39.1413 52.7481C39.268 53.0347 39.4186 53.3094 39.5919 53.5734C31.3493 53.5534 21.6093 55.1641 15.9813 61.5761C15.5026 62.1214 16.4199 62.7721 16.8933 62.2334C22.0373 56.3721 31.0399 54.7814 38.6906 54.6934C35.0879 55.7921 31.5026 56.9427 28.1413 58.6681C26.5186 59.5001 24.9999 60.5267 23.5946 61.6894C21.7946 63.1774 20.5786 65.3601 18.4013 66.3387C15.8573 67.4814 12.8453 66.1574 10.6213 64.9107C8.19327 63.5467 6.4733 61.7494 5.41596 59.1654ZM2.35594 44.3721C2.29994 42.5921 2.66529 40.8867 3.80662 39.4081C5.06795 37.7721 6.81196 36.6067 8.0493 34.9081C9.3613 33.1054 10.06 31.0067 12.1453 29.9041C14.576 28.6174 17.548 29.7734 19.7813 30.8987C27.7106 34.8907 34.4279 41.5267 39.2293 48.9214C39.1866 48.9614 39.1533 49.0067 39.1253 49.0547C39.0613 49.0787 39.0039 49.1161 38.9506 49.1601C31.0519 40.9814 20.028 36.2454 8.63595 36.2401C7.91728 36.2401 7.79196 37.3574 8.51463 37.3574C19.832 37.3627 30.7879 42.0801 38.5279 50.3414C32.7426 47.4694 26.6173 45.4334 20.2626 44.2494C16.8613 43.6174 13.4079 43.2961 9.95193 43.1947C7.34793 43.1201 4.64527 43.0614 2.35594 44.3721ZM19.48 20.2574C21.6493 18.2934 24.8106 17.9574 26.9333 15.8574C28.868 13.9427 29.376 10.2907 32.7826 10.6307C34.4573 10.7974 35.9346 12.2841 37.2106 13.2574C38.396 14.1627 39.7346 14.7321 41.1279 15.2321C41.2439 15.2734 41.3573 15.3147 41.4706 15.3574C41.5733 15.7627 42.1079 15.9694 42.3839 15.7027C45.0773 16.7681 47.2239 18.0641 48.7306 20.8401C50.2266 23.5961 50.5026 26.8534 50.2839 29.9201C49.8333 36.2254 46.7706 42.0814 43.8666 47.5867C43.6493 47.6561 43.5439 47.8374 43.5319 48.0321C43.0986 48.0974 42.6666 48.1707 42.2346 48.2467C45.944 44.0547 47.4933 37.6307 47.9333 32.2961C47.9919 31.5734 46.8746 31.4534 46.8146 32.1761C46.3773 37.4961 44.8026 44.1147 40.8613 48.0721C43.9133 41.4707 45.2626 34.3041 44.868 27.0414C44.828 26.3187 43.7199 26.5067 43.7586 27.2227C44.0786 33.1027 43.1839 38.9214 41.1639 44.4081C41.2213 40.6254 40.3293 36.6694 39.6306 33.1454C38.5013 27.4467 36.752 21.8734 34.5466 16.5027C34.272 15.8321 33.2506 16.3027 33.5253 16.9707C35.6066 22.0414 37.224 27.2627 38.376 32.6227C38.9066 35.0907 39.3013 37.5881 39.6173 40.0921C38.8773 37.9774 37.9746 35.9147 36.9879 33.8827C35.3973 30.6134 33.7893 26.3654 30.8453 24.0627C30.2733 23.6147 29.6186 24.5281 30.1893 24.9734C31.6906 26.1494 32.5266 27.7867 33.412 29.4347C34.396 31.2654 35.36 33.1054 36.2693 34.9747C37.9266 38.3867 39.2626 41.9374 39.9639 45.6667C39.9626 45.6761 39.9626 45.6867 39.9626 45.6961C37.1599 38.6081 32.6653 32.3401 26.836 27.3747C26.284 26.9041 25.632 27.8201 26.18 28.2867C32.076 33.3107 36.5373 39.7241 39.244 46.9494C34.1173 39.4827 26.8946 32.6387 18.5453 29.0854C18.38 29.0174 18.2133 28.9574 18.0466 28.8961C18.088 28.7787 18.0853 28.6401 18.0093 28.4921C16.5773 25.7001 17.144 22.3734 19.48 20.2574ZM43.0266 13.9334C43.3306 14.3281 43.648 14.7321 43.9813 15.1374C43.584 14.9667 43.1773 14.8041 42.7666 14.6467C42.8466 14.4041 42.9346 14.1667 43.0266 13.9334ZM45.2893 10.1067C46.2079 12.9601 48.244 15.2307 51.0373 16.4641C51.0666 16.4761 51.0959 16.4841 51.1239 16.4921C51.0399 17.5094 51 18.5334 50.98 19.5614C47.9853 18.3521 45.4346 15.2707 43.5493 12.7654C44.0346 11.8041 44.6213 10.9201 45.2893 10.1067ZM46.1706 9.11475C47.072 8.18142 48.0799 7.34275 49.1586 6.57875C49.4359 8.52408 50.1773 10.3147 51.3453 11.9254C51.46 12.0827 51.6066 12.1441 51.7506 12.1414C51.5266 13.1854 51.3626 14.2481 51.2413 15.3201C48.6706 14.1147 46.84 11.8761 46.1706 9.11475ZM56.3293 2.63741C54.8559 4.31207 53.7693 6.15474 52.9733 8.10808C52.5573 8.17074 52.4839 8.61339 52.6639 8.91872C52.4239 9.58405 52.2173 10.2614 52.036 10.9481C50.9906 9.41608 50.3906 7.71741 50.2093 5.87207C52.1426 4.63074 54.2493 3.58674 56.3293 2.63741ZM57.8333 7.09473C56.6573 7.52673 55.4559 7.81742 54.2226 7.98008C54.9613 6.30942 55.9373 4.73474 57.2239 3.30274C57.2813 4.59874 57.5053 5.86006 57.8333 7.09473ZM59.0053 10.5574C57.1426 11.8401 55.0399 12.4881 52.7959 12.4828C53.0346 11.3494 53.3453 10.2401 53.7426 9.16273C55.256 9.0214 56.7226 8.69074 58.1506 8.17474C58.4026 8.97608 58.692 9.76939 59.0053 10.5574ZM60.6386 14.3467C60.5693 14.3641 60.4986 14.3961 60.4293 14.4454C57.9573 16.2627 55.1813 17.3027 52.148 17.6067C52.2226 16.2587 52.36 14.9214 52.5813 13.6094C55.0586 13.6467 57.372 12.9747 59.4426 11.6201C59.8293 12.5307 60.236 13.4387 60.6386 14.3467ZM62.6426 19.3161C59.288 20.8614 55.7653 21.7108 52.08 21.8828C52.06 20.8401 52.0639 19.7907 52.0973 18.7441C55.3959 18.4561 58.4079 17.3054 61.0839 15.3561C61.6559 16.6641 62.2013 17.9774 62.6426 19.3161ZM51.0319 24.0667C50.7279 22.7094 50.2626 21.4001 49.6093 20.1574C50.052 20.3934 50.5053 20.5921 50.9666 20.7494C50.9666 21.8588 50.9893 22.9667 51.0319 24.0667ZM63.6973 25.0574C62.3039 24.1987 60.9293 23.4961 59.1906 23.3294C56.5759 23.0801 54.0186 24.2014 52.2426 26.0587C52.1893 25.0521 52.14 24.0294 52.108 23.0014C55.896 22.8441 59.5293 21.9667 62.9746 20.3987C63.4026 21.9094 63.6799 23.4534 63.6973 25.0574ZM63.7106 26.3334C63.7946 26.5627 64.0213 26.6894 64.2466 26.6974C64.6213 26.9507 64.9933 27.1974 65.3653 27.4161C66.8146 28.2708 68.4586 28.5267 70.048 28.9974C74.0893 30.1974 76.3693 34.2001 75.6453 38.2374C75.32 40.0521 74.72 41.6987 74.7413 43.5681C74.764 45.5787 75.544 47.8774 73.904 49.4481C73.776 49.4214 73.6426 49.4147 73.5093 49.4361C73.468 49.4427 73.4266 49.4494 73.3866 49.4561C72.9453 49.5281 72.6053 49.8601 72.4893 50.2667C72.0373 50.0201 71.4146 50.1161 71.0559 50.4827C70.9999 50.4694 70.9439 50.4547 70.8879 50.4401C71.0093 50.2254 71.0666 49.9721 71.0239 49.7147C70.9253 49.1107 70.3386 48.6881 69.7333 48.7867L69.6106 48.8054C69.068 48.8947 68.676 49.3774 68.6706 49.9134C68.1066 49.7841 67.54 49.6601 66.9733 49.5401C67.0426 49.4174 67.0866 49.2774 67.0973 49.1187C67.3466 49.3641 67.7026 49.4974 68.0693 49.4374C68.6733 49.3387 69.096 48.7521 68.9973 48.1467L68.9773 48.0254C68.8786 47.4187 68.2919 46.9974 67.6866 47.0961C67.1453 47.1841 66.7533 47.6641 66.748 48.1974C66.236 47.7441 65.3239 47.8921 64.9839 48.4854C64.9839 48.4227 64.9826 48.3601 64.972 48.2987L64.9519 48.1747C64.8546 47.5694 64.2666 47.1467 63.6626 47.2467C63.0573 47.3454 62.636 47.9307 62.7333 48.5361L62.7426 48.5867C60.7706 48.1747 58.7839 47.8747 56.7919 47.6841C60.2279 47.1121 63.5893 46.1587 66.8519 44.8174C67.5226 44.5427 67.052 43.5214 66.3826 43.7974C61.8053 45.6787 57.0066 46.7974 52.0879 47.1121C58.8959 45.1521 65.2066 41.6587 70.5 36.8481C71.0333 36.3614 70.3213 35.4921 69.7839 35.9801C63.6159 41.5867 56.0813 45.3507 47.9626 46.9454C53.8359 44.0227 59.032 39.9521 63.3093 34.9321C63.78 34.3801 62.8639 33.7281 62.3973 34.2761C58.3893 38.9801 53.536 42.8067 48.0773 45.6214C49.4866 44.3534 50.7426 42.8854 52.012 41.5027C54.1626 39.1614 56.1266 36.6694 57.648 33.8707C57.9893 33.2441 57.0813 32.5787 56.736 33.2147C55.4146 35.6427 53.7626 37.8174 51.9493 39.8987C50.176 41.9347 48.2666 44.2947 46.0146 45.8827C48.748 40.5881 51.3213 34.9107 51.4839 28.9387C51.5799 28.8854 51.6639 28.8027 51.7226 28.6841C53.2479 25.5787 56.6719 24.0281 60.0293 24.5707C61.3693 24.7867 62.56 25.5521 63.7106 26.3334ZM70.836 51.5734C71.0906 52.3867 72.0706 52.4827 72.6306 52.0494C73.1546 52.1961 73.6759 52.3507 74.1946 52.5107C74.1106 52.7014 74.0773 52.9161 74.112 53.1347L74.132 53.2561C74.2306 53.8614 74.8173 54.2841 75.4226 54.1854C75.9146 54.1054 76.28 53.6987 76.348 53.2267C76.5666 53.3041 76.7826 53.3841 77 53.4667C76.476 53.5827 76.028 54.0187 76.1386 54.7001C76.372 56.1321 78.5906 55.7694 78.3573 54.3401C78.3319 54.1854 78.28 54.0547 78.2146 53.9414C78.48 54.0507 78.7466 54.1627 79.0093 54.2774C78.94 54.4481 78.9146 54.6467 78.9506 54.8747C79.1373 56.0187 80.5866 56.0147 81.0453 55.2401C81.0506 55.2414 81.0546 55.2441 81.0586 55.2467C81.2079 55.6841 81.5693 55.9041 81.9573 55.9427C81.9479 55.9907 81.9479 56.0387 81.9533 56.0881C81.2426 55.6561 80.0413 56.1281 80.216 57.1987C80.3453 57.9921 81.0826 58.2334 81.676 58.0481C81.664 58.1961 81.724 58.3467 81.88 58.4587C81.0453 58.1267 80.1933 57.8241 79.328 57.5427C79.616 57.3294 79.8013 56.9827 79.7253 56.5214C79.4919 55.0894 77.2733 55.4521 77.5066 56.8814C77.512 56.9147 77.5226 56.9454 77.5293 56.9774C77.1053 56.8481 76.6799 56.7201 76.2533 56.5934C76.3439 56.4107 76.3813 56.1907 76.34 55.9334C76.1506 54.7747 74.6586 54.7934 74.2226 55.6027C74.0333 55.1574 73.6066 54.9641 73.18 54.9801C73.284 54.7907 73.3319 54.5561 73.2866 54.2801C73.0533 52.8507 70.8346 53.2121 71.068 54.6414C71.104 54.8627 71.1906 55.0387 71.3053 55.1761C69.4146 54.6494 67.5226 54.1307 65.6386 53.5921C65.5346 53.5641 65.4399 53.5641 65.3519 53.5827C65.0333 53.1014 64.3853 53.0134 63.8973 53.2481C63.8173 53.1601 63.7026 53.0974 63.548 53.0867C59.9333 52.8334 56.3186 52.7681 52.6973 52.8761C49.1599 52.9814 45.2186 52.9614 41.8466 54.1454C41.824 54.1427 41.8026 54.1387 41.7813 54.1387C41.724 54.0934 41.6573 54.0614 41.5773 54.0507C41.5226 54.0107 41.4759 53.9627 41.4239 53.9187C41.3759 53.7641 41.26 53.6387 41.0693 53.6027C40.0986 52.6214 39.644 51.2747 39.836 49.8614C40.0493 49.8134 40.2626 49.7721 40.476 49.7281C40.5746 49.7387 40.6773 49.7214 40.7773 49.6641C47.86 48.2094 55.0986 48.1947 62.1906 49.6187C62.2666 49.6987 62.3706 49.7601 62.504 49.7867C65.26 50.3187 68.0693 50.8721 70.836 51.5734ZM84.276 58.6107C83.7106 58.2587 83.1453 57.9161 82.5813 57.5801C82.5026 57.5321 82.424 57.5067 82.3466 57.4974C82.4373 57.3134 82.476 57.0934 82.4346 56.8374C82.4306 56.8121 82.42 56.7921 82.416 56.7667C82.9933 57.4254 83.6173 58.0347 84.276 58.6107ZM86.9853 59.2187C86.9906 59.2734 87.008 59.3267 87.0306 59.3787C86.1413 58.7227 85.28 58.0334 84.48 57.2841C85.3453 57.8774 86.1839 58.5174 86.9853 59.2187ZM42.412 55.9201C42.34 55.8427 42.2706 55.7614 42.1986 55.6841C42.2839 55.6867 42.3679 55.6934 42.4533 55.6961C42.5133 55.7294 42.5719 55.7627 42.6319 55.7961C42.5506 55.8201 42.4746 55.8641 42.412 55.9201ZM62.9519 57.9947C65.2826 59.1734 67.5426 60.6401 69.168 62.7121C70.36 64.2321 70.784 66.2361 70.3013 68.0921C69.992 69.2801 69.3133 70.3681 68.9266 71.5347C68.2626 73.5347 68.5853 75.7907 68.2133 77.8561C67.7026 80.6894 66.016 83.1507 63.38 84.3561C60.6773 85.5894 58.7186 83.9001 56.1933 83.3601C53.8239 82.8561 50.2773 84.3894 48.7186 81.9547C48.6826 81.8974 48.6399 81.8561 48.5973 81.8201C49.0679 80.2987 49.2866 78.6814 49.3613 77.2041C49.5626 73.2241 48.3933 69.2734 47.3599 65.4761C46.7266 63.1481 45.9959 60.8401 44.7639 58.8001C46.8893 61.1147 48.3293 64.1214 49.7906 66.8441C52.0386 71.0334 53.8706 75.5347 53.5973 80.3721C53.5559 81.0947 54.6746 81.2161 54.716 80.4934C55.0013 75.4147 53.1306 70.7921 50.812 66.3734C49.9173 64.6694 49.0026 62.8614 47.9333 61.1694C52.1693 65.9014 55.4266 71.4321 57.5333 77.4774C57.772 78.1614 58.7919 77.6881 58.5546 77.0094C56.1186 70.0201 52.1533 63.7334 46.9626 58.5187C54.4826 63.8974 60.16 71.6321 63.0133 80.5027C63.236 81.1907 64.2546 80.7147 64.036 80.0321C61.3 71.5294 56.0026 64.0907 49.0266 58.6681C53.9759 61.3761 58.3306 65.0481 61.8653 69.5227C62.3146 70.0894 63.1813 69.3747 62.7319 68.8054C58.4173 63.3454 52.8813 59.0387 46.5626 56.1934C53.9053 57.6054 60.5386 61.7681 64.9826 67.8987C65.408 68.4854 66.2733 67.7667 65.8493 67.1827C60.7253 60.1147 52.7013 55.5427 44.0546 54.6867C45.5319 54.3641 47.0839 54.2254 48.6253 54.1481C48.6933 54.1867 48.7733 54.2107 48.868 54.2161C53.8066 54.4867 58.5399 55.7641 62.9519 57.9947ZM37.1426 91.2161C38.932 90.4907 40.188 88.9241 41.9813 88.1747C43.5106 87.5334 44.952 87.1654 46.1813 85.9921C47.0333 85.1801 47.6706 84.1681 48.1426 83.0641C49.4973 84.6801 51.7466 84.5107 53.7239 84.3361C56.7106 84.0707 59.0693 86.1907 62.0866 85.8721C68.1479 85.2347 69.4093 78.5561 69.6986 73.7027C69.8826 70.6041 72.0573 68.3294 71.4853 65.1187C70.9679 62.2174 68.488 60.0987 66.172 58.5654C62.8146 56.3414 59.0039 54.8121 55.0599 53.9347C57.8079 53.9081 60.5559 54.0081 63.2973 54.1961C63.2973 54.2587 63.2973 54.3214 63.308 54.3894C63.5 55.5587 65.0146 55.5294 65.436 54.6987C66.5093 55.0054 67.5853 55.3094 68.6599 55.6147C68.2306 55.7894 67.9053 56.1934 68.0013 56.7881C68.2346 58.2174 70.4533 57.8561 70.2199 56.4254C70.1946 56.2654 70.14 56.1321 70.0706 56.0161C70.7893 56.2187 71.5066 56.4254 72.2253 56.6321C72.2359 56.6494 72.2439 56.6707 72.2546 56.6881C71.5839 56.6147 70.8333 57.0841 70.9746 57.9467C71.208 59.3774 73.4266 59.0161 73.1933 57.5854C73.1653 57.4134 73.1066 57.2667 73.0279 57.1441C73.2466 57.1694 73.472 57.1347 73.672 57.0481C74.2413 57.2107 74.8093 57.3747 75.3773 57.5387C75.0973 57.7547 74.9213 58.1001 74.996 58.5574C75.2293 59.9867 77.448 59.6267 77.2146 58.1947C77.2066 58.1454 77.1906 58.1041 77.1786 58.0587C77.276 58.0867 77.3733 58.1147 77.4706 58.1427C77.644 58.1934 77.8159 58.2467 77.9893 58.2987C77.9373 58.4547 77.9186 58.6334 77.9519 58.8347C78.1133 59.8241 79.2253 59.9547 79.8173 59.4681C79.7013 59.6627 79.6439 59.9067 79.6919 60.1947C79.9253 61.6267 82.144 61.2641 81.9106 59.8334C81.9 59.7667 81.884 59.7054 81.8653 59.6467C83.308 60.2414 84.696 60.9467 85.98 61.8267C88.0306 63.4347 90.4773 66.2694 90.0453 68.9841C89.932 69.7014 91.0506 69.8161 91.164 69.1041C91.4653 67.2094 90.608 65.2894 89.3613 63.6547C91.9973 65.9881 94.1013 68.7934 94.9053 72.4201C95.0613 73.1267 96.172 72.9494 96.0146 72.2414C95.176 68.4561 93.0466 65.5147 90.3519 63.0614C90.4013 63.0961 90.452 63.1307 90.5 63.1654C93.3066 65.1374 96.1253 67.1281 99.6173 67.5454C100.339 67.6334 100.456 66.5147 99.7373 66.4281C96.7773 66.0734 94.3359 64.4787 91.9546 62.8121C93.4506 63.6147 95.0346 64.2481 96.8013 64.6361C97.5093 64.7907 97.6213 63.6707 96.9213 63.5187C94.4959 62.9841 92.4146 61.9227 90.444 60.5934C92.6053 61.1174 94.8973 61.0574 97.1813 60.8681C97.904 60.8094 97.7173 59.7001 97 59.7587C93.764 60.0267 90.4653 60.0694 87.6613 58.1987C87.5693 58.1374 87.4773 58.1107 87.3879 58.1041C86.0679 56.9894 84.668 56.0161 83.204 55.1614C83.2413 55.0201 83.2506 54.8601 83.2226 54.6854C83.0533 53.6507 81.8506 53.5574 81.2839 54.1241C81.1479 54.0561 81.012 53.9894 80.8746 53.9227C80.8466 53.8947 80.8173 53.8654 80.7866 53.8414C81.4693 53.9481 82.2653 53.4734 82.1199 52.5867C81.8879 51.1561 79.668 51.5187 79.9026 52.9494C79.952 53.2574 80.0986 53.4774 80.2893 53.6281C80.2759 53.6254 80.2613 53.6267 80.2493 53.6254C79.824 53.4281 79.3933 53.2414 78.9613 53.0601C79.2573 52.8467 79.448 52.4934 79.372 52.0241C79.14 50.6067 76.9666 50.9494 77.1506 52.3454C76.2426 52.0107 75.3213 51.7001 74.3906 51.4147C74.6933 51.1667 74.8653 50.7721 74.8 50.3641C74.7893 50.3014 74.7706 50.2427 74.7506 50.1841C75.8453 49.0747 76.188 47.5827 76.0666 46.0134C75.9613 44.6201 75.7853 43.2734 75.9666 41.8774C76.1213 40.6934 76.508 39.5267 76.7626 38.3587C77.6213 34.4281 75.524 30.3947 71.9493 28.5934C69.6626 27.4401 67.1773 27.2654 64.9746 25.8627C64.9186 25.8281 64.864 25.7934 64.8093 25.7574C64.9946 19.2507 60.8519 13.7361 59.0919 7.70941C59.2546 7.45741 59.1346 7.09207 58.8786 6.9294C58.4266 5.15073 58.204 3.32408 58.38 1.41075C58.4186 0.98008 57.9813 0.664075 57.5866 0.838741C51.1813 3.68007 44.0333 7.16405 41.7133 14.2521C41.272 14.0894 40.8279 13.9267 40.3866 13.7561C37.2239 12.5374 35.2226 9.28939 31.5626 9.48939C28.6039 9.65206 27.5666 13.6547 25.808 15.3947C23.2933 17.8827 19.4426 17.9427 17.3213 21.0401C15.8279 23.2214 15.7426 26.1494 16.78 28.5227C15.3306 28.1947 13.832 28.1987 12.3746 28.6174C10.296 29.2134 9.11462 31.0041 8.07596 32.7587C6.76796 34.9707 4.99328 36.4441 3.29594 38.3094C1.78661 39.9681 1.24261 41.8587 1.23328 44.0761C1.22395 46.2867 1.80396 48.4907 2.24529 50.6401C2.77196 53.2027 3.21863 55.7987 3.94796 58.3134C4.71463 60.9547 6.22396 63.0521 8.21063 64.6427C6.81329 65.6161 5.64128 66.7294 4.66395 67.9507C4.52395 67.9961 4.38262 68.0401 4.24262 68.0907C3.87596 68.2241 3.84661 68.5814 3.99995 68.8441C2.30661 71.2734 1.30662 74.0761 0.805287 77.0281C0.68662 77.1467 0.575959 77.2747 0.477292 77.4147C0.262625 77.7161 0.397284 78.0347 0.635951 78.1947C0.0692841 82.7281 0.591956 87.5427 1.54129 91.8867C1.62262 92.2561 2.1386 92.5614 2.4546 92.2294C7.3666 87.0547 15.7186 90.3361 21.3906 86.4761C21.4066 86.4654 21.4173 86.4534 21.4306 86.4414C25.3733 90.6041 31.7466 93.4041 37.1426 91.2161Z" fill="#BC9E66"/>
<path d="M77.8426 60.496C77.7453 59.892 77.1573 59.4707 76.5533 59.5681L76.4293 59.5881C75.8253 59.6881 75.4026 60.2734 75.5013 60.8787C75.6 61.4827 76.1866 61.9054 76.792 61.8067L76.9147 61.7867C77.52 61.6881 77.9426 61.1014 77.8426 60.496Z" fill="#BC9E66"/>
</svg>
