<svg width="92" height="89" viewBox="0 0 92 89" fill="none" xmlns="http://www.w3.org/2000/svg">
<path d="M40.04 52.9974C36.832 50.0254 35.5946 45.0294 38.0879 41.2361C40.8599 37.0188 47.056 39.9868 50.1986 42.2094C50.2 42.2108 50.2 42.2134 50.2013 42.2161C51.656 45.6894 52.7079 49.5761 50.7546 53.0748C48.1746 57.6988 43.136 55.8641 40.04 52.9974ZM47.704 60.9334C48.1613 62.1721 48.5373 63.3801 49.5239 64.3001C49.9719 64.7187 50.584 63.9881 50.136 63.5694C49.1893 62.6868 48.8666 61.3361 48.4333 60.1587C48.2053 59.5441 47.9973 58.9468 47.8453 58.3374C48.6026 59.4001 49.6839 60.1614 50.9853 60.5374C51.5773 60.7081 51.7453 59.7707 51.1613 59.6014C49.7813 59.2027 48.6786 58.2161 48.1146 56.8987C48.0653 56.7814 47.9853 56.7054 47.8946 56.6587C48.0826 56.5987 48.2693 56.5308 48.4519 56.4494C49.5426 58.5041 52.6706 59.3654 54.7346 59.8801C55.3333 60.0281 55.5026 59.0908 54.9106 58.9441C53.9 58.6921 52.9266 58.3588 51.9733 57.9401C51.0013 57.5134 49.784 56.9881 49.28 55.9961C49.548 55.8174 49.8106 55.6134 50.064 55.3774C50.1666 55.2814 50.2626 55.1841 50.3586 55.0854C50.8613 55.9961 52.2893 56.4601 53.1613 56.8161C54.4813 57.3574 55.892 57.6494 57.3106 57.7614C57.9173 57.8081 58.0973 56.8734 57.4866 56.8254C56.4439 56.7427 55.4346 56.5561 54.432 56.2614C53.6586 56.0347 51.3893 55.3588 51.128 54.4708C51.108 54.4001 51.076 54.3427 51.0373 54.2974C51.156 54.1401 51.2706 53.9814 51.376 53.8187C54.2573 55.2747 57.292 55.5934 60.5 55.7214C61.1133 55.7454 61.0346 54.7961 60.4293 54.7721C57.4013 54.6508 54.564 54.3441 51.8453 52.9907C52.0186 52.6361 52.1666 52.2748 52.2866 51.9054C52.3466 51.9988 52.4413 52.0734 52.5773 52.1054C56.0466 52.9148 60.0386 52.7267 63.3919 51.5201C63.9706 51.3121 63.6493 50.4161 63.072 50.6241C59.8893 51.7681 56.0426 51.9361 52.7519 51.1694C52.6506 51.1454 52.5613 51.1547 52.4853 51.1841C52.5639 50.8441 52.6293 50.5001 52.6693 50.1521C55.688 50.4281 58.5973 49.9094 61.316 48.5534C61.8586 48.2827 61.544 47.3827 60.9946 47.6574C58.4173 48.9414 55.6626 49.4828 52.7919 49.2121C52.7719 49.2094 52.7533 49.2121 52.7346 49.2121C52.7466 48.7348 52.7293 48.2521 52.6839 47.7681C55.7639 47.7921 58.7613 46.6654 61.6893 45.8281C62.2799 45.6587 61.956 44.7627 61.3693 44.9321C58.5026 45.7521 55.5786 46.8521 52.564 46.8187C52.5266 46.5774 52.484 46.3361 52.4333 46.0947C55.8853 44.6801 59.1213 42.8654 62.1213 40.6441C62.6133 40.2801 62.0693 39.4987 61.5746 39.8654C58.6706 42.0147 55.552 43.7774 52.216 45.1561C52.1426 44.8734 52.064 44.5921 51.9786 44.3121C53.9946 43.4948 55.8266 42.3841 57.4733 40.9561C57.932 40.5574 57.3893 39.7734 56.9253 40.1761C55.3479 41.5454 53.612 42.6188 51.68 43.4068C51.5946 43.1654 51.5066 42.9254 51.416 42.6894C51.5373 42.6627 51.6506 42.5907 51.7306 42.4627C53.3293 39.8907 56.2906 37.9921 58.5626 36.0428C59.024 35.6468 58.4813 34.8614 58.0146 35.2627C55.688 37.2601 52.7893 39.1774 51.0586 41.7694C51.0733 41.7201 51.084 41.6681 51.0826 41.6094C51.036 39.9241 52.328 38.3881 53.228 37.0667C54.0426 35.8747 54.9893 34.7521 56.2253 33.9841C56.7466 33.6601 56.1973 32.8814 55.6773 33.2054C54.06 34.2108 52.9426 35.7681 51.9093 37.3347C51.1346 38.5081 50.3306 39.6601 50.1626 41.0414C49.9613 40.9094 49.7533 40.7774 49.536 40.6454C49.5493 40.5908 49.5546 40.5307 49.544 40.4627C49.1653 37.8814 51.444 35.0121 53.016 33.1814C53.416 32.7161 52.6879 32.1028 52.2866 32.5694C50.6359 34.4921 48.4266 37.3588 48.5559 40.0828C48.1559 39.8654 47.7413 39.6547 47.3146 39.4574C47.3373 39.3801 47.3426 39.2934 47.3199 39.1987C46.4639 35.6427 49.7026 32.1601 51.8519 29.6468C52.2506 29.1801 51.5226 28.5668 51.1226 29.0348C48.7839 31.7681 45.72 35.2148 46.3293 39.0347C46.0346 38.9187 45.7386 38.8094 45.44 38.7121C45.1946 36.9308 45.1293 35.2174 45.728 33.4961C46.2946 31.8667 47.06 30.3121 47.9106 28.8148C48.2133 28.2801 47.3506 27.8761 47.0493 28.4081C46.1106 30.0614 45.2426 31.8041 44.6813 33.6281C44.196 35.2054 44.2426 36.8094 44.444 38.4267C44.016 38.3227 43.5853 38.2387 43.1599 38.1881C43.1319 38.1267 43.0866 38.0668 43.0186 38.0148C42.3293 37.4814 42.5106 35.2961 42.5173 34.5307C42.5279 33.3014 42.7853 32.0801 43.1306 30.9041C43.304 30.3148 42.3653 30.1454 42.1946 30.7281C41.7746 32.1587 41.576 33.5908 41.564 35.0788C41.556 35.9054 41.512 37.2467 41.9373 38.1321C41.664 38.1401 41.3919 38.1587 41.1266 38.1987C40.0266 35.1107 39.5013 31.5574 40.8773 28.4761C41.1266 27.9161 40.2666 27.5068 40.016 28.0694C38.552 31.3521 39.0333 35.1094 40.196 38.4187C39.8213 38.5427 39.4586 38.7081 39.116 38.9201C37.9973 37.6267 37.8786 35.7494 37.644 34.1174C37.3693 32.2081 37.3266 30.2828 38.0626 28.4694C38.2933 27.9014 37.4333 27.4907 37.2013 28.0614C36.3933 30.0547 36.4253 32.0841 36.6946 34.1881C36.9306 36.0401 37.1613 38.0227 38.364 39.4894C38.252 39.5921 38.1413 39.7014 38.0346 39.8187C37.9906 39.8681 37.9493 39.9188 37.9066 39.9694C36.7786 38.7494 36.0066 37.3454 35.4306 35.7788C35.092 34.8628 34.8826 33.8961 34.6946 32.9414C34.5679 32.2974 34.0813 30.8054 34.432 30.2121C34.7453 29.6841 33.8813 29.2814 33.5706 29.8054C33.2093 30.4161 33.4546 31.1281 33.5466 31.8001C33.72 33.0587 33.992 34.2974 34.3426 35.5174C34.908 37.4761 35.9266 39.2481 37.3173 40.7241C37.1546 40.9601 37.0026 41.2001 36.868 41.4441C34.4266 40.0761 32.528 36.6681 32.348 33.9828C32.3066 33.3681 31.3573 33.4414 31.3986 34.0534C31.6013 37.0787 33.7039 40.8001 36.4573 42.3054C36.3906 42.4681 36.328 42.6307 36.272 42.7961C34.9653 42.4134 34.048 41.1881 33.1786 40.2134C32.1626 39.0761 31.2306 37.8667 30.3426 36.6294C29.9853 36.1321 29.204 36.6774 29.5626 37.1761C30.6773 38.7281 31.8746 40.2014 33.1666 41.6094C34.0066 42.5254 34.8386 43.3628 36.0279 43.7094C35.9546 44.0574 35.896 44.4094 35.864 44.7641C33.0106 44.5547 30.3706 43.2321 28.4893 41.0667C28.0906 40.6094 27.3066 41.1508 27.7106 41.6148C29.8106 44.0334 32.656 45.4588 35.8293 45.7054C35.832 45.9294 35.8399 46.1534 35.8586 46.3761C33.4399 46.6308 31.0773 46.3081 28.8199 45.3761C28.2533 45.1414 27.844 46.0014 28.412 46.2361C30.8333 47.2348 33.3853 47.6041 35.9813 47.3201C36.0253 47.5707 36.0746 47.8201 36.1373 48.0681C33.8773 48.9281 30.968 48.4948 28.696 47.8028C28.1093 47.6228 27.9413 48.5614 28.5213 48.7388C30.9253 49.4721 34.0013 49.8788 36.4093 48.9814C36.4306 49.0454 36.4493 49.1108 36.472 49.1734C34.1546 49.7548 32.0346 50.7507 30.1026 52.1641C29.608 52.5267 30.1533 53.3068 30.6493 52.9441C32.5293 51.5694 34.584 50.6174 36.836 50.0587C36.884 50.1614 36.928 50.2654 36.9773 50.3667C35.6013 50.8401 34.3506 51.5161 33.2546 52.4907C32.6746 53.0067 31.2853 54.3974 31.4693 55.2774C31.524 55.5401 31.6946 55.7228 31.98 55.7161C31.9973 55.7161 32.0146 55.7148 32.032 55.7148C32.4173 55.7041 32.532 55.3294 32.4146 55.0534C32.4946 54.3147 33.9893 53.0961 34.4133 52.7534C35.3013 52.0374 36.3613 51.5708 37.4373 51.2148C37.644 51.5641 37.868 51.9041 38.1093 52.2321C35.992 53.3641 34.3653 55.0814 33.3853 57.2961C33.1359 57.8574 33.996 58.2654 34.2453 57.7028C35.16 55.6361 36.6853 53.9974 38.7106 52.9814C38.8786 53.1748 39.0546 53.3641 39.2386 53.5521C37.5826 55.1534 36.3213 57.0441 35.5266 59.2214C35.3173 59.7947 36.1759 60.2067 36.3879 59.6294C37.1426 57.5561 38.3293 55.7147 39.9253 54.1961C40.0039 54.2654 40.0799 54.3334 40.1599 54.4014C39.2706 56.0174 38.7906 57.7881 38.7733 59.6388C38.768 60.2548 39.7173 60.1774 39.7226 59.5681C39.7386 57.9507 40.1733 56.4094 40.9213 54.9907C41.1786 55.1761 41.4426 55.3521 41.7133 55.5174C40.9413 57.3054 40.4466 59.5921 41.2706 61.3961C41.524 61.9494 42.4226 61.6348 42.1666 61.0761C41.4533 59.5148 41.8906 57.5401 42.5533 55.9774C42.9533 56.1761 43.3613 56.3561 43.776 56.4974C42.9906 58.7841 43.0226 61.1787 43.908 63.4574C44.1306 64.0281 45.028 63.7094 44.8053 63.1361C43.9933 61.0468 43.9439 58.8547 44.6919 56.7521C44.8639 56.7894 45.0373 56.8228 45.2093 56.8481C44.9146 59.5148 45.0546 62.9907 47.0839 64.9241C47.5279 65.3481 48.1386 64.6174 47.696 64.1947C45.9333 62.5147 45.8919 59.2321 46.1573 56.9227C46.3306 56.9227 46.5026 56.9174 46.6746 56.9041C46.7213 58.3254 47.2106 59.5961 47.704 60.9334Z" fill="#BC9E66"/>
<path d="M54.1266 72.0521C55.1573 72.0041 56.1853 71.8187 57.192 71.4547C57.2266 71.4414 57.2586 71.4254 57.2866 71.4094C57.5946 71.5174 58.0453 71.2281 57.936 70.7974C56.8947 66.6587 54.208 63.2468 50.4653 61.2134C49.924 60.9188 49.52 61.7814 50.0573 62.0734C53.4173 63.8987 55.8133 66.9147 56.8827 70.5547C56.8787 70.5561 56.8747 70.5561 56.8707 70.5574C53.452 71.7974 49.9413 70.8067 46.7866 69.2907C44.7946 68.3321 42.832 67.0401 41.452 65.3201C41.5706 64.9867 41.2733 64.6481 40.972 64.6601C40.392 63.7974 39.956 62.8387 39.7253 61.7694C39.708 61.6854 39.6733 61.6214 39.6306 61.5721C39.9933 61.2227 39.4826 60.5614 38.9946 60.8614C35.332 63.1134 29.7653 63.7467 26.128 61.0361C25.196 60.3427 24.888 58.5987 24.6226 57.5361C24.3426 56.4094 24.24 55.2427 24.1933 54.0867C24.0933 51.5867 24.64 49.0867 25.6027 46.7907C25.6187 46.7534 25.6293 46.7174 25.636 46.6828C25.888 46.5214 26.004 46.1614 25.6946 45.9428C20.8373 42.5081 20.008 36.0574 18.8346 30.6254C18.876 30.6201 18.9173 30.6121 18.96 30.5947C22.904 29.0721 26.8453 30.5561 30.512 32.1334C30.5213 32.1654 30.528 32.1961 30.536 32.2267C30.6613 32.6587 31.1707 32.6001 31.372 32.3108C31.672 32.1401 31.776 31.6427 31.3666 31.4654C31.348 31.4574 31.3293 31.4494 31.3107 31.4414C29.8707 26.0294 30.6093 20.4147 32.576 15.2241C32.8307 15.2294 33.0973 15.0574 33.0813 14.7294C33.0707 14.5161 33.0493 14.3081 33.0226 14.1041C33.9586 11.8828 35.136 9.76407 36.4067 7.72007C37.8707 5.36674 39.5027 2.58942 41.8733 1.04009C43.796 5.10409 44.6493 9.38543 44.9013 13.7428C44.892 13.7801 44.88 13.8161 44.8707 13.8534C44.836 13.9947 44.864 14.1107 44.9253 14.2001C45.1826 19.4894 44.58 24.8841 43.9453 30.1281C43.8987 30.5227 44.2746 30.7334 44.5653 30.6681C44.8946 30.7227 45.2733 30.4521 45.104 30.0614C44.68 29.0881 46.616 27.1574 47.18 26.4174C47.9507 25.4121 48.7707 24.4441 49.608 23.4947C51.4987 21.3534 53.5853 19.3921 55.788 17.5761C60.0466 14.0641 64.8667 11.2641 69.98 9.19875C70.2507 20.2654 65.0653 30.5041 58.6493 39.2187C58.288 39.7094 59.0147 40.3267 59.3787 39.8307C61.204 37.3521 62.9266 34.7561 64.4586 32.0561C64.5626 32.1267 64.6973 32.1441 64.8533 32.0654C71.7133 28.5574 81.048 30.9908 87.608 34.1468C87.6533 34.1694 87.6973 34.1814 87.74 34.1894C85.944 37.9334 83.0573 40.9081 79.3707 42.8401C79.3147 42.8694 79.2733 42.9054 79.24 42.9441C78.308 42.6974 77.3733 42.4854 76.4453 42.3068C70.7547 41.2094 64.8106 41.6467 59.292 43.3681C58.7053 43.5507 59.028 44.4467 59.6133 44.2641C64.688 42.6827 69.992 42.2974 75.248 43.0694C80.608 43.8574 86.5747 45.9081 90.1667 50.1547C90.1707 50.1601 90.1773 50.1654 90.1827 50.1707C88.7053 52.5587 86.288 53.9614 83.7906 55.1201C81.264 56.2934 78.6546 57.3441 76.028 58.2734C75.7773 58.1294 75.5573 58.2587 75.4586 58.4681C69.944 60.3334 64.0573 60.8561 58.2893 60.1134C57.6826 60.0361 57.5053 60.9721 58.1133 61.0507C59.2947 61.2014 60.472 61.3001 61.648 61.3454C61.672 61.4294 61.7253 61.5108 61.8173 61.5788C64.8506 63.8161 66.9573 66.8694 68.6347 70.2041C69.4187 71.7654 70.084 73.3868 70.7253 75.0108C71.3906 76.6934 72.052 78.3961 71.7667 80.2227C65.2107 80.0587 58.7866 76.5134 54.1266 72.0521ZM52.52 75.5641C52.5773 77.2627 52.056 78.8787 51.4053 80.4241C50.276 83.1054 48.7693 85.9534 46.3266 87.6374C43.784 85.7121 41.6386 83.4001 39.8906 80.7201C38.94 79.2601 38.1813 77.6854 37.54 76.0681C37.0267 74.7747 35.7373 72.0268 36.6 70.7134C36.6666 70.6121 36.6893 70.5067 36.6827 70.4067C38.2173 69.1374 39.6267 67.7014 40.8747 66.1108C42.3413 67.8268 44.352 69.1267 46.38 70.1507C48.3493 71.1454 50.5147 71.8694 52.7013 72.0294C52.3933 73.2041 52.4786 74.3601 52.52 75.5641ZM24.464 75.3014C24.4573 75.2707 24.448 75.2414 24.4346 75.2094C21.7173 69.0694 19.5053 61.5001 23.2946 55.4347C23.432 57.4907 23.8893 60.0961 25.1533 61.3934C26.8373 63.1214 29.6 63.6121 31.9147 63.7267C34.3213 63.8467 36.7186 63.1947 38.8253 62.0534C38.8266 62.0654 38.8266 62.0774 38.8293 62.0907C39.0906 63.3067 39.596 64.3827 40.2693 65.3387C36.34 70.4174 30.7586 73.9654 24.464 75.3014ZM23.028 51.3934C20.6266 51.6281 18.396 50.8468 16.1666 50.0494C13.9853 49.2681 11.86 48.3294 9.91466 47.0627C6.09199 44.5761 3.63864 40.5441 1.35864 36.6947C6.77731 34.2761 12.8107 33.8854 18.5093 35.6054C18.688 35.6587 18.8266 35.6094 18.9186 35.5108C19.888 39.6694 21.2933 43.7814 24.732 46.4108C24.04 48.0654 23.6013 49.7694 23.3893 51.5174C23.3066 51.4307 23.1866 51.3787 23.028 51.3934ZM12.916 19.4307C16.4413 20.1707 19.6946 21.6574 22.5573 23.8681C22.6306 23.9241 22.7053 23.9521 22.7787 23.9641C23.2373 25.7814 23.9027 27.5534 24.78 29.2361C22.7547 28.8707 20.696 28.9041 18.64 29.6987C18.5347 29.7387 18.46 29.8028 18.412 29.8788C18.1173 29.8481 17.7573 30.1214 17.844 30.5121C18.1427 31.8601 18.4186 33.2721 18.732 34.6881C18.7213 34.6841 18.7106 34.6788 18.6986 34.6748C18.7146 34.5721 18.6893 34.4588 18.5986 34.3494C15.0893 30.1014 13.12 24.9174 12.916 19.4307ZM25.8147 6.83742C28.576 8.57475 31.484 10.6494 32.044 14.0014C31.908 14.3254 31.7747 14.6508 31.6467 14.9774C29.6613 20.0561 28.988 25.6521 30.2147 30.9734C28.8067 30.3868 27.364 29.8414 25.9 29.4761C25.904 29.3894 25.888 29.3001 25.8373 29.2094C22.0133 22.3041 22.052 13.7441 25.8147 6.83742ZM51.8533 5.45207C54.0106 8.74674 55.9893 12.3348 55.4 16.4108C55.3866 16.5041 55.3986 16.5854 55.428 16.6574C54.944 17.0467 54.4653 17.4414 53.9933 17.8454C51.764 19.7588 49.712 21.8734 47.8133 24.1148C46.896 25.1961 46.0387 26.3281 45.2133 27.4814C45.724 22.9588 46.108 18.3534 45.8626 13.8281C46.7733 10.3827 49.284 7.79874 51.8533 5.45207ZM75.9027 59.3187C78.124 60.7734 80.0506 62.6681 81.9506 64.5081C84.164 66.6521 86.1213 69.0401 87.0186 72.0187C82.2226 74.1187 77.4573 75.5334 72.1493 75.0081C72.0613 75.0001 71.984 75.0134 71.9147 75.0401C71.2333 73.2041 70.2827 71.4254 69.5307 69.8841C67.9547 66.6467 65.904 63.6467 63.104 61.3734C67.444 61.3854 71.7373 60.6854 75.9027 59.3187ZM71.9787 81.1774C72.18 81.1814 72.3067 81.0814 72.364 80.9441C72.5107 80.9001 72.6347 80.7881 72.6707 80.5921C72.9587 79.1001 72.716 77.5227 72.228 75.9641C77.74 76.4507 82.66 74.9974 87.6693 72.7707C87.8493 72.6921 87.9373 72.5441 87.9573 72.3881C88.0213 72.2841 88.048 72.1521 88.008 72.0054C87.212 69.0894 85.444 66.7614 83.3866 64.6041C81.4493 62.5747 79.3413 60.5534 77.0226 58.9321C79.888 57.9134 82.752 56.7254 85.468 55.3627C87.7987 54.1934 89.8507 52.6467 91.1747 50.3667C91.3107 50.1321 91.2187 49.9227 91.0453 49.8067C91.032 49.7414 91.0013 49.6734 90.9453 49.6067C88.2627 46.4361 84.468 44.5027 80.5013 43.3001C84.1347 41.2387 86.98 38.1281 88.7347 34.3187C88.9053 33.9494 88.5853 33.6494 88.276 33.6468C88.2627 33.5041 88.184 33.3681 88.016 33.2867C84.472 31.5827 80.732 30.4347 76.844 29.8574C72.9333 29.2774 68.7507 29.2414 65.1013 30.8974C68.7827 24.0934 71.1933 16.6547 70.924 8.80008C70.912 8.44808 70.596 8.32274 70.332 8.39341C70.224 8.24008 70.0387 8.14942 69.8093 8.24142C64.9987 10.1668 60.5053 12.7387 56.4107 15.8854C56.7547 11.6441 54.632 7.91207 52.336 4.45474C52.2053 4.2574 51.8627 4.16676 51.6733 4.33876C49.3253 6.46142 47.016 8.72008 45.684 11.5641C45.284 7.72675 44.3653 3.96673 42.612 0.384068C42.5227 0.200068 42.3613 0.116088 42.1973 0.104088C42.0506 -0.0145791 41.8427 -0.0585882 41.6373 0.0614117C39.088 1.56674 37.4733 4.32807 35.9013 6.75474C34.688 8.62674 33.6013 10.5747 32.6666 12.5947C31.588 9.49608 28.632 7.47609 25.844 5.74142C25.612 5.59609 25.328 5.76275 25.2107 5.96808C22.292 11.0388 21.3933 17.0041 22.484 22.6388C19.5013 20.4908 16.1373 19.0388 12.5067 18.3681C12.1907 18.3094 11.94 18.5668 11.944 18.8721C12.016 24.4948 13.912 29.8868 17.3546 34.3108C11.7226 32.9388 5.7813 33.5347 0.517298 36.0307C0.223964 36.1694 0.119968 36.4681 0.287968 36.7521C2.83197 41.0467 5.4893 45.3107 9.75597 48.0881C11.768 49.3974 14.024 50.2881 16.2733 51.0934C18.484 51.8854 20.7266 52.5748 23.0986 52.3428C23.1826 52.3348 23.252 52.3094 23.3107 52.2734C23.2693 52.7894 23.2507 53.3094 23.248 53.8334C18.312 60.3321 20.52 68.7107 23.5373 75.5294C23.5907 75.6494 23.6733 75.7267 23.7693 75.7721C23.708 76.0641 23.8747 76.3894 24.2413 76.3161C28.3253 75.4974 32.1333 73.8067 35.4266 71.3867C35.356 72.1867 35.592 73.0094 35.8107 73.8494C36.316 75.7921 37.1106 77.6414 38.0333 79.4187C39.9426 83.0987 42.8 86.2627 46.14 88.6934C46.472 88.9347 46.8613 88.6828 46.9253 88.3814C49.3786 86.6708 50.7907 83.9707 52.0453 81.3201C52.6733 79.9961 53.1333 78.6121 53.376 77.1667C53.62 75.7081 53.3053 74.2374 53.52 72.7867C58.4013 77.4587 65.124 81.0561 71.9787 81.1774Z" fill="#BC9E66"/>
</svg>
