<svg width="90" height="110" viewBox="0 0 90 110" fill="none" xmlns="http://www.w3.org/2000/svg">
<path d="M29.528 79.5146L29.6613 79.5334C30.316 79.6307 30.9427 79.164 31.0387 78.5094C31.1347 77.8558 30.668 77.2292 30.0147 77.1334L29.8813 77.1136C29.2267 77.0172 28.6 77.4828 28.504 78.1375C28.408 78.7922 28.8733 79.4172 29.528 79.5146Z" fill="#BC9E66"/>
<path d="M33.828 81.7812C34.4827 81.876 35.108 81.412 35.204 80.7558L35.224 80.624C35.32 79.9694 34.8547 79.3427 34.2 79.247C33.5453 79.1506 32.9187 79.6162 32.824 80.2708L32.804 80.4042C32.708 81.0588 33.1733 81.6855 33.828 81.7812Z" fill="#BC9E66"/>
<path d="M34.3667 78.4042C34.416 78.5266 34.4893 78.636 34.5733 78.7344C34.644 78.8438 34.728 78.9438 34.8307 79.0266C35.3093 79.412 36.172 79.3891 36.536 78.8375C36.744 78.5224 36.824 78.2787 36.812 77.9C36.8053 77.6864 36.6907 77.4224 36.5627 77.2531C36.4373 77.0828 36.2187 76.8959 36.016 76.8292C35.656 76.7079 35.4 76.7162 35.0387 76.824C34.4053 77.0146 34.136 77.8334 34.3667 78.4042Z" fill="#BC9E66"/>
<path d="M31.7227 84.0599L31.8546 84.0803C32.5093 84.176 33.136 83.7094 33.232 83.0558C33.328 82.4011 32.8613 81.7746 32.208 81.6787L32.0747 81.6588C31.42 81.564 30.7933 82.0282 30.6973 82.6839C30.6013 83.3375 31.0667 83.964 31.7227 84.0599Z" fill="#BC9E66"/>
<path d="M25.1507 82.4146C26.6987 82.6402 27.052 80.2412 25.504 80.0136C23.956 79.7855 23.6027 82.1864 25.1507 82.4146Z" fill="#BC9E66"/>
<path d="M32.4919 91.8042C34.0399 92.0307 34.3919 89.6307 32.8439 89.4027C31.2959 89.1746 30.9439 91.576 32.4919 91.8042Z" fill="#BC9E66"/>
<path d="M23.4573 86.5255C25.0053 86.7522 25.3587 84.3522 23.8093 84.124C22.2613 83.8974 21.9093 86.2974 23.4573 86.5255Z" fill="#BC9E66"/>
<path d="M35.5933 88.3068C37.1413 88.5344 37.4947 86.135 35.9467 85.9079C34.3987 85.6803 34.0453 88.0812 35.5933 88.3068Z" fill="#BC9E66"/>
<path d="M16.3266 22.6387C18.2586 21.912 20.3653 21.868 22.308 22.552C23.3586 22.9214 24.2586 23.6773 25.0986 24.464C25.08 24.7493 25.2266 25.0627 25.5813 25.1507C25.6866 25.1773 25.792 25.1947 25.8973 25.2187C26.028 25.3427 26.1573 25.4653 26.2853 25.5813C28.736 27.8133 31.8386 27.7227 34.5306 29.4027C34.672 29.4907 34.8186 29.5133 34.9546 29.4947C35.724 30.9733 36.7626 32.4014 37.3426 33.8387C39.1573 38.332 39.344 43.347 39.316 48.1891C39.2546 48.2678 39.2146 48.3719 39.2106 48.5068C39.2026 48.747 39.196 48.9839 39.1893 49.2224C35.8666 43.336 35.2226 36.4293 33.1986 30.0587C32.9626 29.312 31.8373 29.7693 32.0733 30.512C33.756 35.8107 34.5226 41.4145 36.5906 46.5547C32.6346 40.9197 29.4626 34.7933 27.1453 28.2787C26.884 27.5413 25.7573 27.996 26.02 28.732C28.7106 36.2987 32.5493 43.3667 37.4146 49.7402C29.6213 43.812 22.3346 36.9787 18.1666 27.9667C17.84 27.2587 16.712 27.7067 17.0413 28.4187C21.4173 37.884 29.1106 45.0188 37.3226 51.1932C26.5946 47.0145 16.0746 40.8735 11.156 29.9734C10.8346 29.2627 9.70663 29.712 10.0293 30.4267C15.056 41.5651 25.688 47.9307 36.6506 52.2334C26.9093 51.6708 16.8746 49.7412 9.6973 42.6079C9.1413 42.0558 8.39064 43.012 8.93997 43.5558C14.016 48.6011 20.52 51.1214 27.3466 52.3839C25.872 52.3094 24.3986 52.2224 22.924 52.1079C19.0853 51.8094 15.1026 51.3855 12.012 48.8651C11.404 48.3708 10.648 49.3197 11.2533 49.8136C14.308 52.3041 18.1333 52.9011 21.9506 53.2427C26.2986 53.6307 30.6653 53.7922 35.0293 53.8042C34.908 53.8214 34.7866 53.8317 34.6626 53.8307C34.316 53.8255 34.0893 54.0667 34.0133 54.3317C31.6586 54.9027 29.2093 54.8984 26.744 54.8052C23.1706 54.6746 19.6026 54.4907 16.112 53.6625C12.6293 52.8375 9.29731 50.9615 7.20397 48.0146C6.13597 46.5104 6.25596 44.6506 6.1773 42.9079C6.11063 41.447 5.5613 40.1197 5.05996 38.7653C2.34663 31.44 10.304 24.9067 16.3266 22.6387ZM14.2146 16.964C14.3453 15.7347 14.5933 14.5027 14.868 13.272C18.3386 14.452 23.804 14.684 26.5413 11.8574C26.672 12.0187 26.796 12.184 26.924 12.348C26.9306 12.552 27.076 12.7147 27.2706 12.7973C27.9413 13.6907 28.5626 14.6133 29.132 15.5667C24.432 17.6853 19.34 18.1693 14.3133 16.9773C14.2786 16.9693 14.248 16.9667 14.2146 16.964ZM15.528 2.16802C17.9826 3.77868 20.3626 5.58268 22.532 7.58668C21.6026 7.52535 20.6706 7.46268 19.74 7.40001C18.4746 7.31468 16.984 7.35335 16.092 6.28668C16.1413 4.90402 16 3.52802 15.528 2.16802ZM21.1093 2.51868C21.3306 3.24268 21.2653 3.96135 20.9586 4.63335C19.7213 3.62535 18.4373 2.67335 17.1266 1.78268C18.4506 1.97068 19.7853 2.21735 21.1093 2.51868ZM22.4133 2.83201C23.0533 2.99868 23.6893 3.17735 24.3173 3.37335C24.3293 3.41069 24.344 3.44535 24.364 3.48268C25.164 4.93068 25.2506 6.50802 24.7133 8.01735C23.8186 7.11868 22.8813 6.25468 21.912 5.42668C22.3746 4.62401 22.5333 3.72268 22.4133 2.83201ZM15.9746 7.75736C17.9653 9.05202 21.1173 8.70402 23.2946 8.85202C23.4666 8.86268 23.608 8.81067 23.7173 8.72534C24.4306 9.43467 25.112 10.172 25.7653 10.928C24.6293 12.1827 22.32 12.588 20.7613 12.8013C18.86 13.0613 16.9266 12.736 15.1386 12.0854C15.472 10.6387 15.8 9.19336 15.9746 7.75736ZM28.924 5.19334C29.2706 6.33201 28.7626 7.89468 28.468 8.89868C28.2386 9.67868 27.9053 10.4187 27.5226 11.1347C26.9253 10.392 26.2906 9.67602 25.6373 8.97469C26.364 7.35469 26.4893 5.54935 25.8866 3.90402C26.9266 4.28402 27.9453 4.70934 28.924 5.19334ZM30.2946 5.91868C31.2533 6.46668 32.1693 7.07201 33.0266 7.74534C32.9813 7.93468 33.0386 8.13734 33.264 8.27868C33.904 8.68268 33.1426 11.5814 33.024 12.1867C32.7786 13.4227 32.1453 15.4574 30.9293 16.2547C30.1733 14.8347 29.2986 13.4747 28.3293 12.176C29.2613 10.5493 30.4106 8.02268 30.2946 5.91868ZM34.7786 9.30002C35.504 10.0267 36.1733 10.8147 36.7693 11.672C36.712 15.064 35.2813 18.1947 32.7493 20.48C32.3906 19.408 31.96 18.3667 31.4746 17.3534C32.9293 16.4827 33.6626 14.4253 34.0906 12.9267C34.3133 12.1427 34.7706 10.6013 34.7786 9.30002ZM32.6053 25.2387C32.7026 25.9307 32.7733 26.6347 32.8093 27.3507C31.9613 27.072 31.0893 26.8467 30.2093 26.572C29.4813 26.3454 28.8333 25.9907 28.228 25.5694C29.6866 25.672 31.1466 25.56 32.6053 25.2387ZM22.104 21.1147C21.9973 21.1093 21.904 21.1293 21.8213 21.164C19.9146 20.6787 17.86 20.876 15.8733 21.5147C15.44 21.652 15.008 21.8107 14.576 21.988C14.5746 21.9827 14.5746 21.9774 14.5733 21.972C14.1973 20.712 14.0826 19.4454 14.1266 18.1747C14.1306 18.1747 14.1333 18.1773 14.1373 18.1773C19.404 19.4267 24.8186 18.8827 29.7346 16.628C30.3653 17.7933 30.912 19.0027 31.3653 20.2547C28.316 20.96 25.24 21.2587 22.104 21.1147ZM31.748 21.4067C32.0133 22.2654 32.2333 23.144 32.4053 24.044C30.4106 24.476 28.4346 24.496 26.4493 24.1C26.0053 23.6933 25.568 23.2827 25.1173 22.892C24.8853 22.692 24.6466 22.5133 24.404 22.3453C26.8773 22.2933 29.32 21.9827 31.748 21.4067ZM37.828 13.4027C38.372 14.4254 38.828 15.5293 39.1786 16.7253C39.1813 16.736 39.1866 16.744 39.1906 16.7534C37.856 17.8094 36.6586 19.0907 35.6186 20.5453C34.32 22.36 33.7613 24.5413 34.016 26.7467C34.0613 27.1427 34.156 27.532 34.28 27.9187C34.1893 27.876 34.0973 27.8387 34.0053 27.8C34.0266 27.7347 34.0386 27.6627 34.036 27.5827C33.964 25.5493 33.648 23.6027 33.132 21.7414C33.1693 21.72 33.2053 21.6947 33.2426 21.664C35.7826 19.4813 37.3613 16.6027 37.828 13.4027ZM46.7666 14.9147C49.2213 14.716 51.7546 15.1494 54.1933 15.408C56.6546 15.6667 59.1346 15.8547 61.5746 16.2813C61.604 16.2867 61.6333 16.2933 61.664 16.2987C61.6666 16.3053 61.6666 16.312 61.668 16.32C62.7666 19.7787 60.8693 23.7334 59.64 26.94C58.472 29.9907 57.052 32.9414 55.4826 35.804C52.3533 41.5162 48.36 46.736 43.812 51.3864C46.0346 46.4479 47.8653 41.364 49.3133 36.144C50.7733 30.8814 52.668 24.668 51.3373 19.2107C51.1546 18.4613 49.9466 18.5987 50.1333 19.36C51.3866 24.496 49.612 30.2467 48.312 35.2293C46.844 40.8531 44.8093 46.3224 42.3866 51.6011C42.3693 51.6375 42.3586 51.6746 42.3493 51.7094C42.012 51.747 41.68 51.812 41.3533 51.9052C44.0666 43.4307 45.5906 32.8827 40.8333 24.9973C40.4293 24.3267 39.4586 25.0574 39.86 25.7214C44.2093 32.928 42.904 42.7104 40.4933 50.6104C40.5413 46.5438 40.528 42.4803 39.852 38.46C39.5266 36.5174 38.9666 34.6187 38.2306 32.7947C37.2866 30.456 35.4386 28.4907 35.1426 25.9307C34.7973 22.94 37.144 20.2733 39.1546 18.3933C41.3506 16.3413 43.7613 15.1587 46.7666 14.9147ZM62.9853 16.6C64.8346 17.124 66.4706 18.0573 67.6186 19.7147C68.8893 21.5467 69.5186 23.7227 70.8613 25.5507C72.2866 27.4894 74.2186 28.8947 74.6733 31.4C75.2026 34.32 73.0413 37 71.1546 38.9293C64.4573 45.7839 55.4333 50.5266 46.256 53.0506C46.2306 52.9948 46.1946 52.9454 46.1533 52.9011C46.1506 52.8266 46.132 52.7547 46.1026 52.6864C57.0986 47.2318 65.572 37.4374 69.3013 25.7187C69.536 24.9787 68.4266 24.484 68.1906 25.2293C64.4866 36.8693 56.0546 46.6011 45.0266 51.864C49.872 46.8521 53.9653 41.2145 57.26 35.0627C59.0226 31.7707 60.4813 28.3227 61.7146 24.8014C62.6426 22.1454 63.5853 19.384 62.9853 16.6ZM82.2 42.0973C83.5133 44.9708 82.8253 48.3334 84.2933 51.2042C85.6306 53.8198 89.2213 55.5344 87.7586 58.9292C87.04 60.5974 85.0266 61.6317 83.6093 62.6265C82.2906 63.5505 81.268 64.7412 80.2973 66.012C80.2173 66.1172 80.1373 66.2198 80.0573 66.3224C79.6066 66.2974 79.22 66.7787 79.4026 67.1495C77.4266 69.5719 75.392 71.3599 72.044 72.0027C68.72 72.6402 65.2786 71.8599 62.1933 70.6334C55.856 68.1094 50.8306 63.0438 46.1133 58.2574C46.1146 58.012 45.9626 57.8438 45.7653 57.7678C45.84 57.3016 45.9066 56.8318 45.9693 56.3626C49.0706 61.5479 55.1733 65.2427 60.5186 67.4375C61.2426 67.7344 61.7306 66.624 61.008 66.3265C55.6773 64.1375 49.3813 60.3558 46.5986 55.0079C52.392 60.3042 59.324 64.0344 66.9253 66C67.6826 66.1959 67.8506 64.9932 67.1013 64.8C60.9466 63.2079 55.252 60.3864 50.2693 56.5161C54.1413 57.8104 58.5026 58.1855 62.356 58.6188C68.588 59.3188 74.8946 59.3401 81.1413 58.8255C81.92 58.7615 81.7706 57.5573 80.992 57.6213C75.0946 58.1068 69.1946 58.064 63.3053 57.4984C60.5906 57.2375 57.8933 56.8282 55.2133 56.335C57.632 56.264 60.048 56.0104 62.4613 55.6573C66.3453 55.0907 71.2413 54.8224 74.5733 52.5469C75.22 52.1052 74.4933 51.135 73.848 51.5746C72.1493 52.7344 70.1906 53.0599 68.2053 53.4317C66 53.8469 63.792 54.2375 61.572 54.5615C57.52 55.1531 53.4306 55.3651 49.3666 54.8694C49.356 54.8651 49.3453 54.8625 49.336 54.8599C57.544 54.2921 65.4613 51.7146 72.4733 47.3412C73.1386 46.9255 72.4093 45.9563 71.7506 46.3667C64.6546 50.7922 56.6 53.2864 48.28 53.7104C57.6386 50.876 67.0386 45.6812 73.4226 38.2493C73.548 38.104 73.664 37.952 73.78 37.8014C73.8893 37.8814 74.0306 37.924 74.208 37.8947C77.5493 37.332 80.7866 39.0027 82.2 42.0973ZM81.0133 68.3891C80.508 68.5735 79.9893 68.7678 79.4626 68.9787C79.7693 68.6255 80.068 68.2599 80.364 67.8891C80.588 68.0506 80.8026 68.2188 81.0133 68.3891ZM84.2106 71.9683C80.976 71.9812 77.9733 73.3334 75.792 75.8042C75.7693 75.8307 75.752 75.8574 75.7346 75.8839C74.716 75.4667 73.6746 75.0891 72.6253 74.7344C74.8466 72.047 78.8506 70.4292 82.044 69.3079C82.8746 70.124 83.5906 71.0162 84.2106 71.9683ZM84.9426 73.1984C85.6106 74.4307 86.1426 75.7427 86.5773 77.1011C84.4853 76.7506 82.4 76.9292 80.3613 77.6052C80.1613 77.6708 80.0506 77.8027 80.0066 77.9522C79.0066 77.3787 77.9666 76.8626 76.9026 76.388C78.984 74.1375 81.884 72.9839 84.9426 73.1984ZM88.2893 85.7667C87.0466 83.7027 85.5053 81.9828 83.756 80.5266C83.828 80.0787 83.3973 79.8574 83.024 79.9438C82.4173 79.4787 81.788 79.0454 81.1413 78.635C83.0573 78.0588 85.0013 77.9974 86.96 78.4136C87.6066 80.8079 87.9906 83.3146 88.2893 85.7667ZM83.2106 85.8588C83.152 84.5079 83.2453 83.176 83.48 81.8531C84.9573 83.1599 86.2586 84.6787 87.312 86.4708C85.9586 86.1052 84.5893 85.924 83.2106 85.8588ZM79.2666 85.9318C78.556 83.5959 78.576 81.2214 79.3133 78.9146C80.4013 79.5292 81.4426 80.2136 82.4199 80.9719C82.0719 82.5771 81.9333 84.1932 81.996 85.8307C81.0893 85.8292 80.1786 85.8651 79.2666 85.9318ZM74.8333 86.3746C74.8386 86.2974 74.8293 86.2146 74.8 86.1282C73.7386 82.9891 73.576 79.7948 74.2533 76.5735C75.6146 77.0891 76.9466 77.6683 78.224 78.3255C77.376 80.8626 77.312 83.4615 78.0306 86.0344C76.9666 86.135 75.9 86.2558 74.8333 86.3746ZM69.0666 86.8131C68.572 82.8558 68.8493 78.9531 69.876 75.1068C70.9573 75.4266 72.0346 75.7746 73.1 76.1506C72.3186 79.6375 72.5173 83.1136 73.6493 86.5042C72.1173 86.664 70.5866 86.7959 69.0666 86.8131ZM67.972 73.3146C69.468 73.4454 70.9666 73.3948 72.46 73.1282C72.072 73.5068 71.7186 73.9079 71.4053 74.3307C70.2653 73.9693 69.1173 73.6307 67.972 73.3146ZM62.8146 86.0224C64.1533 84.8678 65.3266 83.6839 66.0653 81.9495C67.176 79.3412 66.8573 76.3438 65.528 73.9094C66.58 74.1828 67.6466 74.4683 68.7173 74.7694C67.6413 78.7188 67.3573 82.7438 67.844 86.8016C66.1506 86.7479 64.4706 86.5282 62.8146 86.0224ZM61.4986 85.6188C61.2346 85.6307 61.0306 85.8224 60.948 86.0506C60.564 86.3531 60.1893 86.6547 59.8413 86.9667C58.4893 88.1787 57.6906 89.788 56.6853 91.2678C54.1306 95.0334 49.2666 96.0719 45.3506 94.0079C43.5893 93.0803 42.0906 91.924 40.1626 91.336C38.0853 90.7027 35.4653 90.7531 34.3866 88.5531C34.4546 88.4292 34.5053 88.2974 34.5266 88.1506C34.5333 88.1068 34.54 88.0626 34.5466 88.0188C34.616 87.5412 34.3866 87.0828 34.0053 86.8307C34.4066 86.447 34.512 85.7735 34.2506 85.2855C34.284 85.2318 34.3173 85.1803 34.3506 85.1266C34.532 85.3198 34.7733 85.4626 35.052 85.5027C35.7066 85.5984 36.3333 85.135 36.4293 84.4787L36.448 84.347C36.5346 83.7588 36.1666 83.1974 35.6173 83.0188C35.9346 82.4771 36.2466 81.936 36.5546 81.3932C36.66 81.5042 36.788 81.5959 36.948 81.6588C36.6146 81.8334 36.3613 82.1574 36.3026 82.5531C36.2066 83.2068 36.672 83.8334 37.3266 83.9292L37.46 83.9495C38.1146 84.0454 38.7413 83.5803 38.8373 82.9255C38.9226 82.3402 38.5573 81.7787 38.0106 81.5984C38.644 81.2214 38.7893 80.2344 38.2906 79.6907C38.3546 79.7104 38.4186 79.7307 38.488 79.7412L38.6213 79.7599C39.276 79.8558 39.9013 79.3907 39.9973 78.736C40.0933 78.0812 39.628 77.4558 38.9733 77.3599L38.9173 77.3522C39.9866 75.4574 40.944 73.512 41.792 71.5255C41.2573 75.2479 41.1386 79.0172 41.4533 82.8104C41.5186 83.5891 42.7226 83.4402 42.6573 82.6615C42.2173 77.336 42.6346 72.0344 43.9173 66.8719C43.708 74.5172 45.2413 82.1506 48.4626 89.1683C48.7866 89.876 49.9146 89.4282 49.5866 88.7146C45.8333 80.5375 44.4253 71.5558 45.436 62.6812C46.5253 69.6812 49.0146 76.3558 52.7813 82.3959C53.196 83.0615 54.1666 82.3318 53.7546 81.6719C50.224 76.0104 47.872 69.7677 46.7613 63.2317C47.6066 65.0959 48.7053 66.8677 49.7133 68.6265C51.4186 71.6027 53.3413 74.4375 55.7226 76.9172C56.2573 77.4746 57.2386 76.7574 56.696 76.1932C54.6293 74.0412 52.9333 71.6318 51.384 69.0855C49.868 66.5959 48.064 63.8599 47.1653 61.0255C51.7213 65.5667 56.7213 70.0694 62.812 72.1891C62.8346 72.3042 62.8933 72.4161 62.9973 72.5161C65.6933 75.1 66.168 79.1292 64.5146 82.4079C63.8546 83.7146 62.6773 84.6907 61.4986 85.6188ZM33.2013 84.7027C32.2813 84.6984 31.8626 85.6746 32.1253 86.3922C31.8026 86.8839 31.4746 87.3694 31.14 87.8522C30.9706 87.7027 30.7613 87.5974 30.5266 87.564L30.392 87.5427C29.7386 87.4479 29.112 87.9136 29.016 88.5678C28.9373 89.1 29.2346 89.6094 29.7 89.835C29.5493 90.0318 29.3946 90.2292 29.2413 90.4255C29.292 89.8495 28.9893 89.2454 28.2506 89.1375C26.7026 88.9094 26.3506 91.3094 27.8986 91.5375C28.0653 91.5615 28.216 91.5506 28.3546 91.5198C28.1546 91.7574 27.9533 91.9948 27.7493 92.2282C27.596 92.1011 27.4 92.0094 27.1533 91.9719C25.9173 91.7922 25.4453 93.2839 26.0946 94.0094C26.0906 94.0136 26.0866 94.0172 26.0826 94.0214C25.584 94.0292 25.2386 94.3307 25.072 94.7162C25.0266 94.6922 24.976 94.676 24.924 94.6651C25.6013 94.0746 25.508 92.6855 24.348 92.5146C23.4906 92.388 23.0013 93.0694 22.9986 93.7402C22.8493 93.6787 22.6746 93.6922 22.5093 93.8146C23.124 93.0651 23.7133 92.288 24.284 91.4891C24.412 91.8558 24.7066 92.1588 25.208 92.2318C26.7546 92.4599 27.108 90.0588 25.56 89.8307C25.524 89.8255 25.4893 89.8255 25.4546 89.824C25.7266 89.4292 25.9973 89.0334 26.2666 88.6375C26.4253 88.7891 26.64 88.9 26.9173 88.9402C28.172 89.1255 28.64 87.5828 27.9493 86.8708C28.4706 86.8214 28.808 86.4454 28.9306 86.0016C29.092 86.1708 29.3186 86.2959 29.6146 86.3402C31.164 86.5667 31.516 84.1667 29.968 83.9386C29.728 83.9042 29.52 83.9344 29.3413 84.0079C30.5 82.236 31.6533 80.4588 32.8213 78.6948C32.8866 78.5984 32.9173 78.5 32.9253 78.4027C33.5253 78.2334 33.828 77.5948 33.7466 77.0172C33.8626 76.964 33.964 76.8651 34.0266 76.7094C35.468 73.0735 36.716 69.376 37.788 65.6146C38.8346 61.9412 40.144 57.8922 40.0266 54.036C40.0373 54.0146 40.048 53.9932 40.056 53.9708C40.12 53.9266 40.176 53.8693 40.212 53.7907C40.272 53.7479 40.336 53.7162 40.3973 53.676C40.5733 53.6771 40.7386 53.5984 40.84 53.4146C42.1666 52.736 43.7 52.7079 45.0906 53.3678C45.0706 53.6027 45.044 53.836 45.02 54.0708C44.976 54.1683 44.9613 54.2787 44.9866 54.4011C44.168 62.1626 41.8186 69.6146 38.0373 76.447C37.9293 76.4984 37.8333 76.5855 37.7626 76.7136C36.3146 79.376 34.8266 82.0839 33.2013 84.7027ZM21.5706 96.2307C22.116 95.764 22.6533 95.2948 23.1853 94.8224C23.2586 94.7574 23.3106 94.6864 23.3453 94.6094C23.5053 94.7615 23.7186 94.8746 23.996 94.9146C24.024 94.9188 24.048 94.9162 24.0746 94.9188C23.208 95.2984 22.3773 95.7427 21.5706 96.2307ZM20.0586 98.8188C20.0013 98.8068 19.9413 98.8068 19.88 98.8131C20.8453 98.1136 21.8346 97.4522 22.868 96.8746C21.9746 97.5708 21.0426 98.224 20.0586 98.8188ZM38.016 54.0375C38.12 53.9891 38.2266 53.9437 38.3306 53.8973C38.2986 53.9828 38.2653 54.0678 38.2333 54.1531C38.18 54.2052 38.1253 54.2531 38.0733 54.3042C38.0746 54.2136 38.0533 54.1224 38.016 54.0375ZM29.1706 74.4932C27.1973 76.5068 24.948 78.3522 22.2866 79.347C20.3333 80.0771 18.1333 79.8588 16.3813 78.7531C15.26 78.0479 14.3613 76.9948 13.288 76.2162C11.4466 74.8787 9.0213 74.4735 7.01864 73.4172C4.2693 71.9667 2.28796 69.4255 1.91063 66.3198C1.52396 63.1375 3.9013 61.6735 5.2813 59.2506C6.57597 56.9771 6.15597 52.8292 9.17064 52.0213C9.24131 52.0016 9.29863 51.9719 9.34797 51.9386C10.76 52.9214 12.3533 53.676 13.848 54.2344C17.8773 55.7412 22.3226 55.8292 26.568 56.0068C29.1693 56.1162 31.784 56.1172 34.2853 55.5172C31.2093 56.9479 27.6453 57.4469 24.368 58.0599C19.3226 59.0041 14.092 59.4188 9.20397 57.5573C8.47464 57.2787 7.98397 58.3891 8.71463 58.6683C13.8453 60.6214 19.2133 60.2068 24.5173 59.264C26.5626 58.9011 28.7213 58.5506 30.812 58.0042C24.5586 60.8162 17.8053 62.3599 10.896 62.5522C10.1146 62.5746 10.2693 63.7787 11.0453 63.7558C19.032 63.5334 26.7946 61.5094 33.856 57.8708C25.8653 63.8506 16.0533 67.164 5.99463 67.2027C5.21463 67.2052 5.36929 68.4104 6.14263 68.4079C15.7853 68.3694 25.1693 65.3522 33.028 59.9454C28.6253 64.1531 23.4226 67.4334 17.6666 69.6094C16.9346 69.8855 17.388 71.012 18.12 70.7344C25.148 68.0787 31.3866 63.7907 36.38 58.2198C32.528 65.312 26.0773 70.7771 18.3186 73.347C17.576 73.5922 18.0306 74.7172 18.772 74.4719C27.7173 71.5104 35.0413 64.7479 38.7493 56.1317C38.5973 57.7557 38.2346 59.4 37.8093 61.0104C37.7493 61.0667 37.696 61.1402 37.66 61.2386C35.768 66.2307 32.908 70.6828 29.1706 74.4932ZM3.42398 37.084C3.58531 39.1627 4.78664 40.9667 4.97197 43.0558C5.13197 44.8402 5.03996 46.4427 5.8453 48.0907C6.40396 49.2333 7.23597 50.2188 8.2173 51.0667C6.11197 51.9318 5.55197 54.3016 5.0853 56.3932C4.38264 59.5521 1.43197 61.2855 0.771974 64.4948C-0.552026 70.9386 5.90664 74.4172 10.8053 76.3016C13.9333 77.5042 15.564 80.4839 19.0533 80.9438C22.2066 81.3599 25.196 79.5016 27.532 77.6198C30.9173 74.8922 33.736 71.4708 35.9266 67.7C35.056 70.5344 34.056 73.3307 32.9666 76.088C32.9013 76.0694 32.836 76.0495 32.764 76.0375C31.4986 75.8531 31.0333 77.4198 31.7506 78.1255C31.084 79.1307 30.4186 80.1375 29.7546 81.1427C29.716 80.6438 29.4053 80.1771 28.764 80.0828C27.216 79.8558 26.8626 82.2558 28.4106 82.4828C28.584 82.5094 28.74 82.4974 28.8813 82.464C28.4373 83.1375 27.9893 83.8068 27.544 84.4787C27.5226 84.4839 27.4973 84.4839 27.476 84.4907C27.7706 83.8255 27.532 82.9 26.5986 82.7626C25.0506 82.5344 24.6973 84.936 26.2466 85.1626C26.4333 85.1907 26.6026 85.1787 26.7533 85.1375C26.6573 85.3547 26.62 85.5959 26.6413 85.8318C26.288 86.3626 25.9346 86.8948 25.58 87.4255C25.4493 87.0678 25.1506 86.7735 24.6573 86.7C23.1093 86.4735 22.756 88.8735 24.3053 89.1011C24.3586 89.1094 24.4066 89.1068 24.4573 89.1094C24.396 89.1984 24.336 89.2922 24.2746 89.3812C24.1666 89.5427 24.056 89.7042 23.9453 89.864C23.8026 89.7599 23.624 89.6839 23.4066 89.6506C22.3346 89.4932 21.8373 90.5948 22.1453 91.364C21.9826 91.1803 21.7506 91.0427 21.4373 90.9974C19.8893 90.7694 19.536 93.1708 21.084 93.3974C21.156 93.4079 21.224 93.412 21.2906 93.412C20.2093 94.7027 19.028 95.9011 17.704 96.9334C15.38 98.5172 11.664 100.108 9.01196 98.7771C8.31063 98.4255 7.82798 99.5386 8.52398 99.888C10.3733 100.817 12.6306 100.563 14.7186 99.8146C11.456 101.764 7.88397 103.014 3.88797 102.655C3.11197 102.584 2.93196 103.785 3.71196 103.856C7.87996 104.228 11.6026 102.998 15.0053 101.027C14.9533 101.068 14.9026 101.108 14.8506 101.146C11.904 103.389 8.93597 105.639 7.36397 109.095C7.03997 109.808 8.15198 110.295 8.47464 109.583C9.80664 106.655 12.2453 104.664 14.7373 102.757C13.424 104.034 12.2546 105.459 11.2786 107.148C10.888 107.827 12.0026 108.307 12.3893 107.637C13.7306 105.315 15.5026 103.522 17.5146 101.929C16.2693 103.981 15.5826 106.36 15.0293 108.769C14.856 109.532 16.056 109.703 16.2306 108.947C17.0133 105.529 18.0466 102.122 20.888 99.8479C20.98 99.7735 21.0386 99.688 21.0746 99.5974C22.652 98.6042 24.1106 97.4828 25.468 96.2547C25.6026 96.3402 25.7626 96.4011 25.9533 96.4282C27.072 96.5932 27.5613 95.3864 27.164 94.6188C27.2786 94.5016 27.3906 94.3812 27.504 94.2626C27.5426 94.2438 27.5813 94.2224 27.616 94.1984C27.284 94.8651 27.512 95.8402 28.472 95.9812C30.02 96.2079 30.372 93.8079 28.824 93.5812C28.4906 93.5307 28.216 93.6094 28 93.7558C28.0066 93.7438 28.0093 93.7292 28.016 93.7162C28.3573 93.3427 28.6893 92.9626 29.0173 92.5771C29.14 92.9506 29.4413 93.2626 29.9493 93.3375C31.4826 93.5626 31.8413 91.2136 30.344 90.947C30.9866 90.1224 31.6053 89.276 32.204 88.412C32.36 88.8042 32.7093 89.1104 33.1506 89.1746C33.2186 89.1855 33.2853 89.1855 33.3533 89.1839C34.136 90.6735 35.5586 91.512 37.2133 91.9011C38.6813 92.2479 40.124 92.5068 41.5 93.1495C42.668 93.6948 43.744 94.4746 44.8613 95.1188C48.624 97.2855 53.4586 96.4454 56.48 93.3574C58.4133 91.3803 59.4066 88.8812 61.568 87.0735C61.6226 87.0266 61.676 86.9812 61.7306 86.936C68.364 89.2522 75.3933 86.7932 82.1666 86.9522C82.3746 87.2011 82.788 87.1974 83.04 86.9864C85.0173 87.1027 86.9693 87.4708 88.8813 88.2771C89.3093 88.4588 89.7786 88.1104 89.728 87.6464C88.8973 80.1307 87.6493 71.6375 81.1133 66.9334C81.4253 66.5318 81.7386 66.1307 82.0573 65.7307C84.3453 62.876 88.3413 61.8771 89.3306 58.0469C90.1306 54.9505 86.3506 52.5745 85.136 50.1959C83.3973 46.7973 84.5946 42.8161 82.1013 39.6213C80.344 37.3707 77.36 36.3267 74.58 36.62C75.3893 35.2347 75.8746 33.692 75.9213 32.056C75.9866 29.7227 74.5306 27.9213 73.064 26.28C71.2173 24.212 70.28 21.9053 68.916 19.548C67.7026 17.4547 65.936 16.276 63.6573 15.5414C61.3866 14.8094 58.928 14.688 56.572 14.4387C53.7626 14.1427 50.9466 13.7533 48.1213 13.6827C45.1546 13.608 42.5026 14.476 40.216 16C39.672 14.2453 38.9093 12.676 37.972 11.2707C37.972 11.1107 37.972 10.9533 37.9666 10.792C37.9493 10.3707 37.592 10.224 37.2706 10.2973C35.324 7.76001 32.7693 5.81602 29.8933 4.33468C29.8106 4.17468 29.716 4.02002 29.604 3.87202C29.3626 3.55202 28.992 3.58534 28.7493 3.77868C24.272 1.71468 19.1453 0.68002 14.3666 0.238686C13.96 0.20002 13.4773 0.632013 13.716 1.06535C17.4346 7.80935 11.3293 15.3293 13.448 22.4267C13.4533 22.4467 13.4626 22.4627 13.4706 22.48C7.89864 25.176 2.93731 30.8174 3.42398 37.084Z" fill="#BC9E66"/>
<path d="M21.7306 88.9959C22.3866 89.0921 23.012 88.6265 23.108 87.9719L23.128 87.8385C23.224 87.1855 22.7573 86.5588 22.104 86.4625C21.4493 86.3651 20.8226 86.8317 20.7266 87.4855L20.708 87.6197C20.6106 88.2735 21.0773 88.9 21.7306 88.9959Z" fill="#BC9E66"/>
</svg>
