<svg width="310" height="184" viewBox="0 0 310 184" fill="none" xmlns="http://www.w3.org/2000/svg">
<path d="M155.531 92.4844C157.852 92.4844 159.016 92.9648 159.016 93.9219C159.016 94.1641 158.93 94.3672 158.766 94.5312C158.223 95.4492 157.047 95.9062 155.234 95.9062C153.43 95.9062 151.801 95.3672 150.344 94.2812C148.094 94.9492 145.473 96.3672 142.484 98.5312C137.828 101.992 135.5 105.383 135.5 108.703C135.5 112.414 138.016 114.477 143.047 114.891C144.047 108.727 147.039 104.105 152.031 101.031C153.656 99.9922 155.398 99.25 157.266 98.8125C159.141 98.375 160.422 98.0859 161.109 97.9375C161.797 97.793 162.961 97.5859 164.609 97.3125C166.254 97.043 167.203 96.8867 167.453 96.8438C171.316 96.1797 173.801 95.4336 174.906 94.6094C176.008 93.7773 176.562 92.9844 176.562 92.2344C176.562 92.0273 176.531 91.7969 176.469 91.5469C176.406 91.2969 176.457 91.1523 176.625 91.1094C176.789 91.0703 176.977 91.1328 177.188 91.2969C177.52 91.7578 177.688 92.3203 177.688 92.9844C177.688 93.6523 177.27 94.4609 176.438 95.4062C175.188 96.6562 173.457 97.5312 171.25 98.0312C170.414 98.2422 169.301 98.4805 167.906 98.75C166.52 99.0234 165.516 99.2422 164.891 99.4062C165.68 100.156 166.078 101.281 166.078 102.781C166.078 105.855 164.242 108.871 160.578 111.828C156.547 115.07 151.141 116.688 144.359 116.688C144.316 117.023 144.297 117.543 144.297 118.25C144.297 121.164 145.258 123.461 147.188 125.141C149.125 126.828 151.57 127.672 154.531 127.672C155.57 127.672 156.461 127.328 157.203 126.641C157.953 125.953 158.328 125.176 158.328 124.312C158.328 124.02 158.242 123.688 158.078 123.312C157.91 122.938 158.066 122.75 158.547 122.75C159.023 122.75 159.266 123.297 159.266 124.391C159.266 125.492 158.785 126.473 157.828 127.328C156.879 128.18 155.781 128.609 154.531 128.609C151.281 128.609 148.578 127.711 146.422 125.922C143.961 123.973 142.734 121.414 142.734 118.25C142.734 117.543 142.754 117 142.797 116.625C139.172 116.293 136.426 115.383 134.562 113.891C132.852 112.434 132 110.828 132 109.078C132 105.047 135.078 101.199 141.234 97.5312C144.109 95.7812 146.914 94.4766 149.656 93.6094C148.488 92.3203 147.906 90.6328 147.906 88.5469C147.906 87.4648 148.156 86.5703 148.656 85.8594C150.031 83.9141 152.113 82.3555 154.906 81.1875C158.188 79.7305 161.516 79 164.891 79C169.336 79 171.52 80.3984 171.438 83.1875C171.352 84.3867 170.844 85.4336 169.906 86.3281C168.969 87.2266 167.938 87.6719 166.812 87.6719C165.695 87.6719 165.141 87.3828 165.141 86.7969C165.141 86.3828 165.41 86.1719 165.953 86.1719L167.016 86.3594C167.586 86.3594 168.156 86.0078 168.719 85.2969C169.281 84.5898 169.562 83.8867 169.562 83.1875C169.562 82.0625 168.914 81.25 167.625 80.75C166.801 80.4609 166.016 80.3125 165.266 80.3125C161.766 80.3125 158.848 81.043 156.516 82.5C154.191 83.9492 152.488 85.5703 151.406 87.3594C150.781 88.4023 150.469 89.4844 150.469 90.6094C150.469 91.7344 150.719 92.5898 151.219 93.1719C152.844 92.7148 154.281 92.4844 155.531 92.4844ZM164.016 102.344C164.016 100.512 163.223 99.5938 161.641 99.5938C161.141 99.5938 160.117 99.7812 158.578 100.156C150.555 103.148 145.879 108.078 144.547 114.953C145.461 114.953 146.375 114.891 147.281 114.766C152.656 114.184 156.922 112.477 160.078 109.641C162.703 107.266 164.016 104.836 164.016 102.344ZM157.156 94.1094C157.156 93.7344 156.602 93.5469 155.5 93.5469C154.395 93.5469 153.219 93.6719 151.969 93.9219C153.008 94.5781 154.133 94.9062 155.344 94.9062C156.551 94.9062 157.156 94.6406 157.156 94.1094Z" fill="#C8AB79"/>
<path d="M34.8439 0.960701C24.2137 2.98922 14.5236 7.48093 8.23224 13.5665C-0.517795 21.8979 -2.39797 30.664 3.09792 37.9811C5.33967 41.0239 11.4864 44.0667 15.3914 44.0667C19.0071 44.0667 19.9472 43.0524 18.1393 41.0963C17.1992 40.0096 16.3314 39.7923 14.5236 40.1545C10.8356 40.8066 5.77355 38.2709 4.39958 34.8659C2.15784 29.5773 5.19504 21.753 11.7033 16.1021C25.0815 4.29327 52.7056 0.163788 66.7345 7.77072C78.0156 13.8563 75.0507 26.7518 60.3709 35.5904L56.249 38.0536L52.4163 36.7495C50.2469 35.9526 46.4865 35.4455 43.7386 35.373C40.9906 35.373 38.8212 35.1557 38.8212 34.7935C38.8935 34.1414 43.3047 27.9834 47.3543 23.057C50.4638 19.2173 51.0423 17.4786 49.5237 15.9572C47.8605 14.291 46.4142 15.1603 43.8832 19.2898C40.7737 24.506 35.784 29.8671 33.0361 31.0262C30.2158 32.1854 30.2158 33.4894 33.0361 33.0547L35.2055 32.6925L33.9761 34.5761C30.5774 39.7923 25.8046 47.7615 24.1414 51.094L22.2612 54.7888L15.1744 57.0347C-0.445481 61.8886 -3.91657 67.6844 4.54421 75.1464C9.46158 79.4933 16.1868 81.3769 26.1662 81.232C47.4989 80.9422 63.7696 70.5098 65.9391 55.5857C66.4453 52.3981 66.5899 52.1807 69.0486 51.7461C74.3275 50.8767 75.7015 51.1665 75.7015 53.0501C75.7015 55.296 78.3048 58.5561 80.1127 58.5561C81.7759 58.5561 88.3565 55.296 89.0797 54.1368C89.4412 53.7021 90.1644 54.2093 90.9598 55.5857C93.4908 59.7877 99.4929 58.0489 107.448 50.8042L112.003 46.7472L106.507 57.1796C97.1789 75.1464 94.214 83.5503 97.2512 83.5503C97.7574 83.5503 99.5653 80.3626 101.373 76.378C104.917 68.4089 113.16 53.0501 120.681 40.227L125.671 31.6782L138.76 31.8231C149.101 31.968 151.921 31.7507 152.355 30.9538C153.873 28.6355 151.776 28.1283 139.989 28.1283C133.625 28.1283 128.491 27.9834 128.491 27.7661C128.491 27.5488 129.648 25.5202 131.094 23.2744C133.553 19.3622 134.059 16.6093 132.324 16.0297C131.817 15.8123 129.648 18.4929 127.406 21.8254C122.995 28.4906 122.344 28.8528 115.474 28.8528C113.594 28.8528 110.051 29.0701 107.592 29.2875C103.976 29.7222 103.181 30.012 103.181 31.0987C103.181 32.5476 103.976 32.7649 109.834 33.5619C111.714 33.7792 113.956 34.6486 114.896 35.373L116.559 36.7495L111.859 41.531C109.255 44.2116 105.278 47.7615 103.036 49.5002C98.9867 52.543 94.1417 54.7888 93.2739 53.9195C92.9123 53.5572 93.3462 52.8328 96.3111 48.7033C97.2512 47.4717 97.2512 47.037 96.3834 45.8778C95.5156 44.7187 95.2264 44.6462 94.2863 45.4432C93.3462 46.1676 92.84 46.1676 91.466 45.2258C89.2243 43.632 86.4764 43.7769 81.6313 45.8054C78.8834 46.8921 75.4123 47.6166 71.218 47.9064C65.4329 48.341 64.9267 48.1962 64.4928 46.8921C64.2035 46.1676 63.1911 44.5014 62.1787 43.3422C61.1663 42.1106 60.4432 41.0239 60.5878 40.879C60.7324 40.8066 62.3234 39.6474 64.1312 38.4883C83.873 24.9407 80.2573 5.8871 56.8998 0.888252C51.187 -0.343346 41.6415 -0.270897 34.8439 0.960701ZM119.813 32.6925C119.813 32.8374 119.235 33.4894 118.512 34.2139C117.21 35.3006 117.065 35.3006 115.836 33.9241C114.534 32.4752 114.534 32.4752 117.138 32.4752C118.656 32.4752 119.813 32.62 119.813 32.6925ZM48.8729 38.7056C50.1022 38.9954 50.8977 39.4301 50.7531 39.7199C50.1022 40.8066 40.5567 42.1106 37.6642 41.531L34.8439 40.9515L37.7365 39.6474C40.7014 38.2709 44.8956 37.9087 48.8729 38.7056ZM59.3585 44.8636C62.3234 48.341 61.8895 48.8482 55.7428 49.4278C52.7056 49.7175 45.4018 50.7318 39.472 51.6736C33.5423 52.6879 28.3356 53.4848 27.9741 53.4848C27.6125 53.4848 28.6249 51.2389 30.2158 48.4859L33.1084 43.4871L35.4224 44.6462C38.5319 46.3125 46.6312 46.0952 51.8378 44.2116C57.189 42.3279 57.2614 42.3279 59.3585 44.8636ZM89.8028 48.341C90.1644 49.0655 82.2821 54.2093 80.8358 54.2093C79.6065 54.2093 79.8958 52.3981 81.342 51.094C84.3069 48.341 88.8627 46.8921 89.8028 48.341ZM61.7449 55.7306C60.5155 64.7865 49.3068 73.1904 34.1208 76.4505C21.2488 79.2035 4.11032 75.2189 4.11032 69.4231C4.11032 63.9896 17.7054 59.353 47.1374 54.6439C53.1394 53.7021 58.9246 52.8328 60.0816 52.8328C62.1064 52.7603 62.1064 52.8328 61.7449 55.7306Z" fill="#C8AB79"/>
<path d="M297.779 36.025C296.911 37.2566 296.26 38.8505 296.405 39.5025C296.767 41.6035 298.864 41.3861 300.527 39.1403C301.973 37.0393 301.973 36.8944 300.744 35.373L299.37 33.7067L297.779 36.025Z" fill="#C8AB79"/>
<path d="M135.65 43.9218C133.914 45.0809 132.034 46.5299 131.456 47.1819C130.082 48.9206 129.358 48.7033 129.069 46.385C128.708 42.98 126.827 44.1391 124.73 49.138C122.706 53.9919 122.199 57.3969 123.429 58.1938C123.79 58.4112 126.972 56.1653 130.443 53.195C133.914 50.1522 137.024 47.689 137.313 47.689C137.53 47.689 137.602 49.4278 137.385 51.5287C137.096 54.499 137.241 55.5858 138.181 56.3102C139.121 57.1071 139.989 56.8173 144.111 54.2093C147.871 51.8185 149.028 51.3838 149.534 52.1807C149.896 52.6879 150.185 53.4848 150.185 53.9195C150.185 55.3684 153.511 57.8316 155.464 57.8316C156.549 57.8316 159.08 57.1796 161.177 56.3827L165.009 54.9337L166.311 56.7449C168.119 59.1357 170.505 59.0632 175.278 56.3827L179.183 54.2093L180.846 56.1653C183.016 58.701 186.198 58.701 191.838 56.0929C194.08 55.0062 195.96 54.2817 196.032 54.3541C197.479 58.4112 201.6 58.9183 206.662 55.7306C208.687 54.499 210.206 53.9195 210.206 54.4266C210.206 55.8755 209.266 56.7449 205.505 58.9183C194.224 65.3661 183.45 74.0597 179.545 80.0728C176.146 85.2166 177.231 91.6644 181.786 93.4031C187.355 95.5041 199.069 83.5503 208.615 66.0906L212.014 59.7877L217.437 57.3969C222.21 55.296 222.861 55.1511 223.078 56.2378C223.656 58.8459 224.669 58.7734 228.791 55.8755C233.13 52.8328 238.553 49.8624 239.71 49.8624C240.072 49.8624 240.578 51.2389 240.867 52.8328C241.663 58.0489 242.386 58.7734 246.218 58.4112C248.099 58.1938 251.064 57.3245 252.799 56.5276C256.632 54.6439 257.21 54.5715 257.21 56.0204C257.21 57.252 259.38 58.5561 261.332 58.5561C262.128 58.5561 264.586 57.4694 266.828 56.0929C269.359 54.5715 270.95 53.9195 270.95 54.499C270.95 56.1653 273.698 57.9765 276.157 57.9765C278.543 57.9765 284.183 56.0929 285.991 54.7164C286.57 54.2817 286.859 54.2817 286.859 54.8613C286.859 55.296 287.51 56.3102 288.305 57.1071C291.126 59.9326 297.706 58.701 305.733 53.7746C308.626 52.0358 310 50.7318 310 49.79C310 47.3268 308.264 47.5441 303.202 50.5145C297.996 53.5572 291.487 55.5858 290.475 54.499C290.113 54.1368 291.27 51.9634 293.078 49.5726C296.549 44.8636 296.838 43.9942 295.103 42.5453C294.018 41.6759 293.657 41.8933 291.993 44.0667C290.981 45.4432 289.39 47.2543 288.522 48.0513C285.124 51.3114 273.843 55.6582 273.843 53.7021C273.843 53.3399 274.638 51.9634 275.65 50.5869C278.398 46.8921 277.82 43.7769 274.638 45.4432C273.626 46.0227 273.047 45.8778 272.035 44.7911C269.576 42.0382 265.96 42.98 257.861 48.5584C254.028 51.1665 245.929 54.9337 244.194 54.9337C243.76 54.9337 243.47 52.9777 243.47 50.2247V45.5156H241.156C239.855 45.5156 237.324 46.1676 235.588 46.9646C231.828 48.7033 232.117 48.7033 231.683 46.9646C231.177 45.0085 229.442 45.1534 228.357 47.1819C227.778 48.341 225.32 49.7175 220.981 51.4563C217.437 52.9052 214.545 53.9919 214.545 53.847C214.545 53.7746 215.051 52.4705 215.629 51.094C216.859 48.1237 216.931 47.037 216.063 45.5881C215.557 44.7911 215.123 44.8636 213.532 45.8778C211.652 47.1819 211.58 47.1094 210.423 45.5156C209.483 44.1391 208.832 43.9218 206.084 44.284C204.204 44.5014 201.528 45.5156 199.503 46.8921C191.766 52.0358 182.726 55.6582 182.726 53.6297C182.726 53.3399 183.522 51.8909 184.534 50.442C187.21 46.5299 186.704 43.7769 183.522 45.4432C182.51 46.0227 181.931 45.8778 180.919 44.7911C178.966 42.6177 175.64 42.98 171.156 45.8054C162.189 51.4563 159.803 52.8328 157.272 53.5572C153.367 54.7888 152.354 54.1368 152.354 50.2247C152.354 47.9788 151.993 46.8197 151.27 46.5299C150.691 46.3125 148.088 47.2543 145.485 48.7033C140.64 51.3838 140.278 51.2389 141.435 47.3268C142.086 44.7911 141.29 41.8933 139.844 41.8933C139.338 41.8933 137.458 42.8351 135.65 43.9218ZM178.966 48.5584C178.605 49.6451 171.301 54.2093 169.927 54.2093C168.336 54.2093 170.144 51.6012 173.181 49.5002C176.001 47.6166 179.472 47.037 178.966 48.5584ZM208.76 48.9931C208.76 49.6451 203.047 53.195 201.022 53.847C198.563 54.5715 198.925 52.4705 201.528 50.5869C204.855 48.1962 208.76 47.3268 208.76 48.9931ZM270.082 48.5584C269.721 49.6451 262.417 54.2093 261.043 54.2093C259.452 54.2093 261.26 51.6012 264.297 49.5002C267.117 47.6166 270.588 47.037 270.082 48.5584ZM204.348 66.3079C196.105 80.0728 186.993 89.7083 182.22 89.7083C180.846 89.7083 180.557 89.2736 180.557 87.6798C180.557 84.9992 183.377 81.0871 189.379 75.5087C193.429 71.7414 204.493 63.6274 205.65 63.6274C205.795 63.6274 205.216 64.859 204.348 66.3079Z" fill="#C8AB79"/>
<path d="M66.9962 104.776C60.4138 106.864 49.8328 113.434 40.236 121.478L34.1457 126.513L29.6549 124.794C17.0438 119.881 1.78734 120.066 0.495463 125.101C-0.796411 130.136 5.23234 135.478 18.028 140.513C19.443 141.127 19.3814 141.189 15.2597 145.917C9.35403 152.548 4.37109 159.364 1.78734 164.215C0.00332061 167.592 -0.304269 168.575 0.249392 169.619C0.618499 170.294 1.17216 170.847 1.41823 170.847C1.72582 170.847 2.89466 169.25 4.00198 167.285C6.70877 162.496 11.3841 156.233 18.1511 148.434C23.2571 142.539 23.9338 141.925 25.4102 142.294C29.7164 143.399 37.4677 144.504 43.0043 144.811C53.0932 145.364 53.0932 145.364 54.5081 148.557C56.2306 152.425 55.8 157.768 53.4008 162.496C51.9859 165.32 51.8013 166.241 52.2935 167.592C53.3393 170.724 54.6312 169.987 56.7843 165.197C59.7371 158.566 66.1965 146.039 66.9347 145.487C67.3038 145.241 70.8719 145.057 74.809 145.18C81.9451 145.364 82.0681 145.364 84.2828 143.645C86.8665 141.557 88.5275 141.803 87.9738 144.197C87.7278 145.057 87.8508 146.776 88.2814 147.943C89.5733 151.873 94.3717 152.61 99.1086 149.539C100.277 148.741 100.585 148.864 102.061 150.338C103.476 151.75 104.03 151.934 106.86 151.689C108.644 151.504 111.474 150.768 113.135 149.969C117.01 148.127 117.01 148.127 117.933 149.969C119.102 152.18 123.531 152.118 126.546 149.785C129.191 147.82 129.191 147.82 129.621 149.355C130.175 151.443 132.943 152.057 136.511 150.952C139.157 150.092 139.587 150.092 140.079 150.89C140.818 152.241 141.433 152.057 144.57 149.601C147.523 147.39 150.845 145.548 153.306 144.811C154.475 144.443 154.659 144.566 154.659 145.978C154.659 146.838 155.09 148.496 155.52 149.662C156.32 151.566 156.689 151.811 158.596 151.811C161.365 151.811 165.732 150.154 169.67 147.636C171.331 146.531 172.807 145.794 172.93 145.855C173.053 145.978 172.807 146.899 172.438 147.882C171.946 149.294 170.592 150.215 166.286 152.364C153.306 158.75 143.155 167.408 141.986 173.18C141.125 177.54 144.263 182.759 148.323 183.496C155.274 184.785 163.764 175.513 171.454 158.197L174.099 152.18L179.143 150.399L184.188 148.557L185.48 150.215C187.141 152.364 189.355 152.303 192.985 149.969C196.307 147.882 197.106 147.697 197.106 149.11C197.106 149.601 198.029 150.399 199.198 150.89C202.582 152.303 207.995 150.276 215.5 144.75C219.807 141.557 220.914 141.68 220.606 145.364C220.053 151.136 225.528 153.162 231.803 149.478C233.771 148.311 233.771 148.311 234.817 149.785C236.355 151.75 239 151.627 242.999 149.417C245.89 147.759 246.136 147.697 245.89 148.803C245.706 149.478 244.967 150.399 244.229 150.829C243.552 151.259 241.153 152.671 238.939 153.961C229.711 159.425 220.729 167.408 218.884 171.768C217.223 175.759 218.146 179.443 221.221 181.04C222.821 181.838 223.252 181.838 225.774 180.733C230.941 178.399 240.538 166.671 245.46 156.601C247.182 153.101 247.244 153.04 252.965 150.522L258.809 148.004L260.347 149.969C261.639 151.627 262.192 151.873 263.853 151.627C264.961 151.443 267.052 150.583 268.467 149.662L271.112 148.004L272.404 149.539C273.081 150.399 274.311 151.259 275.05 151.504C276.157 151.811 280.156 150.706 284.031 149.048C284.892 148.68 285.077 148.925 285.077 150.768C285.077 155.803 287.599 158.013 291.782 156.662C296.765 155.066 307.839 146.592 307.839 144.443C307.839 142.11 306.485 142.601 300.887 146.776C292.029 153.531 287.538 155.311 287.538 152.118C287.538 148.311 292.09 139.776 303.102 123.013C308.884 114.232 310.361 111.592 309.93 110.794C309.561 110.241 309.007 109.75 308.638 109.627C307.839 109.32 293.628 130.504 289.691 137.811C287.169 142.539 286.43 143.399 283.662 144.996C280.217 146.961 274.927 148.618 274.25 147.943C274.065 147.759 274.68 146.408 275.726 144.996C277.264 142.969 277.51 142.171 277.018 141.311C276.341 139.96 275.788 139.838 274.742 140.882C274.188 141.434 273.696 141.311 272.589 140.268C271.789 139.531 270.559 138.917 269.821 138.917C267.914 138.917 264.161 140.575 262.5 142.11C261.762 142.785 258.87 144.32 256.041 145.487C253.211 146.592 250.565 147.697 250.135 147.943C249.643 148.127 249.766 147.39 250.504 145.61C251.304 143.768 251.55 142.478 251.181 141.496C250.565 139.899 250.135 139.838 248.658 141.189C247.613 142.11 247.428 142.11 246.136 140.882C245.336 140.145 244.045 139.531 243.183 139.531C241.215 139.592 237.401 141.311 233.648 143.952C229.403 146.961 227.004 148.127 224.79 148.127C222.698 148.127 222.329 146.776 223.867 144.689C225.22 142.908 224.974 141.434 223.252 140.759C221.406 140.022 221.406 139.96 223.005 137.75C224.359 135.969 224.42 133.329 223.129 132.96C222.698 132.776 221.529 133.882 220.483 135.355C216.854 140.329 206.58 147.083 201.351 147.882C198.46 148.373 198.46 148.311 201.228 144.566C203.32 141.741 202.028 138.548 199.752 140.82C199.26 141.311 198.706 141.127 197.783 140.206C195.507 137.934 191.139 138.978 186.771 142.785C184.864 144.504 175.575 148.618 175.575 147.82C175.575 147.697 176.129 146.162 176.806 144.382C178.036 141.373 177.974 138.917 176.806 138.917C176.436 138.917 174.099 140.329 171.577 142.048C166.84 145.18 161.857 147.697 158.842 148.434C157.181 148.864 157.181 148.864 156.997 144.934C156.812 141.25 156.751 141.066 155.151 140.882C154.229 140.759 152.198 141.25 150.599 141.925C147.154 143.461 147.277 143.461 147.277 142.294C147.277 140.513 145.555 140.636 143.771 142.539C140.51 146.101 131.282 149.724 131.282 147.513C131.282 147.145 131.713 146.039 132.267 144.996C134.051 141.557 131.775 139.162 129.683 142.355C128.33 144.32 122.178 148.741 120.701 148.741C119.04 148.741 119.348 147.82 121.809 145.057C123.224 143.522 123.9 142.171 123.777 141.311C123.47 139.162 122.424 139.285 119.348 141.925C117.81 143.276 114.796 145.241 112.581 146.285C108.705 148.189 103.599 149.417 103.599 148.373C103.599 148.066 104.891 146.162 106.368 144.197C109.505 140.083 109.444 140.206 108.275 138.61C107.537 137.566 107.229 137.75 103.538 141.496C99.4777 145.548 95.1714 148.127 92.3416 148.127C90.127 148.127 89.7579 147.206 91.1728 144.873C92.5262 142.601 92.2801 140.759 90.6806 140.759C88.8351 140.759 88.7736 139.899 90.4345 137.566C91.5419 136.031 91.911 134.925 91.6034 134.066C90.9882 132.039 89.6963 132.531 87.6047 135.478C84.4673 140.083 83.1754 140.697 75.4242 141.127L68.5957 141.557L71.5486 134.557C77.2082 121.171 79.2383 112.943 77.7619 108.583C76.347 104.285 72.6559 102.995 66.9962 104.776ZM74.3169 107.355C77.0852 108.399 73.7017 121.601 66.9962 136.276L64.6586 141.373H59.4911H54.2621L50.6325 137.75C48.6024 135.724 44.9113 132.776 42.3276 131.18L37.7138 128.232L39.7438 126.452C50.0173 117.732 62.0748 110.18 69.457 107.846C72.3483 106.925 73.025 106.864 74.3169 107.355ZM17.4744 125.039C20.3657 125.531 24.7335 126.574 27.1942 127.373L31.685 128.785L27.0712 133.39L22.3958 137.934L19.5045 137.197C13.6603 135.601 7.44698 132.592 4.74019 129.952C3.20225 128.539 2.09493 126.943 2.21796 126.513C2.95618 124.303 9.231 123.688 17.4744 125.039ZM47.4951 138.364L50.3864 141.066L46.8184 141.25C43.3119 141.434 28.9167 139.838 27.8094 139.101C27.4403 138.917 29.0397 136.89 31.3159 134.618L35.4376 130.443L40.0514 133.083C42.5737 134.496 45.9571 136.89 47.4951 138.364ZM196.368 143.338C195.999 144.504 188.248 148.864 187.94 148.066C187.694 147.268 189.54 145.18 191.877 143.768C194.031 142.417 196.737 142.232 196.368 143.338ZM271.236 143.153C271.543 143.768 264.838 148.127 263.607 148.127C261.823 148.127 263.546 145.732 266.622 143.89C268.898 142.539 270.62 142.232 271.236 143.153ZM243.614 144.75C241.399 146.531 237.216 148.434 236.662 147.943C235.555 146.776 240.846 143.215 243.552 143.215L245.398 143.276L243.614 144.75ZM60.7214 149.048C59.7987 150.89 58.8759 152.425 58.6913 152.425C58.5068 152.425 57.9531 150.89 57.3995 149.048L56.4152 145.671H59.368H62.3824L60.7214 149.048ZM169.423 155.311C169.423 155.496 168.07 158.504 166.348 161.882C160.626 173.426 154.29 180.057 149 180.057C146.354 180.057 144.201 178.399 144.201 176.373C144.201 171.768 151.645 164.461 162.964 158.013C168.378 154.943 169.423 154.513 169.423 155.311ZM241.03 158.075C236.847 166.18 227.312 177.11 223.744 177.847C215.562 179.689 223.436 168.575 236.909 159.364C239.492 157.583 241.707 156.11 241.83 156.11C241.953 156.11 241.584 157.031 241.03 158.075Z" fill="#C8AB79"/>
<path d="M110.428 132.715C108.89 134.864 108.767 136.338 110.182 136.89C110.797 137.136 111.597 136.767 112.335 135.908C113.688 134.189 113.75 132.592 112.581 131.61C111.904 131.057 111.474 131.241 110.428 132.715Z" fill="#C8AB79"/>
<path d="M178.344 132.838C177.359 134.618 177.359 134.864 178.344 135.785C179.266 136.706 179.451 136.645 180.558 135.294C181.973 133.575 181.912 131.364 180.374 131.057C179.697 130.934 178.959 131.548 178.344 132.838Z" fill="#C8AB79"/>
</svg>
