<svg width="186" height="34" viewBox="0 0 186 34" fill="none" xmlns="http://www.w3.org/2000/svg">
<path d="M57.7846 17.4388C57.7833 17.5228 57.7139 17.5908 57.6286 17.5908L35.1393 17.3082C18.1246 16.2775 6.10727 6.20149 5.98727 6.10015C5.92327 6.04549 5.91527 5.94815 5.96993 5.88282C6.02593 5.81749 6.12193 5.80949 6.18726 5.86549C6.30593 5.96682 18.2499 15.9762 35.1513 17.0002L57.6326 17.2828C57.7179 17.2828 57.7859 17.3535 57.7846 17.4388Z" fill="white"/>
<path d="M55.0188 17.28C51.8095 16.4254 49.0188 14.1174 47.5775 11.1267C46.2295 8.32803 46.0508 5.0907 44.7988 2.2507C47.4988 3.7187 48.9988 6.7027 50.2602 9.5067C51.5215 12.308 52.7055 15.256 55.0188 17.28Z" fill="white"/>
<path d="M47.1655 17.1825C45.2495 17.1878 43.4988 15.9665 42.3668 14.4198C41.2362 12.8731 40.6148 11.0225 39.9935 9.21048C39.3722 7.39714 38.7122 5.55314 37.5215 4.05181C39.9242 5.10381 41.8375 6.97848 42.8882 9.38248C43.5002 10.7838 43.8015 12.3025 44.3602 13.7265C44.9175 15.1518 45.7842 16.5265 47.1655 17.1825Z" fill="white"/>
<path d="M40.4929 17.2776C38.5076 16.2536 36.4756 15.1949 34.9756 13.5389C34.0369 12.5029 33.3449 11.2723 32.6609 10.0536C31.8902 8.68025 31.1209 7.30692 30.3516 5.93492C32.0022 6.39492 33.2396 7.72292 34.2889 9.08025C35.3382 10.4363 36.1289 11.9709 37.0489 13.4176C37.9676 14.8643 39.0302 16.3829 40.4929 17.2776Z" fill="white"/>
<path d="M33.9841 16.9753C32.3614 16.7927 30.8974 15.862 29.7574 14.6913C28.6174 13.5207 27.7574 12.114 26.8881 10.73C26.0174 9.34734 25.1161 7.96068 23.9121 6.85534C25.9521 7.66868 28.0321 8.45801 29.3601 10.206C30.2174 11.3313 30.6521 12.7113 31.2601 13.99C31.8668 15.2673 32.6548 16.49 33.9841 16.9753Z" fill="white"/>
<path d="M27.7773 16.1564C25.6013 15.3404 23.9226 13.555 22.6373 11.6204C21.3506 9.68437 20.3786 7.55637 19.1133 5.60704C20.9186 6.33904 22.4653 7.73904 23.5093 9.38304C24.2399 10.531 24.7106 11.8217 25.3159 13.0404C25.9213 14.2604 26.6226 15.4364 27.7773 16.1564Z" fill="white"/>
<path d="M22.2758 14.7253C20.7332 13.7933 19.5292 12.3787 18.6025 10.8333C17.6745 9.28801 17.0052 7.60534 16.3398 5.93068C17.5332 6.12934 18.4878 7.15868 19.1092 8.19734C19.7318 9.23468 20.0625 10.416 20.4572 11.5587C20.8518 12.7013 21.4212 13.868 22.2758 14.7253Z" fill="white"/>
<path d="M16.2426 12.1212C14.8199 11.6185 13.9639 10.1759 13.4119 8.76922C12.8613 7.36522 12.4666 5.84522 11.4746 4.70655C13.0013 5.02788 14.3373 6.12922 14.8919 7.58655C15.4693 9.10122 15.1946 10.8825 16.2426 12.1212Z" fill="white"/>
<path d="M11.027 9.32178C9.86171 8.66711 9.36171 7.25911 9.12705 5.94444C8.89105 4.62844 8.80971 3.23644 8.12305 2.08978C9.05505 2.19778 9.75505 2.99911 10.1017 3.87111C10.447 4.74311 10.4737 5.70444 10.5084 6.64178C10.543 7.57911 10.635 8.46844 11.027 9.32178Z" fill="white"/>
<path d="M7.78048 7.22266C6.94848 6.49199 6.74982 5.28932 6.66582 4.18666C6.58315 3.08266 6.53915 1.90266 5.89648 0.99999C7.08182 1.33332 7.82048 2.47599 8.01782 3.69066C8.21515 4.90532 8.04582 6.02266 7.78048 7.22266Z" fill="white"/>
<path d="M6.36967 6.39205C5.22967 6.17872 4.435 5.15072 3.86833 4.14005C3.303 3.12672 2.81233 2.00805 1.875 1.32405C2.72433 1.13738 3.55767 1.55605 4.18833 2.15338C4.82033 2.75072 5.24033 3.53072 5.64833 4.30005C6.05633 5.06405 6.463 5.82938 6.86967 6.59338C6.63367 6.49338 6.62167 6.44005 6.36967 6.39205Z" fill="white"/>
<path d="M54.8084 17.4949C52.687 17.8429 50.7364 19.1269 49.5764 20.9362C48.5364 22.5589 48.1444 24.4975 47.651 26.3589C47.1577 28.2229 46.4897 30.1389 45.0684 31.4415C47.7057 30.2162 49.675 27.9402 50.6164 25.1882C51.1164 23.7255 51.3004 22.1669 51.8324 20.7149C52.3644 19.2642 53.3297 17.9442 54.8084 17.4949Z" fill="white"/>
<path d="M47.8694 17.2996C44.9641 17.6422 42.3281 19.7036 41.2948 22.4382C40.7574 23.8622 40.6348 25.4022 40.3214 26.8902C40.0081 28.3796 39.4494 29.9036 38.2734 30.8702C39.9294 30.3569 41.2614 29.2316 42.1348 27.7342C42.8294 26.5436 43.1548 25.1796 43.4668 23.8356C43.7774 22.4942 44.0908 21.1276 44.7614 19.9249C45.4334 18.7196 46.5188 17.5742 47.8694 17.2996Z" fill="white"/>
<path d="M41.3583 17.2006C38.617 18.2806 36.405 20.6272 35.489 23.4286C35.1156 24.5726 34.9503 25.7766 34.5943 26.9259C34.237 28.0752 33.649 29.2139 32.6543 29.8899C34.3996 29.4526 35.6716 28.0459 36.5156 26.4552C37.3583 24.8659 37.8063 23.1006 38.4476 21.4192C39.089 19.7366 39.8876 18.2366 41.3583 17.2006Z" fill="white"/>
<path d="M35.141 17.0469C32.8743 17.5856 30.8557 19.0976 29.701 21.1216C29.0023 22.3456 28.6197 23.7189 28.0703 25.0176C27.5223 26.3149 26.753 27.5949 25.541 28.3136C27.2677 27.9029 28.7237 26.8536 29.741 25.4003C30.6983 24.0309 31.1597 22.3883 31.8063 20.8483C32.4517 19.3069 33.6343 17.7696 35.141 17.0469Z" fill="white"/>
<path d="M29.4987 16.53C26.9641 16.51 24.4734 17.9954 23.2854 20.234C22.8014 21.146 22.5254 22.154 22.0934 23.0914C21.6614 24.0287 21.0241 24.9354 20.0801 25.3554C21.5681 25.718 23.0454 24.6247 23.9507 23.3914C24.8574 22.1554 25.3321 20.6634 26.0667 19.318C26.8001 17.974 27.9867 16.7767 29.4987 16.53Z" fill="white"/>
<path d="M23.5494 15.0535C22.2027 14.8228 20.8147 15.3255 19.6987 16.1162C18.5827 16.9055 17.6907 17.9642 16.7961 18.9948C15.8987 20.0268 14.9681 21.0588 13.8027 21.7722C15.1867 21.9348 16.4454 21.3308 17.4681 20.3842C18.4907 19.4375 19.2667 18.2602 20.1854 17.2122C21.1041 16.1642 22.1827 15.3268 23.5494 15.0535Z" fill="white"/>
<path d="M18.3514 13.1095C16.7741 12.6895 15.0101 13.0415 13.7154 14.0348C12.8861 14.6721 12.2634 15.5335 11.4981 16.2455C10.7327 16.9561 9.72607 17.5335 8.69141 17.3855C10.0687 18.1148 11.7447 18.0575 13.1021 17.2935C15.0661 16.1895 16.1594 13.6308 18.3514 13.1095Z" fill="white"/>
<path d="M14.0688 11.1603C12.5862 10.8336 10.9808 11.1043 9.68748 11.9003C7.96882 12.9563 6.74348 14.903 4.77148 15.3243C6.57815 15.5443 8.35282 15.0216 9.78615 13.899C10.4782 13.355 11.0622 12.687 11.7422 12.1283C12.4235 11.571 13.1888 11.1523 14.0688 11.1603Z" fill="white"/>
<path d="M11.0018 9.5977C9.97117 9.4297 8.9325 9.2617 7.8885 9.28837C6.84317 9.31504 5.78183 9.5497 4.9125 10.127C3.80183 10.8657 3.05117 12.1257 1.8125 12.6204C2.5205 12.8377 3.30983 12.6177 3.97383 12.2884C4.63783 11.959 5.22183 11.4924 5.84983 11.0977C7.45783 10.087 9.10183 9.5537 11.0018 9.5977Z" fill="white"/>
<path d="M7.76133 7.27348C5.92533 6.51748 3.68267 6.85748 2.15467 8.12815C1.49733 8.67348 0.853333 9.41882 0 9.38682C0.86 9.74682 1.82933 9.55348 2.688 9.18815C3.548 8.82148 4.31333 8.27082 5.13467 7.82815C5.956 7.38415 6.83467 7.16148 7.76133 7.27348Z" fill="white"/>
<path d="M128 17.4388C128.001 17.5228 128.072 17.5908 128.156 17.5908L150.644 17.3082C167.66 16.2775 179.679 6.20149 179.797 6.10015C179.861 6.04549 179.869 5.94815 179.815 5.88282C179.759 5.81749 179.663 5.80949 179.597 5.86549C179.479 5.96682 167.535 15.9762 150.635 17.0002L128.152 17.2828C128.068 17.2828 127.999 17.3535 128 17.4388Z" fill="white"/>
<path d="M130.766 17.28C133.975 16.4254 136.766 14.1174 138.207 11.1267C139.556 8.32803 139.734 5.0907 140.986 2.2507C138.286 3.7187 136.787 6.7027 135.524 9.5067C134.263 12.308 133.078 15.256 130.766 17.28Z" fill="white"/>
<path d="M138.619 17.1825C140.535 17.1878 142.287 15.9665 143.418 14.4198C144.548 12.8731 145.17 11.0225 145.791 9.21048C146.414 7.39714 147.072 5.55314 148.263 4.05181C145.86 5.10381 143.947 6.97848 142.896 9.38248C142.284 10.7838 141.982 12.3025 141.424 13.7265C140.868 15.1518 140 16.5265 138.619 17.1825Z" fill="white"/>
<path d="M145.291 17.2776C147.276 16.2536 149.308 15.1949 150.808 13.5389C151.747 12.5029 152.438 11.2723 153.123 10.0536C153.892 8.68025 154.662 7.30692 155.432 5.93492C153.78 6.39492 152.543 7.72292 151.494 9.08025C150.446 10.4363 149.655 11.9709 148.735 13.4176C147.816 14.8643 146.754 16.3829 145.291 17.2776Z" fill="white"/>
<path d="M151.801 16.9753C153.425 16.7927 154.887 15.862 156.027 14.6913C157.167 13.5207 158.027 12.114 158.897 10.73C159.767 9.34734 160.669 7.96068 161.873 6.85534C159.833 7.66868 157.753 8.45801 156.425 10.206C155.567 11.3313 155.133 12.7113 154.526 13.99C153.918 15.2673 153.129 16.49 151.801 16.9753Z" fill="white"/>
<path d="M158.006 16.1564C160.182 15.3404 161.861 13.555 163.146 11.6204C164.433 9.68437 165.405 7.55637 166.67 5.60704C164.865 6.33904 163.318 7.73904 162.274 9.38304C161.543 10.531 161.073 11.8217 160.467 13.0404C159.862 14.2604 159.161 15.4364 158.006 16.1564Z" fill="white"/>
<path d="M163.51 14.7253C165.051 13.7933 166.256 12.3787 167.183 10.8333C168.11 9.28801 168.779 7.60534 169.444 5.93068C168.252 6.12934 167.298 7.15868 166.675 8.19734C166.054 9.23468 165.723 10.416 165.327 11.5587C164.932 12.7013 164.364 13.868 163.51 14.7253Z" fill="white"/>
<path d="M169.543 12.1212C170.966 11.6185 171.822 10.1759 172.372 8.76922C172.924 7.36522 173.319 5.84522 174.31 4.70655C172.784 5.02788 171.448 6.12922 170.894 7.58655C170.315 9.10122 170.59 10.8825 169.543 12.1212Z" fill="white"/>
<path d="M174.758 9.32166C175.922 8.66699 176.423 7.25899 176.659 5.94432C176.895 4.62832 176.975 3.23632 177.663 2.08966C176.73 2.19766 176.03 2.99899 175.683 3.87099C175.338 4.74299 175.311 5.70432 175.278 6.64166C175.242 7.57899 175.15 8.46832 174.758 9.32166Z" fill="white"/>
<path d="M178.004 7.22266C178.836 6.49199 179.035 5.28932 179.119 4.18666C179.202 3.08266 179.246 1.90266 179.888 0.99999C178.703 1.33332 177.966 2.47599 177.767 3.69066C177.571 4.90532 177.739 6.02266 178.004 7.22266Z" fill="white"/>
<path d="M179.414 6.39205C180.554 6.17872 181.349 5.15072 181.915 4.14005C182.482 3.12672 182.971 2.00805 183.909 1.32405C183.059 1.13738 182.226 1.55605 181.595 2.15338C180.963 2.75072 180.545 3.53072 180.135 4.30005C179.727 5.06405 179.322 5.82938 178.914 6.59338C179.15 6.49338 179.163 6.44005 179.414 6.39205Z" fill="white"/>
<path d="M130.977 17.4949C133.099 17.8429 135.05 19.1269 136.21 20.9362C137.25 22.5589 137.641 24.4975 138.134 26.3589C138.627 28.2229 139.297 30.1389 140.718 31.4415C138.081 30.2162 136.111 27.9402 135.17 25.1882C134.67 23.7255 134.486 22.1669 133.953 20.7149C133.421 19.2642 132.455 17.9442 130.977 17.4949Z" fill="white"/>
<path d="M137.916 17.2996C140.821 17.6422 143.456 19.7036 144.491 22.4382C145.028 23.8622 145.151 25.4022 145.463 26.8902C145.777 28.3796 146.336 29.9036 147.511 30.8702C145.856 30.3569 144.523 29.2316 143.651 27.7342C142.956 26.5436 142.629 25.1796 142.319 23.8356C142.007 22.4942 141.695 21.1276 141.023 19.9249C140.352 18.7196 139.267 17.5742 137.916 17.2996Z" fill="white"/>
<path d="M144.426 17.2006C147.168 18.2806 149.38 20.6272 150.295 23.4286C150.67 24.5726 150.835 25.7766 151.191 26.9259C151.548 28.0752 152.135 29.2139 153.131 29.8899C151.386 29.4526 150.114 28.0459 149.27 26.4552C148.426 24.8659 147.979 23.1006 147.338 21.4192C146.695 19.7366 145.898 18.2366 144.426 17.2006Z" fill="white"/>
<path d="M150.643 17.0469C152.909 17.5856 154.928 19.0976 156.083 21.1216C156.781 22.3456 157.165 23.7189 157.713 25.0176C158.263 26.3149 159.031 27.5949 160.243 28.3136C158.516 27.9029 157.06 26.8536 156.043 25.4003C155.084 24.0309 154.624 22.3883 153.979 20.8483C153.332 19.3069 152.149 17.7696 150.643 17.0469Z" fill="white"/>
<path d="M156.285 16.53C158.82 16.51 161.31 17.9954 162.498 20.234C162.981 21.146 163.257 22.154 163.69 23.0914C164.122 24.0287 164.76 24.9354 165.702 25.3554C164.214 25.718 162.738 24.6247 161.832 23.3914C160.925 22.1554 160.45 20.6634 159.717 19.318C158.984 17.974 157.797 16.7767 156.285 16.53Z" fill="white"/>
<path d="M162.236 15.0535C163.584 14.8228 164.972 15.3255 166.088 16.1162C167.203 16.9055 168.095 17.9642 168.99 18.9948C169.886 20.0268 170.819 21.0588 171.984 21.7722C170.599 21.9348 169.34 21.3308 168.319 20.3842C167.295 19.4375 166.519 18.2602 165.6 17.2122C164.683 16.1642 163.603 15.3268 162.236 15.0535Z" fill="white"/>
<path d="M167.436 13.1095C169.013 12.6895 170.777 13.0415 172.072 14.0348C172.901 14.6721 173.522 15.5335 174.289 16.2455C175.054 16.9561 176.061 17.5335 177.094 17.3855C175.718 18.1148 174.042 18.0575 172.685 17.2935C170.721 16.1895 169.628 13.6308 167.436 13.1095Z" fill="white"/>
<path d="M171.715 11.1603C173.198 10.8336 174.803 11.1043 176.096 11.9003C177.815 12.9563 179.04 14.903 181.014 15.3243C179.206 15.5443 177.431 15.0216 175.999 13.899C175.306 13.355 174.723 12.687 174.042 12.1283C173.36 11.571 172.595 11.1523 171.715 11.1603Z" fill="white"/>
<path d="M174.783 9.5977C175.814 9.4297 176.854 9.2617 177.898 9.28837C178.941 9.31504 180.003 9.5497 180.873 10.127C181.983 10.8657 182.735 12.1257 183.974 12.6204C183.265 12.8377 182.475 12.6177 181.811 12.2884C181.147 11.959 180.563 11.4924 179.935 11.0977C178.327 10.087 176.683 9.5537 174.783 9.5977Z" fill="white"/>
<path d="M178.023 7.27348C179.859 6.51748 182.102 6.85748 183.629 8.12815C184.286 8.67348 184.931 9.41882 185.785 9.38682C184.925 9.74682 183.955 9.55348 183.097 9.18815C182.237 8.82148 181.471 8.27082 180.65 7.82815C179.829 7.38415 178.95 7.16148 178.023 7.27348Z" fill="white"/>
<path d="M91.0312 24.7414C91.0312 24.7414 92.2046 20.5987 98.0992 20.7374C103.994 20.8774 108.181 23.9534 103.307 30.1561C98.7832 35.8494 91.7806 35.5947 91.0312 24.7414Z" fill="white"/>
<path d="M92.3359 19.1618C92.3359 19.1618 98.2879 8.02314 102.487 7.98714C105.232 8.14714 105.129 10.4031 107.056 11.2965C108.981 12.1885 109.932 14.3298 109.381 16.3365C108.831 18.3445 106.748 19.4205 106.736 21.1298C106.724 22.8378 103.016 26.4698 92.3359 19.1618Z" fill="white"/>
<path d="M91.3242 18.3286C91.3242 18.3286 102.038 10.5913 100.848 6.52195C100.186 3.78595 99.5815 4.08595 98.8148 2.21528C98.0495 0.344614 95.8682 -0.735386 93.1855 0.581947C91.2615 1.08195 86.1468 1.09928 87.4668 6.63928C88.7868 12.1819 91.1255 15.6966 91.3242 18.3286Z" fill="white"/>
<path d="M89.1115 17.9654C89.1115 17.9654 91.8288 11.6307 89.5715 7.92803C87.3141 4.2227 85.3568 4.02936 83.1475 5.04003C80.9368 6.0507 77.6595 6.03337 76.4661 9.1907C75.2728 12.348 76.2075 17.7027 81.1835 17.8654C86.1581 18.0267 89.1115 17.9654 89.1115 17.9654Z" fill="white"/>
<path d="M87.2038 13.0799C88.2598 13.1185 89.2731 13.7465 89.7811 14.6719C90.5438 14.0252 91.0398 12.9692 90.9478 11.9745C91.9971 13.1599 92.6771 14.6519 92.7771 16.2305C93.6505 15.7332 94.7051 15.5865 95.6918 15.7812C95.1371 16.2345 94.8931 17.0239 95.1958 17.6732C95.4985 18.3239 96.2678 18.7185 96.9718 18.5865C96.4105 18.6092 95.9131 19.0945 95.6105 19.5652C95.3065 20.0372 95.1851 20.6052 95.1491 21.1639C95.1198 21.6545 95.1518 22.1559 95.3345 22.6105C95.5145 23.0665 95.8598 23.4732 96.3171 23.6492C94.1291 22.6759 91.3371 22.8185 89.1491 23.7892C87.8185 22.4092 86.5985 20.8439 85.6705 19.1665C85.4705 18.8052 85.3531 18.3625 85.4425 17.9585C85.8518 17.9759 86.1798 17.6159 86.4545 17.3119C87.4451 16.2079 87.7478 14.4599 87.2038 13.0799Z" fill="#43516B"/>
<path d="M88.2456 21.1386C88.2456 21.1386 92.611 21.7319 92.723 25.0146C92.835 28.2986 86.3616 33.6412 80.5643 28.5239C74.767 23.4066 78.067 15.7546 83.1056 15.9866C86.1843 16.0612 87.9083 18.4999 88.2456 21.1386Z" fill="white"/>
<path d="M89.1755 20.0174C89.1742 19.9227 89.1262 19.8281 89.0235 19.8094C86.2049 19.2681 82.7782 20.7081 80.7302 22.5734C80.6795 22.6174 80.7382 22.7081 80.7982 22.6694C82.0595 21.8761 83.4115 21.2121 84.8395 20.7801C85.9382 20.4481 87.0329 20.4121 88.1435 20.3281C86.7569 21.0321 85.4755 22.1441 84.4129 23.2054C83.2035 24.4147 82.0409 25.8947 81.4449 27.5121C81.4235 27.5721 81.5062 27.6041 81.5409 27.5574C82.5715 26.1734 83.5009 24.7827 84.7489 23.5734C85.5542 22.7921 86.4302 22.1761 87.3382 21.5894C86.8155 22.2601 86.3902 23.0387 86.0982 23.6547C85.3649 25.2041 85.1209 26.6747 85.1302 28.3734C85.1302 28.4761 85.2862 28.4841 85.2889 28.3801C85.3235 26.8347 85.8329 25.2307 86.5342 23.8627C86.8889 23.1667 87.3489 22.5267 87.8582 21.9361C88.2649 21.4654 88.7982 21.1054 89.1422 20.5854C89.1795 20.5281 89.1835 20.4707 89.1689 20.4214C89.3235 20.2987 89.2942 20.1094 89.1755 20.0174Z" fill="#43516B"/>
<path d="M103.024 24.6971C100.267 22.1824 96.2684 21.4198 92.6231 21.9998C92.5244 22.0144 92.4671 22.0784 92.4404 22.1571C92.3258 22.2144 92.2871 22.3531 92.3511 22.4571C92.3498 22.5158 92.3658 22.5731 92.4071 22.6184C92.8178 23.0691 93.3018 23.4371 93.7084 23.8971C94.2964 24.5624 94.6711 25.3904 95.0431 26.1864C95.7378 27.6731 96.4058 29.1678 96.6911 30.7944C96.7018 30.8518 96.7964 30.8451 96.7938 30.7851C96.7351 29.0744 96.1324 27.5184 95.4858 25.9544C95.0618 24.9318 94.5191 23.7704 93.6898 22.9544C94.0831 23.0691 94.4764 23.1864 94.8578 23.3478C95.6991 23.7038 96.4818 24.1944 97.2058 24.7478C98.7218 25.9064 99.9191 27.5491 100.57 29.3398C100.622 29.4838 100.856 29.4371 100.806 29.2851C100.192 27.4424 99.1778 25.8638 97.7364 24.5558C96.8884 23.7851 95.7111 22.9624 94.4884 22.4998C95.7671 22.4838 97.0284 22.5078 98.3231 22.7744C99.9351 23.1051 101.59 23.8344 102.852 24.8984C102.968 24.9971 103.135 24.7984 103.024 24.6971Z" fill="#43516B"/>
<path d="M106.066 14.6543C103.967 14.2929 101.403 14.9676 99.4541 15.7103C97.7755 16.3489 96.0835 17.2103 94.6448 18.3436C94.7581 18.1689 94.8715 17.9956 94.9928 17.8316C95.5381 17.0889 96.1568 16.4036 96.8061 15.7489C98.0755 14.4649 99.5821 13.5956 101.01 12.5223C101.123 12.4369 100.989 12.2929 100.878 12.3356C99.2475 12.9489 97.7595 14.2423 96.5141 15.4303C95.4235 16.4703 93.9435 17.9489 93.4568 19.4116C93.4035 19.4436 93.3475 19.4716 93.2968 19.5076C93.1648 19.5943 93.1821 19.8289 93.3688 19.8303C94.1901 19.8396 95.0221 19.4636 95.8181 19.2729C96.8381 19.0276 97.8755 18.8983 98.9248 18.8783C100.845 18.8449 102.887 19.0009 104.779 19.3329C104.887 19.3503 104.918 19.1729 104.814 19.1436C102.909 18.6223 100.919 18.4503 98.9475 18.3743C97.9675 18.3383 96.9995 18.4663 96.0408 18.6596C95.6648 18.7356 95.2515 18.8089 94.8408 18.9063C96.2501 17.8436 97.6968 16.9183 99.3701 16.2263C100.423 15.7903 101.531 15.4783 102.645 15.2383C103.782 14.9943 104.942 15.0063 106.079 14.7983C106.167 14.7836 106.142 14.6676 106.066 14.6543Z" fill="#43516B"/>
<path d="M95.6953 9.88714C95.6593 9.74848 95.4286 9.75514 95.4353 9.91114C95.5139 11.9805 94.5926 13.4471 93.4713 14.8711C93.9086 13.6765 94.1966 12.4005 94.4033 11.2431C94.7899 9.08181 94.6926 6.76048 93.9579 4.68848C93.9313 4.61648 93.8206 4.63648 93.8379 4.71514C94.2873 6.77381 94.3953 8.81381 94.0673 10.8978C93.8966 11.9791 93.5993 13.0325 93.2366 14.0645C93.1499 14.3111 93.0486 14.5525 92.9433 14.7911C93.0873 13.8551 93.1313 12.8978 93.1246 12.0271C93.1126 10.1498 92.7393 7.83914 91.6939 6.24581C91.6499 6.17781 91.5299 6.20848 91.5539 6.29648C92.0486 8.13514 92.6353 9.74448 92.7073 11.6805C92.7406 12.5591 92.6753 13.4365 92.5566 14.3058C92.4379 15.1738 92.1553 15.9791 91.9206 16.8071C91.8193 16.9405 91.7193 17.0751 91.6206 17.2111C91.5339 17.3338 91.6353 17.4658 91.7539 17.4818C91.7619 17.6338 91.9659 17.7365 92.0553 17.5778C92.0993 17.4991 92.1339 17.4151 92.1739 17.3338C92.1979 17.3205 92.2206 17.3031 92.2393 17.2778C92.3566 17.1178 92.4633 16.9458 92.5686 16.7738C93.4033 15.8725 94.1299 14.7978 94.7726 13.7991C95.4993 12.6671 96.0446 11.2325 95.6953 9.88714Z" fill="#43516B"/>
<path d="M89.1473 17.4184C89.1273 17.3904 89.1046 17.361 89.0833 17.3317C89.19 14.061 88.4833 10.6664 86.706 7.89036C86.682 7.85169 86.6246 7.88102 86.6446 7.92235C87.8166 10.4664 88.57 13.0624 88.6646 15.813C88.286 14.4797 87.7206 13.197 87.0313 12.0024C86.5926 11.2437 86.066 10.5424 85.5193 9.85969C85.002 9.21569 84.4406 8.48635 83.606 8.27969C83.542 8.26502 83.49 8.35302 83.554 8.39036C85.0406 9.25302 86.0593 10.9877 86.862 12.4557C87.5446 13.7064 88.0073 15.029 88.3553 16.393C86.446 14.1357 83.7486 12.337 80.818 11.9304C80.7606 11.9224 80.7486 12.0104 80.8006 12.029C83.9566 13.1037 86.6393 14.6837 88.5953 17.4237C88.6073 17.473 88.6193 17.521 88.6286 17.5704C88.63 17.5757 88.6326 17.5784 88.634 17.5824C88.6326 17.593 88.6326 17.6037 88.6313 17.613C88.614 17.8704 88.9713 17.9104 89.054 17.709C89.1646 17.661 89.2353 17.545 89.1473 17.4184Z" fill="#43516B"/>
<path d="M88.8086 18.8534C88.8086 18.8534 94.63 15.7761 97.5406 6.17211L98.142 6.20011C98.142 6.20011 96.8993 15.0441 89.8366 20.0321C89.2473 20.0041 88.71 19.3894 88.8086 18.8534Z" fill="#43516B"/>
<path d="M97.9279 8.70496C97.3665 8.6783 97.3265 9.5503 97.8879 9.57563C98.4505 9.60096 98.4892 8.7303 97.9279 8.70496Z" fill="#43516B"/>
<path d="M97.2975 9.58507C96.7682 9.56107 96.7295 10.3837 97.2602 10.4064C97.7895 10.4317 97.8269 9.61041 97.2975 9.58507Z" fill="#43516B"/>
<path d="M98.0253 7.68275C97.8787 7.67608 97.7653 7.72541 97.684 7.80541C97.6573 7.70275 97.5773 7.61741 97.4413 7.60941C97.512 7.32008 97.3653 6.96675 96.9773 6.94808C96.908 6.94541 96.848 6.95341 96.792 6.97075C96.8333 6.90275 96.8547 6.82408 96.8507 6.74408C96.9253 6.79608 97.016 6.83075 97.1293 6.83608C97.4853 6.85208 97.668 6.57475 97.668 6.29875C97.7267 6.44275 97.8467 6.55608 98.0267 6.59608C97.9493 6.62008 97.8827 6.66541 97.8227 6.71875C97.7827 6.69341 97.7373 6.67341 97.6773 6.67075C97.3 6.65341 97.272 7.23608 97.6467 7.25875C97.692 7.46008 97.8427 7.62675 98.0427 7.68541C98.0373 7.68408 98.032 7.68275 98.0253 7.68275ZM98.768 7.16275C98.78 6.88941 98.5893 6.64675 98.3307 6.58275C98.8187 6.41341 98.7893 5.56275 98.172 5.53475C97.812 5.51875 97.6267 5.80008 97.6267 6.07875C97.56 5.91208 97.4133 5.77875 97.1773 5.76808C96.7707 5.75075 96.5893 6.11608 96.6507 6.42541C96.6093 6.40675 96.564 6.39208 96.5107 6.38941C96.1253 6.37208 96.032 6.83875 96.2507 7.04275C96.2267 7.03875 96.2053 7.03208 96.1773 7.03475C95.8347 7.06408 95.936 7.62808 96.2813 7.54941C96.364 7.53208 96.4173 7.48808 96.448 7.43608C96.4427 7.51208 96.4507 7.58808 96.4747 7.65875C96.0853 7.69608 95.968 8.14275 96.1373 8.41741C95.468 8.42275 95.4307 9.47608 96.1213 9.50675C96.3093 9.51475 96.448 9.44275 96.5413 9.33475C96.6093 9.48008 96.744 9.59075 96.9533 9.60008C97.6027 9.62941 97.648 8.62408 96.9987 8.59475C96.8387 8.58675 96.7173 8.64408 96.6307 8.73208C96.6147 8.69475 96.5973 8.65741 96.5733 8.62541C96.9107 8.59875 97.0533 8.26541 96.9813 7.99475C97.0507 7.99208 97.1093 7.97608 97.164 7.95208C97.1867 8.06275 97.2667 8.16008 97.412 8.16675C97.4613 8.16941 97.5027 8.15875 97.54 8.14408C97.5307 8.38008 97.6733 8.62541 97.9813 8.64008C98.5533 8.66541 98.6307 7.84675 98.1493 7.70408C98.1573 7.70541 98.164 7.70808 98.1707 7.70808C98.4827 7.72141 98.7533 7.47475 98.768 7.16275Z" fill="#43516B"/>
</svg>
