<svg width="100" height="100" viewBox="0 0 100 100" fill="none" xmlns="http://www.w3.org/2000/svg">
<path d="M5 35V31.6667H3.33333C2.89131 31.6667 2.46738 31.8423 2.15482 32.1548C1.84226 32.4674 1.66667 32.8913 1.66667 33.3333C1.66667 33.7754 1.84226 34.1993 2.15482 34.5118C2.46738 34.8244 2.89131 35 3.33333 35" fill="white"/>
<path d="M1.66602 45H4.99935V41.6667C4.11529 41.6667 3.26745 42.0179 2.64233 42.643C2.01721 43.2681 1.66602 44.1159 1.66602 45Z" fill="white"/>
<path d="M4.99935 45H1.66602V48.3333H4.99935V45Z" fill="white"/>
<path d="M5 48.3334H1.66667V50C1.66667 50.4421 1.84226 50.866 2.15482 51.1786C2.46738 51.4911 2.89131 51.6667 3.33333 51.6667C3.77536 51.6667 4.19929 51.4911 4.51185 51.1786C4.82441 50.866 5 50.4421 5 50" fill="white"/>
<path d="M5 61.6667V58.3334H3.33333C2.89131 58.3334 2.46738 58.5089 2.15482 58.8215C1.84226 59.1341 1.66667 59.558 1.66667 60C1.66667 60.442 1.84226 60.866 2.15482 61.1785C2.46738 61.4911 2.89131 61.6667 3.33333 61.6667" fill="white"/>
<path d="M3.33268 71.6667C4.25316 71.6667 4.99935 70.9205 4.99935 70C4.99935 69.0796 4.25316 68.3334 3.33268 68.3334C2.41221 68.3334 1.66602 69.0796 1.66602 70C1.66602 70.9205 2.41221 71.6667 3.33268 71.6667Z" fill="white"/>
<path d="M8.33333 31.6667H5V35H8.33333V31.6667Z" fill="white"/>
<path d="M5 41.6667H8.33333V40C8.33333 39.558 8.15774 39.1341 7.84518 38.8215C7.53262 38.5089 7.10869 38.3334 6.66667 38.3334C6.22464 38.3334 5.80071 38.5089 5.48815 38.8215C5.17559 39.1341 5 39.558 5 40" fill="white"/>
<path d="M8.33333 41.6667H5V45H8.33333V41.6667Z" fill="white"/>
<path d="M8.33333 45H5V48.3333H8.33333V45Z" fill="white"/>
<path d="M5 58.3334H8.33333V56.6667C8.33333 56.2247 8.15774 55.8008 7.84518 55.4882C7.53262 55.1756 7.10869 55 6.66667 55C6.22464 55 5.80071 55.1756 5.48815 55.4882C5.17559 55.8008 5 56.2247 5 56.6667" fill="white"/>
<path d="M8.33333 58.3334H5V61.6667H8.33333V58.3334Z" fill="white"/>
<path d="M8.33203 68.3334V65H6.66536C6.22334 65 5.79941 65.1756 5.48685 65.4882C5.17429 65.8008 4.9987 66.2247 4.9987 66.6667C4.9987 67.1087 5.17429 67.5327 5.48685 67.8452C5.79941 68.1578 6.22334 68.3334 6.66536 68.3334" fill="white"/>
<path d="M8.33203 31.6667H11.6654V30C11.6654 29.558 11.4898 29.1341 11.1772 28.8215C10.8646 28.5089 10.4407 28.3334 9.9987 28.3334C9.55667 28.3334 9.13275 28.5089 8.82019 28.8215C8.50762 29.1341 8.33203 29.558 8.33203 30" fill="white"/>
<path d="M11.6654 31.6667H8.33203V35H11.6654V31.6667Z" fill="white"/>
<path d="M11.666 35H8.33268V36.6667C8.33268 37.1087 8.50828 37.5326 8.82084 37.8452C9.1334 38.1577 9.55732 38.3333 9.99935 38.3333C10.4414 38.3333 10.8653 38.1577 11.1779 37.8452C11.4904 37.5326 11.666 37.1087 11.666 36.6667" fill="white"/>
<path d="M8.33203 41.6667V45H11.6654C11.6654 44.116 11.3142 43.2681 10.6891 42.643C10.0639 42.0179 9.21609 41.6667 8.33203 41.6667Z" fill="white"/>
<path d="M11.666 45H8.33268V48.3333C9.21674 48.3333 10.0646 47.9821 10.6897 47.357C11.3148 46.7319 11.666 45.8841 11.666 45Z" fill="white"/>
<path d="M9.9987 55C10.9192 55 11.6654 54.2538 11.6654 53.3334C11.6654 52.4129 10.9192 51.6667 9.9987 51.6667C9.07822 51.6667 8.33203 52.4129 8.33203 53.3334C8.33203 54.2538 9.07822 55 9.9987 55Z" fill="white"/>
<path d="M8.33203 58.3334V61.6667H9.9987C10.4407 61.6667 10.8646 61.4911 11.1772 61.1786C11.4898 60.866 11.6654 60.4421 11.6654 60C11.6654 59.558 11.4898 59.1341 11.1772 58.8215C10.8646 58.509 10.4407 58.3334 9.9987 58.3334" fill="white"/>
<path d="M11.6654 65H8.33203V68.3333H11.6654V65Z" fill="white"/>
<path d="M15 41.6667V38.3334H13.3333C12.8913 38.3334 12.4674 38.5089 12.1548 38.8215C11.8423 39.1341 11.6667 39.558 11.6667 40C11.6667 40.442 11.8423 40.866 12.1548 41.1785C12.4674 41.4911 12.8913 41.6667 13.3333 41.6667" fill="white"/>
<path d="M15 51.6667V48.3334H13.3333C12.8913 48.3334 12.4674 48.5089 12.1548 48.8215C11.8423 49.1341 11.6667 49.558 11.6667 50C11.6667 50.442 11.8423 50.866 12.1548 51.1785C12.4674 51.4911 12.8913 51.6667 13.3333 51.6667" fill="white"/>
<path d="M15 58.3334V55H13.3333C12.8913 55 12.4674 55.1756 12.1548 55.4882C11.8423 55.8008 11.6667 56.2247 11.6667 56.6667C11.6667 57.1087 11.8423 57.5327 12.1548 57.8452C12.4674 58.1578 12.8913 58.3334 13.3333 58.3334" fill="white"/>
<path d="M11.666 65H14.9993V61.6667C14.1153 61.6667 13.2674 62.0179 12.6423 62.643C12.0172 63.2681 11.666 64.1159 11.666 65Z" fill="white"/>
<path d="M15 65H11.6667V68.3333C12.5507 68.3333 13.3986 67.9821 14.0237 67.357C14.6488 66.7319 15 65.8841 15 65Z" fill="white"/>
<path d="M18.332 31.6667V28.3334H16.6654C16.2233 28.3334 15.7994 28.5089 15.4869 28.8215C15.1743 29.1341 14.9987 29.558 14.9987 30C14.9987 30.442 15.1743 30.866 15.4869 31.1785C15.7994 31.4911 16.2233 31.6667 16.6654 31.6667" fill="white"/>
<path d="M15 38.3334H18.3333V36.6667C18.3333 36.2247 18.1577 35.8008 17.8452 35.4882C17.5326 35.1756 17.1087 35 16.6667 35C16.2246 35 15.8007 35.1756 15.4882 35.4882C15.1756 35.8008 15 36.2247 15 36.6667" fill="white"/>
<path d="M18.3333 38.3334H15V41.6667H18.3333V38.3334Z" fill="white"/>
<path d="M18.332 41.6667H14.9987V43.3334C14.9987 43.7754 15.1743 44.1993 15.4869 44.5119C15.7994 44.8244 16.2233 45 16.6654 45C17.1074 45 17.5313 44.8244 17.8439 44.5119C18.1564 44.1993 18.332 43.7754 18.332 43.3334" fill="white"/>
<path d="M15 48.3334V51.6667H18.3333C18.3333 50.7827 17.9821 49.9348 17.357 49.3097C16.7319 48.6846 15.8841 48.3334 15 48.3334Z" fill="white"/>
<path d="M18.3333 51.6667H15V55H18.3333V51.6667Z" fill="white"/>
<path d="M18.3333 55H15V58.3333H18.3333V55Z" fill="white"/>
<path d="M18.3333 58.3334H15V61.6667H18.3333V58.3334Z" fill="white"/>
<path d="M18.3333 61.6667H15V65H18.3333V61.6667Z" fill="white"/>
<path d="M18.332 71.6667V68.3334H16.6654C16.2233 68.3334 15.7994 68.5089 15.4869 68.8215C15.1743 69.1341 14.9987 69.558 14.9987 70C14.9987 70.442 15.1743 70.866 15.4869 71.1785C15.7994 71.4911 16.2233 71.6667 16.6654 71.6667" fill="white"/>
<path d="M21.6654 28.3334H18.332V31.6667H21.6654V28.3334Z" fill="white"/>
<path d="M21.6654 61.6667H18.332V65H21.6654V61.6667Z" fill="white"/>
<path d="M21.6654 65H18.332V68.3333H21.6654V65Z" fill="white"/>
<path d="M21.6654 68.3334H18.332V71.6667H21.6654V68.3334Z" fill="white"/>
<path d="M21.666 28.3334V31.6667H23.3327C23.7747 31.6667 24.1986 31.4911 24.5112 31.1786C24.8238 30.866 24.9993 30.4421 24.9993 30C24.9993 29.558 24.8238 29.1341 24.5112 28.8215C24.1986 28.509 23.7747 28.3334 23.3327 28.3334" fill="white"/>
<path d="M23.3327 38.3333C24.2532 38.3333 24.9993 37.5871 24.9993 36.6667C24.9993 35.7462 24.2532 35 23.3327 35C22.4122 35 21.666 35.7462 21.666 36.6667C21.666 37.5871 22.4122 38.3333 23.3327 38.3333Z" fill="white"/>
<path d="M23.3327 45C24.2532 45 24.9993 44.2538 24.9993 43.3334C24.9993 42.4129 24.2532 41.6667 23.3327 41.6667C22.4122 41.6667 21.666 42.4129 21.666 43.3334C21.666 44.2538 22.4122 45 23.3327 45Z" fill="white"/>
<path d="M25 51.6667V48.3334H23.3333C22.8913 48.3334 22.4674 48.5089 22.1548 48.8215C21.8423 49.1341 21.6667 49.558 21.6667 50C21.6667 50.442 21.8423 50.866 22.1548 51.1785C22.4674 51.4911 22.8913 51.6667 23.3333 51.6667" fill="white"/>
<path d="M23.3327 58.3333C24.2532 58.3333 24.9993 57.5871 24.9993 56.6667C24.9993 55.7462 24.2532 55 23.3327 55C22.4122 55 21.666 55.7462 21.666 56.6667C21.666 57.5871 22.4122 58.3333 23.3327 58.3333Z" fill="white"/>
<path d="M21.666 61.6667V65H23.3327C23.7747 65 24.1986 64.8244 24.5112 64.5119C24.8238 64.1993 24.9993 63.7754 24.9993 63.3334C24.9993 62.8913 24.8238 62.4674 24.5112 62.1548C24.1986 61.8423 23.7747 61.6667 23.3327 61.6667" fill="white"/>
<path d="M21.666 68.3334V71.6667H23.3327C23.7747 71.6667 24.1986 71.4911 24.5112 71.1786C24.8238 70.866 24.9993 70.4421 24.9993 70C24.9993 69.558 24.8238 69.1341 24.5112 68.8215C24.1986 68.509 23.7747 68.3334 23.3327 68.3334" fill="white"/>
<path d="M28.3333 48.3334H25V51.6667H28.3333V48.3334Z" fill="white"/>
<path d="M28.332 55V51.6667H24.9987C24.9987 52.5507 25.3499 53.3986 25.975 54.0237C26.6001 54.6488 27.448 55 28.332 55Z" fill="white"/>
<path d="M28.332 61.6667V58.3334H26.6654C26.2233 58.3334 25.7994 58.5089 25.4869 58.8215C25.1743 59.1341 24.9987 59.558 24.9987 60C24.9987 60.442 25.1743 60.866 25.4869 61.1785C25.7994 61.4911 26.2233 61.6667 26.6654 61.6667" fill="white"/>
<path d="M28.332 68.3334V65H26.6654C26.2233 65 25.7994 65.1756 25.4869 65.4882C25.1743 65.8008 24.9987 66.2247 24.9987 66.6667C24.9987 67.1087 25.1743 67.5327 25.4869 67.8452C25.7994 68.1578 26.2233 68.3334 26.6654 68.3334" fill="white"/>
<path d="M31.666 8.33337V5.00004H29.9993C29.5573 5.00004 29.1334 5.17564 28.8208 5.4882C28.5083 5.80076 28.3327 6.22468 28.3327 6.66671C28.3327 7.10873 28.5083 7.53266 28.8208 7.84522C29.1334 8.15778 29.5573 8.33337 29.9993 8.33337" fill="white"/>
<path d="M31.666 18.3334V15H29.9993C29.5573 15 29.1334 15.1756 28.8208 15.4882C28.5083 15.8008 28.3327 16.2247 28.3327 16.6667C28.3327 17.1087 28.5083 17.5327 28.8208 17.8452C29.1334 18.1578 29.5573 18.3334 29.9993 18.3334" fill="white"/>
<path d="M29.9987 25C30.9192 25 31.6654 24.2538 31.6654 23.3334C31.6654 22.4129 30.9192 21.6667 29.9987 21.6667C29.0782 21.6667 28.332 22.4129 28.332 23.3334C28.332 24.2538 29.0782 25 29.9987 25Z" fill="white"/>
<path d="M31.666 31.6667V28.3334H29.9993C29.5573 28.3334 29.1334 28.5089 28.8208 28.8215C28.5083 29.1341 28.3327 29.558 28.3327 30C28.3327 30.442 28.5083 30.866 28.8208 31.1785C29.1334 31.4911 29.5573 31.6667 29.9993 31.6667" fill="white"/>
<path d="M28.332 38.3334H31.6654V36.6667C31.6654 36.2247 31.4898 35.8008 31.1772 35.4882C30.8646 35.1756 30.4407 35 29.9987 35C29.5567 35 29.1327 35.1756 28.8202 35.4882C28.5076 35.8008 28.332 36.2247 28.332 36.6667" fill="white"/>
<path d="M31.6654 38.3334H28.332V41.6667H31.6654V38.3334Z" fill="white"/>
<path d="M31.666 41.6667H28.3327V43.3334C28.3327 43.7754 28.5083 44.1993 28.8208 44.5119C29.1334 44.8244 29.5573 45 29.9993 45C30.4414 45 30.8653 44.8244 31.1779 44.5119C31.4904 44.1993 31.666 43.7754 31.666 43.3334" fill="white"/>
<path d="M31.6654 48.3334H28.332V51.6667H31.6654V48.3334Z" fill="white"/>
<path d="M31.6654 51.6667H28.332V55H31.6654V51.6667Z" fill="white"/>
<path d="M31.6654 55H28.332V58.3333H31.6654V55Z" fill="white"/>
<path d="M31.6654 58.3334H28.332V61.6667H31.6654V58.3334Z" fill="white"/>
<path d="M28.332 65V68.3333H31.6654C31.6654 67.4493 31.3142 66.6014 30.6891 65.9763C30.0639 65.3512 29.2161 65 28.332 65Z" fill="white"/>
<path d="M31.6654 68.3334H28.332V71.6667H31.6654V68.3334Z" fill="white"/>
<path d="M31.666 75V71.6667H28.3327C28.3327 72.5507 28.6839 73.3986 29.309 74.0237C29.9341 74.6488 30.782 75 31.666 75Z" fill="white"/>
<path d="M28.332 81.6667H31.6654V78.3334C30.7813 78.3334 29.9335 78.6845 29.3083 79.3097C28.6832 79.9348 28.332 80.7826 28.332 81.6667Z" fill="white"/>
<path d="M31.666 85V81.6667H28.3327C28.3327 82.5507 28.6839 83.3986 29.309 84.0237C29.9341 84.6488 30.782 85 31.666 85Z" fill="white"/>
<path d="M31.666 91.6667V88.3334H29.9993C29.5573 88.3334 29.1334 88.509 28.8208 88.8215C28.5083 89.1341 28.3327 89.558 28.3327 90C28.3327 90.442 28.5083 90.866 28.8208 91.1785C29.1334 91.4911 29.5573 91.6667 29.9993 91.6667" fill="white"/>
<path d="M31.666 5V8.33333H33.3327C33.7747 8.33333 34.1986 8.15774 34.5112 7.84518C34.8238 7.53262 34.9993 7.10869 34.9993 6.66667C34.9993 6.22464 34.8238 5.80072 34.5112 5.48816C34.1986 5.17559 33.7747 5 33.3327 5" fill="white"/>
<path d="M31.666 15H34.9993V13.3333C34.9993 12.8913 34.8238 12.4674 34.5112 12.1548C34.1986 11.8423 33.7747 11.6667 33.3327 11.6667C32.8907 11.6667 32.4667 11.8423 32.1542 12.1548C31.8416 12.4674 31.666 12.8913 31.666 13.3333" fill="white"/>
<path d="M34.9993 15H31.666V18.3333H34.9993V15Z" fill="white"/>
<path d="M35 18.3334H31.6667V20C31.6667 20.4421 31.8423 20.866 32.1548 21.1786C32.4674 21.4911 32.8913 21.6667 33.3333 21.6667C33.7754 21.6667 34.1993 21.4911 34.5118 21.1786C34.8244 20.866 35 20.4421 35 20" fill="white"/>
<path d="M31.666 28.3334H34.9993V25C34.1153 25 33.2674 25.3512 32.6423 25.9764C32.0172 26.6015 31.666 27.4493 31.666 28.3334Z" fill="white"/>
<path d="M35 28.3334H31.6667V31.6667C32.5507 31.6667 33.3986 31.3155 34.0237 30.6904C34.6488 30.0653 35 29.2174 35 28.3334Z" fill="white"/>
<path d="M31.666 48.3334H34.9993V45C34.1153 45 33.2674 45.3512 32.6423 45.9764C32.0172 46.6015 31.666 47.4493 31.666 48.3334Z" fill="white"/>
<path d="M34.9993 48.3334H31.666V51.6667H34.9993V48.3334Z" fill="white"/>
<path d="M35 51.6667H31.6667V55C32.5507 55 33.3986 54.6488 34.0237 54.0237C34.6488 53.3986 35 52.5507 35 51.6667Z" fill="white"/>
<path d="M34.9993 58.3334H31.666V61.6667H34.9993V58.3334Z" fill="white"/>
<path d="M35 65V61.6667H31.6667C31.6667 62.5507 32.0179 63.3986 32.643 64.0237C33.2681 64.6488 34.1159 65 35 65Z" fill="white"/>
<path d="M34.9993 71.6667H31.666V75H34.9993V71.6667Z" fill="white"/>
<path d="M34.9993 75H31.666V78.3333H34.9993V75Z" fill="white"/>
<path d="M34.9993 78.3334H31.666V81.6667H34.9993V78.3334Z" fill="white"/>
<path d="M34.9993 81.6667H31.666V85H34.9993V81.6667Z" fill="white"/>
<path d="M34.9993 85H31.666V88.3333H34.9993V85Z" fill="white"/>
<path d="M34.9993 88.3334H31.666V91.6667H34.9993V88.3334Z" fill="white"/>
<path d="M34.9993 91.6667H31.666V95H34.9993V91.6667Z" fill="white"/>
<path d="M35 98.3334V95H31.6667C31.6667 95.8841 32.0179 96.7319 32.643 97.3571C33.2681 97.9822 34.1159 98.3334 35 98.3334Z" fill="white"/>
<path d="M38.332 5V1.66667H36.6654C36.2233 1.66667 35.7994 1.84226 35.4869 2.15482C35.1743 2.46738 34.9987 2.89131 34.9987 3.33333C34.9987 3.77536 35.1743 4.19928 35.4869 4.51184C35.7994 4.82441 36.2233 5 36.6654 5" fill="white"/>
<path d="M35 25H38.3333V23.3333C38.3333 22.8913 38.1577 22.4674 37.8452 22.1548C37.5326 21.8423 37.1087 21.6667 36.6667 21.6667C36.2246 21.6667 35.8007 21.8423 35.4882 22.1548C35.1756 22.4674 35 22.8913 35 23.3333" fill="white"/>
<path d="M38.3333 25H35V28.3333H38.3333V25Z" fill="white"/>
<path d="M35 38.3334H38.3333V36.6667C38.3333 36.2247 38.1577 35.8008 37.8452 35.4882C37.5326 35.1756 37.1087 35 36.6667 35C36.2246 35 35.8007 35.1756 35.4882 35.4882C35.1756 35.8008 35 36.2247 35 36.6667" fill="white"/>
<path d="M38.3333 38.3334H35V41.6667H38.3333V38.3334Z" fill="white"/>
<path d="M38.3333 41.6667H35V45H38.3333V41.6667Z" fill="white"/>
<path d="M38.332 45H34.9987V48.3333C35.8828 48.3333 36.7306 47.9821 37.3557 47.357C37.9808 46.7319 38.332 45.8841 38.332 45Z" fill="white"/>
<path d="M35 58.3334H38.3333V56.6667C38.3333 56.2247 38.1577 55.8008 37.8452 55.4882C37.5326 55.1756 37.1087 55 36.6667 55C36.2246 55 35.8007 55.1756 35.4882 55.4882C35.1756 55.8008 35 56.2247 35 56.6667" fill="white"/>
<path d="M38.3333 58.3334H35V61.6667H38.3333V58.3334Z" fill="white"/>
<path d="M38.3333 61.6667H35V65H38.3333V61.6667Z" fill="white"/>
<path d="M38.3333 71.6667H35V75H38.3333V71.6667Z" fill="white"/>
<path d="M35 78.3334V81.6667H38.3333C38.3333 80.7827 37.9821 79.9348 37.357 79.3097C36.7319 78.6846 35.8841 78.3334 35 78.3334Z" fill="white"/>
<path d="M38.3333 81.6667H35V85H38.3333V81.6667Z" fill="white"/>
<path d="M38.3333 85H35V88.3333H38.3333V85Z" fill="white"/>
<path d="M38.332 88.3334H34.9987V91.6667C35.8828 91.6667 36.7306 91.3155 37.3557 90.6904C37.9808 90.0653 38.332 89.2174 38.332 88.3334Z" fill="white"/>
<path d="M38.3333 95H35V98.3333H38.3333V95Z" fill="white"/>
<path d="M41.6654 1.66669H38.332V5.00002H41.6654V1.66669Z" fill="white"/>
<path d="M38.332 11.6667H41.6654V10C41.6654 9.55799 41.4898 9.13407 41.1772 8.82151C40.8646 8.50895 40.4407 8.33335 39.9987 8.33335C39.5567 8.33335 39.1327 8.50895 38.8202 8.82151C38.5076 9.13407 38.332 9.55799 38.332 10" fill="white"/>
<path d="M41.6654 11.6667H38.332V15H41.6654V11.6667Z" fill="white"/>
<path d="M41.666 15H38.3327V16.6667C38.3327 17.1087 38.5083 17.5326 38.8208 17.8452C39.1334 18.1577 39.5573 18.3333 39.9993 18.3333C40.4414 18.3333 40.8653 18.1577 41.1779 17.8452C41.4904 17.5326 41.666 17.1087 41.666 16.6667" fill="white"/>
<path d="M38.332 25V28.3333H39.9987C40.4407 28.3333 40.8646 28.1577 41.1772 27.8452C41.4898 27.5326 41.6654 27.1087 41.6654 26.6667C41.6654 26.2246 41.4898 25.8007 41.1772 25.4882C40.8646 25.1756 40.4407 25 39.9987 25" fill="white"/>
<path d="M39.9987 35C40.9192 35 41.6654 34.2538 41.6654 33.3334C41.6654 32.4129 40.9192 31.6667 39.9987 31.6667C39.0782 31.6667 38.332 32.4129 38.332 33.3334C38.332 34.2538 39.0782 35 39.9987 35Z" fill="white"/>
<path d="M38.332 38.3334V41.6667H41.6654C41.6654 40.7827 41.3142 39.9348 40.6891 39.3097C40.0639 38.6846 39.2161 38.3334 38.332 38.3334Z" fill="white"/>
<path d="M41.666 41.6667H38.3327V45C39.2167 45 40.0646 44.6488 40.6897 44.0237C41.3148 43.3986 41.666 42.5507 41.666 41.6667Z" fill="white"/>
<path d="M38.332 51.6667H41.6654V48.3334C40.7813 48.3334 39.9335 48.6845 39.3083 49.3097C38.6832 49.9348 38.332 50.7826 38.332 51.6667Z" fill="white"/>
<path d="M41.666 51.6667H38.3327V53.3334C38.3327 53.7754 38.5083 54.1993 38.8208 54.5119C39.1334 54.8244 39.5573 55 39.9993 55C40.4414 55 40.8653 54.8244 41.1779 54.5119C41.4904 54.1993 41.666 53.7754 41.666 53.3334" fill="white"/>
<path d="M41.6654 58.3334H38.332V61.6667H41.6654V58.3334Z" fill="white"/>
<path d="M41.666 61.6667H38.3327V65C39.2167 65 40.0646 64.6488 40.6897 64.0237C41.3148 63.3986 41.666 62.5507 41.666 61.6667Z" fill="white"/>
<path d="M38.332 71.6667H41.6654V70C41.6654 69.558 41.4898 69.1341 41.1772 68.8215C40.8646 68.5089 40.4407 68.3334 39.9987 68.3334C39.5567 68.3334 39.1327 68.5089 38.8202 68.8215C38.5076 69.1341 38.332 69.558 38.332 70" fill="white"/>
<path d="M41.666 71.6667H38.3327V75C39.2167 75 40.0646 74.6488 40.6897 74.0237C41.3148 73.3986 41.666 72.5507 41.666 71.6667Z" fill="white"/>
<path d="M38.332 81.6667V85H41.6654C41.6654 84.116 41.3142 83.2681 40.6891 82.643C40.0639 82.0179 39.2161 81.6667 38.332 81.6667Z" fill="white"/>
<path d="M41.6654 85H38.332V88.3333H41.6654V85Z" fill="white"/>
<path d="M38.332 95H41.6654V93.3333C41.6654 92.8913 41.4898 92.4674 41.1772 92.1548C40.8646 91.8423 40.4407 91.6667 39.9987 91.6667C39.5567 91.6667 39.1328 91.8423 38.8202 92.1548C38.5076 92.4674 38.332 92.8913 38.332 93.3333" fill="white"/>
<path d="M41.6654 95H38.332V98.3333H41.6654V95Z" fill="white"/>
<path d="M44.9993 1.66669H41.666V5.00002H44.9993V1.66669Z" fill="white"/>
<path d="M41.666 21.6667H44.9993V20C44.9993 19.558 44.8238 19.1341 44.5112 18.8215C44.1986 18.5089 43.7747 18.3334 43.3327 18.3334C42.8907 18.3334 42.4667 18.5089 42.1542 18.8215C41.8416 19.1341 41.666 19.558 41.666 20" fill="white"/>
<path d="M45 21.6667H41.6667V23.3334C41.6667 23.7754 41.8423 24.1993 42.1548 24.5119C42.4674 24.8244 42.8913 25 43.3333 25C43.7754 25 44.1993 24.8244 44.5118 24.5119C44.8244 24.1993 45 23.7754 45 23.3334" fill="white"/>
<path d="M43.3327 38.3333C44.2532 38.3333 44.9993 37.5871 44.9993 36.6667C44.9993 35.7462 44.2532 35 43.3327 35C42.4122 35 41.666 35.7462 41.666 36.6667C41.666 37.5871 42.4122 38.3333 43.3327 38.3333Z" fill="white"/>
<path d="M41.666 48.3334V51.6667H43.3327C43.7747 51.6667 44.1986 51.4911 44.5112 51.1786C44.8238 50.866 44.9993 50.4421 44.9993 50C44.9993 49.558 44.8238 49.1341 44.5112 48.8215C44.1986 48.509 43.7747 48.3334 43.3327 48.3334" fill="white"/>
<path d="M41.666 58.3334V61.6667H43.3327C43.7747 61.6667 44.1986 61.4911 44.5112 61.1786C44.8238 60.866 44.9993 60.4421 44.9993 60C44.9993 59.558 44.8238 59.1341 44.5112 58.8215C44.1986 58.509 43.7747 58.3334 43.3327 58.3334" fill="white"/>
<path d="M43.3327 81.6667C44.2532 81.6667 44.9993 80.9205 44.9993 80C44.9993 79.0796 44.2532 78.3334 43.3327 78.3334C42.4122 78.3334 41.666 79.0796 41.666 80C41.666 80.9205 42.4122 81.6667 43.3327 81.6667Z" fill="white"/>
<path d="M41.666 85V88.3333H43.3327C43.7747 88.3333 44.1986 88.1577 44.5112 87.8452C44.8238 87.5326 44.9993 87.1087 44.9993 86.6667C44.9993 86.2246 44.8238 85.8007 44.5112 85.4882C44.1986 85.1756 43.7747 85 43.3327 85" fill="white"/>
<path d="M44.9993 95H41.666V98.3333H44.9993V95Z" fill="white"/>
<path d="M45 1.66669V5.00002H48.3333C48.3333 4.11597 47.9821 3.26812 47.357 2.643C46.7319 2.01788 45.8841 1.66669 45 1.66669Z" fill="white"/>
<path d="M48.332 5H44.9987V6.66667C44.9987 7.10869 45.1743 7.53262 45.4869 7.84518C45.7994 8.15774 46.2233 8.33333 46.6654 8.33333C47.1074 8.33333 47.5313 8.15774 47.8439 7.84518C48.1564 7.53262 48.332 7.10869 48.332 6.66667" fill="white"/>
<path d="M48.332 31.6667V28.3334H46.6654C46.2233 28.3334 45.7994 28.5089 45.4869 28.8215C45.1743 29.1341 44.9987 29.558 44.9987 30C44.9987 30.442 45.1743 30.866 45.4869 31.1785C45.7994 31.4911 46.2233 31.6667 46.6654 31.6667" fill="white"/>
<path d="M45 41.6667H48.3333V38.3334C47.4493 38.3334 46.6014 38.6845 45.9763 39.3097C45.3512 39.9348 45 40.7826 45 41.6667Z" fill="white"/>
<path d="M48.3333 41.6667H45V45H48.3333V41.6667Z" fill="white"/>
<path d="M48.332 48.3334V45H44.9987C44.9987 45.8841 45.3499 46.7319 45.975 47.3571C46.6001 47.9822 47.448 48.3334 48.332 48.3334Z" fill="white"/>
<path d="M48.332 58.3334V55H46.6654C46.2233 55 45.7994 55.1756 45.4869 55.4882C45.1743 55.8008 44.9987 56.2247 44.9987 56.6667C44.9987 57.1087 45.1743 57.5327 45.4869 57.8452C45.7994 58.1578 46.2233 58.3334 46.6654 58.3334" fill="white"/>
<path d="M48.332 65V61.6667H46.6654C46.2233 61.6667 45.7994 61.8423 45.4869 62.1548C45.1743 62.4674 44.9987 62.8913 44.9987 63.3333C44.9987 63.7754 45.1743 64.1993 45.4869 64.5118C45.7994 64.8244 46.2233 65 46.6654 65" fill="white"/>
<path d="M48.332 78.3334V75H46.6654C46.2233 75 45.7994 75.1756 45.4869 75.4882C45.1743 75.8008 44.9987 76.2247 44.9987 76.6667C44.9987 77.1087 45.1743 77.5327 45.4869 77.8452C45.7994 78.1578 46.2233 78.3334 46.6654 78.3334" fill="white"/>
<path d="M48.332 85V81.6667H46.6654C46.2233 81.6667 45.7994 81.8423 45.4869 82.1548C45.1743 82.4674 44.9987 82.8913 44.9987 83.3333C44.9987 83.7754 45.1743 84.1993 45.4869 84.5118C45.7994 84.8244 46.2233 85 46.6654 85" fill="white"/>
<path d="M46.6667 91.6667C47.5871 91.6667 48.3333 90.9205 48.3333 90C48.3333 89.0796 47.5871 88.3334 46.6667 88.3334C45.7462 88.3334 45 89.0796 45 90C45 90.9205 45.7462 91.6667 46.6667 91.6667Z" fill="white"/>
<path d="M48.3333 95H45V98.3333H48.3333V95Z" fill="white"/>
<path d="M49.9987 11.6667C50.9192 11.6667 51.6654 10.9205 51.6654 10C51.6654 9.07957 50.9192 8.33337 49.9987 8.33337C49.0782 8.33337 48.332 9.07957 48.332 10C48.332 10.9205 49.0782 11.6667 49.9987 11.6667Z" fill="white"/>
<path d="M48.332 25H51.6654V23.3333C51.6654 22.8913 51.4898 22.4674 51.1772 22.1548C50.8646 21.8423 50.4407 21.6667 49.9987 21.6667C49.5567 21.6667 49.1327 21.8423 48.8202 22.1548C48.5076 22.4674 48.332 22.8913 48.332 23.3333" fill="white"/>
<path d="M51.6654 25H48.332V28.3333H51.6654V25Z" fill="white"/>
<path d="M51.6654 28.3334H48.332V31.6667H51.6654V28.3334Z" fill="white"/>
<path d="M51.6654 31.6667H48.332V35H51.6654V31.6667Z" fill="white"/>
<path d="M51.6654 35H48.332V38.3333H51.6654V35Z" fill="white"/>
<path d="M51.666 38.3334H48.3327V41.6667C49.2167 41.6667 50.0646 41.3155 50.6897 40.6904C51.3148 40.0653 51.666 39.2174 51.666 38.3334Z" fill="white"/>
<path d="M51.6654 45H48.332V48.3333H51.6654V45Z" fill="white"/>
<path d="M51.6654 48.3334H48.332V51.6667H51.6654V48.3334Z" fill="white"/>
<path d="M51.6654 51.6667H48.332V55H51.6654V51.6667Z" fill="white"/>
<path d="M51.6654 55H48.332V58.3333H51.6654V55Z" fill="white"/>
<path d="M51.6654 61.6667H48.332V65H51.6654V61.6667Z" fill="white"/>
<path d="M49.9987 71.6667C50.9192 71.6667 51.6654 70.9205 51.6654 70C51.6654 69.0796 50.9192 68.3334 49.9987 68.3334C49.0782 68.3334 48.332 69.0796 48.332 70C48.332 70.9205 49.0782 71.6667 49.9987 71.6667Z" fill="white"/>
<path d="M51.6654 75H48.332V78.3333H51.6654V75Z" fill="white"/>
<path d="M48.332 81.6667V85H49.9987C50.4407 85 50.8646 84.8244 51.1772 84.5119C51.4898 84.1993 51.6654 83.7754 51.6654 83.3334C51.6654 82.8913 51.4898 82.4674 51.1772 82.1548C50.8646 81.8423 50.4407 81.6667 49.9987 81.6667" fill="white"/>
<path d="M48.332 95V98.3333H49.9987C50.4407 98.3333 50.8646 98.1577 51.1772 97.8452C51.4898 97.5326 51.6654 97.1087 51.6654 96.6667C51.6654 96.2246 51.4898 95.8007 51.1772 95.4882C50.8646 95.1756 50.4407 95 49.9987 95" fill="white"/>
<path d="M55 8.33337V5.00004H53.3333C52.8913 5.00004 52.4674 5.17564 52.1548 5.4882C51.8423 5.80076 51.6667 6.22468 51.6667 6.66671C51.6667 7.10873 51.8423 7.53266 52.1548 7.84522C52.4674 8.15778 52.8913 8.33337 53.3333 8.33337" fill="white"/>
<path d="M51.666 25V28.3333H54.9993C54.9993 27.4493 54.6482 26.6014 54.023 25.9763C53.3979 25.3512 52.5501 25 51.666 25Z" fill="white"/>
<path d="M54.9993 28.3334H51.666V31.6667H54.9993V28.3334Z" fill="white"/>
<path d="M54.9993 45H51.666V48.3333H54.9993V45Z" fill="white"/>
<path d="M55 48.3334H51.6667V51.6667C52.5507 51.6667 53.3986 51.3155 54.0237 50.6904C54.6488 50.0653 55 49.2174 55 48.3334Z" fill="white"/>
<path d="M51.666 55V58.3333H54.9993C54.9993 57.4493 54.6482 56.6014 54.023 55.9763C53.3979 55.3512 52.5501 55 51.666 55Z" fill="white"/>
<path d="M54.9993 58.3334H51.666V61.6667H54.9993V58.3334Z" fill="white"/>
<path d="M54.9993 61.6667H51.666V65H54.9993V61.6667Z" fill="white"/>
<path d="M51.666 75V78.3333H54.9993C54.9993 77.4493 54.6482 76.6014 54.023 75.9763C53.3979 75.3512 52.5501 75 51.666 75Z" fill="white"/>
<path d="M55 78.3334H51.6667V80C51.6667 80.4421 51.8423 80.866 52.1548 81.1786C52.4674 81.4911 52.8913 81.6667 53.3333 81.6667C53.7754 81.6667 54.1993 81.4911 54.5118 81.1786C54.8244 80.866 55 80.4421 55 80" fill="white"/>
<path d="M53.3327 88.3333C54.2532 88.3333 54.9993 87.5871 54.9993 86.6667C54.9993 85.7462 54.2532 85 53.3327 85C52.4122 85 51.666 85.7462 51.666 86.6667C51.666 87.5871 52.4122 88.3333 53.3327 88.3333Z" fill="white"/>
<path d="M55 95V91.6667H53.3333C52.8913 91.6667 52.4674 91.8423 52.1548 92.1548C51.8423 92.4674 51.6667 92.8913 51.6667 93.3333C51.6667 93.7754 51.8423 94.1993 52.1548 94.5118C52.4674 94.8244 52.8913 95 53.3333 95" fill="white"/>
<path d="M55 5H58.3333V1.66667C57.4493 1.66667 56.6014 2.01785 55.9763 2.64298C55.3512 3.2681 55 4.11595 55 5Z" fill="white"/>
<path d="M58.3333 5H55V8.33333H58.3333V5Z" fill="white"/>
<path d="M55 15H58.3333V11.6667C57.4493 11.6667 56.6014 12.0179 55.9763 12.643C55.3512 13.2681 55 14.1159 55 15Z" fill="white"/>
<path d="M58.332 15H54.9987V16.6667C54.9987 17.1087 55.1743 17.5326 55.4869 17.8452C55.7994 18.1577 56.2233 18.3333 56.6654 18.3333C57.1074 18.3333 57.5313 18.1577 57.8439 17.8452C58.1564 17.5326 58.332 17.1087 58.332 16.6667" fill="white"/>
<path d="M56.6667 25C57.5871 25 58.3333 24.2538 58.3333 23.3334C58.3333 22.4129 57.5871 21.6667 56.6667 21.6667C55.7462 21.6667 55 22.4129 55 23.3334C55 24.2538 55.7462 25 56.6667 25Z" fill="white"/>
<path d="M55 28.3334V31.6667H58.3333C58.3333 30.7827 57.9821 29.9348 57.357 29.3097C56.7319 28.6846 55.8841 28.3334 55 28.3334Z" fill="white"/>
<path d="M58.3333 31.6667H55V35H58.3333V31.6667Z" fill="white"/>
<path d="M58.332 35H54.9987V36.6667C54.9987 37.1087 55.1743 37.5326 55.4869 37.8452C55.7994 38.1577 56.2233 38.3333 56.6654 38.3333C57.1074 38.3333 57.5313 38.1577 57.8439 37.8452C58.1564 37.5326 58.332 37.1087 58.332 36.6667" fill="white"/>
<path d="M55 45H58.3333V41.6667C57.4493 41.6667 56.6014 42.0179 55.9763 42.643C55.3512 43.2681 55 44.1159 55 45Z" fill="white"/>
<path d="M58.3333 45H55V48.3333H58.3333V45Z" fill="white"/>
<path d="M56.6667 55C57.5871 55 58.3333 54.2538 58.3333 53.3334C58.3333 52.4129 57.5871 51.6667 56.6667 51.6667C55.7462 51.6667 55 52.4129 55 53.3334C55 54.2538 55.7462 55 56.6667 55Z" fill="white"/>
<path d="M58.3333 61.6667H55V65H58.3333V61.6667Z" fill="white"/>
<path d="M58.3333 65H55V68.3333H58.3333V65Z" fill="white"/>
<path d="M58.3333 68.3334H55V71.6667H58.3333V68.3334Z" fill="white"/>
<path d="M58.332 75V71.6667H54.9987C54.9987 72.5507 55.3499 73.3986 55.975 74.0237C56.6001 74.6488 57.448 75 58.332 75Z" fill="white"/>
<path d="M55 91.6667V95H58.3333C58.3333 94.116 57.9821 93.2681 57.357 92.643C56.7319 92.0179 55.8841 91.6667 55 91.6667Z" fill="white"/>
<path d="M58.332 98.3334V95H54.9987C54.9987 95.8841 55.3499 96.7319 55.975 97.3571C56.6001 97.9822 57.448 98.3334 58.332 98.3334Z" fill="white"/>
<path d="M58.332 1.66669V5.00002H61.6654C61.6654 4.11597 61.3142 3.26812 60.6891 2.643C60.0639 2.01788 59.2161 1.66669 58.332 1.66669Z" fill="white"/>
<path d="M61.6654 5H58.332V8.33333H61.6654V5Z" fill="white"/>
<path d="M61.6654 8.33337H58.332V11.6667H61.6654V8.33337Z" fill="white"/>
<path d="M61.666 11.6667H58.3327V15C59.2167 15 60.0646 14.6488 60.6897 14.0237C61.3148 13.3986 61.666 12.5507 61.666 11.6667Z" fill="white"/>
<path d="M61.666 21.6667V18.3334H59.9993C59.5573 18.3334 59.1334 18.5089 58.8208 18.8215C58.5083 19.1341 58.3327 19.558 58.3327 20C58.3327 20.442 58.5083 20.866 58.8208 21.1785C59.1334 21.4911 59.5573 21.6667 59.9993 21.6667" fill="white"/>
<path d="M59.9987 28.3333C60.9192 28.3333 61.6654 27.5871 61.6654 26.6667C61.6654 25.7462 60.9192 25 59.9987 25C59.0782 25 58.332 25.7462 58.332 26.6667C58.332 27.5871 59.0782 28.3333 59.9987 28.3333Z" fill="white"/>
<path d="M58.332 31.6667V35H59.9987C60.4407 35 60.8646 34.8244 61.1772 34.5119C61.4898 34.1993 61.6654 33.7754 61.6654 33.3334C61.6654 32.8913 61.4898 32.4674 61.1772 32.1548C60.8646 31.8423 60.4407 31.6667 59.9987 31.6667" fill="white"/>
<path d="M61.6654 41.6667H58.332V45H61.6654V41.6667Z" fill="white"/>
<path d="M61.6654 45H58.332V48.3333H61.6654V45Z" fill="white"/>
<path d="M61.666 58.3334V55H59.9993C59.5573 55 59.1334 55.1756 58.8208 55.4882C58.5083 55.8008 58.3327 56.2247 58.3327 56.6667C58.3327 57.1087 58.5083 57.5327 58.8208 57.8452C59.1334 58.1578 59.5573 58.3334 59.9993 58.3334" fill="white"/>
<path d="M61.6654 61.6667H58.332V65H61.6654V61.6667Z" fill="white"/>
<path d="M58.332 71.6667V75H61.6654C61.6654 74.116 61.3142 73.2681 60.6891 72.643C60.0639 72.0179 59.2161 71.6667 58.332 71.6667Z" fill="white"/>
<path d="M61.6654 75H58.332V78.3333H61.6654V75Z" fill="white"/>
<path d="M61.6654 78.3334H58.332V81.6667H61.6654V78.3334Z" fill="white"/>
<path d="M61.666 85V81.6667H58.3327C58.3327 82.5507 58.6839 83.3986 59.309 84.0237C59.9341 84.6488 60.782 85 61.666 85Z" fill="white"/>
<path d="M61.6654 95H58.332V98.3333H61.6654V95Z" fill="white"/>
<path d="M61.666 18.3334V21.6667H64.9993C64.9993 20.7827 64.6482 19.9348 64.023 19.3097C63.3979 18.6846 62.5501 18.3334 61.666 18.3334Z" fill="white"/>
<path d="M65 21.6667H61.6667V23.3334C61.6667 23.7754 61.8423 24.1993 62.1548 24.5119C62.4674 24.8244 62.8913 25 63.3333 25C63.7754 25 64.1993 24.8244 64.5118 24.5119C64.8244 24.1993 65 23.7754 65 23.3334" fill="white"/>
<path d="M61.666 41.6667V45H64.9993C64.9993 44.116 64.6482 43.2681 64.023 42.643C63.3979 42.0179 62.5501 41.6667 61.666 41.6667Z" fill="white"/>
<path d="M64.9993 45H61.666V48.3333H64.9993V45Z" fill="white"/>
<path d="M61.666 55V58.3333H64.9993C64.9993 57.4493 64.6482 56.6014 64.023 55.9763C63.3979 55.3512 62.5501 55 61.666 55Z" fill="white"/>
<path d="M64.9993 58.3334H61.666V61.6667H64.9993V58.3334Z" fill="white"/>
<path d="M64.9993 61.6667H61.666V65H64.9993V61.6667Z" fill="white"/>
<path d="M64.9993 81.6667H61.666V85H64.9993V81.6667Z" fill="white"/>
<path d="M64.9993 85H61.666V88.3333H64.9993V85Z" fill="white"/>
<path d="M65 88.3334H61.6667V90C61.6667 90.4421 61.8423 90.866 62.1548 91.1786C62.4674 91.4911 62.8913 91.6667 63.3333 91.6667C63.7754 91.6667 64.1993 91.4911 64.5118 91.1786C64.8244 90.866 65 90.4421 65 90" fill="white"/>
<path d="M64.9993 95H61.666V98.3333H64.9993V95Z" fill="white"/>
<path d="M68.332 11.6667V8.33335H66.6654C66.2233 8.33335 65.7994 8.50895 65.4869 8.82151C65.1743 9.13407 64.9987 9.55799 64.9987 10C64.9987 10.442 65.1743 10.866 65.4869 11.1785C65.7994 11.4911 66.2233 11.6667 66.6654 11.6667" fill="white"/>
<path d="M65 28.3334H68.3333V25C67.4493 25 66.6014 25.3512 65.9763 25.9763C65.3512 26.6015 65 27.4493 65 28.3334Z" fill="white"/>
<path d="M68.3333 28.3334H65V31.6667H68.3333V28.3334Z" fill="white"/>
<path d="M68.332 35V31.6667H64.9987C64.9987 32.5507 65.3499 33.3986 65.975 34.0237C66.6001 34.6488 67.448 35 68.332 35Z" fill="white"/>
<path d="M66.6667 41.6667C67.5871 41.6667 68.3333 40.9205 68.3333 40C68.3333 39.0796 67.5871 38.3334 66.6667 38.3334C65.7462 38.3334 65 39.0796 65 40C65 40.9205 65.7462 41.6667 66.6667 41.6667Z" fill="white"/>
<path d="M68.3333 45H65V48.3333H68.3333V45Z" fill="white"/>
<path d="M68.332 51.6667V48.3334H64.9987C64.9987 49.2174 65.3499 50.0653 65.975 50.6904C66.6001 51.3155 67.448 51.6667 68.332 51.6667Z" fill="white"/>
<path d="M68.3333 58.3334H65V61.6667H68.3333V58.3334Z" fill="white"/>
<path d="M68.3333 61.6667H65V65H68.3333V61.6667Z" fill="white"/>
<path d="M68.3333 81.6667H65V85H68.3333V81.6667Z" fill="white"/>
<path d="M68.3333 85H65V88.3333H68.3333V85Z" fill="white"/>
<path d="M68.3333 95H65V98.3333H68.3333V95Z" fill="white"/>
<path d="M68.332 5H71.6654V3.33333C71.6654 2.89131 71.4898 2.46738 71.1772 2.15482C70.8646 1.84226 70.4407 1.66667 69.9987 1.66667C69.5567 1.66667 69.1327 1.84226 68.8202 2.15482C68.5076 2.46738 68.332 2.89131 68.332 3.33333" fill="white"/>
<path d="M71.6654 5H68.332V8.33333H71.6654V5Z" fill="white"/>
<path d="M71.6654 8.33337H68.332V11.6667H71.6654V8.33337Z" fill="white"/>
<path d="M71.666 11.6667H68.3327V13.3334C68.3327 13.7754 68.5083 14.1993 68.8208 14.5119C69.1334 14.8244 69.5573 15 69.9993 15C70.4414 15 70.8653 14.8244 71.1779 14.5119C71.4904 14.1993 71.666 13.7754 71.666 13.3334" fill="white"/>
<path d="M68.332 21.6667H71.6654V20C71.6654 19.558 71.4898 19.1341 71.1772 18.8215C70.8646 18.5089 70.4407 18.3334 69.9987 18.3334C69.5567 18.3334 69.1327 18.5089 68.8202 18.8215C68.5076 19.1341 68.332 19.558 68.332 20" fill="white"/>
<path d="M71.6654 21.6667H68.332V25H71.6654V21.6667Z" fill="white"/>
<path d="M71.6654 25H68.332V28.3333H71.6654V25Z" fill="white"/>
<path d="M71.6654 28.3334H68.332V31.6667H71.6654V28.3334Z" fill="white"/>
<path d="M71.6654 31.6667H68.332V35H71.6654V31.6667Z" fill="white"/>
<path d="M71.666 38.3334V35H68.3327C68.3327 35.8841 68.6839 36.7319 69.309 37.3571C69.9341 37.9822 70.782 38.3334 71.666 38.3334Z" fill="white"/>
<path d="M68.332 45H71.6654V43.3333C71.6654 42.8913 71.4898 42.4674 71.1772 42.1548C70.8646 41.8423 70.4407 41.6667 69.9987 41.6667C69.5567 41.6667 69.1327 41.8423 68.8202 42.1548C68.5076 42.4674 68.332 42.8913 68.332 43.3333" fill="white"/>
<path d="M71.6654 45H68.332V48.3333H71.6654V45Z" fill="white"/>
<path d="M71.6654 48.3334H68.332V51.6667H71.6654V48.3334Z" fill="white"/>
<path d="M71.6654 51.6667H68.332V55H71.6654V51.6667Z" fill="white"/>
<path d="M71.6654 55H68.332V58.3333H71.6654V55Z" fill="white"/>
<path d="M71.6654 58.3334H68.332V61.6667H71.6654V58.3334Z" fill="white"/>
<path d="M71.6654 61.6667H68.332V65H71.6654V61.6667Z" fill="white"/>
<path d="M68.332 71.6667H71.6654V68.3334C70.7813 68.3334 69.9335 68.6845 69.3083 69.3097C68.6832 69.9348 68.332 70.7826 68.332 71.6667Z" fill="white"/>
<path d="M71.6654 71.6667H68.332V75H71.6654V71.6667Z" fill="white"/>
<path d="M71.6654 75H68.332V78.3333H71.6654V75Z" fill="white"/>
<path d="M71.6654 78.3334H68.332V81.6667H71.6654V78.3334Z" fill="white"/>
<path d="M71.6654 81.6667H68.332V85H71.6654V81.6667Z" fill="white"/>
<path d="M71.666 85H68.3327V88.3333C69.2167 88.3333 70.0646 87.9821 70.6897 87.357C71.3148 86.7319 71.666 85.8841 71.666 85Z" fill="white"/>
<path d="M68.332 95H71.6654V93.3333C71.6654 92.8913 71.4898 92.4674 71.1772 92.1548C70.8646 91.8423 70.4407 91.6667 69.9987 91.6667C69.5567 91.6667 69.1328 91.8423 68.8202 92.1548C68.5076 92.4674 68.332 92.8913 68.332 93.3333" fill="white"/>
<path d="M71.6654 95H68.332V98.3333H71.6654V95Z" fill="white"/>
<path d="M71.666 28.3334V31.6667H73.3327C73.7747 31.6667 74.1986 31.4911 74.5112 31.1786C74.8238 30.866 74.9993 30.4421 74.9993 30C74.9993 29.558 74.8238 29.1341 74.5112 28.8215C74.1986 28.509 73.7747 28.3334 73.3327 28.3334" fill="white"/>
<path d="M74.9993 35H71.666V38.3333H74.9993V35Z" fill="white"/>
<path d="M74.9993 51.6667H71.666V55H74.9993V51.6667Z" fill="white"/>
<path d="M74.9993 55H71.666V58.3333H74.9993V55Z" fill="white"/>
<path d="M74.9993 58.3334H71.666V61.6667H74.9993V58.3334Z" fill="white"/>
<path d="M74.9993 61.6667H71.666V65H74.9993V61.6667Z" fill="white"/>
<path d="M74.9993 68.3334H71.666V71.6667H74.9993V68.3334Z" fill="white"/>
<path d="M74.9993 81.6667H71.666V85H74.9993V81.6667Z" fill="white"/>
<path d="M73.3327 91.6667C74.2532 91.6667 74.9993 90.9205 74.9993 90C74.9993 89.0796 74.2532 88.3334 73.3327 88.3334C72.4122 88.3334 71.666 89.0796 71.666 90C71.666 90.9205 72.4122 91.6667 73.3327 91.6667Z" fill="white"/>
<path d="M74.9993 95H71.666V98.3333H74.9993V95Z" fill="white"/>
<path d="M75 35H78.3333V31.6667C77.4493 31.6667 76.6014 32.0179 75.9763 32.643C75.3512 33.2681 75 34.1159 75 35Z" fill="white"/>
<path d="M78.332 35H74.9987V38.3333C75.8828 38.3333 76.7306 37.9821 77.3557 37.357C77.9808 36.7319 78.332 35.8841 78.332 35Z" fill="white"/>
<path d="M75 48.3334H78.3333V45C77.4493 45 76.6014 45.3512 75.9763 45.9763C75.3512 46.6015 75 47.4493 75 48.3334Z" fill="white"/>
<path d="M78.3333 48.3334H75V51.6667H78.3333V48.3334Z" fill="white"/>
<path d="M78.3333 51.6667H75V55H78.3333V51.6667Z" fill="white"/>
<path d="M75 61.6667V65H78.3333C78.3333 64.116 77.9821 63.2681 77.357 62.643C76.7319 62.0179 75.8841 61.6667 75 61.6667Z" fill="white"/>
<path d="M78.3333 65H75V68.3333H78.3333V65Z" fill="white"/>
<path d="M78.3333 68.3334H75V71.6667H78.3333V68.3334Z" fill="white"/>
<path d="M76.6667 78.3333C77.5871 78.3333 78.3333 77.5871 78.3333 76.6667C78.3333 75.7462 77.5871 75 76.6667 75C75.7462 75 75 75.7462 75 76.6667C75 77.5871 75.7462 78.3333 76.6667 78.3333Z" fill="white"/>
<path d="M78.3333 81.6667H75V85H78.3333V81.6667Z" fill="white"/>
<path d="M75 95H78.3333V91.6667C77.4493 91.6667 76.6014 92.0179 75.9763 92.643C75.3512 93.2681 75 94.1159 75 95Z" fill="white"/>
<path d="M78.332 95H74.9987V98.3333C75.8828 98.3333 76.7306 97.9821 77.3557 97.357C77.9808 96.7319 78.332 95.8841 78.332 95Z" fill="white"/>
<path d="M78.332 31.6667V35H79.9987C80.4407 35 80.8646 34.8244 81.1772 34.5119C81.4898 34.1993 81.6654 33.7754 81.6654 33.3334C81.6654 32.8913 81.4898 32.4674 81.1772 32.1548C80.8646 31.8423 80.4407 31.6667 79.9987 31.6667" fill="white"/>
<path d="M78.332 45H81.6654V43.3333C81.6654 42.8913 81.4898 42.4674 81.1772 42.1548C80.8646 41.8423 80.4407 41.6667 79.9987 41.6667C79.5567 41.6667 79.1327 41.8423 78.8202 42.1548C78.5076 42.4674 78.332 42.8913 78.332 43.3333" fill="white"/>
<path d="M81.666 45H78.3327V48.3333C79.2167 48.3333 80.0646 47.9821 80.6897 47.357C81.3148 46.7319 81.666 45.8841 81.666 45Z" fill="white"/>
<path d="M78.332 51.6667V55H81.6654C81.6654 54.116 81.3142 53.2681 80.6891 52.643C80.0639 52.0179 79.2161 51.6667 78.332 51.6667Z" fill="white"/>
<path d="M81.666 58.3334V55H78.3327C78.3327 55.8841 78.6839 56.7319 79.309 57.3571C79.9341 57.9822 80.782 58.3334 81.666 58.3334Z" fill="white"/>
<path d="M81.6654 65H78.332V68.3333H81.6654V65Z" fill="white"/>
<path d="M81.6654 68.3334H78.332V71.6667H81.6654V68.3334Z" fill="white"/>
<path d="M81.6654 81.6667H78.332V85H81.6654V81.6667Z" fill="white"/>
<path d="M81.666 85H78.3327V86.6667C78.3327 87.1087 78.5083 87.5326 78.8208 87.8452C79.1334 88.1577 79.5573 88.3333 79.9993 88.3333C80.4414 88.3333 80.8653 88.1577 81.1779 87.8452C81.4904 87.5326 81.666 87.1087 81.666 86.6667" fill="white"/>
<path d="M78.332 91.6667V95H79.9987C80.4407 95 80.8646 94.8244 81.1772 94.5119C81.4898 94.1993 81.6654 93.7754 81.6654 93.3334C81.6654 92.8913 81.4898 92.4674 81.1772 92.1548C80.8646 91.8423 80.4407 91.6667 79.9987 91.6667" fill="white"/>
<path d="M83.3327 31.6667C84.2532 31.6667 84.9993 30.9205 84.9993 30C84.9993 29.0796 84.2532 28.3334 83.3327 28.3334C82.4122 28.3334 81.666 29.0796 81.666 30C81.666 30.9205 82.4122 31.6667 83.3327 31.6667Z" fill="white"/>
<path d="M85 41.6667V38.3334H83.3333C82.8913 38.3334 82.4674 38.5089 82.1548 38.8215C81.8423 39.1341 81.6667 39.558 81.6667 40C81.6667 40.442 81.8423 40.866 82.1548 41.1785C82.4674 41.4911 82.8913 41.6667 83.3333 41.6667" fill="white"/>
<path d="M81.666 55V58.3333H83.3327C83.7747 58.3333 84.1986 58.1577 84.5112 57.8452C84.8238 57.5326 84.9993 57.1087 84.9993 56.6667C84.9993 56.2246 84.8238 55.8007 84.5112 55.4882C84.1986 55.1756 83.7747 55 83.3327 55" fill="white"/>
<path d="M81.666 65V68.3333H84.9993C84.9993 67.4493 84.6482 66.6014 84.023 65.9763C83.3979 65.3512 82.5501 65 81.666 65Z" fill="white"/>
<path d="M84.9993 68.3334H81.666V71.6667H84.9993V68.3334Z" fill="white"/>
<path d="M84.9993 71.6667H81.666V75H84.9993V71.6667Z" fill="white"/>
<path d="M84.9993 75H81.666V78.3333H84.9993V75Z" fill="white"/>
<path d="M84.9993 78.3334H81.666V81.6667H84.9993V78.3334Z" fill="white"/>
<path d="M85 81.6667H81.6667V85C82.5507 85 83.3986 84.6488 84.0237 84.0237C84.6488 83.3986 85 82.5507 85 81.6667Z" fill="white"/>
<path d="M85 35H88.3333V31.6667C87.4493 31.6667 86.6014 32.0179 85.9763 32.643C85.3512 33.2681 85 34.1159 85 35Z" fill="white"/>
<path d="M88.3333 35H85V38.3333H88.3333V35Z" fill="white"/>
<path d="M88.3333 38.3334H85V41.6667H88.3333V38.3334Z" fill="white"/>
<path d="M88.332 45V41.6667H84.9987C84.9987 42.5507 85.3499 43.3986 85.975 44.0237C86.6001 44.6488 87.448 45 88.332 45Z" fill="white"/>
<path d="M86.6667 51.6667C87.5871 51.6667 88.3333 50.9205 88.3333 50C88.3333 49.0796 87.5871 48.3334 86.6667 48.3334C85.7462 48.3334 85 49.0796 85 50C85 50.9205 85.7462 51.6667 86.6667 51.6667Z" fill="white"/>
<path d="M85 61.6667H88.3333V58.3334C87.4493 58.3334 86.6014 58.6845 85.9763 59.3097C85.3512 59.9348 85 60.7826 85 61.6667Z" fill="white"/>
<path d="M88.332 65V61.6667H84.9987C84.9987 62.5507 85.3499 63.3986 85.975 64.0237C86.6001 64.6488 87.448 65 88.332 65Z" fill="white"/>
<path d="M85 78.3334V81.6667H86.6667C87.1087 81.6667 87.5326 81.4911 87.8452 81.1786C88.1577 80.866 88.3333 80.4421 88.3333 80C88.3333 79.558 88.1577 79.1341 87.8452 78.8215C87.5326 78.509 87.1087 78.3334 86.6667 78.3334" fill="white"/>
<path d="M88.332 95V91.6667H86.6654C86.2233 91.6667 85.7994 91.8423 85.4869 92.1548C85.1743 92.4674 84.9987 92.8913 84.9987 93.3333C84.9987 93.7754 85.1743 94.1993 85.4869 94.5118C85.7994 94.8244 86.2233 95 86.6654 95" fill="white"/>
<path d="M88.332 31.6667V35H89.9987C90.4407 35 90.8646 34.8244 91.1772 34.5119C91.4898 34.1993 91.6654 33.7754 91.6654 33.3334C91.6654 32.8913 91.4898 32.4674 91.1772 32.1548C90.8646 31.8423 90.4407 31.6667 89.9987 31.6667" fill="white"/>
<path d="M88.332 41.6667V45H91.6654C91.6654 44.116 91.3142 43.2681 90.6891 42.643C90.0639 42.0179 89.2161 41.6667 88.332 41.6667Z" fill="white"/>
<path d="M91.666 45H88.3327V46.6667C88.3327 47.1087 88.5083 47.5326 88.8208 47.8452C89.1334 48.1577 89.5573 48.3333 89.9993 48.3333C90.4414 48.3333 90.8653 48.1577 91.1779 47.8452C91.4904 47.5326 91.666 47.1087 91.666 46.6667" fill="white"/>
<path d="M91.666 55V51.6667H89.9993C89.5573 51.6667 89.1334 51.8423 88.8208 52.1548C88.5083 52.4674 88.3327 52.8913 88.3327 53.3333C88.3327 53.7754 88.5083 54.1993 88.8208 54.5118C89.1334 54.8244 89.5573 55 89.9993 55" fill="white"/>
<path d="M91.6654 58.3334H88.332V61.6667H91.6654V58.3334Z" fill="white"/>
<path d="M91.6654 61.6667H88.332V65H91.6654V61.6667Z" fill="white"/>
<path d="M91.6654 65H88.332V68.3333H91.6654V65Z" fill="white"/>
<path d="M91.6654 68.3334H88.332V71.6667H91.6654V68.3334Z" fill="white"/>
<path d="M91.666 75V71.6667H88.3327C88.3327 72.5507 88.6839 73.3986 89.309 74.0237C89.9341 74.6488 90.782 75 91.666 75Z" fill="white"/>
<path d="M89.9987 88.3333C90.9192 88.3333 91.6654 87.5871 91.6654 86.6667C91.6654 85.7462 90.9192 85 89.9987 85C89.0782 85 88.332 85.7462 88.332 86.6667C88.332 87.5871 89.0782 88.3333 89.9987 88.3333Z" fill="white"/>
<path d="M91.6654 91.6667H88.332V95H91.6654V91.6667Z" fill="white"/>
<path d="M91.666 98.3334V95H88.3327C88.3327 95.8841 88.6839 96.7319 89.309 97.3571C89.9341 97.9822 90.782 98.3334 91.666 98.3334Z" fill="white"/>
<path d="M93.3327 31.6667C94.2532 31.6667 94.9993 30.9205 94.9993 30C94.9993 29.0796 94.2532 28.3334 93.3327 28.3334C92.4122 28.3334 91.666 29.0796 91.666 30C91.666 30.9205 92.4122 31.6667 93.3327 31.6667Z" fill="white"/>
<path d="M93.3327 41.6667C94.2532 41.6667 94.9993 40.9205 94.9993 40C94.9993 39.0796 94.2532 38.3334 93.3327 38.3334C92.4122 38.3334 91.666 39.0796 91.666 40C91.666 40.9205 92.4122 41.6667 93.3327 41.6667Z" fill="white"/>
<path d="M91.666 51.6667H94.9993V48.3334C94.1153 48.3334 93.2674 48.6845 92.6423 49.3097C92.0172 49.9348 91.666 50.7826 91.666 51.6667Z" fill="white"/>
<path d="M94.9993 51.6667H91.666V55H94.9993V51.6667Z" fill="white"/>
<path d="M94.9993 55H91.666V58.3333H94.9993V55Z" fill="white"/>
<path d="M94.9993 58.3334H91.666V61.6667H94.9993V58.3334Z" fill="white"/>
<path d="M94.9993 61.6667H91.666V65H94.9993V61.6667Z" fill="white"/>
<path d="M94.9993 65H91.666V68.3333H94.9993V65Z" fill="white"/>
<path d="M94.9993 68.3334H91.666V71.6667H94.9993V68.3334Z" fill="white"/>
<path d="M94.9993 71.6667H91.666V75H94.9993V71.6667Z" fill="white"/>
<path d="M94.9993 75H91.666V78.3333H94.9993V75Z" fill="white"/>
<path d="M95 78.3334H91.6667V80C91.6667 80.4421 91.8423 80.866 92.1548 81.1785C92.4674 81.4911 92.8913 81.6667 93.3333 81.6667C93.7754 81.6667 94.1993 81.4911 94.5118 81.1785C94.8244 80.866 95 80.4421 95 80" fill="white"/>
<path d="M94.9993 91.6667H91.666V95H94.9993V91.6667Z" fill="white"/>
<path d="M95 95H91.6667V98.3333C92.5507 98.3333 93.3986 97.9821 94.0237 97.357C94.6488 96.7319 95 95.8841 95 95Z" fill="white"/>
<path d="M96.6667 38.3333C97.5871 38.3333 98.3333 37.5871 98.3333 36.6667C98.3333 35.7462 97.5871 35 96.6667 35C95.7462 35 95 35.7462 95 36.6667C95 37.5871 95.7462 38.3333 96.6667 38.3333Z" fill="white"/>
<path d="M95 48.3334H98.3333V46.6667C98.3333 46.2247 98.1577 45.8008 97.8452 45.4882C97.5326 45.1756 97.1087 45 96.6667 45C96.2246 45 95.8007 45.1756 95.4882 45.4882C95.1756 45.8008 95 46.2247 95 46.6667" fill="white"/>
<path d="M98.332 48.3334H94.9987V51.6667C95.8828 51.6667 96.7306 51.3155 97.3557 50.6904C97.9808 50.0653 98.332 49.2174 98.332 48.3334Z" fill="white"/>
<path d="M95 55V58.3333H98.3333C98.3333 57.4493 97.9821 56.6014 97.357 55.9763C96.7319 55.3512 95.8841 55 95 55Z" fill="white"/>
<path d="M98.332 58.3334H94.9987V61.6667C95.8828 61.6667 96.7306 61.3155 97.3557 60.6904C97.9808 60.0653 98.332 59.2174 98.332 58.3334Z" fill="white"/>
<path d="M95 68.3334V71.6667H98.3333C98.3333 70.7827 97.9821 69.9348 97.357 69.3097C96.7319 68.6846 95.8841 68.3334 95 68.3334Z" fill="white"/>
<path d="M98.3333 71.6667H95V75H98.3333V71.6667Z" fill="white"/>
<path d="M98.332 75H94.9987V78.3333C95.8828 78.3333 96.7306 77.9821 97.3557 77.357C97.9808 76.7319 98.332 75.8841 98.332 75Z" fill="white"/>
<path d="M95 85H98.3333V83.3333C98.3333 82.8913 98.1577 82.4674 97.8452 82.1548C97.5326 81.8423 97.1087 81.6667 96.6667 81.6667C96.2246 81.6667 95.8007 81.8423 95.4882 82.1548C95.1756 82.4674 95 82.8913 95 83.3333" fill="white"/>
<path d="M98.332 85H94.9987V86.6667C94.9987 87.1087 95.1743 87.5326 95.4869 87.8452C95.7994 88.1577 96.2233 88.3333 96.6654 88.3333C97.1074 88.3333 97.5313 88.1577 97.8439 87.8452C98.1564 87.5326 98.332 87.1087 98.332 86.6667" fill="white"/>
<path d="M95 91.6667V95H96.6667C97.1087 95 97.5326 94.8244 97.8452 94.5119C98.1577 94.1993 98.3333 93.7754 98.3333 93.3334C98.3333 92.8913 98.1577 92.4674 97.8452 92.1548C97.5326 91.8423 97.1087 91.6667 96.6667 91.6667" fill="white"/>
<path d="M1.66602 5H4.99935V1.66667C4.11529 1.66667 3.26745 2.01786 2.64233 2.64298C2.01721 3.2681 1.66602 4.11595 1.66602 5Z" fill="white"/>
<path d="M4.99935 5H1.66602V8.33333H4.99935V5Z" fill="white"/>
<path d="M4.99935 8.33337H1.66602V11.6667H4.99935V8.33337Z" fill="white"/>
<path d="M4.99935 11.6667H1.66602V15H4.99935V11.6667Z" fill="white"/>
<path d="M4.99935 15H1.66602V18.3333H4.99935V15Z" fill="white"/>
<path d="M4.99935 18.3334H1.66602V21.6667H4.99935V18.3334Z" fill="white"/>
<path d="M5 25V21.6667H1.66667C1.66667 22.5507 2.01786 23.3986 2.64298 24.0237C3.2681 24.6488 4.11595 25 5 25Z" fill="white"/>
<path d="M8.33333 1.66669H5V5.00002H8.33333V1.66669Z" fill="white"/>
<path d="M8.33333 21.6667H5V25H8.33333V21.6667Z" fill="white"/>
<path d="M11.6654 1.66669H8.33203V5.00002H11.6654V1.66669Z" fill="white"/>
<path d="M11.6654 21.6667H8.33203V25H11.6654V21.6667Z" fill="white"/>
<path d="M14.9993 1.66669H11.666V5.00002H14.9993V1.66669Z" fill="white"/>
<path d="M14.9993 21.6667H11.666V25H14.9993V21.6667Z" fill="white"/>
<path d="M18.3333 1.66669H15V5.00002H18.3333V1.66669Z" fill="white"/>
<path d="M18.3333 21.6667H15V25H18.3333V21.6667Z" fill="white"/>
<path d="M21.6654 1.66669H18.332V5.00002H21.6654V1.66669Z" fill="white"/>
<path d="M21.6654 21.6667H18.332V25H21.6654V21.6667Z" fill="white"/>
<path d="M21.666 1.66669V5.00002H24.9993C24.9993 4.11597 24.6482 3.26812 24.023 2.643C23.3979 2.01788 22.5501 1.66669 21.666 1.66669Z" fill="white"/>
<path d="M24.9993 5H21.666V8.33333H24.9993V5Z" fill="white"/>
<path d="M24.9993 8.33337H21.666V11.6667H24.9993V8.33337Z" fill="white"/>
<path d="M24.9993 11.6667H21.666V15H24.9993V11.6667Z" fill="white"/>
<path d="M24.9993 15H21.666V18.3333H24.9993V15Z" fill="white"/>
<path d="M24.9993 18.3334H21.666V21.6667H24.9993V18.3334Z" fill="white"/>
<path d="M25 21.6667H21.6667V25C22.5507 25 23.3986 24.6488 24.0237 24.0237C24.6488 23.3986 25 22.5507 25 21.6667Z" fill="white"/>
<path d="M8.33398 11.6666H11.6673V8.33329C10.7833 8.33329 9.93542 8.68448 9.3103 9.3096C8.68517 9.93472 8.33398 10.7826 8.33398 11.6666Z" fill="white"/>
<path d="M11.6673 11.6666H8.33398V15H11.6673V11.6666Z" fill="white"/>
<path d="M11.668 18.3333V15H8.33464C8.33464 15.884 8.68583 16.7319 9.31095 17.357C9.93607 17.9821 10.7839 18.3333 11.668 18.3333Z" fill="white"/>
<path d="M15.0013 8.33331H11.668V11.6666H15.0013V8.33331Z" fill="white"/>
<path d="M15.0013 11.6666H11.668V15H15.0013V11.6666Z" fill="white"/>
<path d="M15.0013 15H11.668V18.3333H15.0013V15Z" fill="white"/>
<path d="M15 8.33331V11.6666H18.3333C18.3333 10.7826 17.9821 9.93474 17.357 9.30962C16.7319 8.6845 15.8841 8.33331 15 8.33331Z" fill="white"/>
<path d="M18.3333 11.6666H15V15H18.3333V11.6666Z" fill="white"/>
<path d="M18.334 15H15.0007V18.3333C15.8847 18.3333 16.7326 17.9821 17.3577 17.357C17.9828 16.7319 18.334 15.8841 18.334 15Z" fill="white"/>
<path d="M75 5H78.3333V1.66667C77.4493 1.66667 76.6014 2.01785 75.9763 2.64298C75.3512 3.2681 75 4.11595 75 5Z" fill="white"/>
<path d="M78.3333 5H75V8.33333H78.3333V5Z" fill="white"/>
<path d="M78.3333 8.33337H75V11.6667H78.3333V8.33337Z" fill="white"/>
<path d="M78.3333 11.6667H75V15H78.3333V11.6667Z" fill="white"/>
<path d="M78.3333 15H75V18.3333H78.3333V15Z" fill="white"/>
<path d="M78.3333 18.3334H75V21.6667H78.3333V18.3334Z" fill="white"/>
<path d="M78.334 25V21.6667H75.0007C75.0007 22.5507 75.3518 23.3986 75.977 24.0237C76.6021 24.6488 77.4499 25 78.334 25Z" fill="white"/>
<path d="M81.6673 1.66669H78.334V5.00002H81.6673V1.66669Z" fill="white"/>
<path d="M81.6673 21.6667H78.334V25H81.6673V21.6667Z" fill="white"/>
<path d="M84.9993 1.66669H81.666V5.00002H84.9993V1.66669Z" fill="white"/>
<path d="M84.9993 21.6667H81.666V25H84.9993V21.6667Z" fill="white"/>
<path d="M88.3333 1.66669H85V5.00002H88.3333V1.66669Z" fill="white"/>
<path d="M88.3333 21.6667H85V25H88.3333V21.6667Z" fill="white"/>
<path d="M91.6673 1.66669H88.334V5.00002H91.6673V1.66669Z" fill="white"/>
<path d="M91.6673 21.6667H88.334V25H91.6673V21.6667Z" fill="white"/>
<path d="M94.9993 1.66669H91.666V5.00002H94.9993V1.66669Z" fill="white"/>
<path d="M94.9993 21.6667H91.666V25H94.9993V21.6667Z" fill="white"/>
<path d="M95 1.66669V5.00002H98.3333C98.3333 4.11597 97.9821 3.26812 97.357 2.643C96.7319 2.01788 95.8841 1.66669 95 1.66669Z" fill="white"/>
<path d="M98.3333 5H95V8.33333H98.3333V5Z" fill="white"/>
<path d="M98.3333 8.33337H95V11.6667H98.3333V8.33337Z" fill="white"/>
<path d="M98.3333 11.6667H95V15H98.3333V11.6667Z" fill="white"/>
<path d="M98.3333 15H95V18.3333H98.3333V15Z" fill="white"/>
<path d="M98.3333 18.3334H95V21.6667H98.3333V18.3334Z" fill="white"/>
<path d="M98.334 21.6667H95.0007V25C95.8847 25 96.7326 24.6488 97.3577 24.0237C97.9828 23.3986 98.334 22.5507 98.334 21.6667Z" fill="white"/>
<path d="M81.666 11.6666H84.9993V8.33329C84.1153 8.33329 83.2674 8.68448 82.6423 9.3096C82.0172 9.93472 81.666 10.7826 81.666 11.6666Z" fill="white"/>
<path d="M84.9993 11.6666H81.666V15H84.9993V11.6666Z" fill="white"/>
<path d="M85 18.3333V15H81.6667C81.6667 15.884 82.0179 16.7319 82.643 17.357C83.2681 17.9821 84.1159 18.3333 85 18.3333Z" fill="white"/>
<path d="M88.3333 8.33331H85V11.6666H88.3333V8.33331Z" fill="white"/>
<path d="M88.3333 11.6666H85V15H88.3333V11.6666Z" fill="white"/>
<path d="M88.3333 15H85V18.3333H88.3333V15Z" fill="white"/>
<path d="M88.332 8.33331V11.6666H91.6654C91.6654 10.7826 91.3142 9.93474 90.6891 9.30962C90.0639 8.6845 89.2161 8.33331 88.332 8.33331Z" fill="white"/>
<path d="M91.6654 11.6666H88.332V15H91.6654V11.6666Z" fill="white"/>
<path d="M91.666 15H88.3327V18.3333C89.2167 18.3333 90.0646 17.9821 90.6897 17.357C91.3148 16.7319 91.666 15.8841 91.666 15Z" fill="white"/>
<path d="M1.66602 78.3333H4.99935V75C4.11529 75 3.26744 75.3512 2.64232 75.9763C2.0172 76.6014 1.66602 77.4493 1.66602 78.3333Z" fill="white"/>
<path d="M4.99935 78.3333H1.66602V81.6666H4.99935V78.3333Z" fill="white"/>
<path d="M4.99935 81.6667H1.66602V85H4.99935V81.6667Z" fill="white"/>
<path d="M4.99935 85H1.66602V88.3333H4.99935V85Z" fill="white"/>
<path d="M4.99935 88.3333H1.66602V91.6666H4.99935V88.3333Z" fill="white"/>
<path d="M4.99935 91.6667H1.66602V95H4.99935V91.6667Z" fill="white"/>
<path d="M5 98.3333V95H1.66667C1.66667 95.884 2.01786 96.7319 2.64298 97.357C3.2681 97.9821 4.11595 98.3333 5 98.3333Z" fill="white"/>
<path d="M8.33333 75H5V78.3333H8.33333V75Z" fill="white"/>
<path d="M8.33333 95H5V98.3333H8.33333V95Z" fill="white"/>
<path d="M11.6654 75H8.33203V78.3333H11.6654V75Z" fill="white"/>
<path d="M11.6654 95H8.33203V98.3333H11.6654V95Z" fill="white"/>
<path d="M14.9993 75H11.666V78.3333H14.9993V75Z" fill="white"/>
<path d="M14.9993 95H11.666V98.3333H14.9993V95Z" fill="white"/>
<path d="M18.3333 75H15V78.3333H18.3333V75Z" fill="white"/>
<path d="M18.3333 95H15V98.3333H18.3333V95Z" fill="white"/>
<path d="M21.6654 75H18.332V78.3333H21.6654V75Z" fill="white"/>
<path d="M21.6654 95H18.332V98.3333H21.6654V95Z" fill="white"/>
<path d="M21.666 75V78.3333H24.9993C24.9993 77.4493 24.6482 76.6014 24.023 75.9763C23.3979 75.3512 22.5501 75 21.666 75Z" fill="white"/>
<path d="M24.9993 78.3333H21.666V81.6666H24.9993V78.3333Z" fill="white"/>
<path d="M24.9993 81.6667H21.666V85H24.9993V81.6667Z" fill="white"/>
<path d="M24.9993 85H21.666V88.3333H24.9993V85Z" fill="white"/>
<path d="M24.9993 88.3333H21.666V91.6666H24.9993V88.3333Z" fill="white"/>
<path d="M24.9993 91.6667H21.666V95H24.9993V91.6667Z" fill="white"/>
<path d="M25 95H21.6667V98.3333C22.5507 98.3333 23.3986 97.9821 24.0237 97.357C24.6488 96.7319 25 95.8841 25 95Z" fill="white"/>
<path d="M8.33398 85H11.6673V81.6667C10.7833 81.6667 9.93541 82.0179 9.31029 82.643C8.68517 83.2681 8.33398 84.1159 8.33398 85Z" fill="white"/>
<path d="M11.6673 85H8.33398V88.3333H11.6673V85Z" fill="white"/>
<path d="M11.668 91.6667V88.3334H8.33464C8.33464 89.2174 8.68583 90.0653 9.31095 90.6904C9.93607 91.3155 10.7839 91.6667 11.668 91.6667Z" fill="white"/>
<path d="M15.0013 81.6667H11.668V85H15.0013V81.6667Z" fill="white"/>
<path d="M15.0013 85H11.668V88.3333H15.0013V85Z" fill="white"/>
<path d="M15.0013 88.3334H11.668V91.6667H15.0013V88.3334Z" fill="white"/>
<path d="M15 81.6667V85H18.3333C18.3333 84.116 17.9821 83.2681 17.357 82.643C16.7319 82.0179 15.8841 81.6667 15 81.6667Z" fill="white"/>
<path d="M18.3333 85H15V88.3333H18.3333V85Z" fill="white"/>
<path d="M18.334 88.3334H15.0007V91.6667C15.8847 91.6667 16.7326 91.3155 17.3577 90.6904C17.9828 90.0653 18.334 89.2174 18.334 88.3334Z" fill="white"/>
</svg>
