<svg width="208" height="31" viewBox="0 0 208 31" fill="none" xmlns="http://www.w3.org/2000/svg">
<path d="M57.7846 16.4381C57.7833 16.5234 57.7139 16.5914 57.6286 16.5901L35.1393 16.3074C18.1246 15.2781 6.10727 5.20208 5.98727 5.10074C5.92327 5.04608 5.91527 4.94741 5.96993 4.88341C6.02593 4.81808 6.12193 4.81008 6.18726 4.86608C6.30593 4.96608 18.2499 14.9754 35.1513 15.9994L57.6326 16.2821C57.7179 16.2834 57.7859 16.3527 57.7846 16.4381Z" fill="white"/>
<path d="M55.0188 16.2805C51.8095 15.4259 49.0188 13.1179 47.5775 10.1259C46.2295 7.32852 46.0508 4.09119 44.7988 1.24986C47.4988 2.71786 48.9988 5.70319 50.2602 8.50586C51.5215 11.3085 52.7055 14.2565 55.0188 16.2805Z" fill="white"/>
<path d="M47.1655 16.1822C45.2495 16.1875 43.4988 14.9662 42.3668 13.4195C41.2362 11.8728 40.6148 10.0222 39.9935 8.21018C39.3722 6.39685 38.7122 4.55285 37.5215 3.05151C39.9242 4.10485 41.8375 5.97818 42.8882 8.38218C43.5002 9.78351 43.8015 11.3022 44.3602 12.7262C44.9175 14.1515 45.7842 15.5248 47.1655 16.1822Z" fill="white"/>
<path d="M40.4929 16.2779C38.5076 15.2539 36.4756 14.1952 34.9756 12.5392C34.0369 11.5032 33.3449 10.2726 32.6609 9.05257C31.8902 7.68057 31.1209 6.30723 30.3516 4.93523C32.0022 5.39523 33.2396 6.72323 34.2889 8.07923C35.3382 9.43523 36.1289 10.9699 37.0489 12.4166C37.9676 13.8646 39.0302 15.3832 40.4929 16.2779Z" fill="white"/>
<path d="M33.9841 15.9752C32.3614 15.7925 30.8974 14.8632 29.7574 13.6925C28.6174 12.5218 27.7574 11.1138 26.8881 9.73117C26.0174 8.3485 25.1161 6.9605 23.9121 5.85517C25.9521 6.66717 28.0321 7.45783 29.3601 9.2045C30.2174 10.3312 30.6521 11.7112 31.2601 12.9898C31.8668 14.2672 32.6548 15.4885 33.9841 15.9752Z" fill="white"/>
<path d="M27.7773 15.1563C25.6013 14.3403 23.9226 12.5549 22.6373 10.6203C21.3506 8.68426 20.3786 6.55626 19.1133 4.60692C20.9186 5.33759 22.4653 6.73759 23.5093 8.38159C24.2399 9.53092 24.7106 10.8216 25.3159 12.0416C25.9213 13.2603 26.6226 14.4363 27.7773 15.1563Z" fill="white"/>
<path d="M22.2758 13.7244C20.7332 12.7924 19.5292 11.3778 18.6025 9.83377C17.6745 8.28843 17.0052 6.60577 16.3398 4.9311C17.5332 5.12843 18.4878 6.1591 19.1092 7.19643C19.7318 8.2351 20.0625 9.4151 20.4572 10.5578C20.8518 11.7018 21.4212 12.8684 22.2758 13.7244Z" fill="white"/>
<path d="M16.2426 11.121C14.8199 10.6196 13.9639 9.17565 13.4119 7.77031C12.8613 6.36498 12.4666 4.84498 11.4746 3.70631C13.0013 4.02631 14.3373 5.12898 14.8919 6.58631C15.4693 8.10231 15.1946 9.88231 16.2426 11.121Z" fill="white"/>
<path d="M11.027 8.3216C9.86171 7.66694 9.36171 6.25894 9.12705 4.94427C8.89105 3.62827 8.80971 2.23627 8.12305 1.0896C9.05505 1.19894 9.75505 1.99894 10.1017 2.87094C10.447 3.74294 10.4737 4.70427 10.5084 5.6416C10.543 6.58027 10.635 7.4696 11.027 8.3216Z" fill="white"/>
<path d="M7.78048 6.22266C6.94848 5.492 6.74982 4.28933 6.66582 3.18533C6.58315 2.08266 6.53915 0.901331 5.89648 -2.38419e-06C7.08182 0.333331 7.82048 1.476 8.01782 2.69066C8.21515 3.90533 8.04582 5.02133 7.78048 6.22266Z" fill="white"/>
<path d="M6.36967 5.39255C5.22967 5.17788 4.435 4.15121 3.86833 3.13921C3.303 2.12721 2.81233 1.00721 1.875 0.324546C2.72433 0.13788 3.55767 0.556547 4.18833 1.15388C4.82033 1.74988 5.24033 2.53121 5.64833 3.29921C6.05633 4.06455 6.463 4.82988 6.86967 5.59388C6.63367 5.49388 6.62167 5.44055 6.36967 5.39255Z" fill="white"/>
<path d="M54.8084 16.4947C52.687 16.8427 50.7364 18.1267 49.5764 19.936C48.5364 21.5587 48.1444 23.4974 47.651 25.36C47.1577 27.2227 46.4897 29.14 45.0684 30.4414C47.7057 29.216 49.675 26.94 50.6164 24.188C51.1164 22.7254 51.3004 21.1667 51.8324 19.716C52.3644 18.264 53.3297 16.944 54.8084 16.4947Z" fill="white"/>
<path d="M47.8694 16.3001C44.9641 16.6428 42.3281 18.7028 41.2948 21.4388C40.7574 22.8615 40.6348 24.4028 40.3214 25.8908C40.0081 27.3801 39.4494 28.9041 38.2734 29.8708C39.9294 29.3575 41.2614 28.2321 42.1348 26.7348C42.8294 25.5441 43.1548 24.1801 43.4668 22.8361C43.7774 21.4935 44.0908 20.1281 44.7614 18.9241C45.4334 17.7201 46.5188 16.5748 47.8694 16.3001Z" fill="white"/>
<path d="M41.3583 16.1998C38.617 17.2798 36.405 19.6278 35.489 22.4291C35.1156 23.5731 34.9503 24.7758 34.5943 25.9251C34.237 27.0758 33.649 28.2131 32.6543 28.8891C34.3996 28.4531 35.6716 27.0464 36.5156 25.4558C37.3583 23.8651 37.8063 22.1011 38.4476 20.4184C39.089 18.7371 39.8876 17.2371 41.3583 16.1998Z" fill="white"/>
<path d="M35.141 16.0474C32.8743 16.5861 30.8557 18.0968 29.701 20.1208C29.0023 21.3448 28.6197 22.7194 28.0703 24.0168C27.5223 25.3154 26.753 26.5954 25.541 27.3128C27.2677 26.9021 28.7237 25.8541 29.741 24.3994C30.6983 23.0314 31.1597 21.3874 31.8063 19.8474C32.4517 18.3074 33.6343 16.7701 35.141 16.0474Z" fill="white"/>
<path d="M29.4987 15.5293C26.9641 15.5106 24.4734 16.9959 23.2854 19.2346C22.8014 20.1466 22.5254 21.1533 22.0934 22.0906C21.6614 23.0293 21.0241 23.9346 20.0801 24.3546C21.5681 24.7186 23.0454 23.6253 23.9507 22.3906C24.8574 21.1546 25.3321 19.6639 26.0667 18.3186C26.8001 16.9733 27.9867 15.7773 29.4987 15.5293Z" fill="white"/>
<path d="M23.5494 14.0539C22.2027 13.8233 20.8147 14.3259 19.6987 15.1153C18.5827 15.9046 17.6907 16.9633 16.7961 17.9953C15.8987 19.0273 14.9681 20.0593 13.8027 20.7726C15.1867 20.9353 16.4454 20.3313 17.4681 19.3846C18.4907 18.4379 19.2667 17.2606 20.1854 16.2126C21.1041 15.1646 22.1827 14.3259 23.5494 14.0539Z" fill="white"/>
<path d="M18.3514 12.11C16.7741 11.6886 15.0101 12.0406 13.7154 13.0353C12.8861 13.6713 12.2634 14.534 11.4981 15.2446C10.7327 15.9553 9.72607 16.534 8.69141 16.386C10.0687 17.1153 11.7447 17.0566 13.1021 16.294C15.0661 15.1886 16.1594 12.63 18.3514 12.11Z" fill="white"/>
<path d="M14.0688 10.1601C12.5862 9.8334 10.9808 10.1041 9.68748 10.9001C7.96882 11.9561 6.74348 13.9027 4.77148 14.3241C6.57815 14.5441 8.35282 14.0214 9.78615 12.8987C10.4782 12.3547 11.0622 11.6867 11.7422 11.1281C12.4235 10.5707 13.1888 10.1534 14.0688 10.1601Z" fill="white"/>
<path d="M11.0018 8.5982C9.97117 8.4302 8.9325 8.2622 7.8885 8.28887C6.84317 8.31554 5.78183 8.54887 4.9125 9.12754C3.80183 9.8662 3.05117 11.1262 1.8125 11.6209C2.5205 11.8382 3.30983 11.6169 3.97383 11.2875C4.63783 10.9595 5.22183 10.4915 5.84983 10.0982C7.45783 9.0862 9.10183 8.5542 11.0018 8.5982Z" fill="white"/>
<path d="M7.76133 6.27398C5.92533 5.51665 3.68267 5.85798 2.15467 7.12732C1.49733 7.67265 0.853333 8.41932 0 8.38598C0.86 8.74732 1.82933 8.55265 2.688 8.18865C3.548 7.82198 4.31333 7.27132 5.13467 6.82732C5.956 6.38465 6.83467 6.16198 7.76133 6.27398Z" fill="white"/>
<path d="M150.137 16.4381C150.138 16.5234 150.209 16.5914 150.293 16.5901L172.781 16.3074C189.797 15.2781 201.815 5.20208 201.934 5.10074C201.998 5.04608 202.006 4.94741 201.951 4.88341C201.895 4.81808 201.799 4.81008 201.734 4.86608C201.615 4.96608 189.671 14.9754 172.771 15.9994L150.289 16.2821C150.205 16.2834 150.135 16.3527 150.137 16.4381Z" fill="white"/>
<path d="M152.902 16.2805C156.112 15.4259 158.902 13.1179 160.344 10.1259C161.693 7.32852 161.87 4.09119 163.122 1.24986C160.422 2.71786 158.924 5.70319 157.661 8.50586C156.4 11.3085 155.214 14.2565 152.902 16.2805Z" fill="white"/>
<path d="M160.756 16.1822C162.672 16.1875 164.424 14.9662 165.555 13.4195C166.685 11.8728 167.307 10.0222 167.928 8.21018C168.551 6.39685 169.209 4.55285 170.4 3.05151C167.997 4.10485 166.084 5.97818 165.033 8.38218C164.421 9.78351 164.119 11.3022 163.561 12.7262C163.005 14.1515 162.137 15.5248 160.756 16.1822Z" fill="white"/>
<path d="M167.428 16.2779C169.413 15.2539 171.445 14.1952 172.945 12.5392C173.884 11.5032 174.574 10.2726 175.26 9.05257C176.029 7.68057 176.798 6.30723 177.569 4.93523C175.917 5.39523 174.68 6.72323 173.63 8.07923C172.582 9.43523 171.792 10.9699 170.872 12.4166C169.953 13.8646 168.89 15.3832 167.428 16.2779Z" fill="white"/>
<path d="M173.938 15.9752C175.561 15.7925 177.024 14.8632 178.164 13.6925C179.304 12.5218 180.164 11.1138 181.033 9.73117C181.904 8.3485 182.805 6.9605 184.009 5.85517C181.969 6.66717 179.889 7.45783 178.561 9.2045C177.704 10.3312 177.269 11.7112 176.663 12.9898C176.055 14.2672 175.265 15.4885 173.938 15.9752Z" fill="white"/>
<path d="M180.143 15.1563C182.319 14.3403 183.997 12.5549 185.283 10.6203C186.569 8.68426 187.541 6.55626 188.807 4.60692C187.001 5.33759 185.455 6.73759 184.411 8.38159C183.68 9.53092 183.209 10.8216 182.604 12.0416C181.999 13.2603 181.297 14.4363 180.143 15.1563Z" fill="white"/>
<path d="M185.646 13.7244C187.188 12.7924 188.393 11.3778 189.32 9.83377C190.246 8.28843 190.916 6.60577 191.581 4.9311C190.389 5.12843 189.434 6.1591 188.812 7.19643C188.19 8.2351 187.86 9.4151 187.464 10.5578C187.069 11.7018 186.501 12.8684 185.646 13.7244Z" fill="white"/>
<path d="M191.68 11.121C193.102 10.6196 193.958 9.17565 194.509 7.77031C195.061 6.36498 195.456 4.84498 196.446 3.70631C194.921 4.02631 193.585 5.12898 193.03 6.58631C192.452 8.10231 192.726 9.88231 191.68 11.121Z" fill="white"/>
<path d="M196.895 8.3216C198.059 7.66694 198.56 6.25894 198.796 4.94427C199.032 3.62827 199.112 2.23627 199.8 1.0896C198.867 1.19894 198.167 1.99894 197.82 2.87094C197.475 3.74294 197.448 4.70427 197.415 5.6416C197.379 6.58027 197.287 7.4696 196.895 8.3216Z" fill="white"/>
<path d="M200.141 6.22266C200.973 5.492 201.172 4.28933 201.256 3.18533C201.338 2.08266 201.382 0.901331 202.025 -2.38419e-06C200.84 0.333331 200.102 1.476 199.904 2.69066C199.708 3.90533 199.876 5.02133 200.141 6.22266Z" fill="white"/>
<path d="M201.551 5.39255C202.691 5.17788 203.485 4.15121 204.052 3.13921C204.619 2.12721 205.108 1.00721 206.045 0.324546C205.196 0.13788 204.363 0.556547 203.732 1.15388C203.1 1.74988 202.681 2.53121 202.272 3.29921C201.864 4.06455 201.459 4.82988 201.051 5.59388C201.287 5.49388 201.3 5.44055 201.551 5.39255Z" fill="white"/>
<path d="M153.113 16.4947C155.236 16.8427 157.187 18.1267 158.347 19.936C159.387 21.5587 159.777 23.4974 160.271 25.36C160.764 27.2227 161.433 29.14 162.855 30.4414C160.217 29.216 158.248 26.94 157.307 24.188C156.807 22.7254 156.623 21.1667 156.089 19.716C155.557 18.264 154.592 16.944 153.113 16.4947Z" fill="white"/>
<path d="M160.053 16.3001C162.958 16.6428 165.593 18.7028 166.627 21.4388C167.165 22.8615 167.287 24.4028 167.599 25.8908C167.914 27.3801 168.473 28.9041 169.647 29.8708C167.993 29.3575 166.659 28.2321 165.787 26.7348C165.093 25.5441 164.766 24.1801 164.455 22.8361C164.143 21.4935 163.831 20.1281 163.159 18.9241C162.489 17.7201 161.403 16.5748 160.053 16.3001Z" fill="white"/>
<path d="M166.562 16.1998C169.305 17.2798 171.517 19.6278 172.432 22.4291C172.806 23.5731 172.972 24.7758 173.328 25.9251C173.685 27.0758 174.272 28.2131 175.268 28.8891C173.522 28.4531 172.25 27.0464 171.406 25.4558C170.562 23.8651 170.116 22.1011 169.474 20.4184C168.832 18.7371 168.034 17.2371 166.562 16.1998Z" fill="white"/>
<path d="M172.779 16.0474C175.046 16.5861 177.065 18.0968 178.219 20.1208C178.918 21.3448 179.302 22.7194 179.85 24.0168C180.399 25.3154 181.167 26.5954 182.379 27.3128C180.653 26.9021 179.197 25.8541 178.179 24.3994C177.221 23.0314 176.761 21.3874 176.115 19.8474C175.469 18.3074 174.286 16.7701 172.779 16.0474Z" fill="white"/>
<path d="M178.422 15.5293C180.957 15.5106 183.447 16.9959 184.635 19.2346C185.118 20.1466 185.394 21.1533 185.827 22.0906C186.259 23.0293 186.897 23.9346 187.839 24.3546C186.351 24.7186 184.875 23.6253 183.969 22.3906C183.062 21.1546 182.587 19.6639 181.854 18.3186C181.121 16.9733 179.934 15.7773 178.422 15.5293Z" fill="white"/>
<path d="M184.373 14.0539C185.721 13.8233 187.109 14.3259 188.225 15.1153C189.34 15.9046 190.232 16.9633 191.126 17.9953C192.022 19.0273 192.956 20.0593 194.121 20.7726C192.736 20.9353 191.477 20.3313 190.456 19.3846C189.432 18.4379 188.656 17.2606 187.737 16.2126C186.82 15.1646 185.74 14.3259 184.373 14.0539Z" fill="white"/>
<path d="M189.572 12.11C191.15 11.6886 192.914 12.0406 194.208 13.0353C195.038 13.6713 195.659 14.534 196.426 15.2446C197.191 15.9553 198.198 16.534 199.231 16.386C197.855 17.1153 196.179 17.0566 194.822 16.294C192.858 15.1886 191.764 12.63 189.572 12.11Z" fill="white"/>
<path d="M193.852 10.1601C195.334 9.8334 196.94 10.1041 198.233 10.9001C199.952 11.9561 201.177 13.9027 203.15 14.3241C201.342 14.5441 199.568 14.0214 198.136 12.8987C197.442 12.3547 196.86 11.6867 196.178 11.1281C195.497 10.5707 194.732 10.1534 193.852 10.1601Z" fill="white"/>
<path d="M196.92 8.5982C197.951 8.4302 198.991 8.2622 200.035 8.28887C201.077 8.31554 202.14 8.54887 203.009 9.12754C204.12 9.8662 204.872 11.1262 206.111 11.6209C205.401 11.8382 204.612 11.6169 203.948 11.2875C203.284 10.9595 202.7 10.4915 202.072 10.0982C200.464 9.0862 198.82 8.5542 196.92 8.5982Z" fill="white"/>
<path d="M200.16 6.27398C201.996 5.51665 204.239 5.85798 205.765 7.12732C206.423 7.67265 207.068 8.41932 207.921 8.38598C207.061 8.74732 206.092 8.55265 205.233 8.18865C204.373 7.82198 203.608 7.27132 202.787 6.82732C201.965 6.38465 201.087 6.16198 200.16 6.27398Z" fill="white"/>
<path d="M79.6778 11.3767V19.1527C79.6778 20.8061 79.2244 22.0754 78.3178 22.9607C77.4218 23.8461 76.1791 24.2887 74.5898 24.2887C73.6511 24.2887 72.7978 24.1501 72.0298 23.8727C71.2618 23.6061 70.6111 23.2221 70.0778 22.7207L70.9258 21.1207C71.9178 22.0167 73.1284 22.4647 74.5578 22.4647C76.5844 22.4647 77.5978 21.3927 77.5978 19.2487V18.4007C76.8404 19.3607 75.7418 19.8407 74.3018 19.8407C72.8831 19.8407 71.7844 19.4354 71.0058 18.6247C70.2271 17.8141 69.8378 16.6514 69.8378 15.1367V11.3767H71.9178V15.0407C71.9178 16.0221 72.1524 16.7687 72.6218 17.2807C73.1018 17.7821 73.7684 18.0327 74.6218 18.0327C75.5284 18.0327 76.2484 17.7661 76.7818 17.2327C77.3258 16.6887 77.5978 15.8887 77.5978 14.8327V11.3767H79.6778ZM87.1519 11.2807C88.6666 11.2807 89.8506 11.6647 90.7039 12.4327C91.5572 13.1901 91.9839 14.2461 91.9839 15.6007C91.9839 16.9021 91.5946 17.9261 90.8159 18.6727C90.0372 19.4087 88.9599 19.7767 87.5839 19.7767C87.0506 19.7767 86.5386 19.7181 86.0479 19.6007C85.5572 19.4834 85.0239 19.2861 84.4479 19.0087V22.5767H82.3999V15.8727C82.3999 14.4007 82.8106 13.2701 83.6319 12.4807C84.4532 11.6807 85.6266 11.2807 87.1519 11.2807ZM87.2159 18.1447C88.0586 18.1447 88.7146 17.9261 89.1839 17.4887C89.6639 17.0514 89.9039 16.4381 89.9039 15.6487C89.9039 14.8487 89.6639 14.2247 89.1839 13.7767C88.7039 13.3181 88.0426 13.0887 87.1999 13.0887C86.3359 13.0887 85.6586 13.3287 85.1679 13.8087C84.6879 14.2887 84.4479 14.9661 84.4479 15.8407V17.2007C84.8319 17.5101 85.2586 17.7447 85.7279 17.9047C86.2079 18.0647 86.7039 18.1447 87.2159 18.1447ZM103.631 11.3767V22.5767H101.631V21.1527C100.874 22.2087 99.7006 22.7367 98.1113 22.7367C96.7886 22.7367 95.7486 22.3261 94.9913 21.5047C94.2339 20.6727 93.8553 19.4994 93.8553 17.9847V11.3767H95.9353V17.9047C95.9353 18.8967 96.1699 19.6487 96.6393 20.1607C97.1193 20.6621 97.7753 20.9127 98.6073 20.9127C99.5033 20.9127 100.218 20.6461 100.751 20.1127C101.285 19.5687 101.551 18.7634 101.551 17.6967V11.3767H103.631ZM111.743 11.2167C112.713 11.2167 113.561 11.4141 114.287 11.8087C115.012 12.1927 115.572 12.7581 115.967 13.5047C116.372 14.2514 116.575 15.1581 116.575 16.2247V22.5767H114.479V16.0327C114.479 15.0514 114.233 14.3101 113.743 13.8087C113.263 13.2967 112.596 13.0407 111.743 13.0407C110.879 13.0407 110.201 13.2967 109.711 13.8087C109.22 14.3101 108.975 15.0514 108.975 16.0327V22.5767H105.583L105.567 20.8167H106.895V16.2247C106.895 15.1581 107.092 14.2514 107.487 13.5047C107.892 12.7474 108.457 12.1767 109.183 11.7927C109.919 11.4087 110.772 11.2167 111.743 11.2167ZM127.022 13.1367H121.47L121.486 22.5767H119.438V11.3767H127.038L127.022 13.1367ZM133.597 11.2167C134.6 11.2167 135.474 11.4141 136.221 11.8087C136.968 12.2034 137.544 12.7901 137.949 13.5687C138.365 14.3367 138.573 15.2701 138.573 16.3687V22.5767H136.493V19.6967H130.669V22.5767H128.621V16.3687C128.621 15.2701 128.824 14.3367 129.229 13.5687C129.645 12.7901 130.226 12.2034 130.973 11.8087C131.72 11.4141 132.594 11.2167 133.597 11.2167ZM136.493 17.9527V16.1767C136.493 15.1421 136.237 14.3634 135.725 13.8407C135.213 13.3074 134.498 13.0407 133.581 13.0407C132.664 13.0407 131.949 13.3074 131.437 13.8407C130.925 14.3634 130.669 15.1421 130.669 16.1767V17.9527H136.493Z" fill="white"/>
</svg>
