<svg width="116" height="107" viewBox="0 0 116 107" fill="none" xmlns="http://www.w3.org/2000/svg">
<path d="M84.3253 92.5667C84.2813 92.5467 84.2333 92.528 84.18 92.5187C71.4573 90.2747 61.3586 81.3814 49.3093 77.2814C43.868 75.4307 37.6013 74.4534 32.1066 76.568C26.1333 78.8667 21.028 83.7561 17.6093 89.0787C11.2346 92.5827 6.99997 99.1174 3.22663 105.273C3.22397 105.279 3.22263 105.284 3.21996 105.289C2.41596 104.908 1.77864 104.297 1.36798 103.48C4.47464 99.1747 7.58797 94.8747 10.7933 90.6414C14.064 86.3214 17.3293 81.5867 21.4693 78.0547C25.1333 74.9267 30.28 73.3214 34.928 72.3867C37.3466 71.8987 39.8213 71.6867 42.28 71.7827C42.448 71.9761 42.7413 72.0774 43.016 71.9014C43.0533 71.8774 43.0893 71.852 43.1266 71.828C45.1026 71.9627 47.064 72.2987 48.9733 72.8627C53.6946 74.2574 57.7986 77.2014 61.9986 79.6667C65.904 81.9587 70.0186 83.8814 74.2506 85.488C81.8746 88.3827 89.9506 90.0561 98.0866 90.5481C93.7346 92.2267 89.0333 92.6467 84.3253 92.5667ZM74.908 91.9534C73.1746 91.7947 71.4453 91.604 69.7186 91.4C61.8573 87.3987 53.9893 82.8907 45.2413 81.184C37.5346 79.68 28.9386 81.1934 23.296 86.9441C23.2866 86.9534 23.2813 86.9627 23.2746 86.9707C22.82 87.0667 22.3666 87.1747 21.92 87.3027C21.096 87.5347 20.304 87.8161 19.5413 88.1387C22.9546 83.4107 27.6026 79.4454 33.064 77.3441C38.9226 75.0894 46.0573 77.0814 51.632 79.2707C61.0346 82.9641 69.312 89.2267 78.9173 92.2974C77.568 92.1934 76.228 92.0747 74.908 91.9534ZM60.1306 90.1107C60.0826 90.0041 59.9866 89.9161 59.8293 89.8761C51.4253 87.6841 40.9906 79.4974 32.644 86.3907C32.5813 86.444 32.536 86.5 32.504 86.5614C30.0613 86.3974 27.5666 86.3534 25.132 86.6627C31.024 81.4947 39.4693 80.924 46.884 82.62C53.8546 84.2147 60.3266 87.7134 66.6706 91.0227C64.488 90.74 62.3093 90.4294 60.1306 90.1107ZM47.3106 88.2254C42.8973 87.604 38.472 87.0547 34.0293 86.6774C40.468 82.1494 48.292 86.5601 55.18 89.3814C52.5573 88.9894 49.9346 88.596 47.3106 88.2254ZM35.7373 66.7761C35.804 66.7427 35.8666 66.692 35.9213 66.62C38.5133 63.256 41.704 60.4307 44.1946 56.9801C46.428 53.8881 48.148 50.4387 49.52 46.8894C52.3626 39.5347 53.4373 31.564 53.6853 23.724C53.688 23.616 53.6626 23.5227 53.62 23.4441C54.4666 21.6147 55.2373 19.7441 55.9106 17.8081C56.02 17.4934 56.1186 17.176 56.2226 16.86C56.684 26.6694 57.068 36.9174 53.9533 46.3054C52.3053 51.2681 49.476 55.752 45.9253 59.568C42.3053 63.4574 38.0186 66.6441 34.768 70.8787C35.0946 69.5134 35.416 68.1454 35.7373 66.7761ZM37.804 58.2094C37.9053 58.1827 38.0013 58.1201 38.0813 58.0094C41.0827 53.8547 44.048 49.6667 46.1586 44.9721C48.0093 40.8574 48.948 36.3534 49.0933 31.852C50.3186 29.8227 51.4746 27.7761 52.536 25.6801C52.1746 32.5814 51.0853 39.4374 48.728 45.9574C47.3973 49.64 45.5866 53.1321 43.3413 56.3387C41.2666 59.3014 38.612 61.7654 36.272 64.5027C36.768 62.4014 37.2706 60.3014 37.804 58.2094ZM39.536 51.8774C41.4426 45.4654 44.352 39.4587 47.8946 33.8001C47.556 37.5081 46.6493 41.1161 45.168 44.5734C43.468 48.5387 40.9987 52.1294 38.4813 55.6307C38.8187 54.3747 39.1666 53.1227 39.536 51.8774ZM57.0973 13.988C58.172 10.0867 58.8626 6.08007 59.2066 2.0494C61.1813 4.15074 61.1173 7.77738 61.236 10.4894C61.372 13.6374 61.1827 16.7961 60.9493 19.9347C60.4613 26.5027 59.8653 33.072 59.2493 39.6307C58.752 44.932 57.9066 50.1467 55.9053 55.0507C55.6946 55.184 55.6173 55.4347 55.656 55.652C55.3746 56.3054 55.0747 56.9547 54.7493 57.596C52.0493 62.9107 47.856 67.4014 42.9107 70.6934C40.6587 70.548 38.3346 70.6587 36.028 70.996C39.3466 66.852 43.6133 63.6107 47.2253 59.7307C50.692 56.0054 53.2653 51.4921 54.944 46.7041C58.5306 36.4641 57.656 24.872 57.1653 14.224C57.1613 14.1294 57.136 14.052 57.0973 13.988ZM62.436 42.7534C61.7373 46.776 60.5013 50.7334 57.652 53.6761C58.8653 49.8614 60.472 46.2014 62.436 42.7534ZM63.6213 40.7707C64.5826 39.2321 65.6146 37.7401 66.7173 36.3001C66.432 37.1721 66.1826 38.056 66.004 38.9667C65.64 40.8147 65.7413 42.7401 65.5053 44.6081C64.9773 48.7814 61.776 51.9001 58.7946 54.5747C58.6 54.5867 58.4053 54.6054 58.212 54.6227C61.7653 51.0854 63.0653 46.1161 63.7613 41.2027C63.788 41.0147 63.7253 40.8707 63.6213 40.7707ZM68.4906 34.1041C69.3293 33.1134 70.1973 32.1494 71.1026 31.2174C70.6813 32.084 70.3346 32.9934 70.072 33.9507C69.4413 36.2507 69.5693 38.6787 69.4733 41.0387C69.2453 46.6801 66.1186 51.7814 61.1413 54.4734C61.084 54.5054 61.0386 54.544 60.9986 54.5854C60.7973 54.5707 60.596 54.564 60.3933 54.556C62.7106 52.4014 64.844 50.0574 66 47.0534C66.6946 45.2467 66.72 43.26 66.8266 41.3547C66.9626 38.9387 67.6386 36.7427 68.4933 34.4934C68.5493 34.348 68.5386 34.2161 68.4906 34.1041ZM74.368 28.1134C75.264 27.3281 76.1853 26.5667 77.1333 25.8347C75.3093 30.3094 74.292 35.1134 74.2946 39.9547C74.296 43.3174 74.6946 46.632 73.492 49.8547C72.3933 52.7987 70.0506 55.1361 67.432 56.7734C66.8693 56.4201 66.288 56.0934 65.6813 55.8067C64.7133 55.3481 63.6906 55.0201 62.6413 54.8121C66.3026 52.4787 68.928 48.916 70.0453 44.668C70.6946 42.196 70.528 39.6147 70.668 37.0867C70.8493 33.824 72.0973 30.872 74.24 28.4174C74.328 28.3174 74.3653 28.2134 74.368 28.1134ZM80.1773 43.2347C80.212 43.692 80.9653 43.9014 81.22 43.3761C81.2213 43.3747 81.2213 43.3734 81.2226 43.3721C81.8266 43.4774 82.436 43.6254 83.0426 43.8081C83.168 44.1241 83.5747 44.3174 83.848 44.0707C86.2467 44.9041 88.56 46.1667 90.3706 47.1067C94.6866 49.3481 98.964 51.1227 103.749 51.8134C102.559 52.6654 101.307 53.46 100.009 54.184C99.876 54.056 99.684 53.9854 99.464 54.0507C94.8493 55.42 90.5573 52.032 86.3786 50.6307C82.5613 49.352 78.432 49.1454 74.4773 49.8014C75.0693 48.116 75.3813 46.2907 75.428 44.3467C76.84 43.3694 78.476 43.0934 80.1773 43.2347ZM82.1013 35.6467C82 37.9401 81.4707 40.1627 80.548 42.2707C80.1813 42.2294 79.8173 42.2 79.4546 42.1947C80.016 39.8254 80.9306 37.6561 82.1013 35.6467ZM83.1306 34.0174C83.8213 33 84.576 32.0254 85.3827 31.0867C85.1453 32.1134 85.092 33.1934 85.1053 34.284C85.1453 37.4027 84.9333 40.156 83.3653 42.8614C82.7946 42.692 82.2173 42.5521 81.64 42.4414C82.7426 39.8334 83.2506 37.0694 83.176 34.22C83.1733 34.14 83.1573 34.0747 83.1306 34.0174ZM87.48 28.8374C88.4667 27.8547 89.5 26.9094 90.568 26.0001C89.4106 27.9641 88.8813 30.2147 88.6813 32.5761C88.3533 36.4267 89.48 40.916 86.5773 44.028C86.572 44.0334 86.568 44.0414 86.5626 44.0481C85.868 43.7427 85.1413 43.4547 84.4 43.1947C85.3453 41.5094 85.924 39.7187 86.136 37.7654C86.4493 34.8707 85.5306 31.7 87.376 29.16C87.4533 29.0534 87.484 28.9427 87.48 28.8374ZM96.3293 21.5081C95.132 25.2014 94.2786 28.8094 94.1946 32.7747C94.0893 37.6574 92.9293 41.9627 89.1106 45.2627C89 45.208 88.8893 45.152 88.7773 45.096C88.392 44.9027 87.988 44.7041 87.5706 44.5081C89.596 42.2054 89.696 39.1947 89.668 36.2534C89.628 32.1534 89.844 27.7054 92.932 24.6334C93.128 24.4387 93.136 24.1841 93.0453 23.9814C94.1293 23.1334 95.2306 22.3107 96.3293 21.5081ZM100.905 25.3694C100.208 25.7027 99.5226 26.0627 98.8426 26.4361C98.5226 24.0987 99.0506 21.7801 100.401 19.8121C100.417 19.7894 100.427 19.7667 100.439 19.7441C101.451 19.0641 102.495 18.4427 103.573 17.8814C102.089 20.1494 101.329 22.6587 100.905 25.3694ZM108.161 15.9161C106.349 18.3374 105.021 21.0294 104.2 23.9681C103.487 24.2361 102.779 24.5254 102.081 24.8321C102.565 22.1614 103.425 19.7307 105.135 17.5294C105.255 17.3761 105.269 17.2147 105.223 17.0747C106.179 16.6427 107.157 16.2547 108.161 15.9161ZM110.941 15.2774C111.46 15.1601 111.957 15.2054 112.433 15.4161C112.363 16.1441 112.069 16.8694 111.829 17.556C111.191 19.3827 110.075 20.9907 108.764 22.396C108.708 22.456 108.672 22.5187 108.651 22.5801C107.571 22.8467 106.504 23.164 105.452 23.5187C106.392 20.5667 107.855 17.888 109.856 15.4934C109.868 15.4774 109.876 15.4627 109.887 15.4467C110.235 15.3801 110.587 15.3214 110.941 15.2774ZM98.4626 21.1787C97.7133 23.0067 97.4906 25.0067 97.8533 26.9987C97.0826 27.4507 96.3226 27.9254 95.58 28.4307C95.6 28.2934 95.6146 28.1547 95.6373 28.0161C95.976 25.9307 96.6213 23.9001 97.3066 21.8974C97.436 21.9241 97.5786 21.896 97.7133 21.784C97.9613 21.5787 98.2106 21.3774 98.4626 21.1787ZM113.749 22.7387C112.675 24.7147 111.467 26.6054 110.149 28.4094C110.076 28.3107 109.96 28.2414 109.793 28.2307C104.616 27.9134 99.6066 29.2787 95.3133 32.1747C95.34 31.3627 95.3693 30.5534 95.4346 29.7414C95.52 29.7334 95.608 29.7041 95.6933 29.6441C101.068 25.8521 107.235 23.5054 113.749 22.7387ZM106.789 32.556C106.74 32.384 106.603 32.2454 106.36 32.2374C102.38 32.1041 98.612 33.0561 95.1813 35.0454C95.224 34.4494 95.2533 33.8547 95.2746 33.26C95.4133 33.3 95.5706 33.2867 95.7226 33.1814C99.784 30.3681 104.579 29.0134 109.508 29.284C108.647 30.4134 107.739 31.504 106.789 32.556ZM102.608 36.6747C102.516 36.6147 102.401 36.5827 102.261 36.5987C99.6093 36.9174 97.0506 37.5641 94.5773 38.5427C94.796 37.7694 94.9653 36.9747 95.072 36.1574C95.2026 36.188 95.3493 36.1747 95.4906 36.088C98.712 34.144 102.345 33.192 106.104 33.2947C104.993 34.476 103.825 35.6041 102.608 36.6747ZM91.808 43.9761C92.8026 42.7294 93.572 41.3547 94.1333 39.8827C96.4346 38.8921 98.808 38.2041 101.269 37.8161C98.364 40.2014 95.1933 42.2734 91.808 43.9761ZM94.2213 56.7907C94.216 56.788 94.2133 56.7854 94.208 56.784C87.692 54.508 79.7426 50.3627 72.8013 53.1481C73.308 52.3987 73.74 51.6094 74.0973 50.7801C74.1946 50.8627 74.3293 50.9067 74.4973 50.8787C79.156 50.0841 83.7946 50.6227 88.1546 52.4414C91.2826 53.7454 94.3053 55.508 97.6426 55.3974C96.5253 55.9227 95.3813 56.388 94.2213 56.7907ZM88.908 58.1187C88.8973 58.112 88.8893 58.1054 88.88 58.1C84.8587 55.8867 80.2586 55.1707 75.7533 56.0441C75.68 56.0587 75.6173 56.0854 75.5626 56.1187C74.6026 55.612 73.664 55.0174 72.752 54.324C76.2306 52.7667 79.9253 53.2201 83.488 54.2361C86.5426 55.1094 89.5373 56.2507 92.5333 57.324C91.3346 57.6667 90.124 57.9334 88.908 58.1187ZM77.228 56.896C80.572 56.4907 83.8906 56.9827 86.964 58.3401C83.652 58.5907 80.3453 58.1787 77.228 56.896ZM76.068 64.888C81.62 68.9374 87.78 72.1374 94.236 74.4801C93.2773 74.6681 92.3146 74.8254 91.3506 74.96C91.2506 74.8294 91.0933 74.744 90.884 74.7627C90.684 74.7814 90.4853 74.7934 90.288 74.8041C90.1986 74.6254 90.02 74.4987 89.764 74.5294C85.9853 75.008 82.148 71.5147 79.3573 69.3721C76.3306 67.0467 73.4133 64.5307 70.0746 62.6507C65.1173 59.86 58.9586 58.4534 53.8333 61.2054C54.408 60.3401 54.9493 59.448 55.456 58.5307C55.9266 57.6787 56.3453 56.8067 56.7266 55.924C57.408 55.7854 58.0893 55.696 58.768 55.6547C58.896 55.7174 59.0466 55.7227 59.1933 55.6347C61.788 55.552 64.336 56.1787 66.6613 57.5187C70.072 59.4854 72.8866 62.5667 76.068 64.888ZM85.212 75.4494C85.1173 75.3067 84.9533 75.22 84.728 75.268C83.5173 75.5307 82.28 75.4761 81.1306 75.0801C81.068 74.9294 80.94 74.804 80.7386 74.7627C80.5293 74.72 80.3253 74.672 80.12 74.6254C80.0893 74.6094 80.056 74.5947 80.0253 74.5774C79.892 74.5001 79.756 74.4867 79.632 74.5121C75.028 73.3907 71.0933 71.3134 66.8986 69.0654C63.0466 66.9987 59.0653 67.2934 55.1773 69.06C53.9826 68.684 52.764 68.3867 51.54 68.2481C54.144 66.0241 57.3386 64.8747 60.7866 64.684C64.924 64.4547 68.7813 66.2494 72.2467 68.3147C76.6307 70.9267 80.956 74.2387 85.9 75.432C85.6706 75.4414 85.4413 75.4441 85.212 75.4494ZM69.28 73.7454C64.9627 72.7387 60.8933 71.1334 56.7493 69.5987C56.7333 69.5934 56.7173 69.5867 56.7013 69.5814C58.46 68.9081 60.276 68.5214 62.2 68.6441C64.684 68.8041 66.9133 70.2654 69.004 71.4707C71.8226 73.0947 74.8186 74.3187 77.936 75.1774C75.0306 74.8934 72.1387 74.4121 69.28 73.7454ZM47.556 68.4547C49.36 66.852 50.9893 65.0734 52.448 63.1494C52.588 63.1934 52.7493 63.1774 52.9026 63.0627C59.36 58.2214 67.4146 61.8227 73.1573 65.936C76.1106 68.052 78.852 70.4467 81.84 72.5187C82.3213 72.852 82.82 73.1934 83.3346 73.524C78.524 71.5894 74.1973 67.9387 69.644 65.6774C63.288 62.5227 55.452 62.94 50.204 68.0187C50.1573 68.064 50.124 68.1134 50.0973 68.164C49.2466 68.1627 48.396 68.248 47.556 68.4547ZM101.231 90.0721C101.321 89.6814 100.988 89.2134 100.541 89.4454C100.448 89.4947 100.352 89.5387 100.257 89.5867C90.908 89.2494 81.716 87.312 73.016 83.8627C68.456 82.056 64.1493 79.7561 59.9653 77.2081C55.8826 74.7227 51.804 72.3361 47.092 71.2801C46.2666 71.0961 45.4213 70.9534 44.5626 70.8481C45.0386 70.5081 45.5013 70.1547 45.9573 69.7947C46.088 69.9387 46.292 70.0121 46.5266 69.9134C50.6066 68.1947 54.9133 70.0027 58.7613 71.5147C62.6826 73.0547 66.696 74.2907 70.8133 75.1787C79.1747 76.9841 87.9266 77.1027 96.2666 75.1334C96.74 75.0214 96.956 74.2961 96.3986 74.1081C88.568 71.4761 81.2706 67.5827 74.7226 62.5454C72.5733 60.8921 70.6093 58.9681 68.392 57.4121C69.6093 56.6174 70.6573 55.7227 71.548 54.7414C81.8293 63.1361 95.864 59.2414 105.468 51.8721C105.829 51.5934 105.676 50.9667 105.209 50.92C99.6506 50.3654 94.988 48.2014 90.132 45.7761C90.1826 45.7281 90.2293 45.68 90.28 45.6334C90.4066 45.7254 90.5746 45.756 90.764 45.668C101.263 40.7974 109.852 32.5681 115.187 22.3001C115.381 21.9241 114.988 21.5361 114.623 21.5707C113.179 21.7027 111.751 21.9174 110.341 22.2014C111.636 20.6094 112.58 18.8281 113.187 16.8334C113.757 14.9494 113.531 14.196 111.477 14.1854C109.06 14.1707 106.587 15.2641 104.432 16.2334C102.077 17.2921 99.884 18.6934 97.86 20.292C98.0253 19.792 97.4746 19.3614 97.0373 19.6774C89.0013 25.4614 80.6666 32.0987 78.352 42.2347C77.3333 42.332 76.348 42.6 75.4333 43.0947C75.3666 36.5187 76.0986 30.4574 78.9226 24.4054C79.1586 23.9014 78.5106 23.4894 78.1013 23.7827C70.0933 29.5161 63.6893 37.2294 59.5 46.0707C59.8533 43.9814 60.104 41.8707 60.308 39.7654C61.0093 32.5774 61.668 25.3614 62.1426 18.1534C62.356 14.9187 62.4106 11.6774 62.188 8.4414C61.9906 5.56673 61.636 2.30806 59.084 0.533388C58.7733 0.317388 58.264 0.474715 58.2346 0.893382C57.8106 6.92272 56.5666 12.8254 54.5293 18.5161C53.0213 22.7281 50.94 26.5627 48.7013 30.3481C48.4053 30.2521 48.0573 30.3721 48.0546 30.7667C48.052 31.0027 48.0373 31.2374 48.0306 31.4734C47.228 32.8147 46.4106 34.1534 45.5973 35.5054C38.9546 46.5454 36.5266 59.0854 33.5413 71.4467C29.0666 72.4281 24.78 74.2601 21.3573 76.7801C17.1226 79.8947 13.9493 84.7654 10.784 88.8894C7.24396 93.504 3.84398 98.2241 0.441315 102.94C0.407982 102.985 0.386643 103.031 0.36931 103.077C0.22931 103.208 0.159965 103.408 0.257298 103.639C0.869298 105.076 2.05598 106.149 3.57064 106.561C4.12264 106.711 4.49731 106.036 4.20665 105.711C7.83465 99.8014 11.8893 93.6094 17.8613 90.2014C18.0186 90.22 18.1813 90.1574 18.296 89.9747C18.3026 89.9654 18.308 89.9574 18.3133 89.9481C20.0133 89.0334 21.864 88.3414 23.904 87.9441C28.1653 87.1107 32.6106 87.5867 36.8906 88.0147C41.4026 88.4667 45.896 89.0921 50.3827 89.7454C56.7107 90.6667 63.0293 91.6587 69.3773 92.42C69.504 92.484 69.62 92.4907 69.7213 92.4627C72.2586 92.7627 74.8013 93.0294 77.3506 93.2334C85.088 93.8547 93.3573 94.1774 100.492 90.6614C100.543 90.6627 100.595 90.6654 100.645 90.6667C101.021 90.6787 101.232 90.3614 101.231 90.0721Z" fill="#BC9E66"/>
</svg>
