<svg width="76" height="72" viewBox="0 0 76 72" fill="none" xmlns="http://www.w3.org/2000/svg">
<path d="M57.072 5.51872C58.7947 7.64672 61.6027 7.87073 64.0374 8.70806C68.14 10.1187 68.2294 14.4387 67.9654 18.0561C67.6987 21.6881 71.608 25.8454 68.6827 29.0294C67.8174 29.9707 66.8454 30.7827 66.708 32.148C66.5387 33.8214 67.0387 35.3014 67.5267 36.8787C68.7187 40.7414 65.6987 43.0001 65.0147 46.5241C64.52 49.0654 68.0494 56.3587 63.296 56.4067C63.2894 56.4067 63.2854 56.4081 63.2787 56.4081C63.208 56.2254 63.1294 56.0454 63.036 55.8747C62.4 54.7094 61.2534 53.868 60.224 52.9987C60.26 52.996 60.2974 52.9907 60.336 52.9787C63.4534 52.1107 62.436 48.3947 62.932 46.032C63.612 42.7947 66.12 40.2867 65.7067 36.8027C65.4907 34.9761 64.5214 33.7334 65.0734 31.8001C65.54 30.1707 66.7147 28.7961 67.2507 27.1721C67.6254 26.0307 67.4734 24.8774 66.944 23.828C66.028 22.012 64.484 21.5374 65.104 19.1001C65.8014 16.3587 65.816 14.1921 63.8974 11.9187C61.6694 9.28139 56.9654 10.7961 55.7587 7.33872C55.0134 5.20006 54.188 3.69738 51.644 4.36005C50.5667 4.63738 49.9414 5.00272 48.716 4.83872C47.66 4.69606 46.6054 4.19338 45.5774 3.91472C44.0934 3.51338 42.552 3.34005 41.0174 3.29338C41.9507 2.88405 42.9187 2.57605 43.9694 2.48539C45.6747 2.34005 47.1987 3.04139 48.9267 2.70406C50.7374 2.35339 52.1787 1.24939 54.1187 1.54939C55.9254 1.82939 56.124 4.34805 57.072 5.51872ZM58.9947 55.6227C53.9067 52.6934 55.788 44.9641 53.524 40.3894C52.4987 38.3214 50.2547 37.7347 48.1494 37.4987C46.32 37.2934 44.5987 37.2681 42.9827 36.2707C41.7334 35.5001 40.7854 34.1894 39.7867 33.1361C37.8747 31.1201 35.5947 30.488 32.9254 30.0294C31.0534 29.708 29.34 29.2534 27.8707 27.9894C26.8014 27.0707 25.9707 25.8627 25.0587 24.796C23.084 22.4814 20.7134 21.8681 17.864 21.1561C15.1667 20.4814 13.0294 18.6921 11.8414 16.2907C12.7747 17.0907 13.996 17.6054 15.2254 17.9374C16.924 18.3961 18.728 18.3894 20.4467 18.7814C22.6507 19.2827 23.7294 20.8614 25.04 22.5214C26.8987 24.8774 29.8134 26.1561 32.7387 26.4507C33.7187 26.5494 34.696 26.4867 35.6787 26.6201C36.972 26.7934 37.8774 27.7361 38.7707 28.5894C39.8254 29.5974 40.9414 30.1414 42.372 30.4094C44.204 30.7507 46.1507 30.4907 47.7174 31.7014C48.816 32.5534 49.3334 34.0147 50.1707 35.0867C50.9894 36.1347 51.9067 36.724 53.1574 37.1587C53.924 37.424 54.7054 37.5854 55.4587 37.8934C55.3307 38.308 55.9 38.6454 56.296 38.4161C57.044 39.1414 57.1654 40.2654 57.2067 41.3227C57.3387 44.6601 56.1107 47.8587 57.3894 51.112C57.8907 52.384 58.9094 53.312 59.9227 54.1774C60.5414 54.704 61.128 55.2107 61.6454 55.812C60.8334 55.576 59.8894 55.5414 58.9947 55.6227ZM68.6627 61.0227C70.7787 62.7587 74.7574 65.0001 74.088 68.2201C73.2107 72.4454 67.444 67.236 66.268 65.9987C64.5534 64.1947 62.8147 62.588 60.74 61.2667C61.0987 61.1654 61.4667 61.0161 61.82 60.8227C62.5107 60.5921 62.9814 60.1547 63.2654 59.6081C63.7214 58.9867 63.904 58.2467 63.5947 57.4534C64.1494 57.4094 64.62 57.2534 65.02 57.0201C65.716 58.7454 67.2347 59.8494 68.6627 61.0227ZM42.4027 59.544C41.3507 60.404 40.468 61.4494 39.1734 61.964C37.6347 62.576 35.8014 61.42 34.2987 61.1267C33.188 60.9094 32.064 61.3067 31.016 61.6147C29.0254 62.1974 27.5707 61.384 26.0654 60.16C24.0094 58.4894 22.3067 57.0187 19.5294 56.9867C16.172 56.9494 12.976 59.4067 9.63336 58.0387C8.10536 57.4147 7.0707 55.9721 6.61603 54.4387C6.1387 52.8294 6.78936 50.992 6.79202 49.3467C6.79469 48.068 6.14404 46.8601 5.80537 45.6561C5.33737 43.9961 6.34136 42.6307 7.53203 41.5387C7.41203 42.3361 7.44004 43.1841 7.47204 43.8067C7.58937 46.0401 8.6467 48.1667 9.91736 49.9561C11.0654 51.5734 12.64 53.2787 14.6667 53.6307C15.8267 53.832 17.1254 53.4534 18.2947 53.4147C20.0854 53.3574 21.8667 53.8227 23.4974 54.5267C25.7947 55.5174 27.436 57.5747 29.7587 58.5067C31.8334 59.3374 33.9587 59.4774 36.14 59.0307C38.6894 58.5094 40.4214 56.372 43.0107 56.048C46.296 55.6374 49.728 56.396 52.7174 57.7427C53.6334 58.504 54.5574 59.252 55.5347 59.864C53.1054 59.5054 50.8387 58.7507 48.3934 58.1387C46.1094 57.5667 44.1947 58.0787 42.4027 59.544ZM51.8227 64.6041C50.116 65.5107 48.4054 65.4454 46.5347 65.3507C45.104 65.2774 43.84 65.7427 42.6174 66.4414C41.436 67.1174 40.388 68.0107 39.2214 68.712C37.1307 69.9707 35.2854 69.2827 33.1454 68.5721C30.0667 67.5481 27.3094 69.3214 24.4827 70.2947C22.3067 71.0427 20.1187 70.7067 18.1814 69.5134C16.472 68.46 15.4254 66.4787 13.9174 65.1774C10.9907 62.6494 6.55069 63.5667 4.56136 59.7254C3.66136 57.984 3.60004 55.8521 3.35737 53.9521C3.12804 52.1627 2.5627 50.5361 1.94803 48.8521C1.10136 46.5241 1.33602 44.7427 3.14269 42.9734C4.29336 41.8494 5.66403 40.8067 7.2147 40.4227C5.56136 41.8627 4.32269 43.544 4.77736 45.948C4.90402 46.6134 5.20536 47.2641 5.42669 47.9014C5.86402 49.1574 5.70937 50.3814 5.54137 51.6667C5.35871 53.068 5.38136 54.3134 5.8987 55.6347C6.7947 57.9174 8.98804 59.2614 11.3387 59.5227C15.4227 59.9761 18.9414 56.5827 22.9387 59.0241C25.376 60.5121 27.02 63.148 30.192 62.8814C32.0027 62.7294 33.2174 61.8814 35.1187 62.4214C36.6334 62.8521 37.884 63.4227 39.4667 62.9907C42.344 62.2041 43.3627 58.9654 46.6827 58.9614C48.448 58.9587 50.2494 59.8214 51.9187 60.3067C53.636 60.8054 55.4254 61.036 57.2094 61.116C55.3854 62.224 53.7227 63.5947 51.8227 64.6041ZM23.4267 53.2627C23.1667 50.196 20.5814 48.5547 18.1907 47.0667C16.156 45.8001 14.808 44.4547 14.248 42.064C13.804 40.1747 13.5534 38.448 12.56 36.748C10.5414 33.288 6.14536 32.8521 3.9827 29.6841C2.56936 27.6147 4.28803 25.0934 4.99469 23.096C5.05603 22.9187 5.10804 22.7414 5.1547 22.564C5.18004 23.4814 5.2067 24.3987 5.23203 25.3161C5.26803 26.6041 5.05869 28.2254 5.59603 29.4401C6.56003 31.6174 8.86003 32.224 10.9334 32.9307C14.076 34.0014 14.644 36.7321 15.4614 39.5721C16.0974 41.7801 17.1294 43.5161 19.1534 44.6867C21.6267 46.1187 24.488 46.2707 26.516 48.492C28.06 50.1827 28.856 52.5307 30.7347 53.928C33.068 55.6654 35.7734 55.1281 38.4787 54.8721C40.14 54.7174 41.808 54.7307 43.4654 54.876C42.5587 54.9707 41.6747 55.1654 40.8374 55.4827C40.0187 55.796 39.3067 56.3907 38.584 56.8707C37.6027 57.5214 36.4814 57.8747 35.3387 58.1081C32.7934 58.6307 30.268 57.8121 28.1867 56.3734C26.5867 55.2681 25.1774 54.1494 23.4254 53.364C23.428 53.332 23.4294 53.3 23.4267 53.2627ZM10.088 30.5241C12.3707 31.5507 14.8307 31.4574 16.3494 33.7681C17.532 35.5681 17.832 37.8587 18.8894 39.744C19.82 41.4054 21.2947 42.7121 22.904 43.6907C25.1507 45.0534 27.8334 45.2214 29.9467 46.8881C32.716 49.0734 35.3707 52.8734 39.3187 51.4254C39.7707 51.9267 40.308 52.3667 41 52.7054C42.5267 53.4547 44.46 53.448 46.0894 53.9134C46.5547 54.0454 47.004 54.212 47.4467 54.3934C45.3667 53.964 43.2627 53.7347 41.12 53.7C38.0734 53.6547 34.396 54.9814 31.6387 53.2787C29.6894 52.076 28.6947 49.4614 27.268 47.7334C25.8134 45.9721 23.6147 45.2894 21.5414 44.5547C18.5734 43.5041 17.212 41.7934 16.364 38.844C15.8427 37.0347 15.408 35.2801 14.2267 33.7721C12.6947 31.8134 9.8067 31.7294 7.80804 30.496C6.03871 29.4067 6.3507 27.0881 6.30003 25.2987C6.26936 24.1801 6.23737 23.0614 6.20537 21.944C6.6027 23.5187 6.3987 25.5414 6.75737 26.8627C7.22537 28.5934 8.50004 29.8081 10.088 30.5241ZM57.344 57.016C57.828 56.8654 58.3107 56.7694 58.796 56.7227C58.86 56.7534 58.92 56.7894 58.9854 56.8201C59.2387 56.9387 59.4774 56.8534 59.6294 56.6907C60.0667 56.7001 60.5107 56.752 60.9627 56.848C61.5627 56.9734 62.344 57.2694 62.5974 57.816C62.6267 58.32 62.5147 58.8134 62.24 59.1987C62.104 59.3667 61.9454 59.5134 61.7734 59.6387C61.5734 59.7667 61.3414 59.8627 61.0667 59.9134C60.984 59.9267 60.9174 59.956 60.8627 59.9934C60.8187 59.9707 60.7694 59.9534 60.712 59.944C59.0854 59.6694 57.82 58.5667 57.344 57.016ZM38.2934 33.18C40.2667 34.844 41.504 36.9774 44.0014 37.9561C47.424 39.2974 51.6014 37.6387 53.088 42.1254C54.0027 44.888 53.844 47.9734 54.656 50.8001C55.2 52.692 56.0574 54.5814 57.528 55.8614C57.5134 55.8654 57.5 55.8694 57.4867 55.8721C57.4827 55.8721 57.4787 55.8707 57.4747 55.8707C55.4534 55.8054 54.4107 53.8827 53.0494 52.696C52.24 51.992 51.1827 51.6094 50.1827 51.2747C48.92 50.8521 47.6054 50.6054 46.34 50.1841C44.4827 49.5627 43.556 48.3041 42.9494 46.4907C42.1867 44.2041 40.7134 42.9387 38.5147 42.0227C35.5974 40.8041 32.1094 40.4614 31.08 36.9587C30.4267 34.7347 29.3894 33.5774 27.2614 32.6374C26.128 32.1361 24.9454 31.7694 23.836 31.2094C22.2867 30.428 21.7147 29.1667 21.2254 27.5854C20.4614 25.1147 18.8707 24.52 16.784 23.26C15.428 22.4414 14.2867 21.328 13.3814 20.044C13.592 20.2214 13.808 20.3921 14.036 20.5507C16.6267 22.3507 19.8774 22.2014 22.4974 23.8521C24.8894 25.3601 26.0747 28.2227 28.4867 29.7734C31.5067 31.7134 35.436 30.7667 38.2934 33.18ZM40.9707 51.5041C40.592 51.3187 40.2627 51.0667 39.96 50.7747C39.916 50.5801 39.7574 50.3974 39.5494 50.3307C38.2374 48.7467 37.5334 46.3254 36.124 44.9521C33.7774 42.6667 29.98 43.0307 28.1387 40.048C26.8747 38.0027 26.6974 35.5374 24.7267 33.9454C22.176 31.8827 17.932 33.1814 16.5467 29.4574C16.1107 28.2854 16.3747 26.8374 16.1814 25.6054C16.0027 24.4601 15.1827 23.6921 14.24 23.1241C12.6667 22.1761 11.4254 21.6307 10.7107 19.7734C10.288 18.6787 10.2774 17.5001 10.4454 16.3387C11.1187 18.6641 12.3374 20.7067 14.0494 22.4454C14.956 23.3667 16.0507 24.1027 17.1814 24.7201C17.9334 25.1307 18.636 25.4254 19.2827 26.0147C20.0014 26.6694 20.204 27.9121 20.4907 28.8041C21.2227 31.0867 23.008 32.0987 25.124 32.9361C26.444 33.4601 27.7854 33.8934 28.872 34.8454C30.1214 35.9387 30.0627 37.9587 30.984 39.3081C32.324 41.2747 35.0134 41.9361 37.1307 42.6414C38.7947 43.1961 40.3867 43.9414 41.372 45.4547C42.156 46.6601 42.152 48.2334 43.1414 49.3414C44.8787 51.2881 47.5414 51.5934 49.9174 52.3081C51.6654 52.8347 52.7894 53.8587 53.996 55.1774C54.656 55.9 55.3827 56.4307 56.2347 56.7134C56.212 56.7934 56.2067 56.8814 56.228 56.9787C56.5067 58.2054 57.2147 59.264 58.18 59.9947C56.4907 59.5134 55.0107 58.3374 53.5907 57.1401C53.56 57.0241 53.4774 56.9174 53.3267 56.8494C53.272 56.824 53.2147 56.8014 53.16 56.776C52.4867 56.2067 51.824 55.6467 51.1547 55.1721C49.8774 54.2641 48.436 53.62 46.972 53.0814C45.02 52.36 42.844 52.4227 40.9707 51.5041ZM47.14 30.244C47.2134 30.1027 47.2307 29.9321 47.144 29.7534C44.152 23.6001 40.112 18.0081 34.2854 14.2707C31.284 12.3467 27.9894 11.3734 24.508 10.7774C22.448 10.4227 20.4214 9.98938 18.7787 8.61071C18.108 8.04671 17.616 7.30405 17.2227 6.49872C17.8947 7.18938 18.7574 7.65606 19.724 8.02006C22.3734 9.01606 25.084 8.55472 27.6014 10.1054C30.0614 11.6201 32.5747 11.7961 35.376 12.1867C38.332 12.5974 40.1734 13.9294 41.4054 16.6161C42.0614 18.0467 42.784 19.8187 44.3667 20.4534C45.676 20.9774 47.528 20.8627 48.4707 22.0881C49.1067 22.9147 49.076 24.1974 49.2307 25.1774C49.5227 27.0267 50.2187 28.1187 51.7534 29.1934C54.3347 31.0027 54.0187 33.3174 53.1907 35.996C52.8134 35.8694 52.4467 35.724 52.1067 35.5307C50.6787 34.72 50.1467 32.7921 49.1027 31.6041C48.5174 30.9387 47.852 30.5227 47.14 30.244ZM24.472 7.76538C22.1534 7.32938 19.232 7.44138 17.72 5.44538C18.988 5.87738 20.3414 6.03206 21.6854 5.80272C23.392 5.50939 25.0294 4.86672 26.6667 5.76805C27.852 6.42005 28.684 7.58138 29.884 8.24672C32.1974 9.52405 35.2347 8.18538 37.656 8.13072C41.008 8.05605 41.628 12.0601 44.1334 13.5734C46.3414 14.9067 49.1067 14.7507 51.0614 16.6001C53.1014 18.5294 50.9067 21.7587 52.064 24.0361C52.576 25.0427 53.3227 25.7454 54.172 26.476C55.3654 27.5054 56.2254 28.6254 56.7694 30.1147C57.5987 32.3867 57.2587 34.9214 56.0507 36.9654C55.4814 36.6667 54.848 36.4841 54.212 36.3041C54.7494 34.5787 55.1574 32.8321 54.7027 31.0387C54.1174 28.7241 51.272 28.3307 50.5174 26.148C49.9427 24.488 50.2774 22.6974 49.148 21.2307C48.6067 20.5267 47.7547 20.2467 46.932 20.028C45.2694 19.5907 44.0827 19.3414 43.1387 17.764C42.0907 16.0147 41.66 14.144 40.0267 12.792C38.2734 11.34 35.7534 11.1427 33.5907 10.9027C31.5867 10.6787 29.8587 10.2574 28.132 9.17871C26.9574 8.44405 25.8307 8.02138 24.472 7.76538ZM59.5747 42.492C59.8107 42.076 60.0334 41.6494 60.2374 41.2147C60.3014 41.08 60.304 40.9494 60.2707 40.832C61.4494 37.72 61.4547 34.2481 61.1787 30.9027C60.824 26.6254 59.872 22.2974 58.1027 18.3747C55.392 12.3654 50.7107 7.25738 44.712 4.82538C44.912 4.86671 45.112 4.90272 45.3107 4.94939C46.8547 5.31339 48.2414 5.99873 49.8547 5.95739C51.1854 5.92273 52.9067 4.37471 54.0387 5.85871C54.676 6.69338 54.7867 7.96938 55.2747 8.91071C56.448 11.1747 59.72 10.6374 61.6934 11.5507C63.356 12.3214 64.356 14.1387 64.5814 15.8881C64.772 17.3601 63.872 18.6107 63.8294 20.0414C63.7454 22.8347 66.908 23.9827 66.216 26.9054C65.6347 29.3574 63.228 31.2947 63.8334 34.028C64.1267 35.352 64.6934 36.5427 64.712 37.9227C64.736 39.6761 63.688 41.4107 62.9654 42.948C62.372 44.2107 61.8907 45.4894 61.708 46.88C61.4894 48.5507 62.2707 51.3321 60.044 51.9521C59.7507 52.0334 59.6454 52.28 59.6747 52.5134C59.6054 52.448 59.532 52.3854 59.4654 52.3187C57.8694 50.7547 57.728 48.456 57.8507 46.36C57.8814 45.8267 57.952 45.248 58.0307 44.648C58.0414 44.64 58.052 44.6347 58.0614 44.6241C58.5494 44.1334 59.0374 43.6414 59.5254 43.1521C59.736 42.9387 59.7094 42.68 59.5747 42.492ZM49.7107 1.34672C47.548 2.14405 45.5747 1.27872 43.388 1.46539C41.592 1.61872 39.8894 2.59872 38.3467 3.44805C37.84 3.72672 38.132 4.40139 38.628 4.44139C46.9627 5.11739 53.488 11.088 56.948 18.396C58.716 22.1294 59.6174 26.26 60.056 30.3467C60.4974 34.468 60.492 38.8894 58.276 42.4934C58.4174 40.6427 58.268 38.8187 56.9307 37.5814C59.188 33.9107 58.5067 29.0267 55.3227 26.0654C53.9507 24.7894 52.7707 23.9027 52.772 21.844C52.772 20.6374 53.1454 19.4307 52.9414 18.2241C52.5147 15.6987 50.3734 14.5627 48.116 13.8521C46.4627 13.3307 44.8147 12.9934 43.5014 11.776C42.5 10.844 42.0227 9.39071 41.1067 8.36005C39.2294 6.24938 35.892 7.24805 33.5374 7.59338C31.432 7.90271 30.0347 7.24938 28.5 5.86538C27.628 5.08005 26.7734 4.49872 25.6134 4.24805C24.444 3.99338 23.092 4.44005 21.9574 4.67871C19.8027 5.13205 17.6867 4.56005 15.8934 3.34271C15.508 3.08138 14.9694 3.52405 15.1147 3.95205C16.088 6.81739 17.232 9.32939 20.0854 10.7027C21.556 11.4107 23.2494 11.6401 24.84 11.9147C26.804 12.2494 28.6814 12.7267 30.524 13.4947C37.7494 16.5107 42.6587 23.0947 46.0347 29.912C43.9827 29.4547 41.7174 29.6294 39.94 28.2081C38.5734 27.1174 37.716 26.0107 35.944 25.5841C34.012 25.1214 32.0534 25.4534 30.1147 24.8134C26.2254 23.5307 25.0307 19.2907 21.2947 17.9147C18.148 16.7561 12.16 17.832 11.3067 13.36C11.2267 12.9387 10.8 12.8947 10.52 13.0827C10.3067 13.0867 10.0987 13.2014 10.0227 13.4627C9.16937 16.3307 8.83203 19.3707 10.668 21.928C11.424 22.9814 12.5934 23.4761 13.708 24.0507C15.8507 25.1534 14.964 27.4094 15.4094 29.2827C16.1107 32.2467 18.84 33.264 21.536 33.828C23.7867 34.3 24.992 35.3667 25.8627 37.4387C26.432 38.7921 26.8614 40.1547 27.7307 41.3574C29.6374 43.9907 33.4534 43.8414 35.704 46.0347C37.048 47.3427 37.652 49.0801 38.632 50.5414C36.1987 51.2427 34.0067 49.2707 32.364 47.6734C30.8187 46.1707 29.348 45.0134 27.308 44.2574C24.892 43.3627 22.8547 42.7254 21.0174 40.8254C19.352 39.104 18.8147 36.804 17.9654 34.648C17.412 33.2467 16.6107 32.1374 15.38 31.2774C13.4107 29.8974 10.7574 30.1934 8.9147 28.5187C6.53203 26.3547 8.29871 21.6347 6.10804 19.5387C6.07604 19.5014 6.03869 19.4681 5.99603 19.4401C5.61603 19.1121 5.13203 18.8534 4.49736 18.692C4.0267 18.572 3.6947 19.076 3.90403 19.48C5.61737 22.804 1.3707 26.0894 2.77337 29.6614C4.07337 32.9707 8.54403 33.712 10.8 36.148C13.304 38.8547 12.3214 42.9507 14.6854 45.6027C16.9227 48.1147 21.7307 49.2681 22.3174 52.9414C20.2347 52.2654 18.0614 52.3001 15.904 52.5561C13.0174 52.9001 10.9067 49.8107 9.68403 47.5694C9.04803 46.4014 8.6867 45.1041 8.54004 43.7894C8.44404 42.9161 8.36536 40.796 9.29603 40.3427C9.68536 40.1534 9.6147 39.7227 9.35604 39.5014C9.27337 39.3521 9.12536 39.2361 8.9147 39.2161C5.64536 38.9107 1.83336 41.7681 0.596027 44.7001C-0.00397264 46.1241 0.453369 47.7614 0.921369 49.1427C1.6827 51.392 2.22937 53.4534 2.51737 55.828C2.9227 59.1814 4.0147 62.424 7.45203 63.684C9.78803 64.5374 12.1387 64.8827 13.9867 66.692C15.584 68.2547 16.6627 69.9974 18.7174 71.0361C22.3227 72.8614 25.6374 70.8121 29.036 69.6721C31.5347 68.8334 33.48 70.0334 35.8747 70.5107C37.2454 70.7827 38.584 70.276 39.764 69.632C41.224 68.8347 42.4614 67.696 43.9467 66.9334C45.8307 65.9694 48.028 66.696 50.04 66.3667C53.5 65.8 56.0067 62.7734 59.0974 61.2827C59.1094 61.4334 59.1854 61.58 59.356 61.6774C62.812 63.6534 64.9934 66.7147 68.048 69.1347C69.7934 70.516 72.4854 71.5174 74.3587 69.8787C76.2547 68.22 74.9347 65.3374 73.6374 63.86C72.4374 62.4947 70.8134 61.412 69.4147 60.2627C68.0347 59.1307 66.4174 58.048 65.8827 56.2587C66.796 55.1 67.0067 53.304 66.7787 51.76C66.4707 49.6694 65.6827 47.8321 66.3147 45.7001C66.908 43.6987 68.3947 42.1174 68.884 40.0507C69.24 38.5507 68.6774 36.9641 68.2307 35.5534C67.776 34.1214 67.444 32.7214 68.1067 31.2747C68.5227 30.3641 69.6027 29.66 70.208 28.8467C71.1507 27.5774 70.9094 25.7401 70.5854 24.3174C70.036 21.8961 68.8867 20.0334 69.076 17.4467C69.312 14.2347 69.0427 10.8894 66.34 8.73072C63.404 6.38538 59.0147 7.48271 57.2214 3.59205C56.712 2.48671 56.172 1.12271 54.9027 0.692045C53.0814 0.0720453 51.4374 0.709383 49.7107 1.34672Z" fill="#BC9E66"/>
</svg>
