<svg width="141" height="179" viewBox="0 0 141 179" fill="none" xmlns="http://www.w3.org/2000/svg">
<path d="M73.6493 25.7427C68.8773 29.2574 63.6173 32.132 58.7613 35.5187C59.4573 33.912 59.8987 32.2174 60.172 30.4827C60.2587 30.5347 60.3667 30.5614 60.4973 30.5454C65.5427 29.9441 70.0667 27.6 73.3733 23.7747C73.496 24.416 73.5907 25.0707 73.6493 25.7427ZM75.3227 31.2801C76.9613 34.4707 78.7573 37.5094 79.8173 40.9614C81.7533 47.2694 80.0307 54.2507 75.7973 59.208C75.6347 59.0347 75.3693 58.944 75.1067 59.0907C73.1347 60.192 71.4827 61.648 70.1307 63.3414C70.0627 63.3374 69.9907 63.3454 69.9133 63.372C69.6573 63.46 69.3987 63.56 69.14 63.668C72.988 58.9294 76.1666 53.6054 76.5453 47.356C76.736 44.1894 75.8827 41.3174 74.6067 38.456C73.1067 35.0934 70.9933 30.3174 74.156 27.2787C74.176 28.6534 74.66 29.9894 75.3227 31.2801ZM101.365 55.2427C101.284 55.244 101.204 55.2494 101.124 55.2534C92.484 52.1814 82.6147 54.3187 76.0147 60.6827C76.004 60.6334 75.992 60.5814 75.9813 60.5307C76.0507 60.5014 76.1173 60.4574 76.1786 60.3907C78.2426 58.1307 79.748 55.48 80.652 52.6374C80.6867 52.6254 80.7227 52.612 80.7573 52.5934C87.5973 48.992 95.736 50.1574 101.365 55.2427ZM94.9053 67.6507C93.4133 72.7227 91.4133 79.152 85.4893 80.4374C85.3893 80.4587 85.3093 80.5027 85.2426 80.5587C84.436 79.8214 83.5573 79.1667 82.616 78.6107C87.2493 77.504 89.3693 72.812 90.928 68.6707C92.0426 65.7067 93.3493 63.092 95.3773 60.6347C96.7906 58.9214 98.688 56.572 101.045 56.3414C101.113 56.3507 101.179 56.3467 101.241 56.332C97.664 59.0134 96.1453 63.436 94.9053 67.6507ZM98.7906 67.5294C94.9186 72.1054 92.5667 77.7107 92.0307 83.68C90.2667 82.8534 88.5133 81.9974 86.7627 81.18C92.7893 79.22 94.2667 73.1827 96.0973 67.3747C96.9987 67.3947 97.896 67.4534 98.7906 67.5294ZM100.039 67.6507C101.1 67.772 102.155 67.9254 103.201 68.1214C99.2227 73.056 97.8853 79.5467 96.2813 85.568C95.1987 85.124 94.1253 84.6467 93.056 84.156C93.54 78.0827 95.9133 72.4187 99.9347 67.828C99.9853 67.7707 100.017 67.7107 100.039 67.6507ZM108.441 69.4227C107.004 70.5787 105.363 74.756 105.02 75.5334C103.357 79.304 102.432 83.3867 102.136 87.488C101 87.2267 99.8826 86.92 98.7933 86.536C98.2853 86.3574 97.7787 86.168 97.2747 85.972C98.9053 79.8827 100.197 73.2627 104.392 68.3587C105.757 68.652 107.111 69.004 108.441 69.4227ZM109.739 69.9734L109.757 69.8574C110.763 70.208 111.756 70.5947 112.735 71.0174C110.64 73.12 109.644 76.0934 108.677 78.836C107.6 81.8934 106.853 85.0614 106.352 88.2614C105.289 88.104 104.229 87.9254 103.181 87.7134C103.183 87.7054 103.185 87.6987 103.187 87.6894C103.417 84.4627 104.051 81.3214 105.1 78.2587C105.395 77.3974 108.272 71.192 108.905 70.304C109.195 70.492 109.665 70.4174 109.739 69.9734ZM113.725 71.464C115.137 72.1134 116.519 72.8334 117.86 73.6294C113.921 77.9667 112.777 83.3507 112.001 89.036C110.487 88.8174 108.948 88.6281 107.409 88.4147C107.864 85.5187 108.535 82.68 109.441 79.8907C110.368 77.0414 111.429 73.8014 113.6 71.6547C113.661 71.5934 113.703 71.528 113.725 71.464ZM119.699 74.772C120.476 75.2854 121.232 75.8307 121.971 76.396C118.472 79.9707 118.136 85.1187 117.373 89.8414C117.371 89.8574 117.372 89.8707 117.371 89.8867C115.927 89.66 114.488 89.4174 113.056 89.196C113.813 83.6547 114.893 78.4134 118.788 74.1947C119.092 74.384 119.397 74.5734 119.699 74.772ZM125.439 79.2747C122.913 82.488 122.219 86.4534 121.651 90.4C121.475 90.204 121.169 90.2254 120.96 90.3814C120.112 90.2827 119.265 90.168 118.42 90.0427C118.421 90.036 118.424 90.0294 118.425 90.0227C119.161 85.472 119.435 80.504 122.812 77.0587C123.705 77.7747 124.579 78.5174 125.439 79.2747ZM137.72 88.556C135.792 89.248 133.821 89.7654 131.817 90.1227C131.997 88.6894 132.497 87.3574 133.332 86.1574C134.688 87.1774 136.139 88.0614 137.72 88.556ZM135.764 91.7947C135.48 91.38 135.196 90.9654 134.912 90.5507C136.096 90.2347 137.265 89.864 138.412 89.4387C137.568 90.2734 136.681 91.0534 135.764 91.7947ZM133.999 91.1054C134.305 91.556 134.615 92.0054 134.923 92.456C134.384 92.8694 133.836 93.2734 133.28 93.6667C133.239 93.628 133.191 93.5934 133.128 93.568C132.061 93.1107 131.239 92.388 130.644 91.4187C131.739 91.2667 132.827 91.0574 133.903 90.804C133.901 90.9014 133.928 91.0027 133.999 91.1054ZM127.028 90.6614C127.328 87.948 128.233 85.436 129.783 83.1787C129.785 83.176 129.787 83.1734 129.788 83.1707C129.841 83.2187 129.895 83.2654 129.948 83.3134C130.763 84.0307 131.608 84.784 132.493 85.5014C131.491 86.9427 130.887 88.5534 130.733 90.3014C129.509 90.4814 128.276 90.604 127.028 90.6614ZM129.58 91.708C130.197 92.8654 131.133 93.764 132.289 94.3507C131.491 94.892 130.68 95.42 129.863 95.9387C128.059 95.0774 126.755 93.636 126.084 91.7387C126.396 91.7387 126.708 91.7387 127.02 91.7307C127.857 91.708 128.693 91.6454 129.525 91.5574C129.536 91.608 129.552 91.6587 129.58 91.708ZM122.705 90.5654C123.243 86.8347 123.856 83.032 126.239 79.9854C127.16 80.8067 128.073 81.6387 128.992 82.4614C128.983 82.472 128.973 82.48 128.967 82.492C127.273 84.956 126.249 87.6867 125.952 90.664C125.951 90.6734 125.952 90.6814 125.952 90.692C124.869 90.7014 123.787 90.6534 122.705 90.5654ZM127.644 97.324C127.4 97.4734 127.157 97.6227 126.913 97.7707C124.609 96.2547 122.963 94.1067 122.056 91.5387C123.047 91.632 124.04 91.6947 125.037 91.7227C125.012 91.8147 125.012 91.9174 125.051 92.0307C125.729 94.0014 127.037 95.584 128.809 96.6C128.421 96.8414 128.032 97.084 127.644 97.324ZM125.913 98.3614C124.673 99.0747 123.405 99.7227 122.051 100.211C119.647 97.5534 117.977 94.3854 117.145 90.9094C118.391 91.0987 119.639 91.2747 120.889 91.4174C121.776 94.272 123.508 96.6294 125.913 98.3614ZM116.781 101.217C116.757 101.181 116.728 101.147 116.693 101.113C113.551 98.2467 111.825 94.3187 111.769 90.0934C112.272 90.1614 112.772 90.2307 113.267 90.3067C114.185 90.4467 115.103 90.592 116.021 90.736C116.849 94.42 118.5 97.7147 120.952 100.564C119.6 100.935 118.189 101.108 116.781 101.217ZM114.625 101.355C112.947 101.448 111.343 101.457 109.788 101.324C109.779 101.201 109.717 101.08 109.579 100.984C106.201 98.6374 106.056 93.1587 106.041 89.3374C107.597 89.5667 109.161 89.7534 110.704 89.952C110.696 94.2467 112.369 98.2734 115.363 101.312C115.116 101.327 114.869 101.34 114.625 101.355ZM112.203 102.865C113.092 103.639 113.971 104.432 114.832 105.244C113.409 105.187 112.031 105.523 110.655 106.051C108.779 106.771 106.579 107.772 105.337 109.396C104.433 108.389 103.504 107.405 102.561 106.435C102.565 106.391 102.565 106.348 102.557 106.305C103.373 105.372 105.245 104.625 106.2 104.173C107.585 103.517 109.073 103.083 110.572 102.78C110.767 102.741 110.895 102.623 110.967 102.477C111.315 102.489 111.665 102.496 112.019 102.497C112.023 102.625 112.077 102.756 112.203 102.865ZM119.813 110.451C118.025 110.14 116.261 110.372 114.485 110.875C112.673 111.389 110.283 112.18 108.853 113.519C107.945 112.395 107.013 111.289 106.059 110.204C106.061 110.2 106.065 110.197 106.068 110.193C107.203 108.628 109.272 107.788 111.013 107.056C112.636 106.376 114.328 106.085 116.056 106.484C116.083 106.491 116.107 106.492 116.132 106.495C117.415 107.763 118.651 109.079 119.813 110.451ZM123.356 115.183C119.48 114.087 115.547 115.756 112.144 117.819C111.295 116.645 110.417 115.492 109.52 114.356C110.783 113.088 113.177 112.408 114.844 111.881C116.711 111.291 118.633 111.175 120.525 111.701C120.644 111.735 120.748 111.727 120.833 111.692C121.728 112.817 122.575 113.979 123.356 115.183ZM126.928 122.197C123.305 120.495 119.041 120.837 115.727 123.099C114.779 121.603 113.788 120.135 112.765 118.689C116.243 116.583 120.323 114.849 124.277 116.664C125.309 118.42 126.205 120.261 126.928 122.197ZM128.369 127.796C125.32 126.339 121.731 126.6 118.916 128.473C118.081 126.96 117.208 125.469 116.3 124C119.475 121.827 123.532 121.592 126.948 123.393C127.1 123.473 127.24 123.472 127.359 123.423C127.815 124.843 128.155 126.308 128.369 127.796ZM128.493 134.279C126.404 133.223 123.985 133.212 121.889 134.299C121.721 133.941 121.543 133.591 121.371 133.236C121.596 132.929 121.339 132.48 120.973 132.421C120.472 131.412 119.96 130.407 119.427 129.415C122.047 127.631 125.372 127.437 128.191 128.892C128.305 128.952 128.413 128.967 128.511 128.947C128.687 130.723 128.692 132.515 128.493 134.279ZM125.543 143.119C124.584 140.453 123.512 137.835 122.336 135.265C124.212 134.26 126.507 134.293 128.34 135.395C127.903 138.12 126.989 140.752 125.543 143.119ZM116.592 138.892C117.408 136.816 118.719 135.131 120.5 133.856C122.101 137.177 123.525 140.591 124.755 144.083C122.259 142.004 119.452 140.408 116.592 138.892ZM114.879 137.992C113.66 137.356 112.464 136.692 111.288 136C112.083 134.809 112.92 133.656 113.809 132.533C114.872 131.193 116.167 129.289 117.853 128.752C118.607 130.112 119.332 131.489 120.023 132.884C118.035 134.256 116.547 136.125 115.643 138.392C115.389 138.259 115.135 138.125 114.879 137.992ZM106.08 132.619C107.391 128.749 111.58 125.877 114.803 123.616C115.675 124.991 116.515 126.385 117.32 127.801C116.036 128.261 115.188 129.305 114.281 130.316C112.844 131.923 111.561 133.661 110.373 135.457C108.907 134.567 107.475 133.623 106.08 132.619ZM105.188 131.964C104.511 131.456 103.841 130.936 103.181 130.396C102.711 130.011 102.248 129.616 101.791 129.216C102.428 124.531 107.2 120.423 111.147 118.471C111.185 118.452 111.22 118.429 111.251 118.405C112.276 119.819 113.269 121.256 114.22 122.721C110.924 125.033 106.633 128.023 105.188 131.964ZM97.612 125.193C99.7707 120.48 102.559 115.677 107.848 114.128C107.884 114.117 107.913 114.104 107.943 114.089C108.861 115.223 109.757 116.375 110.627 117.547C106.585 119.589 101.833 123.643 100.849 128.373C99.732 127.353 98.656 126.289 97.612 125.193ZM93.8893 120.964C93.86 120.928 93.8307 120.891 93.8013 120.855C96.5653 116.657 99.5427 112.361 104.169 110.068C104.249 110.028 104.311 109.976 104.36 109.917C105.335 110.996 106.293 112.088 107.221 113.207C101.979 114.872 99.0413 119.599 96.8253 124.351C95.8133 123.251 94.8347 122.121 93.8893 120.964ZM91.0373 117.205C91.056 117.177 91.072 117.149 91.0867 117.116C93.0867 112.465 96.4293 108.711 100.805 106.171C101.777 107.141 102.731 108.132 103.661 109.141C98.9853 111.515 95.932 115.707 93.1027 119.988C92.388 119.089 91.6853 118.164 91.0373 117.205ZM88.876 113.239C89.048 113.229 89.216 113.143 89.3173 112.948C90.3093 111.04 91.4467 109.237 92.7413 107.519C94.0387 105.799 95.516 103.927 97.548 103.069C98.384 103.833 99.2093 104.611 100.019 105.401C95.7466 107.929 92.4173 111.639 90.3547 116.143C89.7853 115.211 89.2826 114.244 88.876 113.239ZM88.048 110.423C89.172 109.517 89.6253 107.775 90.0707 106.485C90.18 106.167 90.2827 105.844 90.3813 105.52C90.436 105.472 90.484 105.408 90.52 105.324C91.3733 103.32 92.5627 101.575 94.088 100.049C94.9693 100.784 95.8373 101.532 96.692 102.296C92.976 104.133 90.3587 108.659 88.5027 112.205C88.3147 111.624 88.1573 111.032 88.048 110.423ZM84.916 109.607C84.2693 109.489 83.6253 109.353 82.9733 109.253C83.0307 109.031 82.9613 108.779 82.692 108.655C73.0093 104.175 58.644 101.203 55.7147 89.188C57.3027 90.0974 59.0187 90.4427 60.764 90.3587C60.8053 90.396 60.8533 90.4307 60.9133 90.4574C70.4387 94.7054 77.8213 102.164 84.916 109.607ZM74.5093 109.691C69.6426 109.131 65.1507 107.057 61.42 103.828C57.6773 100.588 53.6853 94.8667 54.2787 89.62C54.4093 89.532 54.5373 89.4427 54.668 89.3547C57.6267 101.388 71.064 104.695 81.108 109.112C78.92 109.107 76.716 109.377 74.5093 109.691ZM79.2413 118.644C75.468 115.067 70.5467 113.004 65.2987 112.833C65.336 112.613 65.372 112.395 65.4107 112.176C65.4547 111.933 65.3467 111.755 65.1853 111.656C68.2133 111.684 71.3133 111.179 74.4027 110.751C74.644 110.777 74.8853 110.801 75.1266 110.821C76.8066 113.301 78.1587 115.924 79.2413 118.644ZM80.02 121.007C80.0573 121.052 80.0987 121.084 80.14 121.113C80.7387 122.905 81.2293 124.732 81.632 126.583C76.944 122.14 70.872 119.409 64.4133 118.861C64.6133 117.2 64.844 115.543 65.1173 113.889C70.868 114.015 76.3053 116.597 80.02 121.007ZM82.0067 128.46C82.5307 131.305 82.8533 134.196 83.0387 137.093C77.8667 131.763 71.1093 128.287 63.716 127.243C63.8293 124.797 64.0187 122.355 64.288 119.917C71.0587 120.508 77.32 123.525 82.0067 128.46ZM83.132 138.745C83.212 140.497 83.2493 142.249 83.244 143.991C83.2426 144.691 83.236 145.392 83.224 146.095C78.0867 140.397 71.2173 136.584 63.6333 135.277C63.5787 132.957 63.5867 130.637 63.672 128.317C71.1827 129.411 78.0733 133.077 83.132 138.745ZM83.188 147.665C83.1307 149.552 83.0227 151.443 82.8293 153.321C77.8373 148.232 71.2693 144.989 64.1773 144.121C63.9213 141.544 63.7493 138.959 63.6653 136.369C71.292 137.737 78.204 141.711 83.188 147.665ZM82.6707 154.685C82.5227 155.859 82.3347 157.025 82.1053 158.184C77.2107 154.135 71.8067 150.691 65.2893 150.297C65.1707 150.289 65.068 150.317 64.9813 150.365C64.7173 148.655 64.4867 146.939 64.2987 145.217C71.36 146.152 77.8053 149.477 82.6707 154.685ZM80.9467 162.699C80.7973 163.16 80.632 163.615 80.4573 164.067C76.4893 160.608 71.6293 158.453 66.388 157.847C65.908 155.693 65.4907 153.528 65.136 151.352C71.66 151.755 76.9853 155.276 81.8547 159.363C81.5987 160.487 81.3013 161.6 80.9467 162.699ZM80.0293 165.111C79.5013 166.317 78.88 167.48 78.172 168.589C75.3427 166.523 71.848 164.708 68.2733 165.173C67.672 163.116 67.1267 161.044 66.6413 158.957C71.656 159.624 76.252 161.732 80.0293 165.111ZM76.5093 170.896C75.0133 172.731 73.2707 174.3 72.18 176.365C70.8173 173.035 69.6213 169.644 68.5827 166.209C71.8387 165.888 75.012 167.588 77.5813 169.477C77.2413 169.961 76.8853 170.436 76.5093 170.896ZM63.668 169.921C64.316 167.86 64.792 164.651 66.6293 163.311C67.8427 167.773 69.3213 172.167 71.068 176.463C68.5307 174.388 66.02 172.225 63.668 169.921ZM58.1173 163.721C59.4387 159.795 60.46 155.925 64.504 154.004C65.0187 156.768 65.6293 159.516 66.3413 162.237C66.296 162.251 66.2493 162.271 66.204 162.3C64.048 163.657 63.512 166.717 62.8187 169.077C61.1413 167.379 59.56 165.599 58.1173 163.721ZM53.168 155.465C55.4573 151.389 58.6813 147.093 63.256 145.541C63.5307 148.012 63.8813 150.473 64.312 152.921C64.304 152.925 64.2947 152.927 64.2853 152.931C59.9973 154.888 58.724 158.581 57.3453 162.687C55.712 160.436 54.2973 158.037 53.168 155.465ZM51.756 151.664C51.276 150.065 50.9307 148.433 50.6933 146.783C53.6587 142.901 57.2133 137.973 62.6907 138.607C62.792 140.557 62.9387 142.507 63.1373 144.449C58.4413 145.927 55.0907 150.079 52.652 154.228C52.324 153.391 52.02 152.539 51.756 151.664ZM50.3787 137.452C51.8547 135.143 53.9573 133.515 56.3067 132.156C58.192 131.067 60.352 130 62.568 129.916C62.5133 132.455 62.5347 134.996 62.6427 137.532C57.224 137.029 53.5707 141.313 50.508 145.275C50.24 142.679 50.2253 140.052 50.3787 137.452ZM50.544 135.26C50.756 132.996 51.0867 130.727 51.5773 128.497C51.6653 128.468 51.7493 128.408 51.8187 128.307C54.4253 124.535 58.4746 122.199 63.0253 121.836C62.8106 124.167 62.6667 126.503 62.5933 128.839C60.1147 128.888 57.8347 130.111 55.7013 131.276C53.7107 132.364 51.948 133.753 50.5267 135.476C50.532 135.404 50.5373 135.332 50.544 135.26ZM54.752 119.408C54.8027 119.361 54.8533 119.315 54.904 119.268C54.984 119.261 55.0653 119.236 55.148 119.183C57.4467 117.697 60.7987 115.5 63.6867 116.188C63.556 117.105 63.4373 118.023 63.328 118.941C63.1027 119.144 63.0533 119.515 63.24 119.717C63.2 120.063 63.1693 120.411 63.1347 120.757C58.8747 121.037 54.948 122.971 52.16 126.137C52.8067 123.815 53.652 121.556 54.752 119.408ZM47.5547 123.701C43.6733 126.384 39.1133 128.827 34.3187 128.552C44.1707 125.848 50.6787 117.359 55.9787 109.08C56.14 109.188 56.304 109.293 56.4707 109.395C57.9533 110.295 59.48 110.869 61.0387 111.216C59.2267 113.447 57.2787 115.545 55.2013 117.507C54.9573 117.388 54.6213 117.42 54.448 117.723C54.2653 118.043 54.0893 118.364 53.9187 118.689C51.9107 120.485 49.7867 122.159 47.5547 123.701ZM42.488 132.481C41.56 131.148 40.42 130.017 39.068 129.097C40.1787 128.801 41.2707 128.401 42.3333 127.925C43.024 129.372 42.8667 130.955 42.488 132.481ZM40.3627 138.199C38.772 134.683 35.8587 132.081 32.9333 129.601C32.78 129.471 32.612 129.451 32.4667 129.496C32.492 129.472 32.5173 129.447 32.544 129.424C34.448 129.783 36.3213 129.703 38.1413 129.321C38.0627 129.504 38.092 129.719 38.3147 129.868C39.7893 130.859 40.992 132.085 41.9426 133.587C41.9946 133.669 42.0573 133.727 42.1253 133.764C42.1186 133.784 42.112 133.805 42.1067 133.825C41.6413 135.327 41.044 136.783 40.3627 138.199ZM39.7307 139.464C39.6187 139.679 39.5053 139.892 39.3893 140.105C38.7547 141.277 38.0427 142.404 37.2667 143.487C36.2813 138.932 32.9493 135.452 29.096 132.959C30.0373 131.855 31.0347 130.807 32.104 129.828C32.0227 130.017 32.0427 130.245 32.2467 130.419C35.2707 132.983 38.3187 135.66 39.7307 139.464ZM36.4093 144.629C35.4386 145.871 34.3866 147.047 33.26 148.148C31.9213 143.968 29.5987 139.572 25.7307 137.355C26.588 136.127 27.4773 134.931 28.4133 133.779C32.2627 136.271 35.692 139.767 36.3667 144.483C36.3747 144.537 36.3893 144.585 36.4093 144.629ZM32.3946 148.964C31.576 149.715 30.724 150.431 29.8453 151.105C29.556 151.327 29.2587 151.539 28.9627 151.751C28.94 147.476 26.7613 143.576 23.0853 141.297C23.76 140.267 24.4373 139.239 25.1307 138.224C25.148 138.237 25.1653 138.252 25.1853 138.263C28.9813 140.388 31.1626 144.912 32.3946 148.964ZM27.8827 152.485C27.0053 153.056 26.1053 153.588 25.1773 154.072C25.2813 152.996 24.9066 152 24.3613 150.963C23.3173 148.979 21.9027 147.075 20.3213 145.483C21.0613 144.393 21.7853 143.287 22.5093 142.179C22.5226 142.188 22.532 142.197 22.5453 142.205C26.096 144.364 28.156 148.341 27.8827 152.485ZM23.9813 154.617C23.9733 154.636 23.972 154.655 23.9667 154.673C22.7333 155.255 21.4653 155.761 20.1707 156.193C19.864 153.829 18.688 151.736 16.8093 150.252C17.1893 149.789 17.56 149.317 17.924 148.839C18.4293 149.012 18.944 148.377 18.5426 148.012C18.9386 147.473 19.324 146.925 19.7067 146.375C20.832 147.533 21.7427 148.831 22.624 150.183C23.464 151.472 24.5787 153 23.9813 154.617ZM14.604 157.563C14.968 156.123 14.7573 154.607 13.9773 153.352C14.376 152.964 14.7666 152.571 15.1453 152.164C15.4386 152.141 15.6867 151.864 15.6707 151.585C15.8227 151.416 15.9667 151.237 16.116 151.064C17.8453 152.432 18.8987 154.324 19.1333 156.521C17.648 156.965 16.1347 157.315 14.604 157.563ZM13.4627 157.735C11.496 157.989 9.50798 158.083 7.52932 158.011C9.64798 156.953 11.4987 155.623 13.1707 154.111C13.7507 155.169 13.9026 156.419 13.492 157.601C13.476 157.647 13.468 157.692 13.4627 157.735ZM8.18933 153.26C9.22933 153.481 10.196 153.895 11.0747 154.516C9.75733 155.54 8.33332 156.448 6.76265 157.197C7.36798 155.925 7.82399 154.607 8.18933 153.26ZM8.94398 149.803C10.8666 149.967 12.644 150.577 14.2333 151.657C13.9387 151.964 13.6373 152.264 13.3307 152.557C12.88 152.312 12.252 152.801 12.584 153.253C12.3613 153.453 12.1347 153.651 11.9053 153.845C11.872 153.795 11.8293 153.747 11.7693 153.704C10.756 152.985 9.64932 152.487 8.45065 152.224C8.63865 151.424 8.80265 150.616 8.94398 149.803ZM9.54265 145.781C10.3853 145.932 11.4 145.779 12.172 145.944C13.9347 146.32 15.58 147.315 17.0933 148.312C16.412 149.195 15.704 150.051 14.9653 150.871C13.2187 149.655 11.2493 148.929 9.11866 148.749C9.27332 147.765 9.40931 146.775 9.54265 145.781ZM10.2573 140.959C10.3107 140.971 10.368 140.976 10.432 140.971C14.004 140.623 17.4013 141.701 20.12 144.045C20.124 144.049 20.1293 144.052 20.1333 144.055C19.3547 145.217 18.5587 146.36 17.7333 147.469C16.5467 146.703 15.3333 145.995 14.0266 145.436C13.3213 145.135 12.576 144.94 11.8293 144.78C11.444 144.697 10.3373 144.776 9.69066 144.684C9.85999 143.437 10.0373 142.192 10.2573 140.959ZM11.4507 136.135C15.5733 136.207 19.4053 137.743 22.4707 140.496C21.8907 141.387 21.3106 142.277 20.7266 143.163C17.848 140.715 14.224 139.563 10.46 139.897C10.72 138.623 11.0347 137.364 11.4507 136.135ZM13.6813 131.152C18.1667 131.079 22.4093 132.617 25.824 135.532C24.8733 136.856 23.9613 138.22 23.06 139.595C19.9146 136.805 16.02 135.259 11.8373 135.084C12.3613 133.731 12.9813 132.42 13.6813 131.152ZM16.8786 126.265C21.528 126.057 25.9946 127.911 29.0946 131.395C28.168 132.437 27.2947 133.535 26.4533 134.668C23.012 131.751 18.7773 130.167 14.2946 130.085C15.084 128.765 15.9493 127.491 16.8786 126.265ZM18.6987 124.003C19.1987 123.416 19.716 122.841 20.248 122.277C24.6693 123.02 28.584 125.141 31.6413 128.431C31.6587 128.449 31.6773 128.463 31.6946 128.477C31.68 128.499 31.668 128.521 31.652 128.541C31.5667 128.66 31.5373 128.783 31.5467 128.9C30.9453 129.448 30.3693 130.021 29.8106 130.613C26.6666 127.175 22.352 125.228 17.7227 125.184C18.0427 124.785 18.368 124.391 18.6987 124.003ZM23.9253 118.897C24.9906 119.104 26.0573 119.301 27.1173 119.533C28.8387 119.912 30.0387 121.019 31.2333 122.233C31.364 122.365 31.508 122.4 31.6413 122.373C32.3813 124.129 32.8133 125.903 32.2173 127.497C29.2227 124.325 25.3973 122.215 21.1453 121.356C22.0253 120.484 22.9493 119.656 23.9253 118.897ZM28.7653 115.987C28.82 116.183 28.8787 116.379 28.94 116.573C29.2867 117.66 29.9413 118.888 30.596 120.172C29.9587 119.637 29.276 119.173 28.4747 118.832C27.4413 118.392 26.2693 118.201 25.1293 118.017C26.2733 117.229 27.4827 116.541 28.7653 115.987ZM29.7347 115.411C29.8107 115.196 29.74 114.937 29.5747 114.788C29.0987 112.733 29.1386 110.647 30.3106 108.631C30.4866 108.328 30.32 108.065 30.0693 107.957C31.58 107.38 32.9907 106.511 34.3493 105.512C31.5867 110.083 31.604 115.883 32.196 121.304C32.1307 121.161 32.0667 121.016 31.9987 120.873C31.176 119.144 30.2627 117.296 29.7347 115.411ZM26.7253 107.685C21.156 107.972 15.6067 104.152 12.052 100.219C9.68666 97.6014 7.28132 93.9534 6.52132 90.208C10.0107 94.672 14.028 98.7134 19.288 101.047C21.6907 102.112 24.2746 102.605 26.892 102.651C29.8493 102.701 32.808 102.175 35.68 103.089C35.3573 103.356 35.036 103.624 34.712 103.889C32.3573 105.82 29.8586 107.524 26.7253 107.685ZM21.936 98.1294C25.6933 98.204 29.396 96.8747 33.0707 96.2867C36.668 95.7107 40.3373 95.7174 43.948 96.1694C43.084 96.8814 42.2227 97.5987 41.364 98.32C39.7707 99.6587 38.184 101.005 36.5853 102.339C36.5347 102.279 36.4653 102.228 36.3693 102.195C34.1547 101.424 31.908 101.413 29.5893 101.505C26.5453 101.628 23.732 101.516 20.8253 100.508C16.8466 99.1267 13.5373 96.5027 10.672 93.4547C13.7813 96.2054 17.5773 98.0414 21.936 98.1294ZM51.24 103.325C52.0667 105.284 53.364 107.059 55.1227 108.453C49.7947 116.768 43.296 125.297 33.2333 127.731C33.2453 127.699 33.2506 127.665 33.2613 127.633C33.2973 127.619 33.3333 127.6 33.3693 127.576C41.9493 121.795 48.252 113.205 51.24 103.325ZM33.5347 123.455C32.576 116.324 31.9227 107.773 38.1493 102.732C38.316 102.597 38.372 102.417 38.3533 102.249C38.5267 102.101 38.7 101.955 38.8747 101.808C41.0533 99.976 43.2253 98.136 45.4293 96.336C45.58 96.3 45.692 96.1974 45.7573 96.0694C47.7107 94.4787 49.6893 92.92 51.7213 91.432C51.656 91.556 51.5987 91.6827 51.5387 91.808C51.492 91.8347 51.4467 91.8667 51.4053 91.9107C42.9693 100.821 36.8453 111.665 33.5347 123.455ZM50.6133 94.3534C49.9773 96.816 50.012 99.4054 50.7053 101.805C50.6053 101.873 50.524 101.975 50.4853 102.117C47.8467 111.653 41.9973 120.013 34.0147 125.808C36.924 114.131 42.636 103.336 50.6133 94.3534ZM64.5907 111.643C64.4773 111.711 64.3893 111.827 64.3586 111.995C64.2933 112.356 64.2347 112.717 64.172 113.079C64.1413 113.152 64.128 113.233 64.132 113.317C64.0293 113.92 63.9413 114.527 63.8493 115.131C61.9427 114.669 59.896 115.305 58.0133 116.248C59.4907 114.716 60.896 113.116 62.22 111.456C62.224 111.448 62.228 111.443 62.2333 111.435C63.012 111.552 63.7987 111.616 64.5907 111.643ZM71.1586 110.167C67.212 110.695 63.2773 110.976 59.4347 109.661C51.7347 107.027 49.044 97.652 53.1573 91.0454C53.324 95.8894 56.6907 100.711 59.948 103.92C63.032 106.96 66.9626 109.113 71.1586 110.167ZM9.04133 90.2454C11.136 91.8974 13.56 93.0974 16.2213 93.7934C19.8987 94.756 23.8027 94.268 27.44 93.3947C35.3653 91.492 42.9946 86.964 51.3933 88.1467C51.532 88.1667 51.648 88.136 51.7426 88.0787C52.2827 88.3134 52.832 88.5001 53.384 88.6161C53.3573 88.6654 53.3347 88.7187 53.3227 88.7814C53.3067 88.8614 53.2973 88.94 53.284 89.0187C50.46 90.976 47.744 93.08 45.0773 95.2467C41.8733 94.776 38.6586 94.668 35.4266 94.928C31.812 95.22 28.3453 96.2814 24.7747 96.836C18.3853 97.8294 12.9747 94.856 9.04133 90.2454ZM8.84798 88.692C13.7173 91.3747 19.736 90.608 24.976 88.9787C32.1413 86.752 39.4093 82.7627 47.0853 85.0867C47.1387 85.1027 47.1853 85.108 47.2307 85.1094C47.944 85.6974 48.764 86.3427 49.6533 86.9254C43.104 86.624 36.8827 89.3574 30.7293 91.3414C26.96 92.5574 23.052 93.476 19.0653 93.176C15.2373 92.8894 11.664 91.2267 8.84798 88.692ZM43.4987 81.5707C44.104 82.3054 44.7947 82.9854 45.4867 83.6134C39.7533 82.5574 34.024 84.6027 28.648 86.5707C24.3893 88.1294 19.4493 89.7294 14.844 89.3694C17.144 88.876 19.22 87.652 21.2027 86.312C27.4413 82.0974 34.4627 77.5907 42.2893 80.3147C42.4013 80.3534 42.5067 80.3547 42.6027 80.332C42.8053 80.656 43.0267 80.972 43.2653 81.2787C43.2933 81.3947 43.368 81.5 43.4987 81.5707ZM7.25733 85.5254C9.11333 86.0067 11.0867 85.2214 12.772 84.32C15.488 82.8654 17.948 81.0094 20.5373 79.352C23.4173 77.508 26.42 76.2454 29.88 76.2254C30.4173 76.2227 30.9587 76.2414 31.5027 76.2707C31.5107 76.2787 31.5186 76.2867 31.528 76.296C31.7413 76.5094 31.9933 76.472 32.1667 76.32C35.3227 76.5614 38.528 77.2694 41.5667 77.9707C41.588 77.9867 41.6107 78.0027 41.6307 78.0187C41.708 78.3907 41.8253 78.752 41.9707 79.108C36.3133 77.4534 30.6107 79.1987 25.6133 82.0907C22.528 83.8774 19.8387 86.3067 16.5547 87.7467C13.3827 89.1374 9.05733 88.82 7.25733 85.5254ZM21.6667 58.756C22.5213 61.5907 23.504 64.3814 24.6227 67.128C25.3573 68.9334 26.1053 70.632 27.396 72.1134C28.34 73.1947 29.388 74.2027 30.424 75.2094C28.24 75.22 26.0853 75.5267 24.024 76.3187C20.1013 71.2707 21.4053 64.9174 21.6667 58.756ZM39.556 76.4187C37.0773 75.8707 34.5227 75.3907 31.9867 75.2494C30.8653 74.1241 29.7426 73.0014 28.6266 71.872C27.0253 70.2534 26.2267 68.2374 25.384 66.1667C24.2133 63.292 23.22 60.3467 22.364 57.3627C25.912 65.224 32.7387 71.1174 39.556 76.4187ZM22.3707 54.4707C24.256 57.1414 27.0427 59.4027 29.3707 61.4614C32.7507 64.4507 36.416 67.104 40.2413 69.4894C39.5253 71.8667 40.304 74.2387 41.5093 76.5814C33.7106 70.5854 25.624 63.9587 22.3707 54.4707ZM26.0507 56.8814C24.6853 55.5214 23.2773 54.1414 22.36 52.4387C25.52 54.3934 29.1973 55.4094 32.4653 57.188C36.2747 59.26 40.5133 62.2934 42.0387 66.5347C41.7907 66.7547 41.5507 67.0214 41.32 67.3387C41.0453 67.7214 40.8187 68.1027 40.6333 68.484C37.0973 66.272 33.748 63.8054 30.5773 61.096C29.008 59.756 27.5107 58.336 26.0507 56.8814ZM41.8586 51.3894C41.8613 51.392 41.864 51.3934 41.868 51.396C42.824 52 43.7213 52.7387 44.5413 53.6507C44.5453 53.6547 44.5493 53.6574 44.552 53.6614C44.1027 55.4587 43.852 57.3054 43.7893 59.1667C41.4373 55.9907 38.236 53.6387 34.4973 52.276C30.1933 50.708 25.5 51.324 21.052 50.3547C27.752 49.3334 35.948 47.664 41.8586 51.3894ZM23.4507 46.8987C24.7613 46.2854 25.7853 45.2467 26.788 44.1494C28.5347 42.2414 30.188 40.284 31.2413 37.9014C32.352 37.9067 33.4533 38.0374 34.556 38.3067C34.5533 38.3147 34.548 38.3214 34.544 38.3307C33.2147 41.4574 30.6133 46.188 26.9426 46.9147C26.564 46.9894 26.4267 47.3614 26.5013 47.648C25.472 47.4374 24.4547 47.188 23.4507 46.8987ZM21.7626 46.3774C20.2866 45.8814 18.844 45.3 17.4387 44.6387C20.8947 44.3547 23.416 41.8481 25.7 39.3134C25.872 39.1227 25.8653 38.9094 25.768 38.7414C27.2267 38.32 28.644 38.0427 30.0426 37.9427C29.2133 39.6334 28.0746 41.088 26.828 42.5094C25.4546 44.076 24.0613 45.7974 21.9467 46.2947C21.8733 46.312 21.8133 46.3414 21.7626 46.3774ZM15.9946 43.9227C13.2373 42.488 10.6427 40.7387 8.27333 38.6934C10.0667 39.5187 11.9747 40.084 13.972 40.3867C17.5933 40.9334 20.9907 40.144 24.4173 39.1387C22.3133 41.444 19.8773 43.7867 16.5333 43.6094C16.276 43.596 16.0893 43.7387 15.9946 43.9227ZM2.03999 30.8C4.35866 32.4334 7.02931 33.3747 9.77731 34.0947C9.22265 35.3267 8.34132 36.2667 7.15199 36.9187C6.33599 36.4454 5.55332 35.9187 4.81465 35.3387C4.77865 35.3107 4.74398 35.288 4.70931 35.2694C3.56265 33.928 2.67733 32.4334 2.03999 30.8ZM9.29198 29.4294C9.40798 29.4067 9.51999 29.388 9.63466 29.3654C10.072 30.5027 10.248 31.7 10.1227 32.9227C10.1173 32.9827 10.1227 33.036 10.132 33.088C7.48665 32.4054 4.91331 31.5161 2.67598 29.9441C4.86798 30.2547 7.07065 29.88 9.29198 29.4294ZM14.4547 28.7507C14.456 28.7534 14.456 28.756 14.4573 28.7587C15.256 30.476 15.4347 32.3254 14.9733 34.1627C14.9707 34.1774 14.9707 34.192 14.968 34.2067C14.5253 34.108 14.0827 34.0094 13.64 33.9107C12.796 33.7227 11.9467 33.532 11.1013 33.3294C11.14 33.268 11.1666 33.1947 11.176 33.104C11.3133 31.76 11.1613 30.428 10.7027 29.1667C11.9667 28.9534 13.2093 28.8094 14.4547 28.7507ZM19.5133 29.052C20.18 31.0134 20.216 33.0507 19.648 35.0427C19.6267 35.1174 19.624 35.1854 19.632 35.2481L15.9933 34.436C16.0053 34.4067 16.0186 34.3761 16.0266 34.3427C16.4973 32.4654 16.3413 30.5014 15.5973 28.7227C16.8853 28.72 18.1853 28.8227 19.5133 29.052ZM21.6667 36.8054C22.9293 37.084 24.1907 37.3614 25.452 37.6414C23.7227 38.1254 22.012 38.6974 20.2573 39.0814C20.8013 38.3707 21.2707 37.6107 21.6667 36.8054ZM13.5147 39.028C13.412 39.0707 13.336 39.132 13.2827 39.204C11.536 38.8774 9.83465 38.304 8.24265 37.508C9.40531 36.744 10.2893 35.6654 10.8307 34.3614C11.0747 34.42 11.3187 34.4787 11.5627 34.536C13.1627 34.9107 14.764 35.2734 16.3667 35.632C16.0293 37.1867 15.0107 38.4267 13.5147 39.028ZM17.416 35.8654C18.4733 36.1014 19.5307 36.3334 20.5893 36.5667C20.0813 37.5494 19.4573 38.4481 18.704 39.2774C18.6773 39.3081 18.656 39.3387 18.6373 39.3694C18.2093 39.4267 17.7786 39.4734 17.3426 39.496C16.5546 39.536 15.7653 39.5187 14.9813 39.4494C16.2227 38.6214 17.088 37.3654 17.416 35.8654ZM23.0013 29.9214C23.0013 29.9227 23.0013 29.9254 23.0027 29.9267C23.8347 31.9094 23.9573 34.016 23.376 36.084C22.8866 35.9747 22.3973 35.8654 21.908 35.756C21.7493 35.4974 21.3667 35.3841 21.1187 35.5801C20.936 35.5387 20.752 35.4987 20.5693 35.4574C20.6267 35.3947 20.6733 35.3187 20.7013 35.2227C21.2587 33.2654 21.2453 31.2334 20.7 29.2894C21.4813 29.4654 22.2467 29.6787 23.0013 29.9214ZM24.3106 30.384C25.0013 30.644 25.68 30.9334 26.3507 31.2414C26.2373 31.4 26.2106 31.612 26.36 31.8187C27.4573 33.3347 26.8827 35.1374 26.2373 36.7227C25.6293 36.5867 25.02 36.4507 24.412 36.3147C24.416 36.3027 24.4213 36.2921 24.4253 36.2787C24.976 34.3307 24.9306 32.292 24.3106 30.384ZM30.436 33.4481C30.4013 33.5761 30.416 33.7214 30.5067 33.8627C31.0413 34.696 31.0533 35.8054 30.4907 36.6307C30.4627 36.672 30.4426 36.7147 30.4253 36.7574C30.208 36.7654 29.9907 36.7734 29.7693 36.7907C28.896 36.8614 28.0413 37.0107 27.1946 37.2C27.888 35.4734 28.4373 33.56 27.6173 31.8547C28.5773 32.344 29.5133 32.8814 30.436 33.4481ZM36.6467 37.8587C35.0613 37.2254 33.3787 36.836 31.6187 36.7587C31.972 35.9974 32.0533 35.156 31.856 34.356C33.5013 35.448 35.096 36.6334 36.6467 37.8587ZM32.9946 47.9774C32.9573 48.0067 32.9253 48.0374 32.8987 48.0694C31.7867 48.052 30.6613 48.0934 29.5347 48.1774C29.4867 48.1547 29.4347 48.1374 29.372 48.1294C28.764 48.0507 28.1626 47.9534 27.5613 47.848C31.4173 46.744 34.06 42.1987 35.5147 38.7761C35.5413 38.7134 35.5533 38.652 35.5573 38.5934C36.2213 38.808 36.888 39.072 37.5573 39.4C38.092 39.6614 38.608 39.956 39.1107 40.2747C38.868 40.264 38.612 40.3907 38.5347 40.6894C37.728 43.812 35.5106 46.0947 32.9946 47.9774ZM42.8333 43.3734C42.7413 43.4414 42.6667 43.5374 42.6267 43.668C41.9693 45.8347 40.544 47.508 38.5693 48.5907C38.4747 48.6427 38.4133 48.7094 38.3733 48.7814C37.1267 48.444 35.8347 48.24 34.5147 48.1414C36.8707 46.2134 38.804 43.9027 39.5867 40.8707C39.616 40.7587 39.6093 40.6614 39.5787 40.5787C40.7587 41.3814 41.844 42.3307 42.8333 43.3734ZM44.9813 45.98C44.9253 46.064 44.8907 46.1694 44.8933 46.2947C44.9307 48.0814 43.2747 49.1894 42.0613 50.3107C41.2893 49.86 40.4867 49.4854 39.6573 49.1867C41.5373 48.012 42.8547 46.2907 43.568 44.188C44.0667 44.764 44.5373 45.364 44.9813 45.98ZM46.6453 48.1227C45.924 49.5227 45.332 50.9787 44.88 52.4787C44.2773 51.8774 43.6427 51.352 42.9827 50.8934C44.148 49.7907 45.4413 48.7694 45.8347 47.2427C45.972 47.456 46.1107 47.668 46.2413 47.8854C46.3453 48.0574 46.496 48.1254 46.6453 48.1227ZM51.024 69.1347C49.8533 68.284 48.4973 67.2307 47.1187 66.5054C49.0227 64.6934 50.0747 62.3054 51.0747 59.8747C52.42 56.5987 53.4573 53.2014 54.6307 49.8627C56.776 43.764 59.64 37.5827 64.8627 33.6294C57.3707 43.7547 58.8027 58.924 51.024 69.1347ZM64.0707 48.0414C63.2907 56.792 61.148 64.9574 56.5907 72.5C55.3933 71.088 53.9933 69.908 52.2627 69.2507C60.388 57.892 57.8987 40.572 68.6347 31.056C65.324 35.8667 64.5893 42.2334 64.0707 48.0414ZM69.3147 47.044C69.444 55.0867 66.2227 62.128 62.0253 68.808C61.952 68.924 61.9347 69.0347 61.9533 69.1334C60.3733 71.08 59.2227 73.3187 58.888 75.6267C58.4413 74.8267 57.8787 74.0774 57.308 73.368C61.4653 66.6467 63.948 59.1854 64.8253 51.3374C65.6373 44.072 65.6747 35.4707 70.884 29.928C68.484 35.176 69.2227 41.3307 69.3147 47.044ZM66.6733 64.9374C66.6653 64.9454 66.6613 64.9547 66.6547 64.964C66.0013 65.3747 65.3613 65.84 64.744 66.344C67.7173 61.1494 70.004 55.6174 70.3373 49.54C70.664 43.568 69.284 36.9907 71.4253 31.3414C71.4746 35.5334 74.7067 40.2814 75.3333 44.1014C76.6387 52.04 71.6 59.2867 66.6733 64.9374ZM59.556 81.496C62.8707 77.1147 63.84 71.112 67.732 67.2174C66.812 69.1374 66.156 71.2014 65.7627 73.3134C65.1507 76.588 65.032 79.9321 63.1667 82.8161C61.5013 85.3894 58.6947 87.0774 55.712 87.612C55.6453 87.588 55.5733 87.584 55.4987 87.5907C57.4053 85.912 58.9507 83.86 59.556 81.496ZM51.7813 85.8481C52.8227 86.2734 54.1253 86.5534 55.2747 86.352C54.9453 86.6667 54.6107 86.9614 54.276 87.232C54.136 87.3454 54.076 87.4907 54.0707 87.636C52.9093 87.4987 51.7387 86.948 50.6493 86.2707C51.048 86.1814 51.4253 86.0347 51.7813 85.8481ZM49.5813 84.0947C50.0147 83.8254 50.244 83.3867 50.4333 82.9174C50.7227 82.944 51.024 82.92 51.3267 82.8574C51.2453 83.088 51.308 83.352 51.6093 83.4574C51.944 83.5747 52.2773 83.6547 52.6093 83.7C51.9066 84.792 50.6627 85.4374 49.3373 85.3161C49.308 85.3134 49.2813 85.3147 49.2547 85.3161C48.8827 85.0414 48.5267 84.7654 48.1947 84.5054C48.6733 84.4787 49.1333 84.372 49.5813 84.0947ZM46.324 82.26C46.6973 82.2867 47.0427 82.2534 47.4 82.1467C47.696 82.0587 47.8773 81.6987 48.1107 81.548C48.1933 81.5547 48.272 81.5427 48.3426 81.5147C48.5786 81.5934 48.8053 81.6387 49.0013 81.6387C49.3 81.6387 49.584 81.584 49.8586 81.496C49.7253 81.7707 49.6133 82.056 49.5 82.3534C49.1013 83.4107 48.3707 83.5174 47.3453 83.4147C47.192 83.3987 47.0627 83.4427 46.964 83.5187C46.46 83.0987 45.9373 82.64 45.4307 82.1427C45.7253 82.1947 46.0227 82.2374 46.324 82.26ZM46.4187 79.7614C46.504 80.2 46.848 80.6174 47.28 80.948C47.1413 81.0667 46.988 81.168 46.7813 81.1987C45.9333 81.324 44.904 80.9907 44.1107 80.6747C43.6027 80.02 43.1773 79.328 42.9067 78.6147C43.992 79.3187 45.2027 79.7067 46.4187 79.7614ZM43.9213 66.6347C45.0427 66.396 46.2507 67.256 47.1173 67.828C48.4373 68.6974 49.7467 69.584 51.06 70.4614C52.6293 72.5654 52.308 75.1734 50.5547 77.1427C50.3467 77.3774 50.1187 77.5747 49.884 77.7534C49.7747 77.7867 49.6947 77.852 49.64 77.9334C47.608 79.2734 44.7893 78.7947 42.8867 77.276C42.9333 77.14 42.9293 76.9854 42.844 76.8307C41.428 74.2694 40.204 71.6614 41.644 68.828C41.856 68.4107 42.1307 67.9627 42.468 67.5774C42.8107 67.8134 43.4347 67.4734 43.2907 66.9427C43.2853 66.9254 43.28 66.9107 43.276 66.8947C43.476 66.7774 43.6893 66.684 43.9213 66.6347ZM58.3253 39.3494C56.936 41.5334 55.7947 43.9 54.8227 46.308C53.496 49.592 52.4613 52.9894 51.2773 56.3254C50.092 59.6694 48.856 63.6494 46.068 66.0227C45.8253 65.9307 45.5827 65.8534 45.3413 65.7947C45.3987 65.6854 45.424 65.556 45.392 65.4107C45.2266 64.6627 45.1 63.9147 45.0053 63.1694C45.036 63.1227 45.0627 63.0707 45.08 63.008C47.4933 54.1454 52.0666 46.0134 58.3253 39.3494ZM54.0107 71.668C54.2613 72.556 53.8027 73.2987 53.1347 73.8014C53.1867 72.6427 52.9227 71.4694 52.3227 70.436C52.896 70.704 53.4547 71.0467 53.9933 71.4414C53.984 71.5107 53.988 71.5867 54.0107 71.668ZM56.2507 73.6227C56.036 73.7307 55.8907 73.9601 56.0067 74.2494C56.48 75.4414 55.888 76.8227 54.6733 77.2654C54.664 77.268 54.656 77.2747 54.6453 77.2774C54.568 77.1774 54.484 77.08 54.3867 76.984C55.0067 76.084 55.228 74.98 54.732 73.94C54.6973 73.868 54.6533 73.8107 54.604 73.7654C54.8867 73.3534 55.076 72.8894 55.12 72.3814C55.4907 72.728 55.84 73.1014 56.1707 73.4894C56.188 73.5387 56.216 73.5827 56.2507 73.6227ZM60.0253 78.672C58.7573 73.3347 63.7133 67.612 68.5107 65.1427C63.9347 68.5214 62.768 74.1654 60.04 78.844C60.044 78.7894 60.0386 78.732 60.0253 78.672ZM54.9787 79.6787C55.1413 79.2 55.1987 78.712 55.1 78.2414C56.4667 77.708 57.3133 76.3174 57.2347 74.904C57.6387 75.5214 57.9773 76.1614 58.2493 76.8C57.9947 76.888 57.796 77.14 57.9107 77.468C58.4747 79.0667 56.292 79.8027 54.9787 79.6787ZM55.9627 82.8827C56.8013 82.2774 57.4493 81.376 57.7733 80.2467C57.796 80.1667 57.8 80.0934 57.7907 80.028C58.2347 79.7294 58.6027 79.3507 58.8267 78.9054C58.8907 79.572 58.832 80.2294 58.6907 80.872C58.616 80.968 58.544 81.0654 58.4667 81.16C58.2987 81.3694 58.3227 81.6014 58.4373 81.776C58.432 81.788 58.4293 81.8014 58.4253 81.8147C58.2813 81.8414 58.144 81.9227 58.052 82.0787C57.616 82.8067 56.7427 83.0614 55.9627 82.8827ZM53.8067 83.7414C53.8107 83.732 53.8133 83.7227 53.8173 83.712C54.1507 83.6734 54.4733 83.6 54.784 83.4934C54.8253 83.5454 54.8787 83.5934 54.9453 83.632C55.7187 84.0747 56.6107 84.116 57.396 83.8414C57.3133 83.968 57.2253 84.0934 57.1373 84.2174C56.9413 84.1014 56.6947 84.1107 56.5293 84.3614C55.7253 85.588 54.136 85.4987 52.832 85.0947C53.2253 84.716 53.5587 84.2627 53.8067 83.7414ZM50.2573 80.084C49.76 80.4894 49.2133 80.6907 48.5813 80.46C48.4933 80.428 47.7493 79.9614 47.5227 79.7214C48.4373 79.608 49.336 79.3027 50.1693 78.7894C50.648 78.768 51.1586 78.72 51.6586 78.6214C51.2453 79.156 50.7853 79.652 50.2573 80.084ZM56.5147 80.608C55.772 82.2267 54.004 83.052 52.256 82.5454C53.12 82.1454 53.928 81.4667 54.4693 80.68C55.0867 80.8414 55.8187 80.8054 56.5147 80.608ZM51.7547 77.424C52.312 76.7467 52.708 75.9707 52.9293 75.1507C53.2587 74.992 53.564 74.7974 53.84 74.5774C54.3853 76.1027 53.1347 76.9987 51.7547 77.424ZM53.128 78.384C53.1947 78.2814 53.2227 78.1747 53.2213 78.072C53.3773 77.9827 53.528 77.884 53.668 77.772C55.1453 79.2227 52.596 81.624 50.8773 81.8387C50.944 81.7134 51.016 81.592 51.1013 81.4814C51.28 81.2494 51.2333 80.9907 51.088 80.812C51.9253 80.144 52.6093 79.1867 53.128 78.384ZM35.2266 57.6214C31.5426 55.1574 27.1013 54.0667 23.3426 51.8094C26.412 52.1654 29.504 52.1027 32.5373 52.8C37.076 53.8427 41.0373 56.852 43.5667 60.7067C43.6293 60.8014 43.704 60.8614 43.7853 60.8974C43.8347 62.4894 44.024 64.084 44.3653 65.6627C43.8827 65.6534 43.412 65.7427 42.9586 65.9427C41.58 62.3107 38.3946 59.74 35.2266 57.6214ZM70.8507 74.3774C69.624 80.4174 65.688 85.9547 60.1707 88.7614C59.948 88.876 59.856 89.084 59.8586 89.2854C58.7573 89.2454 57.6733 89.004 56.656 88.5C61.7107 87.2707 65.028 83.2214 66.084 78.0907C66.7987 74.6107 67.06 71.2507 68.5227 67.9507C69.5893 65.544 71.1693 63.4174 73.1586 61.744C71.404 65.676 71.7053 70.1654 70.8507 74.3774ZM76.1547 67.252C76.1387 67.3374 76.1507 67.4227 76.1853 67.5C76.7093 71.816 76.5253 76.144 74.4426 80.156C72.712 83.488 69.356 85.8054 66.1587 87.5947C64.7506 88.3827 63.1707 88.972 61.5707 89.196C65.8973 86.6694 69.0307 82.712 70.8733 78.0307C73.0467 72.5054 71.6053 65.7987 74.896 60.7267C74.908 60.708 74.916 60.6894 74.9253 60.6694C75.4093 62.8307 75.872 65.0374 76.1547 67.252ZM77.0893 66.228C76.856 64.6854 76.5533 63.1614 76.2347 61.688C76.3813 61.7 76.5347 61.656 76.6653 61.528C82.2 56.0854 90.3373 53.828 97.8546 55.4294C90.0426 56.9867 82.8627 60.7227 77.0893 66.228ZM87.676 63.304C84.5813 66.9694 82.56 72.0054 77.4907 73.2814C77.612 71.3894 77.5053 69.4534 77.2693 67.532C82.4827 62.3494 88.9973 58.6947 96.0893 56.92C92.8373 58.4027 90.0026 60.5494 87.676 63.304ZM81.3787 77.96C80.0253 77.328 78.556 76.896 76.9786 76.7134C77.172 75.9254 77.3067 75.1214 77.3973 74.3067C77.492 74.34 77.5987 74.3507 77.7147 74.3227C81.7747 73.3654 84.2227 69.9934 86.4707 66.7414C89.0147 63.06 92.0253 60.1067 95.9613 58.1627C94.4347 59.7494 93.168 61.6707 92.2667 63.0987C89.2253 67.916 88.7293 76.68 81.7693 77.6947C81.58 77.7227 81.452 77.828 81.3787 77.96ZM93.708 92.7987C92.604 91.7747 91.576 90.6854 90.6667 89.5094C89.916 86.9494 88.684 84.528 87.04 82.484C89.1907 83.4934 91.3427 84.5347 93.5187 85.5107C93.2427 87.9454 93.0453 90.468 93.708 92.7987ZM99.5787 95.7267C99.6613 96.132 99.8053 96.8934 100.044 97.6587C99.848 97.528 99.652 97.4027 99.4546 97.2694C99.396 97.1747 99.3053 97.108 99.184 97.0854C97.9386 96.232 96.7053 95.3334 95.5266 94.3747C94.024 91.832 94.2227 88.8107 94.54 85.964C96.0013 86.6 97.4747 87.1987 98.968 87.7254C99.212 87.8107 99.4587 87.892 99.7053 87.9707C99.088 90.5387 99.048 93.132 99.5787 95.7267ZM104.659 100.207C104.581 100.028 104.409 99.9054 104.153 99.9547C104.128 99.9587 104.104 99.9667 104.08 99.972C103.612 99.7747 103.147 99.5534 102.683 99.3067C102.677 98.9694 102.389 98.6387 101.993 98.808C101.24 99.1294 100.361 93.9507 100.316 93.528C100.131 91.764 100.319 89.992 100.725 88.2734C102.109 88.656 103.537 88.9374 104.979 89.172C104.977 89.1787 104.976 89.1854 104.976 89.1934C104.988 92.9747 105.139 98.2654 108.057 101.109C106.904 100.916 105.773 100.628 104.659 100.207ZM99.676 103.589C99.7093 103.567 99.7413 103.539 99.772 103.507C100.893 102.3 102.301 101.476 103.893 101.1C105.336 101.692 106.816 102.056 108.335 102.264C107.304 102.576 106.296 102.952 105.307 103.42C104.217 103.937 102.66 104.645 101.765 105.625C101.08 104.937 100.383 104.259 99.676 103.589ZM95.7707 100.075C96.612 99.1214 97.6907 98.4654 98.932 98.1867C99.6627 98.684 100.399 99.1667 101.132 99.64C101.229 99.7227 101.333 99.788 101.444 99.836C101.788 100.051 102.135 100.248 102.483 100.433C101.148 100.943 99.9613 101.736 98.9546 102.819C98.9386 102.836 98.9267 102.855 98.9133 102.873C97.8867 101.917 96.836 100.988 95.7707 100.075ZM94.6413 95.008C93.6133 95.468 92.7027 96.1147 91.9147 96.9374C91.808 96.856 91.7053 96.772 91.6 96.6907C91.596 95.592 91.5387 94.5 91.4333 93.4254C91.38 92.8787 91.304 92.3334 91.2067 91.7907C92.264 92.9427 93.424 94.0054 94.6413 95.008ZM94.1707 98.7387C93.7027 98.356 93.232 97.9747 92.7573 97.5987C93.5627 96.772 94.508 96.1667 95.5947 95.772C96.3227 96.3374 97.064 96.8867 97.816 97.4161C96.7187 97.8214 95.7547 98.4787 94.956 99.3854C94.88 99.3214 94.8026 99.2587 94.7253 99.1947C94.6906 98.9574 94.4427 98.7534 94.1707 98.7387ZM86.9333 109.748C86.7933 109.796 86.648 109.817 86.4973 109.815C86.472 109.736 86.432 109.66 86.3653 109.591C79.2973 102.161 71.9947 94.632 62.6747 90.1027C65.668 89.4667 68.6307 87.7547 71.04 85.7134C78.7307 91.8667 84.2787 100.259 86.9333 109.748ZM71.8493 84.9974C72.8427 84.0774 73.72 83.1107 74.4373 82.1614C74.6733 81.8467 74.892 81.5267 75.0973 81.2014C80.1427 84.0147 83.3133 88.9454 85.6667 94.0827C87.7133 98.5521 89.1453 103.569 87.708 108.429C87.6933 108.476 87.692 108.519 87.6893 108.56C84.916 99.2947 79.3867 91.068 71.8493 84.9974ZM93.2627 99.372C92.4947 100.139 91.8093 100.965 91.2067 101.849C91.4067 100.584 91.5293 99.304 91.576 98.024C92.144 98.4667 92.7053 98.9174 93.2627 99.372ZM89.72 103.761C89.6413 104.129 89.5093 104.781 89.3133 105.525C89.6147 101.479 88.324 97.4414 86.672 93.724C84.276 88.3334 80.86 83.2267 75.6293 80.28C76.0627 79.464 76.4147 78.62 76.688 77.7534C84.476 78.6027 89.2573 85.6494 90.3027 92.956C90.8147 96.5427 90.4733 100.236 89.72 103.761ZM52.196 42.3067C54.8987 39.4454 58.04 37.1174 61.3213 34.964C53.6507 41.7787 47.968 50.48 44.8147 60.212C44.7893 53.5694 47.5013 47.28 52.196 42.3067ZM47.5627 36.2507C50.148 37.2534 52.8333 37.7934 55.6013 37.8614C53.6493 39.408 51.804 41.088 50.132 42.9947C48.9867 40.844 48.1333 38.5787 47.5627 36.2507ZM46.7426 30.7094C50.4506 32.4214 54.4267 33.6414 58.54 32.9747C58.1907 34.1734 57.7347 35.3374 57.132 36.4414C57.0747 36.5454 57.0587 36.644 57.0693 36.7334C57.012 36.7774 56.9547 36.8214 56.8973 36.864C56.8227 36.8267 56.736 36.8027 56.6347 36.8054C53.3893 36.8707 50.272 36.2627 47.2853 34.9947C47.0027 33.5814 46.8213 32.1494 46.7426 30.7094ZM46.8627 25.7774C48.0507 26.7281 49.9787 27.1414 51.272 27.488C53.9253 28.2 56.7573 28.192 59.4427 27.6734C59.3427 29.1054 59.1467 30.5227 58.8227 31.9C58.756 31.88 58.6786 31.876 58.592 31.8907C54.416 32.612 50.436 31.2867 46.7 29.5094C46.6813 28.2667 46.732 27.0201 46.8627 25.7774ZM47.0507 24.4374C47.0467 24.4294 47.0413 24.4227 47.036 24.4161C47.148 23.6694 47.28 22.924 47.4453 22.1854C47.5227 21.8467 47.6093 21.5121 47.7027 21.1814C50.9507 23.0027 55.804 25.4694 59.52 23.8654C59.54 24.772 59.5347 25.6814 59.5 26.5894C59.472 26.5907 59.4427 26.592 59.4107 26.5987C57.2907 27.0147 55.1933 27.0694 53.052 26.764C52.02 26.616 51.008 26.336 50.0213 26.0054C49.2267 25.74 47.448 25.2574 47.0507 24.4374ZM49.272 17.1147C52.3973 18.5707 55.7933 20.364 59.2853 19.496C59.3667 20.5547 59.4387 21.6387 59.484 22.7334C59.4333 22.744 59.3827 22.76 59.332 22.7867C55.98 24.5614 50.984 21.8094 48.024 20.1414C48.3747 19.1027 48.8 18.0974 49.272 17.1147ZM51.2107 13.5014C51.2213 13.508 51.228 13.5147 51.24 13.5214C53.5693 14.8427 56.1747 15.268 58.7827 14.8334C58.948 16.0227 59.08 17.2187 59.188 18.4161C55.9227 19.3307 52.6573 17.5214 49.748 16.1587C50.2107 15.2614 50.7027 14.3774 51.2107 13.5014ZM53.7453 9.13337C55.012 10.1187 56.504 10.6747 58.108 10.7934C58.3013 11.7854 58.4693 12.7827 58.6227 13.7827C56.2427 14.1987 53.864 13.7654 51.7467 12.5814C52.4213 11.4361 53.104 10.2934 53.7453 9.13337ZM56.2853 3.45069C56.912 5.51602 57.444 7.60405 57.888 9.70805C56.5467 9.56005 55.316 9.03205 54.2627 8.17738C55.064 6.65605 55.7733 5.09602 56.2853 3.45069ZM60.356 5.44802C60.336 5.50535 60.324 5.56671 60.3253 5.63604C60.3453 6.70804 59.5027 7.7214 58.7507 8.59874C58.2947 6.5854 57.76 4.59073 57.1453 2.62139C58.196 3.55339 59.276 4.49202 60.356 5.44802ZM62.9427 7.78402C62.94 7.79202 62.936 7.79734 62.9333 7.80401C62.232 9.73334 61.104 11.3547 59.5427 12.6494C59.4307 11.9827 59.3067 11.32 59.1787 10.6574C59.3507 10.4414 59.3027 10.0681 59.068 9.87738C59.928 8.79872 61.02 7.66407 61.312 6.29874C61.8587 6.78807 62.404 7.28269 62.9427 7.78402ZM66.008 10.808C65.3133 11.768 64.5773 12.6867 63.7827 13.572C63.3387 14.068 62.8613 14.532 62.384 14.9974C61.916 15.4507 60.9773 16.484 60.2133 16.892C60.1853 16.8894 60.1573 16.8894 60.1267 16.892C60.032 16.0267 59.9187 15.1654 59.7933 14.3054C59.796 14.2467 59.7867 14.1854 59.768 14.128C59.7547 14.04 59.7453 13.952 59.7307 13.864C61.5667 12.4814 62.9347 10.7 63.7747 8.56938C64.5387 9.30004 65.2867 10.0454 66.008 10.808ZM68.9467 14.268C67.8827 15.7027 66.66 16.9667 65.3653 18.1947C63.944 19.544 62.4627 21.1067 60.468 21.4454C60.44 20.9027 60.4107 20.364 60.3773 19.8307C60.3413 19.2307 60.2933 18.632 60.2387 18.0347C61.332 17.748 62.3813 16.4427 63.2 15.684C64.5253 14.456 65.688 13.0667 66.748 11.608C67.524 12.468 68.26 13.3547 68.9467 14.268ZM71.5786 18.4947C71.552 18.516 71.5267 18.54 71.5013 18.5694C70.1187 20.2427 68.548 21.6641 66.7507 22.8801C65.7973 23.5254 64.7667 24.0507 63.72 24.524C63.1733 24.772 61.5973 25.5827 60.7907 25.496C60.736 25.4147 60.656 25.3534 60.5627 25.3147C60.5693 24.3774 60.5507 23.4401 60.5147 22.5107C62.1587 22.2694 63.424 21.3747 64.672 20.276C66.4493 18.7134 68.1653 17.0547 69.6 15.1694C70.3413 16.2334 71.0066 17.34 71.5786 18.4947ZM73.0786 22.4627C69.9066 26.4427 65.4493 28.8814 60.4053 29.4814C60.372 29.4867 60.34 29.4947 60.3093 29.5027C60.428 28.528 60.504 27.5427 60.5373 26.5547C62.0973 26.8867 64.6453 25.2934 65.8147 24.6814C68.2213 23.4214 70.3133 21.6094 72.068 19.5481C72.4733 20.4854 72.812 21.456 73.0786 22.4627ZM74.6507 25.0254C73.3973 14.3307 64.0693 7.47737 56.6293 0.725365C56.2227 0.356032 55.7067 0.800037 55.7707 1.2307C55.752 1.2707 55.736 1.3134 55.7267 1.36273C55.268 3.6254 54.348 5.69202 53.2586 7.68136C53.06 7.78269 52.9187 8.01606 52.9427 8.25206C52.052 9.82539 51.0733 11.3574 50.1507 12.908C48.268 16.0707 46.9173 19.4147 46.1747 23.0214C44.744 29.98 45.928 37.3654 49.2573 43.6107C49.3093 43.7094 49.3773 43.772 49.452 43.812C48.5707 44.904 47.7933 46.0614 47.112 47.2667C45.8013 45.104 44.16 43.0774 42.2547 41.388C42.2787 41.232 42.232 41.0654 42.0733 40.932C35.928 35.796 29.6133 30.6707 21.7707 28.4627C18.4987 27.5414 15.0693 27.3507 11.7173 27.8801C8.21199 28.4334 4.61732 29.7481 1.11198 28.4827C0.659982 28.3201 0.27199 28.6867 0.386656 29.1481C1.15599 32.2187 2.70132 34.8734 4.95065 37.096C5.00932 37.1534 5.07065 37.1921 5.13199 37.2147C10.744 42.9401 17.9333 46.892 25.7426 48.5854C23.7373 48.8547 21.7693 49.18 19.9053 49.448C19.4053 49.52 19.3227 50.1134 19.5853 50.384C19.5907 50.4014 19.5933 50.4174 19.6 50.436C19.6347 50.5214 19.6613 50.608 19.6946 50.6947C19.6973 50.8214 19.7387 50.9494 19.824 51.052C22.6733 59.3294 17.3826 69.2547 23.0093 76.7454C20.4693 77.928 18.184 79.6347 15.8693 81.1907C13.476 82.8 9.57332 85.8134 6.61732 84.1147C6.34265 83.9574 6.10265 84.08 5.97998 84.288C5.86132 84.328 5.76265 84.4227 5.71065 84.588C5.58131 85.0014 5.48932 85.4174 5.41332 85.832C5.29332 85.968 5.23998 86.1574 5.32932 86.3494C4.72932 90.8787 7.07333 95.3854 9.68933 98.9934C13.0987 103.696 18.088 107.209 23.7827 108.451C25.8027 108.891 27.628 108.741 29.324 108.215C28.1093 110.327 28.0267 112.653 28.5053 114.937C20.7813 118.187 14.7213 126.005 11.3667 133.437C9.75999 136.996 9.05466 140.771 8.53999 144.604C8.39333 144.769 8.33598 145.012 8.45865 145.221C8.44398 145.335 8.42932 145.447 8.41599 145.56C7.86132 149.936 7.29599 154.339 5.02399 158.208C4.85599 158.495 5.09599 158.928 5.41866 158.957C14.76 159.804 24.0853 157.063 31.432 151.217C32.0253 150.747 32.5973 150.252 33.1547 149.741C33.3227 149.689 33.472 149.564 33.5333 149.392C36.552 146.539 39.0307 143.133 40.944 139.451C42.6547 136.159 45.004 131.192 43.2907 127.476C44.5933 126.832 45.8547 126.093 47.0613 125.316C49.0507 124.033 50.956 122.625 52.7787 121.115C50.9867 125.353 50.0693 129.916 49.552 134.5C49.452 135.384 49.3773 136.269 49.3213 137.156C49.2693 137.269 49.2667 137.375 49.2987 137.467C49.1267 140.465 49.2133 143.473 49.608 146.445C49.4013 146.721 49.5067 147.031 49.7147 147.2C49.9027 148.444 50.1427 149.681 50.4453 150.908C50.8453 152.525 51.372 154.079 52 155.579C52.012 155.64 52.0373 155.699 52.072 155.749C56.0173 165.016 63.9973 172.152 71.724 178.371C71.972 178.569 72.4387 178.525 72.5533 178.185C73.6333 174.963 76.4733 172.835 78.424 170.16C80.1067 167.852 81.3173 165.167 82.1413 162.443C83.9587 156.443 84.264 150.131 84.308 143.899C84.3213 142.128 84.288 140.344 84.2067 138.56C84.2107 138.525 84.2093 138.489 84.2027 138.453C84.0467 135.111 83.708 131.764 83.1093 128.476C83.152 128.319 83.132 128.144 83.02 127.992C81.8613 121.897 79.8013 116.02 76.3707 110.768C76.472 110.693 76.544 110.587 76.584 110.472C78.604 110.239 80.6107 110.1 82.58 110.235C83.8253 110.32 85.748 111.199 87.056 110.92C87.768 114.335 89.6733 117.223 91.7667 119.989C94.416 123.488 97.424 126.712 100.683 129.648C100.696 130 101.013 130.203 101.297 130.193C104.585 133.08 108.204 135.564 112.029 137.684C116.347 140.075 120.865 142.067 124.609 145.356C124.819 145.539 125.189 145.52 125.361 145.291C130.047 139.015 130.613 130.852 128.499 123.492C126.071 115.047 119.847 108.167 113.379 102.476C113.632 102.469 113.885 102.46 114.139 102.448C116.389 102.344 118.62 102.163 120.824 101.683C123.047 101.199 125.06 100.12 127 98.9667C127.104 98.9507 127.195 98.892 127.264 98.808C130.201 97.0494 133.144 95.228 135.841 93.1107C135.96 93.0667 136.064 92.984 136.133 92.88C137.572 91.7307 138.939 90.496 140.192 89.1334C140.363 88.9467 140.36 88.7387 140.267 88.572C140.373 88.2827 140.267 87.928 139.875 87.896C135.592 87.5414 132.124 83.84 129.097 81.128C127.193 79.4214 125.297 77.7334 123.309 76.156C123.24 76.0227 123.105 75.916 122.948 75.8667C121.608 74.8187 120.224 73.8254 118.764 72.9174C114.411 70.2094 109.576 68.3427 104.567 67.2987C104.433 67.1987 104.259 67.1534 104.093 67.2014C101.568 66.7014 99.0027 66.408 96.4333 66.3267C97.768 62.26 99.4253 58.4387 103.131 56.3734C103.432 56.2054 103.429 55.9027 103.277 55.6827C103.252 55.6267 103.219 55.572 103.171 55.52C97.4173 49.384 88.556 47.7774 81.0307 51.2814C81.5933 48.988 81.78 46.5947 81.5533 44.1894C81.2413 40.8947 79.9186 37.7747 78.444 34.8507C77.0986 32.188 74.3427 28.8667 75.4493 25.7054C75.636 25.1707 75.0013 24.7734 74.6507 25.0254Z" fill="#BC9E66"/>
</svg>
