<svg width="114" height="133" viewBox="0 0 114 133" fill="none" xmlns="http://www.w3.org/2000/svg">
<path d="M94.9574 47.0254C90.2094 46.6267 85.9014 44.7027 81.288 43.7227C73.8387 42.14 63.4747 44.032 59.488 51.22C58.2254 45.6227 64.112 42.0267 68.828 40.8121C73.5454 39.5987 78.52 39.7534 83.2933 40.5227C88.0813 41.2934 92.5814 42.9881 97.1654 44.5001C100.051 45.4507 103.023 46.2001 106.033 46.2441C102.412 47.0801 98.696 47.3387 94.9574 47.0254ZM82.584 50.4681C77.9774 50.2174 73.7147 48.516 69.172 48.0187C65.7974 47.648 62.1894 48.816 60.4934 51.8934C60.44 51.8907 60.3867 51.888 60.3334 51.8854C62.496 47.7734 66.948 45.7627 71.2987 44.8147C76.02 43.7867 80.668 44.4614 85.2174 45.892C89.364 47.1974 93.4147 48.1601 97.7867 48.2321C98.924 48.2494 100.057 48.2014 101.187 48.1041C95.132 49.7987 88.9027 50.8121 82.584 50.4681ZM63.7427 53.2174C70.7227 53.9014 77.04 55.9454 81.2307 61.888C81.1267 62.0494 81.0307 62.2174 80.932 62.3827C76.4347 58.8054 70.9107 57.1307 65.3347 56.0507C58.632 54.7534 51.9267 54.3574 45.172 55.4787C38.2894 56.6241 31.6654 58.9614 24.8454 60.4014C18.3267 61.7774 11.6534 62.412 4.99202 62.3867C17.6734 59.0187 30.484 55.6187 43.4747 53.8081C50.1894 52.8734 56.9894 52.556 63.7427 53.2174ZM84.38 59.6267C87.8947 64.9387 90.8227 70.5841 93.1453 76.5187C95.56 82.6841 96.9307 89.1321 98.6494 95.5054C100.413 102.044 102.656 108.429 105.008 114.777C107.157 120.577 109.076 126.691 112.808 131.703C112.537 131.671 112.268 131.637 111.997 131.605C108.027 126.815 104.692 121.579 102.037 115.948C99.2547 110.047 97.6093 103.812 96.0787 97.496C93.5867 87.2134 90.18 75.8201 80.1667 70.4707C80.156 70.4654 80.1454 70.4627 80.1347 70.4574C80.0054 69.852 79.9293 69.248 79.9093 68.6254C79.8947 68.1747 79.9493 67.7227 80.0093 67.2787C80.0333 67.1214 80.064 66.9654 80.0974 66.8081C80.144 66.6614 80.1947 66.5161 80.2453 66.3681C80.3933 66.2387 80.4467 66.0574 80.416 65.8787C81.292 63.5347 82.62 61.4254 84.38 59.6267ZM63.4747 60.9654C56.532 60.7947 49.652 61.1654 42.7734 62.1227C30.7294 63.7974 18.188 66.5734 6.23336 63.4347C11.6507 63.3827 17.0454 62.8974 22.392 61.96C29.2814 60.7507 35.92 58.4987 42.7494 57.0294C49.4574 55.5867 56.0694 55.62 62.8254 56.6934C69.0587 57.6854 75.4027 59.3 80.404 63.3267C80.0254 64.0534 79.688 64.8054 79.4014 65.5854C79.3174 65.6707 79.2467 65.7801 79.1894 65.9067C79.1254 65.8561 79.06 65.8094 78.996 65.76C79.3333 65.6107 79.52 65.1254 79.128 64.856C74.5107 61.68 68.936 61.1001 63.4747 60.9654ZM63.5667 65.1894C56.6387 66.3187 49.5974 66.6374 42.5867 66.6254C35.7107 66.6134 28.8387 66.2134 21.976 65.8187C27.86 65.5134 33.764 64.5574 39.5454 63.6774C46.4667 62.6214 53.3427 61.9747 60.348 61.988C65.556 61.9974 71.1267 62.0627 75.912 64.2614C71.9987 63.2014 67.492 64.548 63.5667 65.1894ZM4.67869 47.6374C4.89202 47.6441 5.1067 47.6507 5.32003 47.6574C10.888 49.136 16.5547 50.1827 22.24 51.1121C27.936 52.0427 33.6774 53.0961 39.456 53.3067C39.084 53.3654 38.7107 53.424 38.3387 53.484C38.24 53.372 38.0934 53.2974 37.9054 53.3081C26.6907 53.9307 14.144 54.3254 4.67869 47.6374ZM18.0294 45.424C23.2014 46.0307 27.9587 48.5081 33.22 48.5387C33.3014 48.5387 33.3694 48.5254 33.428 48.4987C34.2854 48.9187 35.1534 49.316 36.0294 49.6934C31.7 48.816 27.2747 48.312 22.9067 47.8187C17.12 47.1667 11.3054 46.7774 5.48403 46.6001C4.7307 46.3987 3.97736 46.1921 3.22802 45.9721C8.14269 45.3387 13.08 44.844 18.0294 45.424ZM39.8907 51.6854C40.192 51.7667 40.44 51.6054 40.5587 51.3894C41.532 51.7027 42.5147 51.9921 43.5054 52.2481C43.48 52.2454 43.4547 52.2427 43.4267 52.2441C36.5694 52.5281 29.768 51.244 23.028 50.1574C18.936 49.5 14.8507 48.7827 10.8054 47.892C14.576 48.1 18.34 48.4054 22.0987 48.8041C28.032 49.4361 34.1227 50.108 39.8907 51.6854ZM43.676 52.2894C44.044 52.3827 44.4134 52.476 44.784 52.5614C44.5187 52.592 44.2534 52.628 43.988 52.6614C43.944 52.5027 43.836 52.36 43.676 52.2894ZM25.6547 42.5814C22.192 40.1307 18.992 37.312 16.0227 34.288C15.8214 34.0827 15.6227 33.8774 15.424 33.6707C17.4067 35.1041 19.3907 36.5361 21.392 37.9427C24.2747 39.9681 27.348 41.5481 30.5134 43.0761C37.0974 46.2534 43.6907 50.0481 50.8427 51.7761C50.992 51.8121 51.112 51.7854 51.2067 51.724C51.2694 51.8014 51.332 51.8774 51.396 51.9534C50.38 52.0134 49.364 52.0947 48.352 52.1854C48.3067 52.164 48.2587 52.1467 48.2027 52.1374C39.9907 50.8494 32.4094 47.3601 25.6547 42.5814ZM12.608 30.3187C12.464 30.216 12.3147 30.1961 12.1814 30.2307C11.324 29.3227 10.4587 28.4254 9.56136 27.56C16.376 29.9387 22.664 33.7667 28.8587 37.3974C35.7974 41.4641 42.5974 45.764 49.2694 50.2534C43.084 48.4507 37.2974 45.1667 31.5347 42.3854C28.2454 40.7987 25.0494 39.1747 22.0374 37.092C18.856 34.892 15.748 32.58 12.608 30.3187ZM27.4787 31.5187C31.184 33.272 34.7227 35.3614 38.212 37.5067C41.2747 39.3881 44.96 41.1774 47.292 44.0027C47.772 45.7454 48.428 47.4241 49.3267 49.0081C42.8414 44.6627 36.2334 40.5067 29.504 36.5467C22.8307 32.6201 16.0347 28.468 8.60804 26.1214C15.1894 26.688 21.5014 28.6867 27.4787 31.5187ZM28.156 23.0281C26.5467 19.0094 25.78 14.6774 25.792 10.3547C30.204 21.9987 40.1267 30.4107 46.2374 41.1134C46.3467 41.3054 46.5267 41.3907 46.7054 41.4001C46.74 41.5841 46.772 41.7694 46.808 41.9534C44.6374 39.9587 41.8747 38.5267 39.4147 37.0001C38.94 36.7054 38.4614 36.4174 37.9854 36.1267C37.9894 35.9334 37.9027 35.7374 37.688 35.6254C32.9934 33.1854 30.0494 27.7587 28.156 23.0281ZM36.9374 22.4801C40.524 27.0267 43.1107 32.0801 45.5587 37.2974C45.6907 37.5801 45.9654 37.6481 46.1987 37.5827C46.252 38.1521 46.3094 38.7214 46.38 39.2854C40.48 29.6454 31.708 21.6894 27.2974 11.2267C30.5667 14.928 33.8774 18.6067 36.9374 22.4801ZM26.3254 8.67873C30.5574 11.4734 34.6027 14.5494 37.644 18.6694C39.4374 21.0987 40.72 23.8827 42.044 26.5827C43.36 29.2667 44.676 31.9494 45.992 34.6334C46.0134 35.0454 46.0374 35.4587 46.064 35.8694C43.8054 31.1241 41.3907 26.56 38.1894 22.352C34.6467 17.6974 30.6107 13.4001 26.7587 9.00406C26.6467 8.87473 26.5094 8.82007 26.3747 8.81607C26.3587 8.77074 26.3414 8.7254 26.3254 8.67873ZM47.0534 34.3747C47.0387 34.3481 47.0267 34.3187 47.012 34.292C46.8987 31.812 46.876 29.3334 46.7654 26.9414C46.4054 19.0921 45.0067 11.2721 42.3427 3.87873C47.3507 10.7587 50.052 19.0361 50.1654 27.5761C50.224 32.0094 48.912 36.3134 49.0347 40.7361C49.148 44.8054 50.8507 48.7601 53.4427 51.8641C53.2147 51.8721 52.9867 51.8787 52.7574 51.8894C52.7414 51.864 52.724 51.8401 52.7014 51.8161C50.652 49.6201 49.3534 47.1094 48.516 44.4294C48.636 44.2601 48.6667 44.0307 48.5067 43.8161C48.42 43.7001 48.328 43.5881 48.2374 43.4747C47.4907 40.7041 47.1934 37.7747 47.04 34.8334C47.1187 34.7107 47.14 34.5521 47.0534 34.3747ZM53.056 22.2414C53.9654 25.2867 54.3134 28.4827 54.1427 31.652C53.9987 34.34 53.6347 36.9334 54.4787 39.5321C53.2947 43.8601 53.4747 48.4187 56.26 51.7947C55.7787 51.796 55.2987 51.8067 54.8174 51.8187C51.4387 48.092 49.7934 43.3321 50.1494 38.3134C50.3067 36.0974 50.7974 33.9134 51.0334 31.7054C51.268 29.5094 51.268 27.2894 51.1414 25.0854C50.8454 19.8974 49.4854 14.7934 47.2654 10.0961C49.7027 13.8827 51.76 17.8947 53.056 22.2414ZM53.1027 14.9147C56.5947 19.7894 59.192 25.6694 58.1574 31.7667C58.1547 31.7841 58.156 31.7974 58.1534 31.8121C56.9494 33.5107 55.8867 35.4907 55.1094 37.5801C54.7387 35.0254 55.3027 32.4107 55.2574 29.8134C55.208 26.8841 54.704 24.0467 53.868 21.2441C52.36 16.1881 49.648 11.5307 46.6214 7.21207C48.964 9.62273 51.1467 12.1854 53.1027 14.9147ZM63.104 28.0801C66.5054 25.2481 70.6467 23.4441 74.2747 20.9387C77.0134 19.0494 79.288 16.624 81.0894 13.8574C81.3307 17.9894 77.1147 21.9387 74.3933 24.4494C71.1627 27.4294 67.556 29.9721 64.2814 32.9054C59.176 37.4774 53.656 44.9414 57.636 51.8001C57.5867 51.8001 57.54 51.7987 57.492 51.7974C57.5 51.6854 57.4654 51.5654 57.3627 51.4507C54.48 48.2254 54.2574 43.9774 55.4427 39.8667C55.5307 39.7627 55.5814 39.6281 55.564 39.4734C56.972 34.9441 60.0427 30.6254 63.104 28.0801ZM62.5614 42.3494C59.7507 44.3174 57.9134 47.5814 58.384 50.9774C53.6907 42.5267 64.2254 34.156 70.0027 29.52C73.1427 27 76.2533 24.4467 78.8467 21.3481C79.3667 20.7241 79.8707 20.0614 80.3214 19.3667C78.9587 23.3147 76.876 26.9667 74.1627 30.2001C70.6373 34.4027 65.528 37.0601 62.5547 41.7427C62.4187 41.9574 62.4494 42.1814 62.5614 42.3494ZM70.1214 38.9347C69.896 39.0521 69.8107 39.2614 69.824 39.4641C67.8014 39.8787 65.8387 40.5267 64.0334 41.4681C67.2427 37.0574 72.2854 34.2281 75.7347 29.9707C78.9107 26.0507 81.092 21.3774 82.268 16.484C83.152 25.5814 78.4907 34.5614 70.1214 38.9347ZM109.94 45.3214C109.903 45.0614 109.703 44.8347 109.368 44.8974C103.981 45.9147 98.8094 43.9587 93.7907 42.22C88.7227 40.4654 83.5307 39.1707 78.1574 38.8987C76.1267 38.7961 74.0227 38.8481 71.9453 39.1134C81.3253 33.3854 85.6613 22.0267 82.3093 11.4067C82.1533 10.9161 81.5187 11.0427 81.3227 11.4067C78.8934 15.9214 75.296 19.1641 70.9667 21.8134C67.0294 24.2214 62.972 26.3001 59.812 29.7481C59.676 29.8947 59.5427 30.0481 59.4094 30.2027C59.76 24.9907 57.712 20.0667 54.912 15.684C51.228 9.91737 46.184 4.88007 40.9574 0.510734C40.5427 0.164067 39.9427 0.664063 40.1414 1.14006C43.756 9.79606 45.392 19.0454 45.7614 28.388C45.808 29.556 45.8414 30.7401 45.8814 31.9321C43.644 27.1854 41.4827 22.2867 38.4867 18.0134C35.2747 13.4307 30.5214 10.1134 25.888 7.11871C25.8827 7.11471 25.8774 7.1134 25.8734 7.11073C25.6747 6.67607 24.9107 6.65873 24.8614 7.24006C24.376 12.9734 25.2547 18.6561 27.392 23.9947C28.6574 27.1534 30.4614 30.5067 32.8827 33.1454C31.6214 32.4441 30.352 31.7561 29.0614 31.1054C22.0227 27.5561 14.348 25.1814 6.4347 24.9147C5.9187 24.8987 5.59203 25.5161 6.04003 25.8694C6.2627 26.0454 6.48136 26.2254 6.69869 26.4067C6.72403 26.5574 6.82402 26.6921 7.02802 26.7481C7.06669 26.7601 7.10402 26.7734 7.14269 26.784C10.3214 29.5227 13.0054 32.7681 15.964 35.7374C18.8934 38.6787 22.0774 41.3574 25.4654 43.7547C27.3254 45.0707 29.2587 46.2801 31.256 47.3707C26.6174 46.8841 22.2134 44.8414 17.5627 44.2961C12.24 43.6707 6.82936 44.4121 1.5507 45.1147C1.09336 44.9387 0.636021 45.6574 1.07602 46.0747C1.24935 46.2387 1.42536 46.3947 1.60003 46.552C1.60403 46.556 1.60669 46.5587 1.61069 46.5614C9.92269 54.0374 21.2307 54.9507 32.0374 54.6374C21.876 56.6747 11.8134 59.4867 1.88002 62.1187C1.55869 62.2027 1.42536 62.5014 1.44936 62.7614C1.04669 62.9174 0.897355 63.5667 1.41069 63.7467C7.28402 65.7987 13.4587 66.3721 19.6307 66.7481C26.3934 67.1627 33.1654 67.54 39.9414 67.6587C46.5694 67.7734 53.204 67.5667 59.792 66.7947C62.9894 66.4187 66.1307 65.7841 69.3 65.2387C72.5774 64.6734 76.0973 64.6734 78.7613 66.928C78.82 66.9774 78.88 67.0094 78.94 67.028C78.9134 67.2987 78.8987 67.5467 78.8814 67.7254C78.776 68.76 78.884 69.8107 79.124 70.8201C79.1787 71.0521 79.3453 71.1854 79.5293 71.2347C79.5787 71.3214 79.652 71.4001 79.7574 71.4574C90.524 77.2094 93.176 90.172 95.8374 100.996C98.6654 112.488 103.547 123.059 111.108 132.203C111.133 132.384 111.245 132.547 111.453 132.605C111.609 132.727 111.793 132.736 111.952 132.676L113.365 132.847C113.884 132.909 114.091 132.317 113.864 131.991C114.003 131.82 114.047 131.579 113.873 131.352C109.919 126.191 107.984 119.737 105.751 113.711C103.339 107.2 101.077 100.635 99.3253 93.912C97.704 87.688 96.236 81.48 93.8854 75.4774C91.5574 69.5347 88.516 63.8814 84.9707 58.5814C84.8427 58.3907 84.6654 58.3387 84.4987 58.3707C84.3507 58.3081 84.176 58.3241 84.0174 58.4787C83.224 59.2521 82.5107 60.0814 81.8694 60.9574C78.232 55.9747 72.992 53.4961 66.9694 52.5494C65.2134 52.2747 63.448 52.084 61.6774 51.9614C64.2227 47.9307 69.7867 48.9987 73.6987 50.0147C77.608 51.0281 81.4734 51.6054 85.5187 51.6081C93.9174 51.6134 102.201 49.2294 110.009 46.324C110.531 46.1294 110.363 45.4494 109.94 45.3214Z" fill="#BC9E66"/>
</svg>
