<svg width="383" height="148" viewBox="0 0 383 148" fill="none" xmlns="http://www.w3.org/2000/svg">
<path d="M369.935 65.4067C366.208 64.7654 362.471 57.488 358.727 63.8654C354.983 55.6334 351.232 60.7547 347.477 62.7587C343.723 54.068 339.964 74.464 336.204 60.748C332.444 57.98 328.684 61.7414 324.927 60.9294C321.04 52.9 317.149 58.0333 313.257 62.6587C309.365 64.6133 305.472 58.7507 301.576 59.676C297.681 64.0187 293.785 69.02 289.889 70.3613C285.993 71.704 282.096 69.3867 278.201 59.0894C270.413 56.0974 262.628 59.7907 254.859 57.6093C248.595 65.7293 243.655 45.6627 239.029 55.6187C234.404 53.8587 230.092 49.9814 225.084 52.488C219.141 53.676 213.219 38.2907 207.309 47.276C201.401 53.456 195.508 37.6427 189.629 41.7654C186.885 30.0427 184.147 35.1 181.412 39.092C178.676 43.1627 175.945 36.7067 173.216 36.3547C172.472 38.6667 171.919 45.7334 171.52 35.7667C170.147 39.496 168.775 49.432 167.403 33.8467C164.465 29.1547 161.54 35.1614 158.615 29.672C155.867 30.104 153.121 32.2133 150.377 27.9427C147.635 25.9653 144.893 30.1973 142.156 21.6934C139.419 18.1227 136.684 18.14 133.952 18.0267C131.221 17.9147 128.493 17.6707 125.768 13.5747C119.747 20.08 113.125 -1.29064 106.917 10.4427C100.711 17.4787 94.9147 10.4387 90.544 19.2147C89.6747 16.6787 88.788 12.8387 87.8667 18.1627C87.6227 18.5334 87.408 19.2574 87.2107 17.9147C82.2093 20.504 77.2893 7.68136 72.3 11.5827C67.3107 14.6934 62.252 12.0987 56.976 6.25337C52.02 11.348 46.916 11.748 41.752 2.15737C36.588 -0.390626 31.364 8.58136 26.1667 0.229363C20.8813 7.31603 15.5053 2.2787 10.1853 1.31737C6.75467 2.73203 3.34667 0.0827051 0 0.338705V62.9454C1.57333 63.3014 3.13733 63.696 4.70133 64.1414C6.212 64.572 7.69334 65.0947 9.16934 65.632C9.54134 65.7827 9.88001 65.9267 10.1413 66.048C20.1907 70.6894 31.2453 73.352 41.7067 77.0147C51.6667 80.504 62.076 81.5894 72.5867 82.36C86.848 83.404 102.712 77.472 110.077 65.6547C115.775 67.3374 121.485 66.948 127.215 70.5107C132.944 73.3707 138.693 76.1373 144.468 74.9773C151.681 68.94 158.768 79.2707 165.821 81.0294C172.876 84.6987 179.897 86.0427 186.985 87.732C190.128 79.6867 193.277 82.02 196.431 90.624C199.584 89.38 202.741 96.8574 205.901 93.4294C209.061 95.084 212.229 88.7027 215.399 96.1507C219.749 95.42 221.705 100.181 223.816 98.592C227.805 96.6973 231.805 101.945 235.811 103.593C239.817 105.243 243.832 106.872 247.852 108.488C250.217 109.439 252.592 110.368 254.967 111.302C254.541 111.149 255.207 111.459 256.991 112.236C259.148 113.209 261.313 114.168 263.477 115.128C270.687 118.321 277.925 121.665 285.264 124.744C292.603 127.822 300.039 129.375 307.643 132.773C313.328 131.955 318.981 141.698 324.645 137.369C330.309 136.581 335.983 145.681 341.708 141.321C347.433 144.537 353.209 149.952 359.076 144.248C366.009 148.533 372.949 147.679 379.897 146.763C380.82 147.122 381.744 147.265 382.667 147.273V69.8707C378.419 71.1934 374.175 66.792 369.935 65.4067Z" fill="#F8DACA"/>
</svg>
