<svg width="794" height="375" viewBox="0 0 794 375" fill="none" xmlns="http://www.w3.org/2000/svg">
<path d="M-11.3398 -16.0325V186.301C-5.72784 187.052 -0.0118443 186.64 5.79082 189.893C15.1495 203.084 24.7375 190.262 34.4895 194.881C39.3655 197.312 44.2828 202.424 49.2322 194.873C54.1828 186.56 59.1655 188.952 64.1735 195.316C69.1815 196.804 74.2148 204.985 79.2642 195.874C84.3148 194.396 89.3815 193.193 94.4562 196.22C103.479 190.846 112.539 184.234 121.685 193.789C130.899 189.608 140.308 192.99 149.816 191.988C159.324 196.69 168.931 189.272 178.536 188.502C188.143 179.873 197.749 186.272 207.257 184.794C216.765 185.51 226.175 179.658 235.387 183.685C244.6 184.024 253.615 183.4 262.336 187.657C271.056 202.009 279.481 191.538 287.513 199.19C296.963 209.417 306.725 198.752 316.688 215.624C321.669 216.481 326.701 215.146 331.768 216.09C336.833 217.034 341.936 220.256 347.059 230.226C352.182 227.673 357.325 235.844 362.475 240.582C367.624 239.548 372.78 247.133 377.928 242.602C382.371 242.962 386.872 240.709 391.424 240.292C395.976 249.016 400.578 243.902 405.224 249.396C411.676 254.13 418.212 252.114 424.812 258.678C431.411 264.621 438.073 268.744 444.78 253.553C451.488 268.269 458.239 269.926 465.012 266.662C471.787 259.989 478.587 255.902 485.388 251.704C492.191 246.424 498.998 245.918 505.788 253.46C512.58 264.808 519.355 248.666 526.095 243.992C534.183 233.957 542.219 252.5 550.174 236.601C556.908 214.208 563.234 236.87 569.183 236.361C575.131 234.95 580.701 241.444 585.923 242.098C596.364 245.83 605.408 243.13 613.284 255.765C615.911 245.064 618.407 265.468 620.78 272.536C623.156 290.781 625.409 283.606 627.549 268.416C629.069 260.366 631.031 261.908 633.395 280.406C635.76 280.697 638.528 299.648 641.664 300.864C644.803 320.632 648.307 318.332 652.144 315.848C655.982 326.564 660.151 309.157 664.615 325.489C669.08 316.77 673.841 326.024 678.863 332.28C683.883 340.385 689.163 321.932 694.667 343.844C702.924 332.484 711.683 361.546 720.823 353.796C729.963 351.169 739.485 335.266 749.265 363.014C754.156 365.582 759.111 354.26 764.116 362.076C769.12 355.213 774.175 370.553 779.264 370.662C784.352 368.73 789.476 371.954 794.618 366.665C798.084 372.245 801.559 373.566 805.039 374.741V-16.0325H-11.3398Z" fill="#B8C8D9"/>
</svg>
