<svg width="794" height="355" viewBox="0 0 794 355" fill="none" xmlns="http://www.w3.org/2000/svg">
<path d="M-11.3398 -16.0325V121.954C-8.58784 123.985 -5.86384 125.897 -3.16251 126.613C2.22816 141.198 7.52149 119.523 12.7442 134.122C17.9668 135.583 23.1188 133.647 28.2215 143.714C33.3255 148.377 38.4228 149.21 43.6482 152.897C49.1295 140.777 54.4055 147.334 59.5522 157.917C64.6988 164.532 69.7175 165.794 74.6828 168.898C79.6468 187.229 84.5575 172.519 89.4922 180.995C94.4255 182.218 99.3828 178.001 104.436 186.83C109.491 194.182 114.643 204.538 119.969 194.942C125.296 205.154 130.797 203.487 136.548 203.617C140.032 207.075 143.665 212.242 147.42 207.679C149.276 201.198 151.163 200.035 153.067 196.446C154.971 194.77 156.892 200.035 158.819 210.239C167.283 222.618 175.767 206.801 184.26 213.216C192.755 202.424 201.259 209.181 209.763 209.952C216.612 205.208 223.437 222.979 230.232 206.909C238.579 206.207 246.965 212.75 255.364 207.09C263.761 206.619 272.172 197.419 280.567 201.053C288.96 201.81 297.339 196.494 305.675 193.503C314.011 190.513 322.304 189.85 330.527 199.917C337.087 192.785 343.611 184.724 350.104 200.721C355.508 198.806 360.89 209.586 366.248 202.086C373.051 199.497 379.856 211.924 386.664 206.308C393.472 184.426 400.283 214.062 407.094 210.73C410.498 210.182 413.903 224.773 417.308 222.77C419.011 230.006 420.713 230.603 422.416 231.425C424.117 240.581 425.82 227.566 427.523 215.338C435.382 226.181 443.232 198.304 451.064 219.969C458.898 221.957 466.712 242.453 474.499 224.565C482.286 230.83 490.044 216.633 497.766 228.313C505.486 231.45 513.167 226.596 520.801 235.106C528.436 241.702 536.021 238.931 543.549 241.973C551.076 241.822 558.546 249.319 565.944 247.867C573.346 259.705 580.678 248.553 587.932 256.929C595.186 278.321 602.362 261.265 609.447 263.757C615.116 252.727 620.476 264.632 625.614 269.894C630.752 279.44 635.67 265.613 640.455 278.153C649.047 281.862 652.632 277.411 655.49 295.149C658.344 307.397 660.471 311.673 666.14 313.258C671.809 312.538 678.01 330.565 684.648 327.71C691.286 341.594 698.36 339.756 705.776 338.045C713.193 347.989 720.952 345.306 728.958 348.406C736.964 356.825 745.218 339.442 753.624 348.526C762.031 358.658 770.591 354.133 779.208 347.461C787.791 340.793 796.434 339.023 805.039 350.447V-16.0325H-11.3398Z" fill="#99A9C3"/>
</svg>
