<svg width="794" height="362" viewBox="0 0 794 362" fill="none" xmlns="http://www.w3.org/2000/svg">
<path d="M-11.3398 -16.0325V142.914C-4.51584 145.865 2.48016 143.733 9.73482 157.622C17.1975 170.776 24.9335 156.684 33.0228 170.852C41.1762 173.217 50.2135 182.872 60.0468 181.79C69.8802 194.312 80.5108 181.672 91.8562 183.309C100.927 181.898 110.081 176.762 119.313 171.988C128.545 167.213 137.855 160.372 147.231 162.841C156.607 160.614 166.051 169.462 175.556 162.773C185.06 156.28 194.624 157.441 204.239 157.345C213.854 148.142 223.52 149.333 233.228 158.349C242.936 155.326 252.688 168.864 262.472 161.656C272.257 163.214 282.076 159.981 291.921 167.713C301.765 166.025 311.636 166.53 321.523 170.612C331.411 180.872 341.315 194.086 351.227 182.79C356.184 188.474 361.143 189.137 366.101 187.58C371.061 184.469 376.022 183.649 380.983 179.049C386.652 166.482 392.144 164.802 397.503 168.434C402.863 180.722 408.089 167.23 413.228 175.281C418.367 175.766 423.416 159.498 428.422 169.361C433.428 180.38 438.39 173.985 443.352 161.826C447.599 157.984 453.443 151.594 459.865 154.332C469.499 140.029 480.428 164.505 489.215 150.586C498 150.061 504.644 162.796 505.708 166.134C505.708 171.769 503.759 165.974 501.455 182.429C499.152 196.501 496.493 181.516 495.077 200.301C493.66 201.585 493.483 198.909 496.14 215.468C498.797 225.71 504.29 229.908 514.212 226.397C519.882 214.985 525.943 210.088 532.216 227.045C538.489 241.713 544.972 235.872 551.482 225.84C557.991 220.057 564.526 207.925 570.904 224.514C582.243 216.874 591.455 219.286 598.945 222.404C606.437 225.448 612.205 227.653 616.657 235.624C621.108 235.794 624.242 221.494 626.462 242.252C628.682 245.996 629.99 256.996 630.786 267.592C631.583 267.77 631.871 284.229 632.054 288.358C632.236 305.15 632.315 290.772 632.691 308.085C633.067 313.428 633.743 323.722 635.12 327.674C636.499 335.59 638.582 329.378 641.771 344.77C644.604 351.801 649.566 361.022 655.943 359.028C662.322 359.546 670.116 358.058 678.62 361.988C690.904 354.745 700.039 357.476 707.703 344.849C711.533 343.14 714.998 337.364 718.306 331.924C721.612 327.4 724.763 322.36 727.964 321.016C731.166 321.986 734.422 322.329 737.938 316.102C741.455 312.97 745.235 308.593 749.487 299.573C756.574 298.29 763.716 291.862 770.904 288.998C778.091 283.182 785.323 286.065 792.585 286.036C796.725 287.454 800.879 288.686 805.039 289.786V-16.0325H-11.3398Z" fill="#6A7F97"/>
</svg>
