<svg width="383" height="178" viewBox="0 0 383 178" fill="none" xmlns="http://www.w3.org/2000/svg">
<path d="M0 0.734683V75.2387C3.19867 76.6214 6.47866 75.6227 9.87866 82.1334C13.3773 88.2987 17.0027 81.6934 20.7947 88.3334C24.616 89.4427 28.852 93.968 33.4613 93.4614C38.0707 99.3307 43.0533 93.4067 48.372 94.1734C52.624 93.512 56.916 91.104 61.2427 88.8667C65.5693 86.628 69.9333 83.4214 74.328 84.5801C78.7227 83.5347 83.1507 87.6827 87.6053 84.5481C92.06 81.5041 96.5427 82.048 101.049 82.0027C105.556 77.6894 110.087 78.248 114.639 82.4734C119.189 81.056 123.76 87.4027 128.347 84.024C132.933 84.7534 137.535 83.2387 142.149 86.8627C146.764 86.072 151.391 86.308 156.025 88.2214C160.66 93.0307 165.303 99.2254 169.948 93.9307C172.272 96.5947 174.596 96.9054 176.921 96.1747C179.247 94.7174 181.571 94.3334 183.896 92.1761C186.553 86.2854 189.128 85.4987 191.64 87.2014C194.152 92.9614 196.603 86.6374 199.011 90.4107C201.419 90.6387 203.787 83.0134 206.133 87.636C208.479 92.8 210.805 89.8027 213.132 84.104C215.121 82.3027 217.861 79.3067 220.872 80.5907C225.388 73.8867 230.509 85.36 234.628 78.8347C238.747 78.5894 241.861 84.5574 242.36 86.1227C242.36 88.764 241.445 86.048 240.365 93.7614C239.287 100.357 238.041 93.3334 237.376 102.139C236.712 102.74 236.629 101.485 237.875 109.248C239.12 114.048 241.695 116.016 246.345 114.371C249.003 109.021 251.845 106.725 254.785 114.673C257.725 121.549 260.764 118.812 263.815 114.109C266.867 111.399 269.929 105.712 272.919 113.488C278.235 109.907 282.553 111.037 286.064 112.499C289.575 113.925 292.279 114.959 294.365 118.695C296.452 118.776 297.92 112.072 298.961 121.803C300.001 123.556 300.615 128.713 300.988 133.68C301.361 133.764 301.497 141.479 301.583 143.415C301.668 151.284 301.704 144.545 301.881 152.661C302.057 155.165 302.375 159.991 303.02 161.843C303.667 165.553 304.641 162.641 306.137 169.856C307.465 173.152 309.791 177.475 312.78 176.54C315.771 176.783 319.424 176.084 323.411 177.927C329.168 174.532 333.449 175.812 337.041 169.893C338.837 169.092 340.461 166.384 342.012 163.835C343.563 161.713 345.039 159.352 346.54 158.721C348.04 159.177 349.565 159.337 351.215 156.419C352.863 154.951 354.635 152.899 356.628 148.671C359.949 148.069 363.297 145.056 366.667 143.715C370.036 140.988 373.425 142.339 376.829 142.325C378.771 142.991 380.717 143.568 382.667 144.084V0.734683H0Z" fill="#607693"/>
</svg>
