<svg width="383" height="222" viewBox="0 0 383 222" fill="none" xmlns="http://www.w3.org/2000/svg">
<path d="M79.96 153.575C71.8493 151.704 63.0453 157.16 54.024 152.093C45.0013 160.729 35.7627 149.719 26.78 148.569C17.7987 146.177 9.07333 136.517 1.07866 149.191C0.719995 149.684 0.36 150.061 0 150.361V221.932H154.929C158.927 218.984 163.315 216.667 167.968 215.06C175.153 217.664 182.952 203.708 190.844 208.133C198.736 205.232 206.721 207.207 214.277 202.088C217.816 203.493 221.788 203.925 226.423 198.512C230.56 194.34 234.697 196.222 238.835 199.603C242.972 196.412 247.109 202.724 251.245 198.093C255.381 197.151 259.516 197.075 263.651 199.093C267.784 198.127 271.916 196.824 276.047 198.095C284.307 202.431 292.561 193.333 300.804 197.471C309.047 196.007 317.277 200.455 325.495 195.175C329.975 195.471 334.417 198.145 338.829 194.01C347.651 201.12 356.375 200.656 364.909 190.484C370.933 190.805 376.863 189.384 382.667 186.781V27.2933C382.027 27.1187 381.387 26.9294 380.745 26.708C376.184 25.576 371.624 32.704 367.065 26.2627C362.825 29.748 358.665 27.1253 354.568 23.4613C350.471 22.492 346.435 18.2333 342.44 22.76C338.447 25.6347 334.496 16.0267 330.565 20.5627C326.637 18.9813 322.729 23.3547 318.827 15.856C314.921 23.36 311.021 13.3334 307.103 11.172C303.184 5.68269 299.248 11.2854 295.276 8.54803C290.972 11.8814 286.728 7.54402 282.52 6.87335C274.123 1.01202 266.252 -6.09065 258.736 9.30535C254.979 11.7014 251.308 13.4213 247.705 14.7827C244.103 11.8987 240.567 20.8107 237.076 18.0973C233.584 24.0693 230.139 26.0947 226.717 24.452C223.295 26.728 219.896 22.0227 216.499 30.4787C213.103 33.2227 209.707 38.5133 206.292 37.6653C202.877 46.076 199.444 46.428 195.968 43.6787C192.216 54.9933 188.501 47.2773 184.811 48.9267C181.12 57.0093 177.455 43.3693 173.801 46.8107C170.148 43.9307 166.507 38.148 162.865 43.4773C159.224 39.488 155.583 36.004 151.929 36.6427C148.276 37.5827 144.609 41.1907 140.919 31.176C139.407 33.9493 137.889 32.9013 136.367 31.0293C136.813 30.54 137.26 29.9747 137.707 29.3667C135.059 31.3973 132.328 23.5813 129.537 24.2973C126.747 23.628 123.895 15.8254 121.007 25.4574C118.119 27.4387 115.193 32.748 112.253 29.8493C109.313 41.3347 106.36 26.2867 103.413 25.416C98.908 20.8693 94.0187 22.36 89.1787 26.6427C86.76 13.8987 84.3533 25.796 82.0107 25.1387C79.668 23.4774 77.392 17.1534 75.232 28.8867C71.9853 29.4347 68.76 30.468 65.5413 31.6547C62.3213 26.1694 59.1093 47.628 55.8867 34.5534C53.076 40.948 50.2613 42.1107 47.444 37.0013C44.628 37.5267 41.808 39.08 38.988 39.4013C38.3173 28.78 37.6453 34.7867 36.9747 39.9587C36.6093 37.288 36.1707 36.2854 35.6547 40.036C32.184 45.132 28.7133 29.7253 25.2413 40.2987C21.992 39.9667 18.7427 36.3253 15.492 41.6187C12.2427 40.964 8.99333 35.2973 5.74399 40.4107C3.82933 37.144 1.91467 39.1947 0 40.5333V101.715C4.52533 101.479 9.04533 101.151 13.584 100.109C20.8907 96.0227 28.248 108.38 35.7507 98.3253C43.2533 103.113 50.1693 99.6067 56.74 102.373C63.312 102.424 69.54 118.044 75.6693 111.627C81.8 115.152 87.832 119.209 94.012 121.747C97.3213 130.937 100.963 128.835 104.771 125.649C108.577 125.869 112.549 122.665 116.521 125.649C113.079 132.035 107.995 135.584 101.743 146.821C95.4907 152.283 88.072 154.352 79.96 153.575Z" fill="#F4CAB5"/>
</svg>
