<svg width="794" height="316" viewBox="0 0 794 316" fill="none" xmlns="http://www.w3.org/2000/svg">
<path d="M777.876 139.893C769.924 138.525 761.953 123 753.964 136.605C745.977 119.041 737.976 129.969 729.966 134.245C721.956 115.703 713.938 159.215 705.916 129.953C697.896 124.051 689.874 132.075 681.855 130.341C673.564 113.212 665.265 124.163 656.961 134.032C648.659 138.2 640.351 125.693 632.041 127.668C623.731 136.929 615.419 147.6 607.107 150.464C598.795 153.327 590.483 148.384 582.175 126.416C565.557 120.033 548.951 127.912 532.375 123.257C519.012 140.583 508.472 97.7719 498.604 119.011C488.736 115.255 479.536 106.985 468.851 112.332C456.176 114.865 443.537 82.0439 430.933 101.212C418.328 114.397 405.756 80.6626 393.213 89.4559C387.36 64.4479 381.517 75.2386 375.683 83.7546C369.848 92.4372 364.02 78.6652 358.199 77.9132C356.611 82.8466 355.432 97.9212 354.58 76.6612C351.65 84.6146 348.721 105.812 345.796 72.5626C339.531 62.5532 333.288 75.3666 327.049 63.6546C321.185 64.5799 315.327 69.0799 309.475 59.9679C303.623 55.7492 297.775 64.7786 291.935 46.6359C286.095 39.0159 280.26 39.0559 274.432 38.8146C268.605 38.5759 262.785 38.0546 256.972 29.3146C244.125 43.1933 230.001 -2.39741 216.757 22.6333C203.515 37.6439 191.152 22.6239 181.827 41.3493C179.972 35.9359 178.08 27.7453 176.115 39.1013C175.593 39.8959 175.135 41.4399 174.715 38.5733C164.045 44.0986 153.549 16.7399 142.904 25.0666C132.26 31.7013 121.469 26.1666 110.212 13.6972C99.6388 24.5652 88.7508 25.4199 77.7348 4.95725C66.7175 -0.478747 55.5734 18.6599 44.4854 0.842589C33.2081 15.9626 21.7401 5.21725 10.3881 3.16658C3.07077 6.18392 -4.19984 0.531915 -11.3398 1.07725V134.643C-7.98518 135.401 -4.64788 136.247 -1.31055 137.195C1.91345 138.111 5.07349 139.228 8.22282 140.371C9.01482 140.696 9.73748 141.003 10.2961 141.26C31.7348 151.163 55.3188 156.841 77.6362 164.657C98.8882 172.1 121.092 174.419 143.517 176.06C173.941 178.287 207.787 165.636 223.499 140.423C235.653 144.011 247.835 143.183 260.059 150.78C272.281 156.885 284.547 162.787 296.865 160.312C312.257 147.431 327.373 169.471 342.423 173.223C357.471 181.052 372.452 183.92 387.573 187.521C394.277 170.357 400.995 175.336 407.723 193.691C414.451 191.037 421.187 206.987 427.929 199.677C434.672 203.205 441.429 189.593 448.189 205.484C457.472 203.923 461.644 214.08 466.148 210.691C474.66 206.649 483.189 217.844 491.739 221.361C500.285 224.877 508.85 228.356 517.424 231.803C522.472 233.831 527.539 235.815 532.603 237.804C531.695 237.481 533.117 238.139 536.921 239.797C541.525 241.875 546.143 243.92 550.761 245.968C566.141 252.783 581.586 259.915 597.24 266.483C612.896 273.051 628.762 276.363 644.983 283.612C657.111 281.865 669.172 302.656 681.255 293.419C693.34 291.735 705.445 311.149 717.659 301.849C729.872 308.709 742.193 320.26 754.709 308.092C769.501 317.236 784.307 315.411 799.128 313.459C801.099 314.224 803.07 314.532 805.039 314.547V149.417C795.976 152.237 786.921 142.847 777.876 139.893Z" fill="#F8E2D6"/>
</svg>
