<svg width="794" height="302" viewBox="0 0 794 302" fill="none" xmlns="http://www.w3.org/2000/svg">
<path d="M805.039 317.553V201.2C800.459 199.291 795.88 197.601 791.299 197.059C776.536 192.943 761.764 201.144 746.98 187.244C732.196 192.295 717.4 190.032 702.591 177.733C687.867 188.264 673.208 155.644 658.58 167.715C651.267 171.369 643.96 170.013 636.657 167.057C629.355 165.593 622.056 156.721 614.756 156.807C607.456 156.083 600.155 162.513 592.848 151.305C585.543 134.147 578.232 149.035 570.911 145.923C563.591 123.359 556.26 136.793 548.916 140.775C541.572 137.672 534.216 136.485 526.84 135.973C519.235 134.891 511.616 129.536 503.983 128.072C496.35 130.592 488.703 105.111 481.044 127.412C473.385 133.956 465.716 118.644 458.036 122.484C450.357 114.384 442.669 127.396 434.973 120.351C427.279 100.64 419.575 123.155 411.868 114.485C404.16 116.428 396.448 113.877 388.732 114.335C381.016 118.001 373.299 101.88 365.58 111.74C357.862 104.764 350.143 120.759 342.426 108.912C341.946 125.167 341.427 117.293 340.863 104.653C339.483 86.5841 337.51 111.193 335.035 84.5441C332.56 85.0108 329.584 56.5081 326.199 73.9521C322.812 78.2455 319.016 67.5522 314.9 58.5375C310.785 57.0122 306.351 61.7868 301.688 50.1988C295.76 43.3268 289.011 49.9882 279.889 33.7242C272.543 38.8482 264.949 26.0148 257.18 24.0828C249.412 30.1108 241.468 46.4375 233.423 17.8348C221.311 -6.09585 209.251 2.62014 197.101 11.2908C184.952 -4.96919 172.713 0.513489 160.245 10.2148C154.2 7.57615 148.135 10.9015 142.067 11.3188C135.999 11.7375 129.928 12.2188 123.869 12.8042C111.753 8.40682 99.6895 17.7548 87.8122 17.8801C79.2175 32.9175 70.6509 26.0548 62.1415 24.3668C53.6322 30.7602 45.1801 22.3322 36.8135 32.1282C26.8095 18.5215 17.5055 80.5308 9.15747 45.1681C2.23214 35.2708 -4.60784 32.7535 -11.3398 31.7735V317.553H805.039Z" fill="#FBF0EA"/>
</svg>
