<svg width="383" height="149" viewBox="0 0 383 149" fill="none" xmlns="http://www.w3.org/2000/svg">
<path d="M382.667 148.932V94.3932C380.52 93.4974 378.373 92.7052 376.227 92.4522C369.307 90.5224 362.383 94.3667 355.452 87.8506C348.523 90.2188 341.588 89.1588 334.645 83.3932C327.744 88.3292 320.873 73.0387 314.016 78.6959C310.588 80.4104 307.164 79.7746 303.74 78.3891C300.317 77.7027 296.896 73.544 293.473 73.584C290.053 73.2454 286.631 76.2587 283.205 71.0054C279.781 62.9627 276.355 69.9414 272.923 68.4827C269.491 57.9067 266.056 64.2027 262.613 66.0694C259.171 64.6147 255.723 64.0587 252.265 63.8187C248.7 63.3107 245.129 60.8014 241.551 60.1147C237.972 61.2974 234.389 49.352 230.799 59.8054C227.209 62.872 223.613 55.696 220.015 57.496C216.415 53.6987 212.811 59.7987 209.204 56.496C205.596 47.256 201.985 57.8094 198.373 53.7467C194.76 54.6574 191.145 53.4627 187.528 53.676C183.912 55.3947 180.295 47.8387 176.676 52.46C173.059 49.1907 169.44 56.688 165.823 51.1347C165.599 58.752 165.355 55.0627 165.089 49.1374C164.444 40.668 163.519 52.204 162.359 39.712C161.199 39.9307 159.804 26.5707 158.217 34.748C156.629 36.7587 154.851 31.748 152.921 27.5227C150.992 26.8067 148.913 29.044 146.728 23.6134C143.948 20.392 140.785 23.5147 136.509 15.8907C133.067 18.2934 129.507 12.2774 125.865 11.3707C122.224 14.196 118.5 21.8507 114.729 8.44269C109.052 -2.77464 103.399 1.31071 97.704 5.37471C92.0093 -2.24663 86.2733 0.324037 80.428 4.8707C77.5947 3.6347 74.752 5.19337 71.908 5.38804C69.0627 5.58404 66.2173 5.80937 63.3773 6.08403C57.6973 4.02403 52.044 8.40536 46.476 8.46403C42.448 15.5134 38.432 12.296 34.444 11.5054C30.4547 14.5014 26.4933 10.5507 22.5707 15.1414C17.8827 8.76404 13.5213 37.8307 9.60801 21.2547C6.36134 16.616 3.156 15.436 0 14.976V148.932H382.667Z" fill="#FAEAE2"/>
</svg>
