<svg width="794" height="277" viewBox="0 0 794 277" fill="none" xmlns="http://www.w3.org/2000/svg">
<path d="M-11.3398 -16.0324V74.0569C-10.5425 75.3969 -9.74384 77.0516 -8.94384 79.0916C-2.65184 88.4196 3.73482 100.333 10.1935 87.4276C16.6535 85.1129 23.1868 92.1342 29.7695 94.0529C36.3522 96.1889 42.9842 97.9556 49.6442 102.948C53.6402 87.4702 57.6455 95.4196 61.6562 100.706C65.6655 96.6102 69.6788 111.206 73.6908 113.117C77.2362 129.209 81.3122 129.58 85.7868 128.826C90.2615 125.446 95.1348 136.152 100.272 133.28C105.411 148.666 110.815 129.726 116.352 135.262C121.888 137.981 127.557 133.161 133.227 132.47C138.896 135.46 143.856 115.39 148.371 121.44C152.885 135.612 156.953 113.968 160.839 105.528C164.723 100.353 168.424 103.454 172.203 90.5329C175.983 94.9022 179.842 68.7996 184.04 76.1942C188.24 62.9182 192.78 67.9676 197.926 63.6249C203.07 49.4462 208.817 49.6489 215.432 50.6862C222.519 52.8489 229.604 53.0876 236.337 45.8436C243.069 36.7436 249.447 47.7716 255.116 50.6862C269.289 63.8262 273.541 71.1395 275.668 84.5835C277.793 101.113 277.794 116.088 283.463 121.71C289.132 116.854 297.636 129.126 307.581 144.893C312.553 154.446 317.885 159.008 323.404 161.07C328.923 163.133 334.628 155.818 340.344 162.258C346.06 163.612 351.788 167.4 357.353 172.434C362.919 181.369 368.323 177.042 373.389 179.468C378.485 196.232 383.388 184.745 388.622 188.83C393.855 187.941 399.472 208.262 405.556 196.348C411.641 205.129 418.194 180.976 425.294 201.354C435.834 197.033 442.204 211.448 446.009 196.63C452.609 206.361 450.949 179.985 449.767 172.505C448.581 170.128 447.873 163.212 456.377 156.145C464.881 147.137 473.208 152.337 481.469 151.984C489.732 153.525 498.075 144.33 506.46 137.365C514.844 133.992 523.271 130.884 531.7 134.73C540.128 137.108 548.559 131.018 556.954 136.717C565.348 142.885 573.705 121.86 581.985 134.757C590.267 135.313 598.471 136.904 606.56 142.024C614.649 133.897 622.623 143.96 630.442 148.132C638.262 141.713 645.926 169.864 653.395 165.386C660.867 161.226 668.143 187.929 675.185 170.92C682.227 177.498 689.037 165.75 695.575 184.616C702.111 178.953 708.377 196.244 714.328 199.19C716.455 201.038 713.62 224.366 708.925 218.661C705.404 202.037 700.836 250.289 696.531 234.574C692.224 216.177 688.18 250.002 685.707 245.409C683.231 224.936 682.327 270.996 684.299 258.538C686.271 266.054 691.12 259.217 700.156 263.757C708.943 261.55 717.93 261.276 727.051 268.222C736.174 281.109 745.434 276.165 754.768 270.562C759.435 273.686 764.119 275.222 768.817 265.964C773.513 271.637 778.223 258.298 782.938 271.637C790.475 271.932 797.836 271.122 805.039 271.289V-16.0324H-11.3398Z" fill="#5B708D"/>
</svg>
