<svg width="383" height="175" viewBox="0 0 383 175" fill="none" xmlns="http://www.w3.org/2000/svg">
<path d="M0 0.734702V65.4147C1.28933 66.3654 2.56667 67.2627 3.83333 67.5974C6.36 74.4347 8.84134 64.2734 11.2893 71.1174C13.7373 71.8027 16.152 70.8961 18.544 75.6134C20.936 77.8001 23.3253 78.1907 25.7747 79.9187C28.344 74.2374 30.8173 77.3107 33.2293 82.2721C35.6427 85.3721 37.9947 85.964 40.3213 87.4187C42.6493 96.0107 44.9507 89.1161 47.264 93.0881C49.576 93.6627 51.9 91.6854 54.2693 95.8241C56.6387 99.2707 59.0533 104.124 61.5507 99.6267C64.0467 104.413 66.6253 103.632 69.32 103.693C70.9533 105.313 72.6573 107.736 74.4173 105.596C75.2867 102.559 76.1707 102.013 77.064 100.332C77.956 99.5454 78.8573 102.013 79.76 106.797C83.7267 112.599 87.704 105.185 91.6853 108.192C95.6667 103.133 99.6533 106.301 103.639 106.661C106.851 104.439 110.049 112.768 113.233 105.235C117.147 104.907 121.077 107.973 125.015 105.32C128.951 105.1 132.892 100.787 136.828 102.491C140.763 102.845 144.689 100.353 148.597 98.952C152.504 97.5507 156.391 97.2401 160.245 101.959C163.321 98.6147 166.379 94.8361 169.421 102.335C171.955 101.439 174.477 106.491 176.991 102.975C180.179 101.761 183.368 107.585 186.56 104.953C189.751 94.6974 192.944 108.588 196.136 107.027C197.731 106.771 199.328 113.609 200.923 112.669C201.721 116.061 202.52 116.341 203.317 116.727C204.115 121.019 204.913 114.919 205.711 109.187C209.395 114.269 213.075 101.201 216.747 111.357C220.417 112.289 224.081 121.896 227.731 113.512C231.381 116.448 235.017 109.793 238.636 115.268C242.255 116.739 245.856 114.463 249.435 118.452C253.013 121.544 256.568 120.247 260.097 121.671C263.625 121.601 267.127 125.115 270.595 124.435C274.064 129.983 277.5 124.756 280.901 128.681C284.301 138.709 287.664 130.715 290.987 131.883C293.643 126.712 296.156 132.292 298.564 134.759C300.972 139.233 303.277 132.752 305.521 138.631C309.548 140.368 311.228 138.283 312.568 146.597C313.907 152.337 314.903 154.343 317.56 155.085C320.217 154.748 323.124 163.197 326.236 161.86C329.347 168.368 332.663 167.505 336.139 166.704C339.616 171.365 343.252 170.108 347.005 171.56C350.757 175.507 354.627 167.36 358.567 171.617C362.508 176.365 366.52 174.245 370.559 171.117C374.583 167.992 378.633 167.163 382.667 172.517V0.734702H0Z" fill="#8D9FBE"/>
</svg>
