<svg width="383" height="138" viewBox="0 0 383 138" fill="none" xmlns="http://www.w3.org/2000/svg">
<path d="M0 0.734673V42.9627C0.373333 43.5907 0.748007 44.3667 1.12401 45.3227C4.07201 49.6947 7.06533 55.28 10.0933 49.2307C13.1213 48.1454 16.184 51.4374 19.2693 52.336C22.3547 53.336 25.464 54.1654 28.5853 56.5054C30.4587 49.2507 32.336 52.9761 34.216 55.4547C36.096 53.5347 37.976 60.376 39.8573 61.272C41.5187 68.8147 43.4293 68.9894 45.528 68.636C47.624 67.052 49.9093 72.0694 52.3173 70.724C54.7253 77.9347 57.2587 69.0574 59.8547 71.652C62.4493 72.9267 65.1067 70.6667 67.764 70.3441C70.4213 71.7454 72.7467 62.3374 74.8627 65.1734C76.9787 71.816 78.8853 61.6707 80.7067 57.7147C82.528 55.288 84.2613 56.7427 86.0333 50.6854C87.8053 52.7334 89.6133 40.4987 91.5827 43.964C93.5507 37.7427 95.6787 40.1093 98.0907 38.0733C100.501 31.4267 103.196 31.5214 106.296 32.008C109.617 33.0214 112.94 33.1334 116.096 29.7387C119.251 25.472 122.241 30.6414 124.899 32.008C131.541 38.1667 133.535 41.5947 134.531 47.8974C135.528 55.6454 135.528 62.664 138.185 65.3C140.843 63.024 144.829 68.776 149.491 76.1667C151.821 80.644 154.32 82.7827 156.907 83.7494C159.495 84.7161 162.168 81.2881 164.848 84.3054C167.527 84.9401 170.212 86.7161 172.82 89.0761C175.429 93.2641 177.963 91.2361 180.336 92.3721C182.725 100.231 185.024 94.8467 187.476 96.7614C189.929 96.344 192.563 105.869 195.416 100.285C198.268 104.401 201.339 93.08 204.667 102.632C209.608 100.607 212.592 107.363 214.377 100.417C217.471 104.979 216.693 92.6147 216.137 89.1094C215.583 87.9947 215.251 84.7534 219.236 81.4414C223.223 77.2187 227.125 79.656 230.999 79.4894C234.871 80.2134 238.781 75.9027 242.712 72.6374C246.643 71.056 250.592 69.6 254.543 71.4027C258.495 72.5174 262.445 69.6627 266.38 72.3334C270.315 75.224 274.232 65.3707 278.113 71.4161C281.996 71.6761 285.841 72.4214 289.633 74.8214C293.424 71.012 297.163 75.728 300.828 77.684C304.492 74.676 308.084 87.8707 311.587 85.7734C315.088 83.8227 318.499 96.3387 321.8 88.3654C325.101 91.4494 328.293 85.944 331.357 94.7854C334.421 92.132 337.359 100.236 340.148 101.617C341.144 102.484 339.816 113.419 337.615 110.744C335.965 102.952 333.824 125.569 331.805 118.203C329.787 109.58 327.891 125.435 326.731 123.281C325.572 113.685 325.147 135.275 326.072 129.436C326.996 132.96 329.269 129.753 333.504 131.883C337.624 130.848 341.836 130.72 346.112 133.976C350.388 140.016 354.728 137.699 359.103 135.072C361.291 136.536 363.487 137.256 365.689 132.917C367.891 135.576 370.097 129.324 372.307 135.576C375.84 135.715 379.291 135.335 382.667 135.413V0.734673H0Z" fill="#526A8A"/>
</svg>
