<svg width="383" height="184" viewBox="0 0 383 184" fill="none" xmlns="http://www.w3.org/2000/svg">
<path d="M0 0.734695V95.5761C2.63067 95.9281 5.30933 95.7347 8.02933 97.2587C12.4173 103.443 16.9107 97.4321 21.4813 99.5974C23.768 100.737 26.072 103.133 28.392 99.5934C30.7133 95.6974 33.0493 96.8187 35.396 99.8014C37.744 100.499 40.1027 104.333 42.4707 100.063C44.836 99.3694 47.212 98.8067 49.5907 100.225C53.82 97.7067 58.0667 94.608 62.3547 99.0854C66.672 97.1254 71.0827 98.7107 75.54 98.2414C79.9973 100.445 84.5 96.9681 89.0013 96.6081C93.5053 92.5627 98.008 95.5614 102.465 94.8694C106.921 95.2054 111.332 92.4627 115.651 94.3494C119.969 94.5081 124.195 94.2161 128.281 96.2107C132.369 102.939 136.319 98.0307 140.084 101.617C144.512 106.412 149.089 101.412 153.759 109.321C156.095 109.723 158.452 109.097 160.828 109.539C163.203 109.981 165.593 111.492 167.995 116.165C170.396 114.969 172.807 118.799 175.221 121.02C177.635 120.535 180.052 124.089 182.464 121.967C184.547 122.135 186.657 121.079 188.791 120.884C190.924 124.972 193.081 122.576 195.259 125.151C198.284 127.369 201.347 126.424 204.441 129.501C207.533 132.287 210.657 134.22 213.801 127.099C216.944 133.997 220.109 134.775 223.284 133.244C226.46 130.116 229.647 128.2 232.835 126.232C236.024 123.757 239.215 123.521 242.397 127.056C245.581 132.375 248.756 124.809 251.916 122.617C255.707 117.913 259.473 126.605 263.203 119.153C266.359 108.657 269.324 119.279 272.112 119.041C274.901 118.38 277.512 121.423 279.959 121.729C284.853 123.48 289.092 122.213 292.785 128.136C294.016 123.12 295.185 132.684 296.299 135.997C297.412 144.549 298.468 141.187 299.472 134.067C300.184 130.293 301.103 131.016 302.212 139.687C303.32 139.823 304.617 148.705 306.088 149.276C307.557 158.541 309.201 157.464 311 156.3C312.799 161.323 314.752 153.163 316.845 160.819C318.939 156.731 321.169 161.069 323.524 164.001C325.877 167.801 328.352 159.151 330.932 169.421C334.803 164.097 338.908 177.72 343.192 174.087C347.476 172.856 351.94 165.401 356.524 178.408C358.816 179.612 361.139 174.305 363.485 177.968C365.831 174.751 368.2 181.943 370.585 181.993C372.971 181.087 375.372 182.599 377.783 180.12C379.407 182.735 381.036 183.355 382.667 183.904V0.734695H0Z" fill="#ADC3D3"/>
</svg>
