<svg width="794" height="458" viewBox="0 0 794 458" fill="none" xmlns="http://www.w3.org/2000/svg">
<path d="M159.247 327.719C141.941 323.731 123.16 335.371 103.913 324.56C84.6668 342.983 64.9562 319.495 45.7935 317.042C26.6308 311.939 8.01616 291.33 -9.03717 318.366C-9.80517 319.419 -10.5732 320.227 -11.3398 320.866V473.554H319.186C327.712 467.266 337.075 462.322 347 458.894C362.331 464.45 378.97 434.675 395.804 444.114C412.642 437.926 429.675 442.14 445.796 431.22C453.345 434.218 461.822 435.139 471.708 423.588C480.535 414.691 489.363 418.704 498.19 425.915C507.016 419.108 515.841 432.575 524.664 422.696C533.489 420.686 542.311 420.523 551.129 424.831C559.947 422.766 568.764 419.99 577.576 422.699C595.2 431.952 612.807 412.542 630.391 421.366C647.976 418.246 665.538 427.734 683.066 416.47C692.624 417.099 702.105 422.807 711.515 413.987C730.335 429.151 748.945 428.164 767.155 406.463C780.005 407.148 792.656 404.116 805.039 398.564V58.3109C803.671 57.9403 802.305 57.5376 800.94 57.067C791.209 54.6496 781.48 69.8576 771.755 56.1149C762.708 63.5483 753.832 57.9536 745.092 50.1363C736.349 48.071 727.74 38.9829 719.219 48.6429C710.7 54.7736 702.27 34.2736 693.887 43.9549C685.504 40.5803 677.17 49.9083 668.84 33.911C660.512 49.919 652.188 28.5296 643.83 23.9189C635.47 12.2083 627.074 24.1603 618.599 18.3229C609.418 25.4349 600.363 16.1803 591.386 14.7496C573.472 2.24562 556.681 -12.9104 540.647 19.939C532.628 25.0496 524.799 28.7216 517.112 31.6243C509.427 25.4696 501.883 44.4829 494.436 38.6949C486.988 51.4349 479.636 55.7563 472.335 52.251C465.035 57.1083 457.783 47.0669 450.538 65.1096C443.29 70.9616 436.048 82.2496 428.763 80.4416C421.479 98.383 414.151 99.1363 406.736 93.2696C398.732 117.41 390.807 100.947 382.934 104.467C375.062 121.708 367.24 92.6096 359.445 99.9523C351.652 93.807 343.884 81.4723 336.115 92.8403C328.347 84.3309 320.579 76.8976 312.784 78.2603C304.99 80.2669 297.168 87.9616 289.296 66.595C286.068 72.5123 282.831 70.275 279.583 66.2843C280.536 65.239 281.49 64.0336 282.443 62.7363C276.794 67.0683 270.967 50.3949 265.013 51.9203C259.059 50.4909 252.976 33.8483 246.815 54.3963C240.653 58.6229 234.413 69.9509 228.14 63.7643C221.868 88.2683 215.567 56.1656 209.282 54.3096C199.67 44.6083 189.239 47.7883 178.913 56.9269C173.752 29.7376 168.618 55.1189 163.622 53.7176C158.626 50.1723 153.767 36.6803 149.16 61.711C142.233 62.883 135.352 65.083 128.484 67.619C121.616 55.915 114.762 101.692 107.888 73.8016C101.891 87.4456 95.8868 89.9229 89.8788 79.0243C83.8695 80.1469 77.8548 83.4576 71.8362 84.1416C70.4055 61.4843 68.9735 74.2976 67.5428 85.3336C66.7615 79.6349 65.8282 77.495 64.7242 85.499C57.3215 96.367 49.9148 63.5003 42.5095 86.0576C35.5775 85.3496 28.6442 77.5816 21.7108 88.8749C14.7775 87.4776 7.84549 75.3883 0.913493 86.2976C-3.17184 79.3283 -7.25584 83.7056 -11.3398 86.5603V217.082C-1.68651 216.58 7.95749 215.882 17.6402 213.656C33.2295 204.938 48.9228 231.303 64.9308 209.854C80.9388 220.068 95.6908 212.587 109.709 218.488C123.729 218.595 137.016 251.92 150.095 238.228C163.172 245.751 176.041 254.408 189.223 259.818C196.285 279.426 204.053 274.939 212.175 268.144C220.296 268.615 228.771 261.779 237.245 268.144C229.901 281.77 219.054 289.34 205.716 313.314C192.379 324.964 176.552 329.376 159.247 327.719Z" fill="#F6D7C5"/>
</svg>
